<svg width="208" height="49" viewBox="0 0 208 49" fill="none" xmlns="http://www.w3.org/2000/svg">
<path d="M39.4139 8.21755e-05L24.2254 0.0660573C19.0704 0.0874546 14.9104 4.2849 14.9336 9.43809L14.9906 22.692L1.92222 22.749C0.855918 22.7526 -0.00532455 23.621 2.47849e-05 24.6855L0.0321208 32.1103C0.0374701 33.1766 0.904062 34.0361 1.97036 34.0308L15.0762 33.9737L15.1333 47.0796C15.1386 48.1459 16.0052 49.0053 17.0715 49L24.4964 48.9679C25.5627 48.9625 26.4222 48.0959 26.4168 47.0296L26.3598 33.9077L39.5601 33.8507C44.7151 33.8293 48.8751 29.6318 48.8519 24.4786L48.786 9.29009C48.7646 4.13868 44.5671 -0.0213152 39.4139 8.21755e-05ZM37.5327 20.6307C37.5381 21.697 36.6768 22.5636 35.6123 22.5689L28.2213 22.601C27.155 22.6064 26.2884 21.7451 26.2831 20.6806L26.251 13.2896C26.2456 12.2233 27.1069 11.3567 28.1714 11.3514L35.5624 11.3193C36.6287 11.3139 37.4953 12.1752 37.5006 13.2397L37.5327 20.6307Z" fill="#0070F0"/>
<path d="M76.7996 42.1H70.0996V6.6H76.7496V7.95C78.9163 6.65 80.8163 6 82.4496 6C84.1496 6 85.6163 6.25 86.8496 6.75C88.0829 7.21667 89.0996 7.98333 89.8996 9.05C90.6996 10.0833 91.2996 11.45 91.6996 13.15C92.0996 14.85 92.2996 16.9 92.2996 19.3C92.2996 21.7 92.0829 23.7333 91.6496 25.4C91.2163 27.0333 90.5329 28.3667 89.5996 29.4C88.6996 30.4 87.5329 31.1167 86.0996 31.55C84.6663 31.9833 82.9496 32.2 80.9496 32.2C79.8496 32.2 78.6663 32.1 77.3996 31.9L76.7996 31.8V42.1ZM81.1496 12C79.9163 12 78.6663 12.25 77.3996 12.75L76.7996 13V26.1C78.2996 26.3 79.5163 26.4 80.4496 26.4C82.3829 26.4 83.6996 25.8333 84.3996 24.7C85.1329 23.5667 85.4996 21.6333 85.4996 18.9C85.4996 14.3 84.0496 12 81.1496 12Z" fill="#0070F0"/>
<path d="M103.997 31.6H97.2969V6.6H103.947V9.25C106.814 7.58333 109.48 6.5 111.947 6V12.75C110.58 13.0167 109.314 13.3 108.147 13.6C107.014 13.9 105.964 14.2 104.997 14.5L103.997 14.85V31.6Z" fill="#0070F0"/>
<path d="M126.1 6C130.234 6 133.184 7.15 134.95 9.45C136.717 11.7167 137.6 14.9167 137.6 19.05C137.6 27.8167 133.767 32.2 126.1 32.2C118.434 32.2 114.6 27.8167 114.6 19.05C114.6 17.05 114.8 15.25 115.2 13.65C115.6 12.05 116.25 10.6833 117.15 9.55C118.05 8.41667 119.234 7.55 120.7 6.95C122.167 6.31667 123.967 6 126.1 6ZM126.1 26.5C127.9 26.5 129.134 25.9167 129.8 24.75C130.467 23.55 130.8 21.65 130.8 19.05C130.8 16.45 130.467 14.5833 129.8 13.45C129.134 12.2833 127.9 11.7 126.1 11.7C124.3 11.7 123.067 12.2833 122.4 13.45C121.734 14.5833 121.4 16.45 121.4 19.05C121.4 19.9167 121.434 20.8 121.5 21.7C121.6 22.5667 121.8 23.3667 122.1 24.1C122.434 24.8 122.9 25.3833 123.5 25.85C124.134 26.2833 125 26.5 126.1 26.5Z" fill="#0070F0"/>
<path d="M160.562 7.3L160.462 12.85C158.362 12.5833 156.595 12.3833 155.162 12.25C153.762 12.1167 152.645 12.05 151.812 12.05C150.145 12.05 149.078 12.2 148.612 12.5C148.112 12.8 147.862 13.2667 147.862 13.9C147.862 14.5333 148.195 14.9833 148.862 15.25C149.195 15.3833 149.762 15.55 150.562 15.75C151.395 15.9167 152.495 16.1167 153.862 16.35C155.195 16.5833 156.328 16.9 157.262 17.3C158.195 17.6667 158.962 18.15 159.562 18.75C160.162 19.35 160.595 20.0833 160.862 20.95C161.128 21.8167 161.262 22.8667 161.262 24.1C161.262 29.5 157.912 32.2 151.212 32.2C149.045 32.2 146.378 31.9 143.212 31.3L141.612 31L141.812 25.4C143.912 25.6667 145.662 25.8667 147.062 26C148.495 26.1333 149.628 26.2 150.462 26.2C152.095 26.2 153.195 26.0333 153.762 25.7C154.328 25.4 154.612 24.9333 154.612 24.3C154.612 23.6667 154.312 23.2 153.712 22.9C153.112 22.6333 151.512 22.2667 148.912 21.8C147.612 21.6 146.478 21.3333 145.512 21C144.545 20.6333 143.745 20.1667 143.112 19.6C142.478 19 141.995 18.2667 141.662 17.4C141.362 16.5 141.212 15.3833 141.212 14.05C141.212 12.7167 141.445 11.55 141.912 10.55C142.412 9.55 143.078 8.71667 143.912 8.05C144.778 7.38333 145.795 6.88333 146.962 6.55C148.162 6.21667 149.462 6.05 150.862 6.05C151.828 6.05 152.978 6.13333 154.312 6.3C155.678 6.43333 157.212 6.66667 158.912 7L160.562 7.3Z" fill="#0070F0"/>
<path d="M172.796 42.1H166.096V6.6H172.746V7.95C174.912 6.65 176.812 6 178.446 6C180.146 6 181.612 6.25 182.846 6.75C184.079 7.21667 185.096 7.98333 185.896 9.05C186.696 10.0833 187.296 11.45 187.696 13.15C188.096 14.85 188.296 16.9 188.296 19.3C188.296 21.7 188.079 23.7333 187.646 25.4C187.212 27.0333 186.529 28.3667 185.596 29.4C184.696 30.4 183.529 31.1167 182.096 31.55C180.662 31.9833 178.946 32.2 176.946 32.2C175.846 32.2 174.662 32.1 173.396 31.9L172.796 31.8V42.1ZM177.146 12C175.912 12 174.662 12.25 173.396 12.75L172.796 13V26.1C174.296 26.3 175.512 26.4 176.446 26.4C178.379 26.4 179.696 25.8333 180.396 24.7C181.129 23.5667 181.496 21.6333 181.496 18.9C181.496 14.3 180.046 12 177.146 12Z" fill="#0070F0"/>
<path d="M199.993 31.6H193.293V6.6H199.943V9.25C202.81 7.58333 205.476 6.5 207.943 6V12.75C206.576 13.0167 205.31 13.3 204.143 13.6C203.01 13.9 201.96 14.2 200.993 14.5L199.993 14.85V31.6Z" fill="#0070F0"/>
</svg>
