<svg width="43" height="43" viewBox="0 0 43 43" fill="none" xmlns="http://www.w3.org/2000/svg">
<path d="M34.0148 0.461618L20.9069 0.517961C16.458 0.536234 12.8679 4.12086 12.8879 8.5217L12.9371 19.8405L1.6589 19.8893C0.73867 19.8923 -0.00459516 20.6339 2.13897e-05 21.543L0.0277207 27.8839C0.0323373 28.7945 0.780219 29.5285 1.70045 29.5239L13.011 29.4752L13.0602 40.6676C13.0649 41.5783 13.8127 42.3122 14.733 42.3077L21.1408 42.2803C22.061 42.2757 22.8027 41.5356 22.7981 40.625L22.7489 29.4188L34.141 29.3701C38.5898 29.3518 42.1799 25.7672 42.1599 21.3664L42.103 8.39531C42.0845 3.996 38.4621 0.443345 34.0148 0.461618ZM32.3913 18.0802C32.3959 18.9908 31.6526 19.7309 30.734 19.7355L24.3554 19.7629C23.4352 19.7675 22.6873 19.0319 22.6827 18.1228L22.655 11.8109C22.6504 10.9003 23.3936 10.1602 24.3123 10.1557L30.6909 10.1282C31.6111 10.1237 32.359 10.8592 32.3636 11.7683L32.3913 18.0802Z" fill="#0070F0"/>
</svg>
