<svg width="186" height="48" viewBox="0 0 186 48" fill="none" xmlns="http://www.w3.org/2000/svg">
<g clip-path="url(#clip0)">
<path d="M34.0148 2.46162L20.9069 2.51796C16.458 2.53623 12.8679 6.12086 12.8879 10.5217L12.9371 21.8405L1.6589 21.8893C0.73867 21.8923 -0.00459516 22.6339 2.13897e-05 23.543L0.0277207 29.8839C0.0323373 30.7945 0.780219 31.5285 1.70045 31.5239L13.011 31.4752L13.0602 42.6676C13.0649 43.5783 13.8127 44.3122 14.733 44.3077L21.1408 44.2803C22.061 44.2757 22.8027 43.5356 22.7981 42.625L22.7489 31.4188L34.141 31.3701C38.5898 31.3518 42.1799 27.7672 42.1599 23.3664L42.103 10.3953C42.0845 5.996 38.4621 2.44334 34.0148 2.46162ZM32.3913 20.0802C32.3959 20.9908 31.6526 21.7309 30.734 21.7355L24.3554 21.7629C23.4352 21.7675 22.6873 21.0319 22.6827 20.1228L22.655 13.8109C22.6504 12.9003 23.3936 12.1602 24.3123 12.1557L30.6909 12.1282C31.6111 12.1237 32.359 12.8592 32.3636 13.7683L32.3913 20.0802Z" fill="#0070F0"/>
<path d="M69.8795 9.84619C73.5594 9.84619 76.2393 10.6469 77.9193 12.2484C79.6259 13.8231 80.4792 15.9984 80.4792 18.7743C80.4792 20.4291 80.1326 21.9905 79.4393 23.4585C78.7459 24.8998 77.586 26.0609 75.9594 26.9417C74.3594 27.8225 72.1728 28.2629 69.3995 28.2629H66.7996V38.4321H60.7598V9.84619H69.8795ZM69.5595 14.8107H66.7996V23.2984H68.7995C70.5062 23.2984 71.8528 22.9647 72.8394 22.2975C73.8527 21.6035 74.3594 20.4958 74.3594 18.9745C74.3594 16.1986 72.7594 14.8107 69.5595 14.8107Z" fill="#0070F0"/>
<path d="M97.4085 16.1719C97.7018 16.1719 98.0484 16.1853 98.4484 16.212C98.8484 16.2386 99.1684 16.2787 99.4084 16.3321L98.9684 21.9371C98.7817 21.8838 98.5018 21.8437 98.1284 21.817C97.7818 21.7636 97.4751 21.737 97.2085 21.737C96.1951 21.737 95.2218 21.9238 94.2885 22.2975C93.3552 22.6444 92.5953 23.2183 92.0086 24.019C91.4486 24.8197 91.1686 25.9141 91.1686 27.302V38.4321H85.2088V16.5723H89.7287L90.6086 20.2556H90.8886C91.5286 19.1346 92.4086 18.1737 93.5286 17.373C94.6485 16.5723 95.9418 16.1719 97.4085 16.1719Z" fill="#0070F0"/>
<path d="M122.243 27.4621C122.243 31.0921 121.283 33.8946 119.363 35.8697C117.47 37.8449 114.883 38.8324 111.603 38.8324C109.577 38.8324 107.763 38.392 106.164 37.5112C104.59 36.6304 103.35 35.3493 102.444 33.6677C101.537 31.9595 101.084 29.891 101.084 27.4621C101.084 23.8322 102.03 21.043 103.924 19.0946C105.817 17.1461 108.417 16.1719 111.723 16.1719C113.777 16.1719 115.59 16.6123 117.163 17.4931C118.737 18.3739 119.976 19.6551 120.883 21.3366C121.79 22.9914 122.243 25.0333 122.243 27.4621ZM107.163 27.4621C107.163 29.6241 107.51 31.2656 108.203 32.3866C108.923 33.4809 110.083 34.0281 111.683 34.0281C113.257 34.0281 114.39 33.4809 115.083 32.3866C115.803 31.2656 116.163 29.6241 116.163 27.4621C116.163 25.3002 115.803 23.6854 115.083 22.6178C114.39 21.5234 113.243 20.9763 111.643 20.9763C110.07 20.9763 108.923 21.5234 108.203 22.6178C107.51 23.6854 107.163 25.3002 107.163 27.4621Z" fill="#0070F0"/>
<path d="M142.221 31.9462C142.221 34.1615 141.434 35.8697 139.861 37.0708C138.314 38.2452 135.994 38.8324 132.901 38.8324C131.381 38.8324 130.074 38.7257 128.981 38.5121C127.888 38.3253 126.794 38.005 125.701 37.5513V32.6268C126.874 33.1606 128.141 33.601 129.501 33.948C130.861 34.295 132.061 34.4685 133.101 34.4685C134.274 34.4685 135.101 34.295 135.581 33.948C136.087 33.601 136.341 33.1473 136.341 32.5868C136.341 32.2131 136.234 31.8795 136.021 31.5859C135.834 31.2923 135.408 30.9586 134.741 30.585C134.074 30.2113 133.034 29.7309 131.621 29.1437C130.261 28.5565 129.141 27.9826 128.261 27.4221C127.381 26.8349 126.728 26.1409 126.301 25.3402C125.874 24.5128 125.661 23.4852 125.661 22.2574C125.661 20.2289 126.448 18.7075 128.021 17.6933C129.594 16.679 131.688 16.1719 134.301 16.1719C135.661 16.1719 136.954 16.3054 138.181 16.5723C139.407 16.8392 140.674 17.2796 141.981 17.8935L140.181 22.1774C139.114 21.7236 138.101 21.3499 137.141 21.0563C136.181 20.736 135.208 20.5759 134.221 20.5759C132.461 20.5759 131.581 21.0563 131.581 22.0172C131.581 22.3642 131.688 22.6845 131.901 22.9781C132.141 23.245 132.581 23.5386 133.221 23.8589C133.888 24.1792 134.861 24.6062 136.141 25.14C137.394 25.6472 138.474 26.181 139.381 26.7415C140.287 27.2753 140.981 27.9559 141.461 28.7833C141.967 29.5841 142.221 30.6383 142.221 31.9462Z" fill="#0070F0"/>
<path d="M158.836 16.1719C161.289 16.1719 163.275 17.1328 164.795 19.0545C166.315 20.9496 167.075 23.7521 167.075 27.4621C167.075 31.1722 166.289 34.0014 164.715 35.9498C163.142 37.8716 161.129 38.8324 158.676 38.8324C157.102 38.8324 155.849 38.5522 154.916 37.9917C153.982 37.4045 153.222 36.7505 152.636 36.0299H152.316C152.529 37.1509 152.636 38.2185 152.636 39.2328V45.5385H146.676V16.5723H151.516L152.356 19.4149H152.636C153.222 18.5341 154.009 17.7734 154.996 17.1328C155.982 16.4922 157.262 16.1719 158.836 16.1719ZM156.916 20.9362C155.369 20.9362 154.276 21.4167 153.636 22.3775C153.022 23.3384 152.689 24.8064 152.636 26.7815V27.4221C152.636 29.5307 152.942 31.1588 153.556 32.3065C154.196 33.4275 155.342 33.988 156.996 33.988C158.356 33.988 159.356 33.4275 159.995 32.3065C160.662 31.1588 160.995 29.5173 160.995 27.3821C160.995 23.0848 159.636 20.9362 156.916 20.9362Z" fill="#0070F0"/>
<path d="M184 16.1719C184.293 16.1719 184.64 16.1853 185.04 16.212C185.44 16.2386 185.76 16.2787 186 16.3321L185.56 21.9371C185.373 21.8838 185.093 21.8437 184.72 21.817C184.373 21.7636 184.067 21.737 183.8 21.737C182.787 21.737 181.813 21.9238 180.88 22.2975C179.947 22.6444 179.187 23.2183 178.6 24.019C178.04 24.8197 177.76 25.9141 177.76 27.302V38.4321H171.8V16.5723H176.32L177.2 20.2556H177.48C178.12 19.1346 179 18.1737 180.12 17.373C181.24 16.5723 182.533 16.1719 184 16.1719Z" fill="#0070F0"/>
</g>
<defs>
<clipPath id="clip0">
<rect width="186" height="48" fill="white"/>
</clipPath>
</defs>
</svg>
