<svg width="24" height="24" viewBox="0 0 24 24" fill="none" xmlns="http://www.w3.org/2000/svg">
<path d="M5.99864 10H7.2583C7.63233 8.551 8.40519 7.23599 9.48905 6.2044C10.5729 5.1728 11.9243 4.46599 13.3897 4.16428C14.8551 3.86256 16.3757 3.97804 17.7788 4.49759C19.1819 5.01714 20.4111 5.91993 21.3268 7.10338C22.2426 8.28683 22.8081 9.70348 22.9591 11.1924C23.1102 12.6812 22.8407 14.1826 22.1813 15.526C21.5219 16.8693 20.499 18.0007 19.2289 18.7916C17.9588 19.5824 16.4923 20.0011 14.9962 20H5.99864C4.67292 20 3.4015 19.4732 2.46407 18.5355C1.52664 17.5979 0.999999 16.3261 0.999999 15C0.999999 13.6739 1.52664 12.4021 2.46407 11.4645C3.4015 10.5268 4.67292 10 5.99864 10Z" stroke="#0070F0" stroke-width="1.5" stroke-linecap="round" stroke-linejoin="round"/>
</svg>
