<svg><defs><font id="NotoSans-Italic" horiz-adv-x="2800" vert-adv-y="2800"><font-face font-family="Noto Sans" font-weight="400" ascent="1069" descent="-293"/><glyph glyph-name="uni21" unicode="!" d="m77 201 91 513h107L148 201H77M73-14q-53 0-53 54 0 32 18 56.5T95 121q23 0 37-14t14-40q0-29-18-55T73-14z" horiz-adv-x="261" vert-adv-y="1000"/><glyph glyph-name="uni22" unicode="&quot;" d="m281 456 35 258h96l-75-258h-56m-172 0 35 258h96l-75-258h-56z" horiz-adv-x="392" vert-adv-y="1000"/><glyph glyph-name="uni23" unicode="#" d="m97 0 59 209H30l6 66h139l48 162H89l6 65h146l60 212h72l-61-212h144l62 212h68l-60-212h128l-7-65H506l-47-162h138l-6-66H440L380 0h-72l63 209H227L166 0H97m149 275h144l45 162H292l-46-162z" horiz-adv-x="646" vert-adv-y="1000"/><glyph glyph-name="uni24" unicode="$" d="m166-58 24 108q-41 2-83 11.5T34 86v80q39-20 85-31.5t85-12.5l47 215q-61 23-96.5 57.5T119 492q0 56 26.5 94.5t72.5 60Q264 668 321 673l19 85h65l-18-86q38-3 73-12t65-25l-33-71q-23 13-54.5 23.5T372 600l-45-209q68-25 102.5-59t34.5-92q0-58-28-97.5t-75-62Q314 58 255 51L231-58h-65m101 472 39 186q-47-5-76.5-31T200 494q0-26 16.5-46.5T267 414m3-289q46 6 78 33.5t32 74.5q0 26-16 46t-53 35l-41-189z" horiz-adv-x="551" vert-adv-y="1000"/><glyph glyph-name="uni25" unicode="%" d="M195 276q-55 0-85 37T80 421q0 29 5 68t17.5 80q12.5 41 34 76.5t54.5 57q33 21.5 79 21.5 57 0 87-35.5T387 587q0-27-5.5-66.5t-18.5-82Q350 396 327.5 359t-55-60Q240 276 195 276M113 0l530 714h78L191 0h-78m89 342q26 0 45.5 19.5t32.5 50q13 30.5 20.5 63.5t11 62q3.5 29 3.5 44 0 41-13 59.5T264 659q-26 0-45-18t-32-46q-13-28-20.5-60.5t-11-62.5q-3.5-30-3.5-50 0-80 50-80M562-10q-55 0-85 37t-30 107q0 30 5 69.5t17.5 80.5q12.5 41 34.5 76t54.5 56.5Q591 438 637 438q58 0 88-35.5T755 302q0-27-6-66.5t-19-82q-13-42.5-35-80T640 13q-33-23-78-23m7 66q26 0 45.5 19.5t32.5 50q13 30.5 20.5 64t11 62Q682 280 682 295q0 41-13 59.5T631 373q-26 0-45-18t-31.5-46q-12.5-28-20-60.5t-11-62.5q-3.5-30-3.5-50 0-80 49-80z" horiz-adv-x="799" vert-adv-y="1000"/><glyph glyph-name="uni26" unicode="&amp;" d="M216-10q-81 0-132.5 45.5T32 168q0 80 49 132t141 96q-20 32-34.5 69.5T173 545q0 51 22.5 91.5T261 701q43 24 104 24 73 0 116-38.5T524 582q0-50-26.5-86t-71-64Q382 404 330 378l132-184q33 28 56 66t39 78h88q-25-62-60-112.5T506 133L605 0H501l-55 78q-47-38-100.5-63T216-10m79 443q31 16 64.5 35.5T416 514q23 26 23 61t-20 57q-20 22-58 22-49 0-76.5-29T257 545q0-59 38-112M233 63q53 0 93 21.5t78 51.5L259 342q-37-19-68.5-41T139 248.5Q119 218 119 174q0-51 32-81t82-30z" horiz-adv-x="673" vert-adv-y="1000"/><glyph glyph-name="uni27" unicode="'" d="m109 456 35 258h96l-75-258h-56z" horiz-adv-x="220" vert-adv-y="1000"/><glyph glyph-name="uni28" unicode="(" d="M112-158Q78-97 59-23.5T40 133q0 179 64 319t182 262h81q-71-78-126-168.5t-86-193Q124 250 124 134q0-87 14.5-158.5T180-158h-68z" horiz-adv-x="290" vert-adv-y="1000"/><glyph glyph-name="uni29" unicode=")" d="M-77-158Q-6-80 48.5 10.5t85.5 193Q165 306 165 422q0 86-14 158t-41 134h68q34-62 52.5-135.5T249 422q0-178-63.5-318.5T3-158h-80z" horiz-adv-x="290" vert-adv-y="1000"/><glyph glyph-name="uni2a" unicode="*" d="m372 300-54 195-123-165-61 61 149 137-180 53 28 78 180-89 20 193 87-17-59-186 204 10-4-82-190 23 87-185-84-26z" horiz-adv-x="551" vert-adv-y="1000"/><glyph glyph-name="uni2b" unicode="+" d="M341 388h199v-71H341V111h-72v206H70v71h199v207h72V388z" horiz-adv-x="572" vert-adv-y="1000"/><glyph glyph-name="uni2c" unicode="," d="M-43-129Q-17-70 10-3t46 119h96l4-11Q131 52 95-11T24-129h-67z" horiz-adv-x="256" vert-adv-y="1000"/><glyph glyph-name="uni2d" unicode="-" d="m26 227 18 81h236l-18-81H26z" horiz-adv-x="313" vert-adv-y="1000"/><glyph glyph-name="uni2e" unicode="." d="M72-14q-52 0-52 52 0 33 18.5 58T97 121q22 0 35.5-13.5T146 68q0-31-18-56.5T72-14z" horiz-adv-x="256" vert-adv-y="1000"/><glyph glyph-name="uni2f" unicode="/" d="m-46 0 397 714h90L45 0h-91z" horiz-adv-x="356" vert-adv-y="1000"/><glyph glyph-name="uni30" unicode="0" d="M236-10q-88 0-133.5 63T57 233q0 59 10 126t31.5 131.5Q120 555 155 608t84.5 85Q289 725 354 725q92 0 136-59.5T534 495q0-72-11-144t-33.5-137Q467 149 432 98.5T348 19q-49-29-112-29m10 75q40 0 71.5 26t55 70.5Q396 206 412 262t24 116.5q8 60.5 8 118.5 0 74-23.5 113.5T349 650q-38 0-70-25.5t-56.5-69Q198 512 181 458t-26-112.5q-9-58.5-9-112.5 0-81 24-124.5T246 65z" horiz-adv-x="551" vert-adv-y="1000"/><glyph glyph-name="uni31" unicode="1" d="m202 0 95 442q10 46 21.5 94.5T339 614q-15-16-31-28t-36-25l-88-55-41 66 224 142h77L291 0h-89z" horiz-adv-x="551" vert-adv-y="1000"/><glyph glyph-name="uni32" unicode="2" d="m3 0 16 75 227 205q66 60 108 102t62 80q20 38 20 85 0 45-27.5 73.5T330 649q-44 0-81-18t-72-44l-42 60q41 33 91 55t114 22q91 0 139.5-45.5T528 561q0-58-22-105.5T434 355q-50-53-132-125L134 84v-4h326L445 0H3z" horiz-adv-x="551" vert-adv-y="1000"/><glyph glyph-name="uni33" unicode="3" d="M210-10Q152-10 106.5.5T22 29v85q35-20 86-35t103-15q80 0 123 38.5T377 206q0 62-37.5 94T233 332h-64l15 73h65q50 0 92.5 17.5t68 51.5q25.5 34 25.5 81 0 46-28.5 70.5T333 650q-46 0-84.5-16T173 592l-41 62q41 30 91.5 50T341 724q90 0 137-44t47-114q0-76-49-129t-136-69v-4q57-10 93.5-50T470 210q0-56-27-106.5t-84-82Q302-10 210-10z" horiz-adv-x="551" vert-adv-y="1000"/><glyph glyph-name="uni34" unicode="4" d="m288 0 35 162H6l15 80 403 472h101l-99-474h110l-17-78H408L373 0h-85M111 240h229l36 171q8 37 18.5 77.5t21 76.5q10.5 36 16.5 59h-4q-8-13-21-31t-26-35q-13-17-21-27L111 240z" horiz-adv-x="551" vert-adv-y="1000"/><glyph glyph-name="uni35" unicode="5" d="M200-10q-97 0-163 39v85q36-22 77.5-36T200 64q70 0 113 24t62.5 63.5Q395 191 395 237q0 61-36 95.5T261 367q-30 0-56-5t-58-13l-37 29 97 336h329l-17-80H266l-60-207q18 4 39 7t48 3q89 0 141.5-50.5T487 248q0-45-14.5-90.5t-47-83.5q-32.5-38-88-61T200-10z" horiz-adv-x="551" vert-adv-y="1000"/><glyph glyph-name="uni36" unicode="6" d="M251-10q-84 0-136 53.5T63 209q0 69 16 148t50 151q34 72 87 124 43 44 102 68t136 24q54 0 92-11l-18-76q-16 5-36.5 8.5T444 649q-95 0-167.5-66T169 366h4q29 38 71 60.5t94 22.5q74 0 118-47t44-133q0-50-15-99.5t-45.5-90Q409 39 362 14.5T251-10m9 74q49 0 83 28t52 73q18 45 18 96 0 56-26 86.5T308 378q-36 0-66-16t-51-39q-21-23-29-44-7-16-9.5-36t-2.5-40q0-36 11-67.5T196 84q24-20 64-20z" horiz-adv-x="551" vert-adv-y="1000"/><glyph glyph-name="uni37" unicode="7" d="m81 0 373 636H107l16 78h439l-13-70L176 0H81z" horiz-adv-x="551" vert-adv-y="1000"/><glyph glyph-name="uni38" unicode="8" d="M246-10q-69 0-113.5 24.5t-66 65Q45 120 45 169q0 77 50 129t139 86q-38 28-61.5 63T149 537q0 59 28 101t76.5 64.5Q302 725 361 725q65 0 105.5-22.5T525 644q18-36 18-77 0-53-23.5-89.5t-61.5-62Q420 390 376 372q52-32 82.5-73T489 193q0-53-25.5-99.5t-79.5-75Q330-10 246-10m69 422q68 26 103.5 59.5T454 558q0 43-27 68t-73 25q-53 0-85.5-30.5T236 537q0-45 22-74t57-51M255 63q50 0 82 18.5t47 48q15 29.5 15 61.5 0 48-25.5 83.5T296 339q-45-15-81.5-35T157 252.5Q136 221 136 174q0-52 33-81.5T255 63z" horiz-adv-x="551" vert-adv-y="1000"/><glyph glyph-name="uni39" unicode="9" d="M165-10q-30 0-61.5 4.5T47 7v81q27-9 56-15.5t64-6.5q100 0 159.5 69T416 343h-5q-25-35-64.5-56.5T259 265q-83 0-127.5 48.5T87 454q0 72 30 133.5t86 99Q259 724 336 724q88 0 137-55.5T522 504q0-52-9-110.5t-26-116Q470 220 445 170t-56-85q-46-51-102.5-73T165-10m112 346q47 0 85 25t59 71q14 34 14 84 0 59-27 96.5T331 650q-50 0-85-26t-53.5-70Q174 510 174 458q0-58 26-90t77-32z" horiz-adv-x="551" vert-adv-y="1000"/><glyph glyph-name="uni3a" unicode=":" d="M151 415q-52 0-52 51 0 34 18.5 59t58.5 25q22 0 35.5-13t13.5-40q0-31-18.5-56.5T151 415M72-14q-52 0-52 52 0 33 18.5 58T97 121q22 0 35.5-13.5T146 68q0-31-18-56.5T72-14z" horiz-adv-x="256" vert-adv-y="1000"/><glyph glyph-name="uni3b" unicode=";" d="M151 415q-52 0-52 51 0 34 18.5 59t58.5 25q22 0 35.5-13t13.5-40q0-31-18.5-56.5T151 415M-49-129Q-23-70 4-3t46 119h96l4-11Q125 52 89-11T18-129h-67z" horiz-adv-x="256" vert-adv-y="1000"/><glyph glyph-name="uni3c" unicode="&lt;" d="M541 116 70 323v50l471 235v-78L164 352l377-158v-78z" horiz-adv-x="572" vert-adv-y="1000"/><glyph glyph-name="uni3d" unicode="=" d="M76 416v71h458v-71H76m0-199v71h458v-71H76z" horiz-adv-x="572" vert-adv-y="1000"/><glyph glyph-name="uni3e" unicode="&gt;" d="m70 194 377 157L70 530v78l471-235v-50L70 116v78z" horiz-adv-x="572" vert-adv-y="1000"/><glyph glyph-name="uni3f" unicode="?" d="M127 201q7 43 20.5 75t37 59q23.5 27 59.5 56 32 25 59.5 48t44.5 51q17 28 17 66 0 44-24 68t-70 24q-38 0-74.5-12.5T127 607l-32 67q41 22 90 36t96 14q79 0 126-39t47-118q0-67-36.5-117T311 348q-39-28-60.5-48t-33-42Q206 236 198 201h-71m2-215q-52 0-52 52 0 33 18.5 58t58.5 25q22 0 35.5-13.5T203 68q0-31-18.5-56.5T129-14z" horiz-adv-x="430" vert-adv-y="1000"/><glyph glyph-name="uni40" unicode="@" d="M385-91q-101 0-175.5 40T94 64.5Q53 140 53 246q0 91 32 175t93 149.5q61 65.5 147.5 104T520 713q106 0 172.5-41.5t98-109.5Q822 494 822 415q0-89-27.5-159t-76-110Q670 106 609 106q-56 0-78.5 27T504 195h-4q-22-37-56-63t-84-26q-56 0-88.5 36T239 246q0 81 34.5 142.5t92 95.5Q423 518 491 518q48 0 80-9t58-20l-47-179q-8-30-12-49.5t-4-36.5q0-31 14-43t34-12q31 0 56 21t42.5 55.5q17.5 34.5 27 77T749 408q0 66-23.5 120T649 614.5Q596 647 507 647q-86 0-155.5-30.5t-119.5-85Q182 477 155 405t-27-155q0-127 68-200.5T396-24q54 0 108 12.5T602 18v-65q-52-21-108-32.5T385-91m-7 260q48 0 79.5 42.5T508 321l33 124q-10 4-25.5 7.5T481 456q-47 0-84.5-27T337 356q-22-46-22-103 0-44 16-64t47-20z" horiz-adv-x="848" vert-adv-y="1000"/><glyph glyph-name="uni41" unicode="A" d="m-57 0 388 714h94L513 0h-88l-27 222H157L41 0h-98m257 302h189l-16 150q-4 38-7.5 84t-4.5 81h-3q-16-38-37-81.5T277 448l-77-146z" horiz-adv-x="562" vert-adv-y="1000"/><glyph glyph-name="uni42" unicode="B" d="m41 0 151 714h185q99 0 155.5-39T589 550q0-73-44-118.5T428 372v-5q49-13 82-49t33-96q0-73-35.5-122.5T410 25Q348 0 269 0H41m176 410h117q44 0 81 14t59 42.5q22 28.5 22 72.5 0 47-30 72.5T366 637H265l-48-227M146 76h126q85 0 131 38t46 108q0 48-31 81t-105 33H201L146 76z" horiz-adv-x="600" vert-adv-y="1000"/><glyph glyph-name="uni43" unicode="C" d="M326-10q-119 0-186.5 73T72 263q0 64 15 130t45.5 125q30.5 59 77 105.5T318 697q62 27 140 27 100 0 174-40l-36-74q-27 14-60.5 24.5T458 645q-75 0-129.5-33.5t-90.5-89q-36-55.5-53.5-123T167 265q0-91 46.5-143.5T342 69q41 0 80.5 8T500 98V20Q461 6 421.5-2T326-10z" horiz-adv-x="587" vert-adv-y="1000"/><glyph glyph-name="uni44" unicode="D" d="m41 0 151 714h169q129 0 202-70t73-215q0-124-48.5-221t-142-152.5Q352 0 217 0H41m105 77h76q104 0 175 47t108 126.5Q542 330 542 430q0 110-52.5 158.5T350 637h-85L146 77z" horiz-adv-x="667" vert-adv-y="1000"/><glyph glyph-name="uni45" unicode="E" d="m41 0 151 714h362l-17-79H264l-47-223h255l-15-78H201L146 79h274L403 0H41z" horiz-adv-x="514" vert-adv-y="1000"/><glyph glyph-name="uni46" unicode="F" d="m41 0 151 714h362l-16-79H264l-53-254h256l-17-79H194L130 0H41z" horiz-adv-x="477" vert-adv-y="1000"/><glyph glyph-name="uni47" unicode="G" d="M343-10q-127 0-199 71T72 259q0 98 27.5 182.5t79 148q51.5 63.5 122 99T457 724q65 0 114-11t93-31l-34-78q-38 16-80.5 28.5T456 645q-82 0-147.5-49T205 461.5Q167 376 167 265q0-55 19.5-99.5T247 95q41-26 105-26 38 0 69.5 5.5T475 87l46 211H381l17 78h229L551 27Q506 11 456 .5T343-10z" horiz-adv-x="678" vert-adv-y="1000"/><glyph glyph-name="uni48" unicode="H" d="m42 0 151 714h89l-64-302h314l64 302h88L533 0h-88l70 333H201L131 0H42z" horiz-adv-x="680" vert-adv-y="1000"/><glyph glyph-name="uni49" unicode="I" d="m-20 0 10 49 85 20 122 576-76 19 10 50h250l-10-50-86-19L163 69l77-20-10-49H-20z" horiz-adv-x="324" vert-adv-y="1000"/><glyph glyph-name="uni4a" unicode="J" d="M-80-190q-50 0-76 12l3 77q15-5 33-7.5t38-2.5q44 0 78 27.5T43 9l150 705h89L131-1q-22-101-76.5-145T-80-190z" horiz-adv-x="273" vert-adv-y="1000"/><glyph glyph-name="uni4b" unicode="K" d="m41 0 151 714h89l-74-347 62 66 274 281h108L341 400 510 0h-98L273 346l-83-61L130 0H41z" horiz-adv-x="562" vert-adv-y="1000"/><glyph glyph-name="uni4c" unicode="L" d="m41 0 151 714h89L146 80h274L403 0H41z" horiz-adv-x="478" vert-adv-y="1000"/><glyph glyph-name="uni4d" unicode="M" d="m40 0 151 714h126l69-583h4l317 583h137L696 0h-90l90 424q14 65 26.5 118t21.5 85h-2L398 0h-71l-76 626h-4q-2-20-7-53.5t-11.5-71Q222 464 215 429L124 0H40z" horiz-adv-x="841" vert-adv-y="1000"/><glyph glyph-name="uni4e" unicode="N" d="m40 0 151 714h95l219-590h3q4 36 14 91.5T543 321l84 393h85L561 0h-95L245 592h-3q-2-21-7.5-55t-13-73.5Q214 424 206 388L124 0H40z" horiz-adv-x="707" vert-adv-y="1000"/><glyph glyph-name="uni4f" unicode="O" d="M337-10q-128 0-196.5 74.5T72 267q0 92 24.5 175T168 588.5q47 63.5 114 100T433 725q121 0 189-75.5T690 444q0-93-22.5-175t-67-144.5Q556 62 490 26T337-10m3 79q60 0 107 30t80 82.5Q560 234 577.5 302T595 446q0 95-45 147.5T427 646q-60 0-108-29.5t-82-81q-34-51.5-52-120T167 269q0-95 46-147.5T340 69z" horiz-adv-x="721" vert-adv-y="1000"/><glyph glyph-name="uni50" unicode="P" d="m41 0 151 714h161q115 0 164.5-51.5T567 528q0-121-80-185t-234-64h-64L130 0H41m164 354h62q96 0 152.5 41T476 525q0 59-33.5 85.5T341 637h-76l-60-283z" horiz-adv-x="567" vert-adv-y="1000"/><glyph glyph-name="uni51" unicode="Q" d="M461-170 353-9q-5-1-8.5-1H337q-128 0-196.5 74.5T72 267q0 92 24.5 175T168 588.5q47 63.5 114 100T433 725q121 0 189-75.5T690 444q0-103-29-192.5T576 98Q520 34 441 7l134-177H461M340 69q61 0 108.5 30t80 82.5Q561 234 578 302t17 144q0 95-45 147.5T427 646q-60 0-108-29.5t-82-81q-34-51.5-52-120T167 269q0-95 46-147.5T340 69z" horiz-adv-x="721" vert-adv-y="1000"/><glyph glyph-name="uni52" unicode="R" d="m41 0 151 714h157q220 0 220-181 0-77-40.5-134T391 315L509 0h-98L309 295H192L130 0H41m167 371h78q100 0 145.5 43.5T477 527q0 61-34.5 85T341 636h-76l-57-265z" horiz-adv-x="573" vert-adv-y="1000"/><glyph glyph-name="uni53" unicode="S" d="M185-10q-52 0-91.5 8T19 22v88q30-16 71.5-29T186 68q45 0 83 14t61 43q23 29 23 75 0 40-26.5 68.5T235 334q-38 22-67.5 47t-46 57Q105 470 105 517q0 66 32 112.5t85.5 70.5Q276 724 340 724q56 0 98.5-11t80.5-31l-34-76q-26 14-65 26.5T340 645q-62 0-101-32t-39-90q0-31 11-51t34-37q23-17 57-37 43-26 75.5-51t51-58q18.5-33 18.5-82 0-107-71.5-162T185-10z" horiz-adv-x="505" vert-adv-y="1000"/><glyph glyph-name="uni54" unicode="T" d="m152 0 134 635H90l17 79h482l-16-79H377L242 0h-90z" horiz-adv-x="501" vert-adv-y="1000"/><glyph glyph-name="uni55" unicode="U" d="M300-10q-112 0-166.5 51.5T79 188q0 17 3 41.5t9 53.5l92 431h89l-93-436q-5-23-8-48t-3-41q0-56 34.5-88T305 69q89 0 132 46t63 135l99 464h89L588 243q-16-78-50.5-135T445 20.5Q387-10 300-10z" horiz-adv-x="677" vert-adv-y="1000"/><glyph glyph-name="uni56" unicode="V" d="M169 0 92 714h88l45-452q5-41 7.5-83t1.5-78h2q15 36 34 75.5t43 86.5l232 451h99L264 0h-95z" horiz-adv-x="552" vert-adv-y="1000"/><glyph glyph-name="uni57" unicode="W" d="m137 0-30 714h88l14-435q1-41-.5-85t-3.5-84h3q14 39 34 89.5t41 94.5l196 420h91l20-418q3-47 4-98t0-88h3q13 38 29 83t35 89l187 432h95L619 0h-91l-22 460q-2 33-3 70.5t-1 68.5h-3q-10-30-23.5-61.5T440 457L229 0h-92z" horiz-adv-x="856" vert-adv-y="1000"/><glyph glyph-name="uni58" unicode="X" d="m-52 0 291 378-127 336h90l97-273 212 273h98L339 374 474 0h-94L278 309 46 0h-98z" horiz-adv-x="527" vert-adv-y="1000"/><glyph glyph-name="uni59" unicode="Y" d="m150 0 58 268L92 714h89l85-358 234 358h101L295 265 240 0h-90z" horiz-adv-x="509" vert-adv-y="1000"/><glyph glyph-name="uni5a" unicode="Z" d="M-10 0 4 70l445 564H134l17 80h422l-13-71L115 80h335L434 0H-10z" horiz-adv-x="531" vert-adv-y="1000"/><glyph glyph-name="uni5b" unicode="[" d="m-9-158 186 872h193l-16-72H244L90-86h110l-16-72H-9z" horiz-adv-x="290" vert-adv-y="1000"/><glyph glyph-name="uni5c" unicode="\" d="M214 0 108 714h80L294 0h-80z" horiz-adv-x="356" vert-adv-y="1000"/><glyph glyph-name="uni5d" unicode="]" d="m-72-158 15 72H53l154 728H97l16 72h193L120-158H-72z" horiz-adv-x="290" vert-adv-y="1000"/><glyph glyph-name="uni5e" unicode="^" d="m38 267 212 452h50l234-452h-78L276 626 116 267H38z" horiz-adv-x="572" vert-adv-y="1000"/><glyph glyph-name="uni5f" unicode="_" d="m-92-158 15 68h397l-15-68H-92z" horiz-adv-x="395" vert-adv-y="1000"/><glyph glyph-name="uni60" unicode="`" d="M256 606q-19 19-40.5 46T175 707q-19 28-29 49v10h94q11-37 30.5-75.5T310 618v-12h-54z" horiz-adv-x="278" vert-adv-y="1000"/><glyph glyph-name="uni61" unicode="a" d="M193-10q-65 0-105 46.5T48 173q0 75 19.5 142.5t54.5 119q35 51.5 83 81.5t106 30q53 0 86-28t49-65h5l32 83h67L436 0h-70l13 99h-4q-35-44-80.5-76.5T193-10m29 73q36 0 72 27t64.5 72.5Q387 208 403 266q7 28 10 53t3 46q0 47-26 77t-70 30q-39 0-72-24.5t-58-67Q165 338 151.5 284T138 171q0-54 22-81t62-27z" horiz-adv-x="568" vert-adv-y="1000"/><glyph glyph-name="uni62" unicode="b" d="M269-10q-54 0-87.5 27.5T132 82h-5L94 0H28l161 760h88l-38-180q-7-34-15.5-67T209 459q-6-21-7-23h4q36 44 78.5 76.5T383 545q66 0 106.5-46T530 363q0-73-18-140t-52-119.5q-34-52.5-82-83T269-10m-7 73q40 0 73 25.5t56.5 68.5q23.5 43 36 97T440 364q0 108-85 108-33 0-67.5-24.5t-63.5-67Q195 338 177.5 284T160 171q0-48 25-78t77-30z" horiz-adv-x="579" vert-adv-y="1000"/><glyph glyph-name="uni63" unicode="c" d="M247-10q-89 0-144 50T48 190q0 72 19.5 136.5t56 113.5q36.5 49 88.5 77.5T328 546q35 0 69.5-7t63.5-19l-25-73q-20 9-47.5 17t-59.5 8q-57 0-100-38.5T162 331q-24-64-24-140 0-61 31-94.5T256 63q35 0 66.5 9.5T385 96V22Q357 8 322.5-1T247-10z" horiz-adv-x="453" vert-adv-y="1000"/><glyph glyph-name="uni64" unicode="d" d="M193-10q-65 0-105 46T48 173q0 73 18 140t52.5 119.5q34.5 52.5 83 82.5T311 545q54 0 86.5-27.5T446 453h5q5 34 9.5 65t12.5 67l37 175h87L436 0h-72l11 99h-4q-36-45-79-77t-99-32m30 73q33 0 67 24.5t63 66.5q29 42 46.5 96T417 364q0 48-23.5 78T317 472q-40 0-72.5-25.5T188 378q-24-43-37-97t-13-110q0-108 85-108z" horiz-adv-x="579" vert-adv-y="1000"/><glyph glyph-name="uni65" unicode="e" d="M242-10q-93 0-143.5 54.5T48 192q0 64 18.5 126.5t53.5 114q35 51.5 84.5 82.5T316 546q76 0 114.5-33t38.5-92q0-53-32.5-95.5t-101.5-68Q266 232 156 232h-17q-1-9-1.5-19t-.5-18q0-61 29.5-96.5T258 63q38 0 72 10.5t74 30.5V29q-38-17-74.5-28T242-10m-90 313h7q60 0 111 10.5t82 35q31 24.5 31 65.5 0 26-17.5 42.5T311 473q-48 0-92.5-44.5T152 303z" horiz-adv-x="499" vert-adv-y="1000"/><glyph glyph-name="uni66" unicode="f" d="M-48-240q-20 0-35.5 3t-28.5 7v74q14-4 27-7.5t29-3.5q36 0 56 29.5T32-53l110 522H49l7 37 100 33 11 48q15 69 39 107.5t59 54.5q35 16 84 16 25 0 51-5.5t43-13.5l-23-67q-14 5-31 9.5t-36 4.5q-39 0-62-22t-36-84l-12-51h115l-13-67H230L118-63q-18-83-56-130t-110-47z" horiz-adv-x="318" vert-adv-y="1000"/><glyph glyph-name="uni67" unicode="g" d="M186-240q-49 0-90.5 9.5T25-206v81q26-16 70.5-29t87.5-13q62 0 101.5 30T341-37l9 38q4 21 10 43.5T370.5 83l4.5 16h-4q-35-44-78-76.5T194-10q-65 0-105.5 46.5T48 173q0 73 18 140t52.5 119.5q34.5 52.5 83 83T311 546q54 0 86.5-28t49.5-65h4l33 83h67L429-31q-24-113-85.5-161T186-240m37 303q34 0 68 25t62.5 67.5Q382 198 399 252t17 112q0 48-22.5 78T318 472q-40 0-73-25.5T188 378q-24-43-37-97t-13-110q0-108 85-108z" horiz-adv-x="579" vert-adv-y="1000"/><glyph glyph-name="uni68" unicode="h" d="m28 0 161 760h88l-43-197q-6-30-15-62.5T202 436h5q19 25 45 50t59.5 42q33.5 17 76.5 17 62 0 98.5-34.5T523 408q0-20-3.5-40t-7.5-42L442 0h-88l71 336q9 45 9 66 0 33-16.5 51.5T364 472q-34 0-73.5-23.5t-73-76.5Q184 319 165 231L116 0H28z" horiz-adv-x="579" vert-adv-y="1000"/><glyph glyph-name="uni69" unicode="i" d="M213 625q-21 0-34.5 12.5T165 672q0 26 15.5 45t43.5 19q46 0 46-45 0-31-18-48.5T213 625M28 0l114 536h88L116 0H28z" horiz-adv-x="258" vert-adv-y="1000"/><glyph glyph-name="uni6a" unicode="j" d="M212 625q-20 0-33.5 12.5T165 672q0 26 15.5 45t43.5 19q45 0 45-45 0-31-18-48.5T212 625M-64-240q-37 0-62 10v74q12-4 27-7.5t31-3.5q61 0 82 98l128 605h87L99-77q-16-75-52.5-119T-64-240z" horiz-adv-x="258" vert-adv-y="1000"/><glyph glyph-name="uni6b" unicode="k" d="m27 0 161 760h89l-65-302q-17-80-29.5-123.5T165 277h2l254 259h104L295 306 438 0h-97L228 251l-72-57L116 0H27z" horiz-adv-x="495" vert-adv-y="1000"/><glyph glyph-name="uni6c" unicode="l" d="m27 0 162 760h88L115 0H27z" horiz-adv-x="258" vert-adv-y="1000"/><glyph glyph-name="uni6d" unicode="m" d="m28 0 114 536h72l-11-99h5q18 25 42.5 50t56.5 42q32 17 73 17 55 0 85-32t36-87h4q20 29 47.5 56.5t61.5 45q34 17.5 75 17.5 62 0 96-34t34-98q0-24-3-45t-8-43L739 0h-89l72 336q4 22 6.5 38.5T731 406q0 30-16.5 48T663 472q-33 0-69-24t-67.5-75Q495 322 478 242L427 0h-88l71 336q9 45 9 66 0 33-15 51.5T354 472q-32 0-69-23.5T216 372q-32-53-51-141L116 0H28z" horiz-adv-x="875" vert-adv-y="1000"/><glyph glyph-name="uni6e" unicode="n" d="m24-3 115 542h78l-11-99q19 24 45 49.5t59.5 42.5q33.5 17 77.5 17 64 0 101-35.5t37-99.5q0-23-3.5-47t-7.5-42L444-3h-94l72 340q4 23 7 38.5t3 29.5q0 64-68 64-34 0-72.5-23.5t-72-75.5Q186 318 168 230L118-3H24z" horiz-adv-x="579" vert-adv-y="1000"/><glyph glyph-name="uni6f" unicode="o" d="M248-8q-93 0-146.5 55.5T48 198q0 62 17 123t50.5 111q33.5 50 84 80.5T316 543q94 0 147-55.5T516 336q0-61-17-122t-50.5-111Q415 53 365 22.5T248-8m5 73q47 0 86.5 33.5t63 96.5Q426 258 426 346q0 30-10.5 58.5t-34.5 47Q357 470 317 470q-55 0-95.5-37.5t-62.5-100Q137 270 137 195q0-62 30.5-96T253 65z" horiz-adv-x="563" vert-adv-y="1000"/><glyph glyph-name="uni70" unicode="p" d="m-22-240 164 776h72l-12-100h4q35 44 79 76.5T385 545q65 0 105-46t40-137q0-74-18-140.5t-52-119Q426 50 377.5 20T269-10q-54 0-87 27.5T132 82h-5q-1-16-5-44.5T114-9L65-240h-87M262 63q40 0 73 25.5t56.5 68.5q23.5 43 36 97T440 364q0 108-85 108-33 0-67.5-24.5T224 381q-29-42-46.5-96T160 171q0-48 25-78t77-30z" horiz-adv-x="579" vert-adv-y="1000"/><glyph glyph-name="uni71" unicode="q" d="m298-240 48 228q4 17 11 43.5t12.5 47L375 99h-4q-35-44-78-76.5T194-10q-65 0-105.5 46T48 173q0 73 18 140t52.5 119.5q34.5 52.5 83.5 83T312 546q53 0 85.5-28t48.5-65h5l33 83h66L385-240h-87M223 63q33 0 67 25t62.5 67.5q28.5 42.5 46 96.5T416 364q0 44-23 76t-75 32q-40 0-73-25.5T188 378q-24-43-37-97t-13-110q0-108 85-108z" horiz-adv-x="579" vert-adv-y="1000"/><glyph glyph-name="uni72" unicode="r" d="m28 0 114 536h72l-11-99h5q21 27 44 52t52 41q29 16 67 16 14 0 29.5-1.5T429 539l-19-79q-27 6-51 6-50 0-89-33t-65-84q-26-51-37-104L116 0H28z" horiz-adv-x="398" vert-adv-y="1000"/><glyph glyph-name="uni73" unicode="s" d="M155-10q-49 0-85.5 9.5T5 24v81q25-16 65-29.5T152 62q59 0 90 23t31 61q0 29-19 48.5T183 243q-57 32-86 66t-29 85q0 68 49.5 110T250 546q49 0 90.5-11.5T412 509l-28-70q-26 12-58 22.5T250 472q-44 0-69-20.5T156 399q0-26 17.5-45.5T244 305q34-20 61-40t42.5-46.5Q363 192 363 155q0-81-56.5-123T155-10z" horiz-adv-x="432" vert-adv-y="1000"/><glyph glyph-name="uni74" unicode="t" d="M185-10q-54 0-91 26t-37 91q0 32 9 71l61 291H44l8 40 90 38 62 111h52l-27-122h135l-14-67H216l-62-292q-3-13-6-29.5t-3-30.5q0-23 12.5-39T198 62q18 0 35 3.5t36 9.5V8q-12-6-37-12t-47-6z" horiz-adv-x="332" vert-adv-y="1000"/><glyph glyph-name="uni75" unicode="u" d="M189-10q-61 0-97.5 34T55 123q0 23 3.5 43t7.5 43l70 327h89l-72-337q-9-43-9-67 0-32 16-50.5T214 63q34 0 73 24t73.5 77Q395 217 414 305l49 231h87L436 0h-72l11 99h-5q-19-25-44.5-50T266 7q-34-17-77-17z" horiz-adv-x="579" vert-adv-y="1000"/><glyph glyph-name="uni76" unicode="v" d="M110 0 48 536h88l30-298q3-26 5.5-61t4-65.5Q177 81 177 67h3q11 25 26 57t30.5 64q15.5 32 26.5 53l158 295h94L225 0H110z" horiz-adv-x="467" vert-adv-y="1000"/><glyph glyph-name="uni77" unicode="w" d="M79 0 57 536h86l8-286q1-55-.5-99.5T147 77h4q7 21 18.5 49.5t24 57Q206 212 216 233l141 303h95l17-287q1-37 2-85.5T470 77h4q13 38 33 89.5T551 273l117 263h93L513 0H407l-15 290q-2 40-1.5 77t.5 84h-4q-13-37-26.5-68.5T323 300L183 0H79z" horiz-adv-x="723" vert-adv-y="1000"/><glyph glyph-name="uni78" unicode="x" d="m-37 0 232 276L79 536h89l83-198 157 198h102L287 272 410 0h-89l-91 208L65 0H-37z" horiz-adv-x="483" vert-adv-y="1000"/><glyph glyph-name="uni79" unicode="y" d="M-25-240q-24 0-39.5 3t-29.5 7v71q14-4 30-6.5t34-2.5q40 0 69 25t55 73l35 62-81 544h88l35-265q5-33 7.5-71t4-72.5Q184 93 184 72h3q7 16 20.5 48t29.5 66q16 34 28 56l156 294h94L175-90q-41-75-85-112.5T-25-240z" horiz-adv-x="467" vert-adv-y="1000"/><glyph glyph-name="uni7a" unicode="z" d="m-15 0 12 60 333 410H100l14 66h325l-14-71L98 66h255L340 0H-15z" horiz-adv-x="445" vert-adv-y="1000"/><glyph glyph-name="uni7b" unicode="{" d="M217-158q-71 0-108 26.5T72-48q0 16 3 32.5T82 20l24 105q3 16 5 29t2 25q0 70-102 70l17 73q58 0 93 21t45 72l33 157q17 79 58.5 110.5T382 714h18l-15-73q-44 0-69.5-15T280 564l-35-156q-11-51-40-84t-87-43v-2q39-11 57-38t18-66q0-13-2.5-30t-6.5-33L162 10q-3-13-5-24.5T155-36q0-29 20.5-39T230-85v-73h-13z" horiz-adv-x="350" vert-adv-y="1000"/><glyph glyph-name="uni7c" unicode="|" d="M260-241V760h72V-241h-72z" horiz-adv-x="551" vert-adv-y="1000"/><glyph glyph-name="uni7d" unicode="}" d="M-37-158v73q48 0 75.5 15T77-8l35 156q11 51 39.5 83.5T239 274v3q-39 11-56.5 37.5T165 380q0 14 2.5 30.5T174 443l23 103q3 13 5 24.5t2 21.5q0 29-23 39t-64 10l15 73h6q72 0 109.5-26.5T285 604q0-16-2.5-32.5T275 536l-24-106q-3-16-5.5-28.5T243 377q0-70 102-70l-16-73q-58 0-92.5-21T191 141L158-16q-12-56-35-87t-60-43q-37-12-93-12h-7z" horiz-adv-x="350" vert-adv-y="1000"/><glyph glyph-name="uni7e" unicode="~" d="M289 319q-36 16-59.5 21.5T184 346q-28 0-59-17t-55-42v78q48 53 120 53 28 0 57-6t75-26q36-16 59.5-21.5T426 359q29 0 60 17t55 42v-77q-49-54-120-54-29 0-58 6.5T289 319z" horiz-adv-x="572" vert-adv-y="1000"/><glyph glyph-name="unia1" unicode="¡" d="M172 411q-52 0-52 52 0 33 18.5 58t57.5 25q22 0 35.5-14t13.5-40q0-29-17.5-55T172 411M-10-182l134 513h58L97-182H-10z" horiz-adv-x="261" vert-adv-y="1000"/><glyph glyph-name="unia2" unicode="¢" d="m220-10 21 105q-61 16-97.5 64.5T107 288q0 90 30 166t85.5 126Q278 630 353 642l16 82h63l-18-82q61-5 107-24l-25-73q-20 9-47.5 17t-59.5 8q-57 0-100.5-38.5T221 429q-24-64-24-140 0-61 31.5-95t87.5-34q35 0 66.5 10t61.5 24v-75q-27-13-61.5-22T304 87l-20-97h-64z" horiz-adv-x="551" vert-adv-y="1000"/><glyph glyph-name="unia3" unicode="£" d="M-11 0 3 74q43 10 77.5 42t48.5 98l22 102H53l14 66h98l35 167q21 96 78.5 135T412 723q52 0 94-12.5t72-29.5l-34-69q-24 13-58 25.5T410 650q-40 0-75.5-23T285 537l-33-155h178l-14-66H238l-22-101q-13-61-38.5-90T122 80h351L456 0H-11z" horiz-adv-x="551" vert-adv-y="1000"/><glyph glyph-name="unia4" unicode="¤" d="m461 139-63 62q-22-15-48.5-23.5T294 169q-29 0-56 9t-49 24l-62-62-46 47 62 62q-16 22-24.5 48t-8.5 56q0 57 33 104l-63 63 47 48 62-63q23 15 49.5 24t55.5 9q29 0 55.5-9t48.5-24l63 63 48-47-63-63q14-22 23.5-49t9.5-56q0-30-9-56.5T446 248l62-62-47-47m-167 97q50 0 85 34t35 83q0 50-35 84.5T294 472q-49 0-83-34.5T177 353q0-49 34-83t83-34z" horiz-adv-x="551" vert-adv-y="1000"/><glyph glyph-name="unia5" unicode="¥" d="m174 0 27 128H60l15 67h140l16 77H90l15 67h109l-99 375h86l84-358 235 358h96L358 339h111l-14-67H312l-16-77h143l-14-67H283L255 0h-81z" horiz-adv-x="551" vert-adv-y="1000"/><glyph glyph-name="unia6" unicode="¦" d="M260 379v381h72V379h-72m0-620v381h72v-381h-72z" horiz-adv-x="551" vert-adv-y="1000"/><glyph glyph-name="unia7" unicode="§" d="M173-5q-50 0-86.5 9.5T27 26v75q25-14 65-26.5T173 62q63 0 96.5 21.5T303 145q0 23-21.5 41.5T206 230q-56 25-89 57.5T84 376q0 57 34 92.5t80 56.5q-25 16-41 40t-16 59q0 58 48.5 99.5T330 765q47 0 87-9t71-25l-27-63q-33 14-65 22t-66 8q-26 0-50-7t-39.5-23Q225 652 225 627q0-26 21.5-43.5T321 543q53-24 87.5-55.5T443 402q0-51-31.5-90.5T331 247q23-15 39-37t16-56q0-70-53.5-114.5T173-5m108 282q31 17 56.5 46t25.5 67q0 31-25.5 53.5T251 491q-31-10-60-37.5T162 386q0-34 25.5-56.5T281 277z" horiz-adv-x="486" vert-adv-y="1000"/><glyph glyph-name="unia8" unicode="¨" d="M442 631q-18 0-30 11t-12 31q0 23 14 40t39 17q20 0 30-11t10-29q0-28-16-43.5T442 631m-179 0q-19 0-31 11t-12 31q0 23 14 40t39 17q21 0 30.5-11t9.5-29q0-28-15.5-43.5T263 631z" horiz-adv-x="554" vert-adv-y="1000"/><glyph glyph-name="unia9" unicode="©" d="M416-10q-80 0-147 27T152.5 93.5Q103 143 76 210T49 357q0 80 27 147t76.5 116.5Q202 670 269 697t147 27q76 0 142.5-27t117-76.5Q726 571 754.5 504T783 357q0-80-27-147T679.5 93.5Q630 44 563 17T416-10m0 53q64 0 120 23t99 65.5q43 42.5 67 99.5t24 126q0 65-23 122t-64.5 100q-41.5 43-98 67.5T416 671q-90 0-160.5-40.5T145 519q-40-71-40-162 0-65 23-122t64.5-100Q234 92 291 67.5T416 43m15 90q-99 0-148 61.5T234 357q0 65 23 115.5t68 79Q370 580 435 580t123-30l-29-61q-50 26-93 26-59 0-91.5-42.5T312 357q0-77 28.5-118t94.5-41q23 0 51.5 6.5T540 221v-64q-24-11-49-17.5t-60-6.5z" horiz-adv-x="832" vert-adv-y="1000"/><glyph glyph-name="uniaa" unicode="ª" d="M170 383q-37 0-62.5 28.5T82 495q0 57 18.5 109t54 85q35.5 33 88.5 33 31 0 49-15t26-35h4l18 44h45l-69-327h-47l7 56h-3q-19-26-43-44t-60-18m19 53q28 0 48.5 17.5t34.5 44q14 26.5 21 56t7 53.5q0 29-13.5 46T245 670q-32 0-55.5-25t-36-64Q141 542 141 502q0-34 12.5-50t35.5-16z" horiz-adv-x="339" vert-adv-y="1000"/><glyph glyph-name="uniab" unicode="«" d="M154 54 42 271v13l192 187 43-43-144-160 82-188-61-26m190 0L239 251v14l181 201 47-38-138-177 76-171-61-26z" horiz-adv-x="477" vert-adv-y="1000"/><glyph glyph-name="uniac" unicode="¬" d="M540 388V128h-71v189H70v71h470z" horiz-adv-x="572" vert-adv-y="1000"/><glyph glyph-name="uniad" unicode="­" d="m26 227 18 81h236l-18-81H26z" horiz-adv-x="313" vert-adv-y="1000"/><glyph glyph-name="uniae" unicode="®" d="M416-10q-80 0-147 27T152.5 93.5Q103 143 76 210T49 357q0 80 27 147t76.5 116.5Q202 670 269 697t147 27q76 0 142.5-27t117-76.5Q726 571 754.5 504T783 357q0-80-27-147T679.5 93.5Q630 44 563 17T416-10m0 53q64 0 120 23t99 65.5q43 42.5 67 99.5t24 126q0 65-23 122t-64.5 100q-41.5 43-98 67.5T416 671q-90 0-160.5-40.5T145 519q-40-71-40-162 0-65 23-122t64.5-100Q234 92 291 67.5T416 43m-137 95v437h128q82 0 120-32.5t38-96.5q0-47-24-74.5T487 332l116-194h-86L417 311h-62V138h-76m76 235h50q39 0 61 19.5t22 51.5q0 35-20 51t-64 16h-49V373z" horiz-adv-x="832" vert-adv-y="1000"/><glyph glyph-name="uniaf" unicode="¯" d="m101 760 16 67h395l-17-67H101z" horiz-adv-x="393" vert-adv-y="1000"/><glyph glyph-name="unib0" unicode="°" d="M214 417q-72 0-115.5 42.5T55 570q0 68 42.5 111T214 724q70 0 114.5-43T373 570q0-68-44.5-110.5T214 417m1 59q48 0 70.5 26t22.5 68q0 44-23.5 70T215 666q-49 0-72-26t-23-70q0-42 23-68t72-26z" horiz-adv-x="428" vert-adv-y="1000"/><glyph glyph-name="unib1" unicode="±" d="M341 391h199v-71H341V114h-72v206H70v71h199v207h72V391M70 0v71h471V0H70z" horiz-adv-x="572" vert-adv-y="1000"/><glyph glyph-name="unib2" unicode="²" d="m71 416 12 55 129 110q60 52 88 86t28 73q0 25-14.5 40T271 795q-47 0-95-39l-31 47q31 25 64.5 37.5T283 853q41 0 66.5-15t37-38.5Q398 776 398 751q0-33-11.5-61T348 632q-27-30-73-68l-104-87h191l-13-61H71z" horiz-adv-x="353" vert-adv-y="1000"/><glyph glyph-name="unib3" unicode="³" d="M196 409q-33 0-62.5 7.5T81 436v65q26-15 57-25t60-10q50 0 74.5 22t24.5 59q0 64-84 64h-46l12 55h46q46 0 74 19t28 54q0 59-64 57-26-1-48.5-9.5T171 763l-28 48q23 18 57 30.5t76 12.5q60 0 90-29t30-72q0-45-27-72.5T294 640v-4q34-8 53-32.5t19-58.5q0-58-41.5-97T196 409z" horiz-adv-x="353" vert-adv-y="1000"/><glyph glyph-name="unib4" unicode="´" d="M115 606v13q17 19 38 45t40 53q19 27 34 49h100v-10q-14-18-41.5-46.5t-58.5-57Q196 624 170 606h-55z" horiz-adv-x="263" vert-adv-y="1000"/><glyph glyph-name="uni03BC" unicode="μ" d="m-22-240 164 776h88l-71-337q-9-43-9-65 0-34 16.5-52.5T220 63q34 0 72.5 23.5t73 76.5Q400 216 419 303l51 233h86L442 0h-72l11 99h-5q-20-25-45-50.5t-58-42Q240-10 199-10q-55 0-79 46h-4q-2-14-6-38t-8-47q-4-23-6-37L64-240h-86z" horiz-adv-x="585" vert-adv-y="1000"/><glyph glyph-name="unib6" unicode="¶" d="M371-127v400q-30-9-71-9-62 0-108 23t-71.5 77Q95 418 95 509q0 95 27.5 150t77 78Q249 760 315 760h274v-887h-58v809H429v-809h-58z" horiz-adv-x="655" vert-adv-y="1000"/><glyph glyph-name="unib7" unicode="·" d="M133 285q-52 0-52 52 0 33 18.5 58t58.5 25q22 0 35.5-13.5T207 367q0-31-18-56.5T133 285z" horiz-adv-x="256" vert-adv-y="1000"/><glyph glyph-name="unib8" unicode="¸" d="M-40-240q-27 0-45 5v52q10-2 19.5-3t16.5-1q82 0 82 53 0 22-18.5 32T-34-88L14 0h56L41-57q23-7 43.5-23.5T105-134q0-45-37.5-75.5T-40-240z" horiz-adv-x="205" vert-adv-y="1000"/><glyph glyph-name="unib9" unicode="¹" d="m190 415 53 251q5 25 13.5 56.5T271 775q-8-7-19.5-17.5T228 738l-52-34-28 47 142 92h62l-91-428h-71z" horiz-adv-x="353" vert-adv-y="1000"/><glyph glyph-name="uniba" unicode="º" d="M208 383q-52 0-87 32.5T86 514q0 52 18.5 99.5t55 78Q196 722 251 722q63 0 91.5-36t28.5-92q0-52-17-100t-52.5-79.5Q266 383 208 383m5 52q33 0 55.5 22.5T302 516q11 36 11 75 0 41-17.5 59.5T249 669q-35 0-58-21.5T156.5 591Q145 556 145 516t18-60.5q18-20.5 50-20.5z" horiz-adv-x="339" vert-adv-y="1000"/><glyph glyph-name="unibb" unicode="»" d="m243 54-43 43 144 159-82 189 61 26 112-218v-14L243 54M57 60 10 97l138 175-76 173 61 26 105-198v-15L57 60z" horiz-adv-x="477" vert-adv-y="1000"/><glyph glyph-name="unibc" unicode="¼" d="m86 0 530 714h79L165 0H86m73 286 53 251q5 25 13.5 56.5T240 646q-8-7-19.5-17.5T197 609l-52-34-28 47 142 92h62l-91-428h-71M536 1l20 97H378l11 52 235 282h71l-59-275h61l-11-59h-63L603 1h-67m-75 156h108l20 92q6 26 11 49.5t12 47.5q-4-7-13.5-20.5T578 298q-11-14-19-23l-98-118z" horiz-adv-x="732" vert-adv-y="1000"/><glyph glyph-name="unibd" unicode="½" d="m88 0 530 714h79L167 0H88m71 286 53 251q5 25 13.5 56.5T240 646q-8-7-19.5-17.5T197 609l-52-34-28 47 142 92h62l-91-428h-71M435 1l12 55 129 110q60 52 88 86t28 73q0 25-14.5 40T635 380q-47 0-95-39l-31 47q31 25 64.5 37.5T647 438q41 0 66.5-15t37-38.5Q762 361 762 336q0-33-11.5-61T712 217q-27-30-73-68L535 62h191L713 1H435z" horiz-adv-x="805" vert-adv-y="1000"/><glyph glyph-name="unibe" unicode="¾" d="M170 279q-33 0-62.5 7.5T55 306v65q26-15 57-25t60-10q50 0 74.5 22t24.5 59q0 64-84 64h-46l12 55h46q46 0 74 19t28 54q0 59-64 57-26-1-48.5-9.5T145 633l-28 48q23 18 57 30.5t76 12.5q60 0 90-29t30-72q0-45-27-72.5T268 510v-4q34-8 53-32.5t19-58.5q0-58-41.5-97T170 279M150 0l530 714h79L229 0h-79m447 0 20 97H439l11 52 235 282h71l-59-275h61l-11-59h-63L664 0h-67m-75 156h108l20 92q6 26 11 49.5t12 47.5q-4-7-13.5-20.5T639 297q-11-14-19-23l-98-118z" horiz-adv-x="793" vert-adv-y="1000"/><glyph glyph-name="unibf" unicode="¿" d="M306 330q-7-43-20.5-75t-37-59Q225 169 189 140q-32-25-59.5-48T85 41Q68 13 68-25q0-44 24-68t70-24q38 0 74.5 12.5T306-76l32-67q-41-22-90-36t-96-14q-79 0-126 39T-21-36q0 67 36.5 117T122 183q39 28 60.5 48t33 42q11.5 22 19.5 57h71m-2 215q52 0 52-52 0-33-18.5-58T279 410q-22 0-35.5 13.5T230 463q0 31 18.5 56.5T304 545z" horiz-adv-x="430" vert-adv-y="1000"/><glyph glyph-name="unic0" unicode="À" d="m-57 0 388 714h94L513 0h-88l-27 222H157L41 0h-98m257 302h189l-16 150q-4 38-7.5 84t-4.5 81h-3q-16-38-37-81.5T277 448l-77-146m194 482q-19 19-40.5 46T313 885q-19 28-29 49v10h94q11-37 30.5-75.5T448 796v-12h-54z" horiz-adv-x="562" vert-adv-y="1000"/><glyph glyph-name="unic1" unicode="Á" d="m-57 0 388 714h94L513 0h-88l-27 222H157L41 0h-98m257 302h189l-16 150q-4 38-7.5 84t-4.5 81h-3q-16-38-37-81.5T277 448l-77-146m138 482v13q17 19 38 45t40 53q19 27 34 49h100v-10q-14-18-41.5-46.5t-58.5-57Q419 802 393 784h-55z" horiz-adv-x="562" vert-adv-y="1000"/><glyph glyph-name="unic2" unicode="Â" d="m-57 0 388 714h94L513 0h-88l-27 222H157L41 0h-98m257 302h189l-16 150q-4 38-7.5 84t-4.5 81h-3q-16-38-37-81.5T277 448l-77-146m27 482v13q17 15 45 41.5t54.5 55Q353 922 367 944h85q15-39 40-78.5t44-68.5v-13h-55q-18 16-38.5 40T402 875q-30-27-60.5-50.5T285 784h-58z" horiz-adv-x="562" vert-adv-y="1000"/><glyph glyph-name="unic3" unicode="Ã" d="m-57 0 388 714h94L513 0h-88l-27 222H157L41 0h-98m257 302h189l-16 150q-4 38-7.5 84t-4.5 81h-3q-16-38-37-81.5T277 448l-77-146m21 482q14 62 43 95t72 33q29 0 54-14t46-27.5q21-13.5 38-13.5 22 0 34 13t24 43h53q-16-62-45-95t-72-33q-27 0-50.5 13.5t-45 27.5Q351 840 329 840q-21 0-33.5-14T273 784h-52z" horiz-adv-x="562" vert-adv-y="1000"/><glyph glyph-name="unic4" unicode="Ä" d="m-57 0 388 714h94L513 0h-88l-27 222H157L41 0h-98m257 302h189l-16 150q-4 38-7.5 84t-4.5 81h-3q-16-38-37-81.5T277 448l-77-146m287 507q-18 0-30 11t-12 31q0 23 14 40t39 17q20 0 30-11t10-29q0-28-16-43.5T487 809m-179 0q-19 0-31 11t-12 31q0 23 14 40t39 17q21 0 30.5-11t9.5-29q0-28-15.5-43.5T308 809z" horiz-adv-x="562" vert-adv-y="1000"/><glyph glyph-name="unic5" unicode="Å" d="m-57 0 388 714h94L513 0h-88l-27 222H157L41 0h-98m257 302h189l-16 150q-4 38-7.5 84t-4.5 81h-3q-16-38-37-81.5T277 448l-77-146m196 482q-48 0-78 27.5T288 889q0 49 32 76.5t76 27.5q48 0 78.5-27t30.5-76q0-51-31-78.5T396 784m0 50q25 0 40.5 15t15.5 40q0 25-15.5 40T396 944q-23 0-39-15t-16-40q0-25 14.5-40t40.5-15z" horiz-adv-x="562" vert-adv-y="1000"/><glyph glyph-name="unic6" unicode="Æ" d="m-58 0 457 714h465l-16-79H574l-48-223h256l-15-78H511L457 79h273L713 0H350l47 222H183L44 0H-58m292 302h179l71 333h-41L234 302z" horiz-adv-x="824" vert-adv-y="1000"/><glyph glyph-name="unic7" unicode="Ç" d="M326-10q-119 0-186.5 73T72 263q0 64 15 130t45.5 125q30.5 59 77 105.5T318 697q62 27 140 27 100 0 174-40l-36-74q-27 14-60.5 24.5T458 645q-75 0-129.5-33.5t-90.5-89q-36-55.5-53.5-123T167 265q0-91 46.5-143.5T342 69q41 0 80.5 8T500 98V20Q461 6 421.5-2T326-10m-92-230q-27 0-45 5v52q10-2 19.5-3t16.5-1q82 0 82 53 0 22-18.5 32T240-88l48 88h56l-29-57q23-7 43.5-23.5T379-134q0-45-37.5-75.5T234-240z" horiz-adv-x="587" vert-adv-y="1000"/><glyph glyph-name="unic8" unicode="È" d="m41 0 151 714h362l-17-79H264l-47-223h255l-15-78H201L146 79h274L403 0H41m347 784q-19 19-40.5 46T307 885q-19 28-29 49v10h94q11-37 30.5-75.5T442 796v-12h-54z" horiz-adv-x="514" vert-adv-y="1000"/><glyph glyph-name="unic9" unicode="É" d="m41 0 151 714h362l-17-79H264l-47-223h255l-15-78H201L146 79h274L403 0H41m291 784v13q17 19 38 45t40 53q19 27 34 49h100v-10q-14-18-41.5-46.5t-58.5-57Q413 802 387 784h-55z" horiz-adv-x="514" vert-adv-y="1000"/><glyph glyph-name="unica" unicode="Ê" d="m41 0 151 714h362l-17-79H264l-47-223h255l-15-78H201L146 79h274L403 0H41m180 784v13q17 15 45 41.5t54.5 55Q347 922 361 944h85q15-39 40-78.5t44-68.5v-13h-55q-18 16-38.5 40T396 875q-30-27-60.5-50.5T279 784h-58z" horiz-adv-x="514" vert-adv-y="1000"/><glyph glyph-name="unicb" unicode="Ë" d="m41 0 151 714h362l-17-79H264l-47-223h255l-15-78H201L146 79h274L403 0H41m440 809q-18 0-30 11t-12 31q0 23 14 40t39 17q20 0 30-11t10-29q0-28-16-43.5T481 809m-179 0q-19 0-31 11t-12 31q0 23 14 40t39 17q21 0 30.5-11t9.5-29q0-28-15.5-43.5T302 809z" horiz-adv-x="514" vert-adv-y="1000"/><glyph glyph-name="unicc" unicode="Ì" d="m-20 0 10 49 85 20 122 576-76 19 10 50h250l-10-50-86-19L163 69l77-20-10-49H-20m295 784q-19 19-40.5 46T194 885q-19 28-29 49v10h94q11-37 30.5-75.5T329 796v-12h-54z" horiz-adv-x="324" vert-adv-y="1000"/><glyph glyph-name="unicd" unicode="Í" d="m-20 0 10 49 85 20 122 576-76 19 10 50h250l-10-50-86-19L163 69l77-20-10-49H-20m239 784v13q17 19 38 45t40 53q19 27 34 49h100v-10q-14-18-41.5-46.5t-58.5-57Q300 802 274 784h-55z" horiz-adv-x="324" vert-adv-y="1000"/><glyph glyph-name="unice" unicode="Î" d="m-20 0 10 49 85 20 122 576-76 19 10 50h250l-10-50-86-19L163 69l77-20-10-49H-20m128 784v13q17 15 45 41.5t54.5 55Q234 922 248 944h85q15-39 40-78.5t44-68.5v-13h-55q-18 16-38.5 40T283 875q-30-27-60.5-50.5T166 784h-58z" horiz-adv-x="324" vert-adv-y="1000"/><glyph glyph-name="unicf" unicode="Ï" d="m-20 0 10 49 85 20 122 576-76 19 10 50h250l-10-50-86-19L163 69l77-20-10-49H-20m388 809q-18 0-30 11t-12 31q0 23 14 40t39 17q20 0 30-11t10-29q0-28-16-43.5T368 809m-179 0q-19 0-31 11t-12 31q0 23 14 40t39 17q21 0 30.5-11t9.5-29q0-28-15.5-43.5T189 809z" horiz-adv-x="324" vert-adv-y="1000"/><glyph glyph-name="unid0" unicode="Ð" d="m41 0 65 315H33l17 77h73l69 322h169q129 0 202-70t73-215q0-124-48.5-221t-142-152.5Q352 0 217 0H41m105 77h76q104 0 175 47t108 126.5Q542 330 542 430q0 110-52.5 158.5T350 637h-85l-52-245h157l-17-77H196L146 77z" horiz-adv-x="667" vert-adv-y="1000"/><glyph glyph-name="unid1" unicode="Ñ" d="m40 0 151 714h95l219-590h3q4 36 14 91.5T543 321l84 393h85L561 0h-95L245 592h-3q-2-21-7.5-55t-13-73.5Q214 424 206 388L124 0H40m259 784q14 62 43 95t72 33q29 0 54-14t46-27.5q21-13.5 38-13.5 22 0 34 13t24 43h53q-16-62-45-95t-72-33q-27 0-50.5 13.5t-45 27.5Q429 840 407 840q-21 0-33.5-14T351 784h-52z" horiz-adv-x="707" vert-adv-y="1000"/><glyph glyph-name="unid2" unicode="Ò" d="M337-10q-128 0-196.5 74.5T72 267q0 92 24.5 175T168 588.5q47 63.5 114 100T433 725q121 0 189-75.5T690 444q0-93-22.5-175t-67-144.5Q556 62 490 26T337-10m3 79q60 0 107 30t80 82.5Q560 234 577.5 302T595 446q0 95-45 147.5T427 646q-60 0-108-29.5t-82-81q-34-51.5-52-120T167 269q0-95 46-147.5T340 69m134 715q-19 19-40.5 46T393 885q-19 28-29 49v10h94q11-37 30.5-75.5T528 796v-12h-54z" horiz-adv-x="721" vert-adv-y="1000"/><glyph glyph-name="unid3" unicode="Ó" d="M337-10q-128 0-196.5 74.5T72 267q0 92 24.5 175T168 588.5q47 63.5 114 100T433 725q121 0 189-75.5T690 444q0-93-22.5-175t-67-144.5Q556 62 490 26T337-10m3 79q60 0 107 30t80 82.5Q560 234 577.5 302T595 446q0 95-45 147.5T427 646q-60 0-108-29.5t-82-81q-34-51.5-52-120T167 269q0-95 46-147.5T340 69m78 715v13q17 19 38 45t40 53q19 27 34 49h100v-10q-14-18-41.5-46.5t-58.5-57Q499 802 473 784h-55z" horiz-adv-x="721" vert-adv-y="1000"/><glyph glyph-name="unid4" unicode="Ô" d="M337-10q-128 0-196.5 74.5T72 267q0 92 24.5 175T168 588.5q47 63.5 114 100T433 725q121 0 189-75.5T690 444q0-93-22.5-175t-67-144.5Q556 62 490 26T337-10m3 79q60 0 107 30t80 82.5Q560 234 577.5 302T595 446q0 95-45 147.5T427 646q-60 0-108-29.5t-82-81q-34-51.5-52-120T167 269q0-95 46-147.5T340 69m-33 715v13q17 15 45 41.5t54.5 55Q433 922 447 944h85q15-39 40-78.5t44-68.5v-13h-55q-18 16-38.5 40T482 875q-30-27-60.5-50.5T365 784h-58z" horiz-adv-x="721" vert-adv-y="1000"/><glyph glyph-name="unid5" unicode="Õ" d="M337-10q-128 0-196.5 74.5T72 267q0 92 24.5 175T168 588.5q47 63.5 114 100T433 725q121 0 189-75.5T690 444q0-93-22.5-175t-67-144.5Q556 62 490 26T337-10m3 79q60 0 107 30t80 82.5Q560 234 577.5 302T595 446q0 95-45 147.5T427 646q-60 0-108-29.5t-82-81q-34-51.5-52-120T167 269q0-95 46-147.5T340 69m-39 715q14 62 43 95t72 33q29 0 54-14t46-27.5q21-13.5 38-13.5 22 0 34 13t24 43h53q-16-62-45-95t-72-33q-27 0-50.5 13.5t-45 27.5Q431 840 409 840q-21 0-33.5-14T353 784h-52z" horiz-adv-x="721" vert-adv-y="1000"/><glyph glyph-name="unid6" unicode="Ö" d="M337-10q-128 0-196.5 74.5T72 267q0 92 24.5 175T168 588.5q47 63.5 114 100T433 725q121 0 189-75.5T690 444q0-93-22.5-175t-67-144.5Q556 62 490 26T337-10m3 79q60 0 107 30t80 82.5Q560 234 577.5 302T595 446q0 95-45 147.5T427 646q-60 0-108-29.5t-82-81q-34-51.5-52-120T167 269q0-95 46-147.5T340 69m227 740q-18 0-30 11t-12 31q0 23 14 40t39 17q20 0 30-11t10-29q0-28-16-43.5T567 809m-179 0q-19 0-31 11t-12 31q0 23 14 40t39 17q21 0 30.5-11t9.5-29q0-28-15.5-43.5T388 809z" horiz-adv-x="721" vert-adv-y="1000"/><glyph glyph-name="unid7" unicode="×" d="m476 574 50-51-170-170 169-170-50-51-171 169-167-169-52 51 169 170L84 522l52 52 169-171 171 171z" horiz-adv-x="572" vert-adv-y="1000"/><glyph glyph-name="unid8" unicode="Ø" d="M114-41 57 5l66 82q-26 35-38.5 81T72 267q0 92 24.5 175T168 588.5q47 63.5 114 100T433 725q93 0 160-52l63 79 58-46-72-88q23-31 35.5-76.5T690 444q0-93-22.5-175t-67-144.5Q556 62 490 26T337-10q-96 0-161 46l-62-77m71 205 353 442q-21 20-48.5 30.5T427 647q-60 0-108-29.5T236.5 536Q202 484 184 415.5T166 269q0-61 19-105m155-95q60 0 107.5 30t80.5 82.5Q561 234 578.5 302T596 446q0 27-4 51t-11 43L229 103q20-16 48.5-25t62.5-9z" horiz-adv-x="721" vert-adv-y="1000"/><glyph glyph-name="unid9" unicode="Ù" d="M300-10q-112 0-166.5 51.5T79 188q0 17 3 41.5t9 53.5l92 431h89l-93-436q-5-23-8-48t-3-41q0-56 34.5-88T305 69q89 0 132 46t63 135l99 464h89L588 243q-16-78-50.5-135T445 20.5Q387-10 300-10m152 794q-19 19-40.5 46T371 885q-19 28-29 49v10h94q11-37 30.5-75.5T506 796v-12h-54z" horiz-adv-x="677" vert-adv-y="1000"/><glyph glyph-name="unida" unicode="Ú" d="M300-10q-112 0-166.5 51.5T79 188q0 17 3 41.5t9 53.5l92 431h89l-93-436q-5-23-8-48t-3-41q0-56 34.5-88T305 69q89 0 132 46t63 135l99 464h89L588 243q-16-78-50.5-135T445 20.5Q387-10 300-10m96 794v13q17 19 38 45t40 53q19 27 34 49h100v-10q-14-18-41.5-46.5t-58.5-57Q477 802 451 784h-55z" horiz-adv-x="677" vert-adv-y="1000"/><glyph glyph-name="unidb" unicode="Û" d="M300-10q-112 0-166.5 51.5T79 188q0 17 3 41.5t9 53.5l92 431h89l-93-436q-5-23-8-48t-3-41q0-56 34.5-88T305 69q89 0 132 46t63 135l99 464h89L588 243q-16-78-50.5-135T445 20.5Q387-10 300-10m-15 794v13q17 15 45 41.5t54.5 55Q411 922 425 944h85q15-39 40-78.5t44-68.5v-13h-55q-18 16-38.5 40T460 875q-30-27-60.5-50.5T343 784h-58z" horiz-adv-x="677" vert-adv-y="1000"/><glyph glyph-name="unidc" unicode="Ü" d="M300-10q-112 0-166.5 51.5T79 188q0 17 3 41.5t9 53.5l92 431h89l-93-436q-5-23-8-48t-3-41q0-56 34.5-88T305 69q89 0 132 46t63 135l99 464h89L588 243q-16-78-50.5-135T445 20.5Q387-10 300-10m245 819q-18 0-30 11t-12 31q0 23 14 40t39 17q20 0 30-11t10-29q0-28-16-43.5T545 809m-179 0q-19 0-31 11t-12 31q0 23 14 40t39 17q21 0 30.5-11t9.5-29q0-28-15.5-43.5T366 809z" horiz-adv-x="677" vert-adv-y="1000"/><glyph glyph-name="unidd" unicode="Ý" d="m150 0 58 268L92 714h89l85-358 234 358h101L295 265 240 0h-90m162 784v13q17 19 38 45t40 53q19 27 34 49h100v-10q-14-18-41.5-46.5t-58.5-57Q393 802 367 784h-55z" horiz-adv-x="509" vert-adv-y="1000"/><glyph glyph-name="unide" unicode="Þ" d="m41 0 151 714h89l-26-124h72q115 0 165-51t50-135q0-121-81-185t-235-64h-63L130 0H41m137 231h63q95 0 152 40.5T450 401q0 60-33.5 86T315 513h-77l-60-282z" horiz-adv-x="567" vert-adv-y="1000"/><glyph glyph-name="unidf" unicode="ß" d="M-64-240q-36 0-61 10v75q25-11 54-11 31 0 52 23t32 75l136 638q21 98 77 146.5T379 765q78 0 125-34.5t47-98.5q0-52-30-87t-67-63q-32-23-57.5-45T371 388q0-15 11.5-28.5T409 335q15-11 25-19 38-32 61-64t23-79q0-64-28-104.5T417 9q-45-19-98-19-45 0-78 9.5T187 25v81q21-16 54-30t67-14q60 0 90 29.5t30 71.5q0 33-15 54t-50 49q-42 32-60 59t-18 58q0 34 14 58.5t35.5 42.5q21.5 18 45.5 35 33 23 59 47.5t26 59.5q0 32-26 49.5T371 693q-58 0-90-31t-45-92L103-62q-18-83-55.5-130.5T-64-240z" horiz-adv-x="584" vert-adv-y="1000"/><glyph glyph-name="unie0" unicode="à" d="M193-10q-65 0-105 46.5T48 173q0 75 19.5 142.5t54.5 119q35 51.5 83 81.5t106 30q53 0 86-28t49-65h5l32 83h67L436 0h-70l13 99h-4q-35-44-80.5-76.5T193-10m29 73q36 0 72 27t64.5 72.5Q387 208 403 266q7 28 10 53t3 46q0 47-26 77t-70 30q-39 0-72-24.5t-58-67Q165 338 151.5 284T138 171q0-54 22-81t62-27m137 543q-19 19-40.5 46T278 707q-19 28-29 49v10h94q11-37 30.5-75.5T413 618v-12h-54z" horiz-adv-x="568" vert-adv-y="1000"/><glyph glyph-name="unie1" unicode="á" d="M193-10q-65 0-105 46.5T48 173q0 75 19.5 142.5t54.5 119q35 51.5 83 81.5t106 30q53 0 86-28t49-65h5l32 83h67L436 0h-70l13 99h-4q-35-44-80.5-76.5T193-10m29 73q36 0 72 27t64.5 72.5Q387 208 403 266q7 28 10 53t3 46q0 47-26 77t-70 30q-39 0-72-24.5t-58-67Q165 338 151.5 284T138 171q0-54 22-81t62-27m81 543v13q17 19 38 45t40 53q19 27 34 49h100v-10q-14-18-41.5-46.5t-58.5-57Q384 624 358 606h-55z" horiz-adv-x="568" vert-adv-y="1000"/><glyph glyph-name="unie2" unicode="â" d="M193-10q-65 0-105 46.5T48 173q0 75 19.5 142.5t54.5 119q35 51.5 83 81.5t106 30q53 0 86-28t49-65h5l32 83h67L436 0h-70l13 99h-4q-35-44-80.5-76.5T193-10m29 73q36 0 72 27t64.5 72.5Q387 208 403 266q7 28 10 53t3 46q0 47-26 77t-70 30q-39 0-72-24.5t-58-67Q165 338 151.5 284T138 171q0-54 22-81t62-27m-30 543v13q17 15 45 41.5t54.5 55Q318 744 332 766h85q15-39 40-78.5t44-68.5v-13h-55q-18 16-38.5 40T367 697q-30-27-60.5-50.5T250 606h-58z" horiz-adv-x="568" vert-adv-y="1000"/><glyph glyph-name="unie3" unicode="ã" d="M193-10q-65 0-105 46.5T48 173q0 75 19.5 142.5t54.5 119q35 51.5 83 81.5t106 30q53 0 86-28t49-65h5l32 83h67L436 0h-70l13 99h-4q-35-44-80.5-76.5T193-10m29 73q36 0 72 27t64.5 72.5Q387 208 403 266q7 28 10 53t3 46q0 47-26 77t-70 30q-39 0-72-24.5t-58-67Q165 338 151.5 284T138 171q0-54 22-81t62-27m-36 543q14 62 43 95t72 33q29 0 54-14t46-27.5q21-13.5 38-13.5 22 0 34 13t24 43h53q-16-62-45-95t-72-33q-27 0-50.5 13.5t-45 27.5Q316 662 294 662q-21 0-33.5-14T238 606h-52z" horiz-adv-x="568" vert-adv-y="1000"/><glyph glyph-name="unie4" unicode="ä" d="M193-10q-65 0-105 46.5T48 173q0 75 19.5 142.5t54.5 119q35 51.5 83 81.5t106 30q53 0 86-28t49-65h5l32 83h67L436 0h-70l13 99h-4q-35-44-80.5-76.5T193-10m29 73q36 0 72 27t64.5 72.5Q387 208 403 266q7 28 10 53t3 46q0 47-26 77t-70 30q-39 0-72-24.5t-58-67Q165 338 151.5 284T138 171q0-54 22-81t62-27m230 568q-18 0-30 11t-12 31q0 23 14 40t39 17q20 0 30-11t10-29q0-28-16-43.5T452 631m-179 0q-19 0-31 11t-12 31q0 23 14 40t39 17q21 0 30.5-11t9.5-29q0-28-15.5-43.5T273 631z" horiz-adv-x="568" vert-adv-y="1000"/><glyph glyph-name="unie5" unicode="å" d="M193-10q-65 0-105 46.5T48 173q0 75 19.5 142.5t54.5 119q35 51.5 83 81.5t106 30q53 0 86-28t49-65h5l32 83h67L436 0h-70l13 99h-4q-35-44-80.5-76.5T193-10m29 73q36 0 72 27t64.5 72.5Q387 208 403 266q7 28 10 53t3 46q0 47-26 77t-70 30q-39 0-72-24.5t-58-67Q165 338 151.5 284T138 171q0-54 22-81t62-27m139 543q-48 0-78 27.5T253 711q0 49 32 76.5t76 27.5q48 0 78.5-27t30.5-76q0-51-31-78.5T361 606m0 50q25 0 40.5 15t15.5 40q0 25-15.5 40T361 766q-23 0-39-15t-16-40q0-25 14.5-40t40.5-15z" horiz-adv-x="568" vert-adv-y="1000"/><glyph glyph-name="unie6" unicode="æ" d="M177-10q-58 0-93.5 47T48 172q0 76 19.5 143.5t54 119.5q34.5 52 81 81.5T303 546q48 0 77-28t45-65h5l33 83h56l-14-69q25 35 65.5 57t94.5 22q53 0 93-30.5t40-94.5q0-53-32-95.5t-101-68Q596 232 486 232h-20q-1-9-1.5-19t-.5-18q0-61 30-96.5T587 63q37 0 71.5 12t73.5 29V27Q692 9 653-.5T571-10q-53 0-92.5 19T419 66L405 0h-59l12 99h-4q-40-49-81-79t-96-30m302 313h9q60 0 111 10.5t81.5 34.5q30.5 24 30.5 64 0 32-18.5 46.5T648 473q-55 0-100.5-44.5T479 303M206 63q36 0 70.5 27t62.5 73q28 46 44 104 7 28 10 52.5t3 45.5q0 47-21.5 77T315 472q-37 0-69-24.5T189.5 381q-24.5-42-38-96T138 172q0-55 18-82t50-27z" horiz-adv-x="820" vert-adv-y="1000"/><glyph glyph-name="unie7" unicode="ç" d="M247-10q-89 0-144 50T48 190q0 72 19.5 136.5t56 113.5q36.5 49 88.5 77.5T328 546q35 0 69.5-7t63.5-19l-25-73q-20 9-47.5 17t-59.5 8q-57 0-100-38.5T162 331q-24-64-24-140 0-61 31-94.5T256 63q35 0 66.5 9.5T385 96V22Q357 8 322.5-1T247-10M138-240q-27 0-45 5v52q10-2 19.5-3t16.5-1q82 0 82 53 0 22-18.5 32T144-88l48 88h56l-29-57q23-7 43.5-23.5T283-134q0-45-37.5-75.5T138-240z" horiz-adv-x="453" vert-adv-y="1000"/><glyph glyph-name="unie8" unicode="è" d="M242-10q-93 0-143.5 54.5T48 192q0 64 18.5 126.5t53.5 114q35 51.5 84.5 82.5T316 546q76 0 114.5-33t38.5-92q0-53-32.5-95.5t-101.5-68Q266 232 156 232h-17q-1-9-1.5-19t-.5-18q0-61 29.5-96.5T258 63q38 0 72 10.5t74 30.5V29q-38-17-74.5-28T242-10m-90 313h7q60 0 111 10.5t82 35q31 24.5 31 65.5 0 26-17.5 42.5T311 473q-48 0-92.5-44.5T152 303m180 303q-19 19-40.5 46T251 707q-19 28-29 49v10h94q11-37 30.5-75.5T386 618v-12h-54z" horiz-adv-x="499" vert-adv-y="1000"/><glyph glyph-name="unie9" unicode="é" d="M242-10q-93 0-143.5 54.5T48 192q0 64 18.5 126.5t53.5 114q35 51.5 84.5 82.5T316 546q76 0 114.5-33t38.5-92q0-53-32.5-95.5t-101.5-68Q266 232 156 232h-17q-1-9-1.5-19t-.5-18q0-61 29.5-96.5T258 63q38 0 72 10.5t74 30.5V29q-38-17-74.5-28T242-10m-90 313h7q60 0 111 10.5t82 35q31 24.5 31 65.5 0 26-17.5 42.5T311 473q-48 0-92.5-44.5T152 303m124 303v13q17 19 38 45t40 53q19 27 34 49h100v-10q-14-18-41.5-46.5t-58.5-57Q357 624 331 606h-55z" horiz-adv-x="499" vert-adv-y="1000"/><glyph glyph-name="uniea" unicode="ê" d="M242-10q-93 0-143.5 54.5T48 192q0 64 18.5 126.5t53.5 114q35 51.5 84.5 82.5T316 546q76 0 114.5-33t38.5-92q0-53-32.5-95.5t-101.5-68Q266 232 156 232h-17q-1-9-1.5-19t-.5-18q0-61 29.5-96.5T258 63q38 0 72 10.5t74 30.5V29q-38-17-74.5-28T242-10m-90 313h7q60 0 111 10.5t82 35q31 24.5 31 65.5 0 26-17.5 42.5T311 473q-48 0-92.5-44.5T152 303m13 303v13q17 15 45 41.5t54.5 55Q291 744 305 766h85q15-39 40-78.5t44-68.5v-13h-55q-18 16-38.5 40T340 697q-30-27-60.5-50.5T223 606h-58z" horiz-adv-x="499" vert-adv-y="1000"/><glyph glyph-name="unieb" unicode="ë" d="M242-10q-93 0-143.5 54.5T48 192q0 64 18.5 126.5t53.5 114q35 51.5 84.5 82.5T316 546q76 0 114.5-33t38.5-92q0-53-32.5-95.5t-101.5-68Q266 232 156 232h-17q-1-9-1.5-19t-.5-18q0-61 29.5-96.5T258 63q38 0 72 10.5t74 30.5V29q-38-17-74.5-28T242-10m-90 313h7q60 0 111 10.5t82 35q31 24.5 31 65.5 0 26-17.5 42.5T311 473q-48 0-92.5-44.5T152 303m273 328q-18 0-30 11t-12 31q0 23 14 40t39 17q20 0 30-11t10-29q0-28-16-43.5T425 631m-179 0q-19 0-31 11t-12 31q0 23 14 40t39 17q21 0 30.5-11t9.5-29q0-28-15.5-43.5T246 631z" horiz-adv-x="499" vert-adv-y="1000"/><glyph glyph-name="uniec" unicode="ì" d="m28 0 114 536h88L116 0H28m176 606q-19 19-40.5 46T123 707q-19 28-29 49v10h94q11-37 30.5-75.5T258 618v-12h-54z" horiz-adv-x="258" vert-adv-y="1000"/><glyph glyph-name="unied" unicode="í" d="m28 0 114 536h88L116 0H28m120 606v13q17 19 38 45t40 53q19 27 34 49h100v-10q-14-18-41.5-46.5t-58.5-57Q229 624 203 606h-55z" horiz-adv-x="258" vert-adv-y="1000"/><glyph glyph-name="uniee" unicode="î" d="m28 0 114 536h88L116 0H28m9 606v13q17 15 45 41.5t54.5 55Q163 744 177 766h85q15-39 40-78.5t44-68.5v-13h-55q-18 16-38.5 40T212 697q-30-27-60.5-50.5T95 606H37z" horiz-adv-x="258" vert-adv-y="1000"/><glyph glyph-name="unief" unicode="ï" d="m28 0 114 536h88L116 0H28m269 631q-18 0-30 11t-12 31q0 23 14 40t39 17q20 0 30-11t10-29q0-28-16-43.5T297 631m-179 0q-19 0-31 11t-12 31q0 23 14 40t39 17q21 0 30.5-11t9.5-29q0-28-15.5-43.5T118 631z" horiz-adv-x="258" vert-adv-y="1000"/><glyph glyph-name="unif0" unicode="ð" d="M235-10q-89 0-140.5 50.5T43 183q0 77 31.5 143T163 432.5Q220 473 298 473q58 0 92-24.5t49-56.5l3 1q1 56-13 108.5T372 606l-130-72-29 54 114 63q-15 13-32.5 27T257 705l47 60q23-16 47.5-33.5T398 691l126 70 32-53-115-64q35-45 57.5-104T521 398q0-72-14.5-144T459 122q-33-60-88-96T235-10m5 73q50 0 84 22.5t54.5 57.5q20.5 35 29.5 72t9 65q0 29-11 57t-36.5 46Q344 401 302 401q-60 0-97-32t-54.5-82Q133 237 133 184q0-52 24.5-86.5T240 63z" horiz-adv-x="570" vert-adv-y="1000"/><glyph glyph-name="unif1" unicode="ñ" d="m24-3 115 542h78l-11-99q19 24 45 49.5t59.5 42.5q33.5 17 77.5 17 64 0 101-35.5t37-99.5q0-23-3.5-47t-7.5-42L444-3h-94l72 340q4 23 7 38.5t3 29.5q0 64-68 64-34 0-72.5-23.5t-72-75.5Q186 318 168 230L118-3H24m170 609q14 62 43 95t72 33q29 0 54-14t46-27.5q21-13.5 38-13.5 22 0 34 13t24 43h53q-16-62-45-95t-72-33q-27 0-50.5 13.5t-45 27.5Q324 662 302 662q-21 0-33.5-14T246 606h-52z" horiz-adv-x="579" vert-adv-y="1000"/><glyph glyph-name="unif2" unicode="ò" d="M248-8q-93 0-146.5 55.5T48 198q0 62 17 123t50.5 111q33.5 50 84 80.5T316 543q94 0 147-55.5T516 336q0-61-17-122t-50.5-111Q415 53 365 22.5T248-8m5 73q47 0 86.5 33.5t63 96.5Q426 258 426 346q0 30-10.5 58.5t-34.5 47Q357 470 317 470q-55 0-95.5-37.5t-62.5-100Q137 270 137 195q0-62 30.5-96T253 65m87 541q-19 19-40.5 46T259 707q-19 28-29 49v10h94q11-37 30.5-75.5T394 618v-12h-54z" horiz-adv-x="563" vert-adv-y="1000"/><glyph glyph-name="unif3" unicode="ó" d="M248-8q-93 0-146.5 55.5T48 198q0 62 17 123t50.5 111q33.5 50 84 80.5T316 543q94 0 147-55.5T516 336q0-61-17-122t-50.5-111Q415 53 365 22.5T248-8m5 73q47 0 86.5 33.5t63 96.5Q426 258 426 346q0 30-10.5 58.5t-34.5 47Q357 470 317 470q-55 0-95.5-37.5t-62.5-100Q137 270 137 195q0-62 30.5-96T253 65m31 541v13q17 19 38 45t40 53q19 27 34 49h100v-10q-14-18-41.5-46.5t-58.5-57Q365 624 339 606h-55z" horiz-adv-x="563" vert-adv-y="1000"/><glyph glyph-name="unif4" unicode="ô" d="M248-8q-93 0-146.5 55.5T48 198q0 62 17 123t50.5 111q33.5 50 84 80.5T316 543q94 0 147-55.5T516 336q0-61-17-122t-50.5-111Q415 53 365 22.5T248-8m5 73q47 0 86.5 33.5t63 96.5Q426 258 426 346q0 30-10.5 58.5t-34.5 47Q357 470 317 470q-55 0-95.5-37.5t-62.5-100Q137 270 137 195q0-62 30.5-96T253 65m-80 541v13q17 15 45 41.5t54.5 55Q299 744 313 766h85q15-39 40-78.5t44-68.5v-13h-55q-18 16-38.5 40T348 697q-30-27-60.5-50.5T231 606h-58z" horiz-adv-x="563" vert-adv-y="1000"/><glyph glyph-name="unif5" unicode="õ" d="M248-8q-93 0-146.5 55.5T48 198q0 62 17 123t50.5 111q33.5 50 84 80.5T316 543q94 0 147-55.5T516 336q0-61-17-122t-50.5-111Q415 53 365 22.5T248-8m5 73q47 0 86.5 33.5t63 96.5Q426 258 426 346q0 30-10.5 58.5t-34.5 47Q357 470 317 470q-55 0-95.5-37.5t-62.5-100Q137 270 137 195q0-62 30.5-96T253 65m-86 541q14 62 43 95t72 33q29 0 54-14t46-27.5q21-13.5 38-13.5 22 0 34 13t24 43h53q-16-62-45-95t-72-33q-27 0-50.5 13.5t-45 27.5Q297 662 275 662q-21 0-33.5-14T219 606h-52z" horiz-adv-x="563" vert-adv-y="1000"/><glyph glyph-name="unif6" unicode="ö" d="M248-8q-93 0-146.5 55.5T48 198q0 62 17 123t50.5 111q33.5 50 84 80.5T316 543q94 0 147-55.5T516 336q0-61-17-122t-50.5-111Q415 53 365 22.5T248-8m5 73q47 0 86.5 33.5t63 96.5Q426 258 426 346q0 30-10.5 58.5t-34.5 47Q357 470 317 470q-55 0-95.5-37.5t-62.5-100Q137 270 137 195q0-62 30.5-96T253 65m180 566q-18 0-30 11t-12 31q0 23 14 40t39 17q20 0 30-11t10-29q0-28-16-43.5T433 631m-179 0q-19 0-31 11t-12 31q0 23 14 40t39 17q21 0 30.5-11t9.5-29q0-28-15.5-43.5T254 631z" horiz-adv-x="563" vert-adv-y="1000"/><glyph glyph-name="unif7" unicode="÷" d="M305 462q-23 0-39.5 14.5T249 523q0 34 16.5 47t39.5 13q23 0 39-13t16-47q0-32-16-46.5T305 462M70 317v71h471v-71H70m235-196q-23 0-39.5 14.5T249 182q0 34 16.5 47t39.5 13q23 0 39-13t16-47q0-32-16-46.5T305 121z" horiz-adv-x="572" vert-adv-y="1000"/><glyph glyph-name="unif8" unicode="ø" d="M82-38 29 3l54 67q-34 50-34 128 0 62 17 123t50.5 111q33.5 50 83.5 80.5T316 543q73 0 122-32l49 61 53-40-56-62q16-24 23-58t7-68q0-62-16.5-124T448 106.5q-33-51.5-83-83T249-8q-69 0-119 31L82-38m60 181 246 306q-11 9-28 15.5t-43 6.5q-55 0-96.5-37.5t-64-98.5Q134 274 134 204q0-42 8-61m111-80q47 0 87.5 33t64.5 94q24 61 24 145 0 17-1.5 31t-4.5 22L179 84q13-10 32.5-15.5T253 63z" horiz-adv-x="563" vert-adv-y="1000"/><glyph glyph-name="unif9" unicode="ù" d="M189-10q-61 0-97.5 34T55 123q0 23 3.5 43t7.5 43l70 327h89l-72-337q-9-43-9-67 0-32 16-50.5T214 63q34 0 73 24t73.5 77Q395 217 414 305l49 231h87L436 0h-72l11 99h-5q-19-25-44.5-50T266 7q-34-17-77-17m176 616q-19 19-40.5 46T284 707q-19 28-29 49v10h94q11-37 30.5-75.5T419 618v-12h-54z" horiz-adv-x="579" vert-adv-y="1000"/><glyph glyph-name="unifa" unicode="ú" d="M189-10q-61 0-97.5 34T55 123q0 23 3.5 43t7.5 43l70 327h89l-72-337q-9-43-9-67 0-32 16-50.5T214 63q34 0 73 24t73.5 77Q395 217 414 305l49 231h87L436 0h-72l11 99h-5q-19-25-44.5-50T266 7q-34-17-77-17m120 616v13q17 19 38 45t40 53q19 27 34 49h100v-10q-14-18-41.5-46.5t-58.5-57Q390 624 364 606h-55z" horiz-adv-x="579" vert-adv-y="1000"/><glyph glyph-name="unifb" unicode="û" d="M189-10q-61 0-97.5 34T55 123q0 23 3.5 43t7.5 43l70 327h89l-72-337q-9-43-9-67 0-32 16-50.5T214 63q34 0 73 24t73.5 77Q395 217 414 305l49 231h87L436 0h-72l11 99h-5q-19-25-44.5-50T266 7q-34-17-77-17m9 616v13q17 15 45 41.5t54.5 55Q324 744 338 766h85q15-39 40-78.5t44-68.5v-13h-55q-18 16-38.5 40T373 697q-30-27-60.5-50.5T256 606h-58z" horiz-adv-x="579" vert-adv-y="1000"/><glyph glyph-name="unifc" unicode="ü" d="M189-10q-61 0-97.5 34T55 123q0 23 3.5 43t7.5 43l70 327h89l-72-337q-9-43-9-67 0-32 16-50.5T214 63q34 0 73 24t73.5 77Q395 217 414 305l49 231h87L436 0h-72l11 99h-5q-19-25-44.5-50T266 7q-34-17-77-17m269 641q-18 0-30 11t-12 31q0 23 14 40t39 17q20 0 30-11t10-29q0-28-16-43.5T458 631m-179 0q-19 0-31 11t-12 31q0 23 14 40t39 17q21 0 30.5-11t9.5-29q0-28-15.5-43.5T279 631z" horiz-adv-x="579" vert-adv-y="1000"/><glyph glyph-name="unifd" unicode="ý" d="M-25-240q-24 0-39.5 3t-29.5 7v71q14-4 30-6.5t34-2.5q40 0 69 25t55 73l35 62-81 544h88l35-265q5-33 7.5-71t4-72.5Q184 93 184 72h3q7 16 20.5 48t29.5 66q16 34 28 56l156 294h94L175-90q-41-75-85-112.5T-25-240m259 846v13q17 19 38 45t40 53q19 27 34 49h100v-10q-14-18-41.5-46.5t-58.5-57Q315 624 289 606h-55z" horiz-adv-x="467" vert-adv-y="1000"/><glyph glyph-name="unife" unicode="þ" d="M-22-240 189 760h88l-38-179q-10-43-19.5-80T202 436h4q36 44 79 76.5t99 32.5q66 0 106-46.5T530 362q0-73-18-139.5t-51.5-119Q427 51 379 20.5T270-10q-54 0-88 27.5T131 82h-5q-1-15-4.5-44T114-9L65-240h-87M262 63q40 0 73 25.5t56.5 68.5q23.5 43 36 97T440 364q0 108-85 108-35 0-72-27.5t-67-75Q186 322 171 262q-11-46-11-91 0-48 24.5-78T262 63z" horiz-adv-x="579" vert-adv-y="1000"/><glyph glyph-name="uniff" unicode="ÿ" d="M-25-240q-24 0-39.5 3t-29.5 7v71q14-4 30-6.5t34-2.5q40 0 69 25t55 73l35 62-81 544h88l35-265q5-33 7.5-71t4-72.5Q184 93 184 72h3q7 16 20.5 48t29.5 66q16 34 28 56l156 294h94L175-90q-41-75-85-112.5T-25-240m408 871q-18 0-30 11t-12 31q0 23 14 40t39 17q20 0 30-11t10-29q0-28-16-43.5T383 631m-179 0q-19 0-31 11t-12 31q0 23 14 40t39 17q21 0 30.5-11t9.5-29q0-28-15.5-43.5T204 631z" horiz-adv-x="467" vert-adv-y="1000"/><glyph glyph-name="uni0100" unicode="Ā" d="m-57 0 388 714h94L513 0h-88l-27 222H157L41 0h-98m257 302h189l-16 150q-4 38-7.5 84t-4.5 81h-3q-16-38-37-81.5T277 448l-77-146m52 482 15 71h269l-15-71H252z" horiz-adv-x="562" vert-adv-y="1000"/><glyph glyph-name="uni0101" unicode="ā" d="M193-10q-65 0-105 46.5T48 173q0 75 19.5 142.5t54.5 119q35 51.5 83 81.5t106 30q53 0 86-28t49-65h5l32 83h67L436 0h-70l13 99h-4q-35-44-80.5-76.5T193-10m29 73q36 0 72 27t64.5 72.5Q387 208 403 266q7 28 10 53t3 46q0 47-26 77t-70 30q-39 0-72-24.5t-58-67Q165 338 151.5 284T138 171q0-54 22-81t62-27m-5 543 15 71h269l-15-71H217z" horiz-adv-x="568" vert-adv-y="1000"/><glyph glyph-name="uni0102" unicode="Ă" d="m-57 0 388 714h94L513 0h-88l-27 222H157L41 0h-98m257 302h189l-16 150q-4 38-7.5 84t-4.5 81h-3q-16-38-37-81.5T277 448l-77-146m188 482q-54 0-89 28.5T264 896v10.5q0 5.5 1 11.5h52q0-29 18-45t62-16q46 0 69 16.5t30 44.5h55q-16-72-58-103t-105-31z" horiz-adv-x="562" vert-adv-y="1000"/><glyph glyph-name="uni0103" unicode="ă" d="M193-10q-65 0-105 46.5T48 173q0 75 19.5 142.5t54.5 119q35 51.5 83 81.5t106 30q53 0 86-28t49-65h5l32 83h67L436 0h-70l13 99h-4q-35-44-80.5-76.5T193-10m29 73q36 0 72 27t64.5 72.5Q387 208 403 266q7 28 10 53t3 46q0 47-26 77t-70 30q-39 0-72-24.5t-58-67Q165 338 151.5 284T138 171q0-54 22-81t62-27m131 543q-54 0-89 28.5T229 718v10.5q0 5.5 1 11.5h52q0-29 18-45t62-16q46 0 69 16.5t30 44.5h55q-16-72-58-103t-105-31z" horiz-adv-x="568" vert-adv-y="1000"/><glyph glyph-name="uni0104" unicode="Ą" d="m-57 0 388 714h94L513 0h-88l-27 222H157L41 0h-98m257 302h189l-16 150q-4 38-7.5 84t-4.5 81h-3q-16-38-37-81.5T277 448l-77-146m211-519q-38 0-63.5 19.5T322-137q0 47 29.5 78T426 0h61q-20-16-41.5-35T409-77q-15-23-15-49 0-33 33-33 10 0 20.5 1.5T467-155v-55q-13-4-27.5-5.5T411-217z" horiz-adv-x="562" vert-adv-y="1000"/><glyph glyph-name="uni0105" unicode="ą" d="M193-10q-65 0-105 46.5T48 173q0 75 19.5 142.5t54.5 119q35 51.5 83 81.5t106 30q53 0 86-28t49-65h5l32 83h67L436 0h-70l13 99h-4q-35-44-80.5-76.5T193-10m29 73q36 0 72 27t64.5 72.5Q387 208 403 266q7 28 10 53t3 46q0 47-26 77t-70 30q-39 0-72-24.5t-58-67Q165 338 151.5 284T138 171q0-54 22-81t62-27m129-280q-38 0-63.5 19.5T262-137q0 47 29.5 78T366 0h61q-20-16-41.5-35T349-77q-15-23-15-49 0-33 33-33 10 0 20.5 1.5T407-155v-55q-13-4-27.5-5.5T351-217z" horiz-adv-x="568" vert-adv-y="1000"/><glyph glyph-name="uni0106" unicode="Ć" d="M326-10q-119 0-186.5 73T72 263q0 64 15 130t45.5 125q30.5 59 77 105.5T318 697q62 27 140 27 100 0 174-40l-36-74q-27 14-60.5 24.5T458 645q-75 0-129.5-33.5t-90.5-89q-36-55.5-53.5-123T167 265q0-91 46.5-143.5T342 69q41 0 80.5 8T500 98V20Q461 6 421.5-2T326-10m80 794v13q17 19 38 45t40 53q19 27 34 49h100v-10q-14-18-41.5-46.5t-58.5-57Q487 802 461 784h-55z" horiz-adv-x="587" vert-adv-y="1000"/><glyph glyph-name="uni0107" unicode="ć" d="M247-10q-89 0-144 50T48 190q0 72 19.5 136.5t56 113.5q36.5 49 88.5 77.5T328 546q35 0 69.5-7t63.5-19l-25-73q-20 9-47.5 17t-59.5 8q-57 0-100-38.5T162 331q-24-64-24-140 0-61 31-94.5T256 63q35 0 66.5 9.5T385 96V22Q357 8 322.5-1T247-10m21 616v13q17 19 38 45t40 53q19 27 34 49h100v-10q-14-18-41.5-46.5t-58.5-57Q349 624 323 606h-55z" horiz-adv-x="453" vert-adv-y="1000"/><glyph glyph-name="uni0108" unicode="Ĉ" d="M326-10q-119 0-186.5 73T72 263q0 64 15 130t45.5 125q30.5 59 77 105.5T318 697q62 27 140 27 100 0 174-40l-36-74q-27 14-60.5 24.5T458 645q-75 0-129.5-33.5t-90.5-89q-36-55.5-53.5-123T167 265q0-91 46.5-143.5T342 69q41 0 80.5 8T500 98V20Q461 6 421.5-2T326-10m-31 794v13q17 15 45 41.5t54.5 55Q421 922 435 944h85q15-39 40-78.5t44-68.5v-13h-55q-18 16-38.5 40T470 875q-30-27-60.5-50.5T353 784h-58z" horiz-adv-x="587" vert-adv-y="1000"/><glyph glyph-name="uni0109" unicode="ĉ" d="M247-10q-89 0-144 50T48 190q0 72 19.5 136.5t56 113.5q36.5 49 88.5 77.5T328 546q35 0 69.5-7t63.5-19l-25-73q-20 9-47.5 17t-59.5 8q-57 0-100-38.5T162 331q-24-64-24-140 0-61 31-94.5T256 63q35 0 66.5 9.5T385 96V22Q357 8 322.5-1T247-10m-90 616v13q17 15 45 41.5t54.5 55Q283 744 297 766h85q15-39 40-78.5t44-68.5v-13h-55q-18 16-38.5 40T332 697q-30-27-60.5-50.5T215 606h-58z" horiz-adv-x="453" vert-adv-y="1000"/><glyph glyph-name="uni010A" unicode="Ċ" d="M326-10q-119 0-186.5 73T72 263q0 64 15 130t45.5 125q30.5 59 77 105.5T318 697q62 27 140 27 100 0 174-40l-36-74q-27 14-60.5 24.5T458 645q-75 0-129.5-33.5t-90.5-89q-36-55.5-53.5-123T167 265q0-91 46.5-143.5T342 69q41 0 80.5 8T500 98V20Q461 6 421.5-2T326-10m140 813q-20 0-34 12.5T418 850q0 26 15.5 45t43.5 19q46 0 46-45 0-31-18-48.5T466 803z" horiz-adv-x="587" vert-adv-y="1000"/><glyph glyph-name="uni010B" unicode="ċ" d="M247-10q-89 0-144 50T48 190q0 72 19.5 136.5t56 113.5q36.5 49 88.5 77.5T328 546q35 0 69.5-7t63.5-19l-25-73q-20 9-47.5 17t-59.5 8q-57 0-100-38.5T162 331q-24-64-24-140 0-61 31-94.5T256 63q35 0 66.5 9.5T385 96V22Q357 8 322.5-1T247-10m81 635q-20 0-34 12.5T280 672q0 26 15.5 45t43.5 19q46 0 46-45 0-31-18-48.5T328 625z" horiz-adv-x="453" vert-adv-y="1000"/><glyph glyph-name="uni010C" unicode="Č" d="M326-10q-119 0-186.5 73T72 263q0 64 15 130t45.5 125q30.5 59 77 105.5T318 697q62 27 140 27 100 0 174-40l-36-74q-27 14-60.5 24.5T458 645q-75 0-129.5-33.5t-90.5-89q-36-55.5-53.5-123T167 265q0-91 46.5-143.5T342 69q41 0 80.5 8T500 98V20Q461 6 421.5-2T326-10m86 794q-14 38-38.5 78T330 931v13h53q19-16 39-40t40-51q31 27 62 50.5t58 40.5h57v-13q-17-15-45-41.5t-55-55Q512 806 498 784h-86z" horiz-adv-x="587" vert-adv-y="1000"/><glyph glyph-name="uni010D" unicode="č" d="M247-10q-89 0-144 50T48 190q0 72 19.5 136.5t56 113.5q36.5 49 88.5 77.5T328 546q35 0 69.5-7t63.5-19l-25-73q-20 9-47.5 17t-59.5 8q-57 0-100-38.5T162 331q-24-64-24-140 0-61 31-94.5T256 63q35 0 66.5 9.5T385 96V22Q357 8 322.5-1T247-10m27 616q-14 38-38.5 78T192 753v13h53q19-16 39-40t40-51q31 27 62 50.5t58 40.5h57v-13q-17-15-45-41.5t-55-55Q374 628 360 606h-86z" horiz-adv-x="453" vert-adv-y="1000"/><glyph glyph-name="uni010E" unicode="Ď" d="m41 0 151 714h169q129 0 202-70t73-215q0-124-48.5-221t-142-152.5Q352 0 217 0H41m105 77h76q104 0 175 47t108 126.5Q542 330 542 430q0 110-52.5 158.5T350 637h-85L146 77m251 707q-14 38-38.5 78T315 931v13h53q19-16 39-40t40-51q31 27 62 50.5t58 40.5h57v-13q-17-15-45-41.5t-55-55Q497 806 483 784h-86z" horiz-adv-x="667" vert-adv-y="1000"/><glyph glyph-name="uni010F" unicode="ď" d="M193-10q-65 0-105 46T48 173q0 73 18 140t52.5 119.5q34.5 52.5 83 82.5T311 545q54 0 86.5-27.5T446 453h5q5 34 9.5 65t12.5 67l37 175h87L436 0h-72l11 99h-4q-36-45-79-77t-99-32m30 73q33 0 67 24.5t63 66.5q29 42 46.5 96T417 364q0 48-23.5 78T317 472q-40 0-72.5-25.5T188 378q-24-43-37-97t-13-110q0-108 85-108m385 537v13q11 17 24.5 43t26.5 54q13 28 21 50h83v-10q-7-16-24-43t-39-56q-22-29-43-51h-49z" horiz-adv-x="613" vert-adv-y="1000"/><glyph glyph-name="uni0110" unicode="Đ" d="m41 0 65 315H33l17 77h73l69 322h169q129 0 202-70t73-215q0-124-48.5-221t-142-152.5Q352 0 217 0H41m105 77h76q104 0 175 47t108 126.5Q542 330 542 430q0 110-52.5 158.5T350 637h-85l-52-245h157l-17-77H196L146 77z" horiz-adv-x="667" vert-adv-y="1000"/><glyph glyph-name="uni0111" unicode="đ" d="M193-10q-65 0-105 46T48 173q0 73 18 140t51.5 119.5q33.5 52.5 81.5 83T308 546q55 0 88.5-27.5T446 455h5q2 18 5.5 42.5T464 544l12 60H298l13 66h181l18 90h87l-19-90h73l-14-66h-73L436 0h-72l11 99h-4q-36-44-79-76.5T193-10m30 73q33 0 67 24.5t63 66.5q29 42 46.5 96T417 364q0 49-24.5 79T316 473q-40 0-73-25.5t-56.5-69Q163 335 150.5 281T138 171q0-108 85-108z" horiz-adv-x="579" vert-adv-y="1000"/><glyph glyph-name="uni0112" unicode="Ē" d="m41 0 151 714h362l-17-79H264l-47-223h255l-15-78H201L146 79h274L403 0H41m205 784 15 71h269l-15-71H246z" horiz-adv-x="514" vert-adv-y="1000"/><glyph glyph-name="uni0113" unicode="ē" d="M242-10q-93 0-143.5 54.5T48 192q0 64 18.5 126.5t53.5 114q35 51.5 84.5 82.5T316 546q76 0 114.5-33t38.5-92q0-53-32.5-95.5t-101.5-68Q266 232 156 232h-17q-1-9-1.5-19t-.5-18q0-61 29.5-96.5T258 63q38 0 72 10.5t74 30.5V29q-38-17-74.5-28T242-10m-90 313h7q60 0 111 10.5t82 35q31 24.5 31 65.5 0 26-17.5 42.5T311 473q-48 0-92.5-44.5T152 303m38 303 15 71h269l-15-71H190z" horiz-adv-x="499" vert-adv-y="1000"/><glyph glyph-name="uni0114" unicode="Ĕ" d="m41 0 151 714h362l-17-79H264l-47-223h255l-15-78H201L146 79h274L403 0H41m341 784q-54 0-89 28.5T258 896v10.5q0 5.5 1 11.5h52q0-29 18-45t62-16q46 0 69 16.5t30 44.5h55q-16-72-58-103t-105-31z" horiz-adv-x="514" vert-adv-y="1000"/><glyph glyph-name="uni0115" unicode="ĕ" d="M242-10q-93 0-143.5 54.5T48 192q0 64 18.5 126.5t53.5 114q35 51.5 84.5 82.5T316 546q76 0 114.5-33t38.5-92q0-53-32.5-95.5t-101.5-68Q266 232 156 232h-17q-1-9-1.5-19t-.5-18q0-61 29.5-96.5T258 63q38 0 72 10.5t74 30.5V29q-38-17-74.5-28T242-10m-90 313h7q60 0 111 10.5t82 35q31 24.5 31 65.5 0 26-17.5 42.5T311 473q-48 0-92.5-44.5T152 303m174 303q-54 0-89 28.5T202 718v10.5q0 5.5 1 11.5h52q0-29 18-45t62-16q46 0 69 16.5t30 44.5h55q-16-72-58-103t-105-31z" horiz-adv-x="499" vert-adv-y="1000"/><glyph glyph-name="uni0116" unicode="Ė" d="m41 0 151 714h362l-17-79H264l-47-223h255l-15-78H201L146 79h274L403 0H41m351 803q-20 0-34 12.5T344 850q0 26 15.5 45t43.5 19q46 0 46-45 0-31-18-48.5T392 803z" horiz-adv-x="514" vert-adv-y="1000"/><glyph glyph-name="uni0117" unicode="ė" d="M242-10q-93 0-143.5 54.5T48 192q0 64 18.5 126.5t53.5 114q35 51.5 84.5 82.5T316 546q76 0 114.5-33t38.5-92q0-53-32.5-95.5t-101.5-68Q266 232 156 232h-17q-1-9-1.5-19t-.5-18q0-61 29.5-96.5T258 63q38 0 72 10.5t74 30.5V29q-38-17-74.5-28T242-10m-90 313h7q60 0 111 10.5t82 35q31 24.5 31 65.5 0 26-17.5 42.5T311 473q-48 0-92.5-44.5T152 303m184 322q-20 0-34 12.5T288 672q0 26 15.5 45t43.5 19q46 0 46-45 0-31-18-48.5T336 625z" horiz-adv-x="499" vert-adv-y="1000"/><glyph glyph-name="uni0118" unicode="Ę" d="m41 0 151 714h362l-17-79H264l-47-223h255l-15-78H201L146 79h274L403 0H41m258-217q-38 0-63.5 19.5T210-137q0 47 29.5 78T314 0h61q-20-16-41.5-35T297-77q-15-23-15-49 0-33 33-33 10 0 20.5 1.5T355-155v-55q-13-4-27.5-5.5T299-217z" horiz-adv-x="514" vert-adv-y="1000"/><glyph glyph-name="uni0119" unicode="ę" d="M242-10q-93 0-143.5 54.5T48 192q0 64 18.5 126.5t53.5 114q35 51.5 84.5 82.5T316 546q76 0 114.5-33t38.5-92q0-53-32.5-95.5t-101.5-68Q266 232 156 232h-17q-1-9-1.5-19t-.5-18q0-61 29.5-96.5T258 63q38 0 72 10.5t74 30.5V29q-7-3-14.5-6.5T375 16q-41-33-74.5-68.5T267-126q0-33 33-33 10 0 20.5 1.5T340-155v-55q-13-4-27.5-5.5T284-217q-38 0-63.5 19.5T195-137q0 43 26 73.5T287-7q-21-3-45-3m-90 313h7q60 0 111 10.5t82 35q31 24.5 31 65.5 0 26-17.5 42.5T311 473q-48 0-92.5-44.5T152 303z" horiz-adv-x="499" vert-adv-y="1000"/><glyph glyph-name="uni011A" unicode="Ě" d="m41 0 151 714h362l-17-79H264l-47-223h255l-15-78H201L146 79h274L403 0H41m297 784q-14 38-38.5 78T256 931v13h53q19-16 39-40t40-51q31 27 62 50.5t58 40.5h57v-13q-17-15-45-41.5t-55-55Q438 806 424 784h-86z" horiz-adv-x="514" vert-adv-y="1000"/><glyph glyph-name="uni011B" unicode="ě" d="M242-10q-93 0-143.5 54.5T48 192q0 64 18.5 126.5t53.5 114q35 51.5 84.5 82.5T316 546q76 0 114.5-33t38.5-92q0-53-32.5-95.5t-101.5-68Q266 232 156 232h-17q-1-9-1.5-19t-.5-18q0-61 29.5-96.5T258 63q38 0 72 10.5t74 30.5V29q-38-17-74.5-28T242-10m-90 313h7q60 0 111 10.5t82 35q31 24.5 31 65.5 0 26-17.5 42.5T311 473q-48 0-92.5-44.5T152 303m130 303q-14 38-38.5 78T200 753v13h53q19-16 39-40t40-51q31 27 62 50.5t58 40.5h57v-13q-17-15-45-41.5t-55-55Q382 628 368 606h-86z" horiz-adv-x="499" vert-adv-y="1000"/><glyph glyph-name="uni011C" unicode="Ĝ" d="M343-10q-127 0-199 71T72 259q0 98 27.5 182.5t79 148q51.5 63.5 122 99T457 724q65 0 114-11t93-31l-34-78q-38 16-80.5 28.5T456 645q-82 0-147.5-49T205 461.5Q167 376 167 265q0-55 19.5-99.5T247 95q41-26 105-26 38 0 69.5 5.5T475 87l46 211H381l17 78h229L551 27Q506 11 456 .5T343-10m-28 794v13q17 15 45 41.5t54.5 55Q441 922 455 944h85q15-39 40-78.5t44-68.5v-13h-55q-18 16-38.5 40T490 875q-30-27-60.5-50.5T373 784h-58z" horiz-adv-x="678" vert-adv-y="1000"/><glyph glyph-name="uni011D" unicode="ĝ" d="M186-240q-49 0-90.5 9.5T25-206v81q26-16 70.5-29t87.5-13q62 0 101.5 30T341-37l9 38q4 21 10 43.5T370.5 83l4.5 16h-4q-35-44-78-76.5T194-10q-65 0-105.5 46.5T48 173q0 73 18 140t52.5 119.5q34.5 52.5 83 83T311 546q54 0 86.5-28t49.5-65h4l33 83h67L429-31q-24-113-85.5-161T186-240m37 303q34 0 68 25t62.5 67.5Q382 198 399 252t17 112q0 48-22.5 78T318 472q-40 0-73-25.5T188 378q-24-43-37-97t-13-110q0-108 85-108m-35 543v13q17 15 45 41.5t54.5 55Q314 744 328 766h85q15-39 40-78.5t44-68.5v-13h-55q-18 16-38.5 40T363 697q-30-27-60.5-50.5T246 606h-58z" horiz-adv-x="579" vert-adv-y="1000"/><glyph glyph-name="uni011E" unicode="Ğ" d="M343-10q-127 0-199 71T72 259q0 98 27.5 182.5t79 148q51.5 63.5 122 99T457 724q65 0 114-11t93-31l-34-78q-38 16-80.5 28.5T456 645q-82 0-147.5-49T205 461.5Q167 376 167 265q0-55 19.5-99.5T247 95q41-26 105-26 38 0 69.5 5.5T475 87l46 211H381l17 78h229L551 27Q506 11 456 .5T343-10m133 794q-54 0-89 28.5T352 896v10.5q0 5.5 1 11.5h52q0-29 18-45t62-16q46 0 69 16.5t30 44.5h55q-16-72-58-103t-105-31z" horiz-adv-x="678" vert-adv-y="1000"/><glyph glyph-name="uni011F" unicode="ğ" d="M186-240q-49 0-90.5 9.5T25-206v81q26-16 70.5-29t87.5-13q62 0 101.5 30T341-37l9 38q4 21 10 43.5T370.5 83l4.5 16h-4q-35-44-78-76.5T194-10q-65 0-105.5 46.5T48 173q0 73 18 140t52.5 119.5q34.5 52.5 83 83T311 546q54 0 86.5-28t49.5-65h4l33 83h67L429-31q-24-113-85.5-161T186-240m37 303q34 0 68 25t62.5 67.5Q382 198 399 252t17 112q0 48-22.5 78T318 472q-40 0-73-25.5T188 378q-24-43-37-97t-13-110q0-108 85-108m126 543q-54 0-89 28.5T225 718v10.5q0 5.5 1 11.5h52q0-29 18-45t62-16q46 0 69 16.5t30 44.5h55q-16-72-58-103t-105-31z" horiz-adv-x="579" vert-adv-y="1000"/><glyph glyph-name="uni0120" unicode="Ġ" d="M343-10q-127 0-199 71T72 259q0 98 27.5 182.5t79 148q51.5 63.5 122 99T457 724q65 0 114-11t93-31l-34-78q-38 16-80.5 28.5T456 645q-82 0-147.5-49T205 461.5Q167 376 167 265q0-55 19.5-99.5T247 95q41-26 105-26 38 0 69.5 5.5T475 87l46 211H381l17 78h229L551 27Q506 11 456 .5T343-10m143 813q-20 0-34 12.5T438 850q0 26 15.5 45t43.5 19q46 0 46-45 0-31-18-48.5T486 803z" horiz-adv-x="678" vert-adv-y="1000"/><glyph glyph-name="uni0121" unicode="ġ" d="M186-240q-49 0-90.5 9.5T25-206v81q26-16 70.5-29t87.5-13q62 0 101.5 30T341-37l9 38q4 21 10 43.5T370.5 83l4.5 16h-4q-35-44-78-76.5T194-10q-65 0-105.5 46.5T48 173q0 73 18 140t52.5 119.5q34.5 52.5 83 83T311 546q54 0 86.5-28t49.5-65h4l33 83h67L429-31q-24-113-85.5-161T186-240m37 303q34 0 68 25t62.5 67.5Q382 198 399 252t17 112q0 48-22.5 78T318 472q-40 0-73-25.5T188 378q-24-43-37-97t-13-110q0-108 85-108m136 562q-20 0-34 12.5T311 672q0 26 15.5 45t43.5 19q46 0 46-45 0-31-18-48.5T359 625z" horiz-adv-x="579" vert-adv-y="1000"/><glyph glyph-name="uni0122" unicode="Ģ" d="M343-10q-127 0-199 71T72 259q0 98 27.5 182.5t79 148q51.5 63.5 122 99T457 724q65 0 114-11t93-31l-34-78q-38 16-80.5 28.5T456 645q-82 0-147.5-49T205 461.5Q167 376 167 265q0-55 19.5-99.5T247 95q41-26 105-26 38 0 69.5 5.5T475 87l46 211H381l17 78h229L551 27Q506 11 456 .5T343-10M223-221v13q10 16 24 42.5t26.5 55Q286-82 294-61h83v-10q-6-16-23-43t-39-56.5Q293-200 271-221h-48z" horiz-adv-x="678" vert-adv-y="1000"/><glyph glyph-name="uni0123" unicode="ģ" d="M186-240q-49 0-90.5 9.5T25-206v81q26-16 70.5-29t87.5-13q62 0 101.5 30T341-37l9 38q4 21 10 43.5T370.5 83l4.5 16h-4q-35-44-78-76.5T194-10q-65 0-105.5 46.5T48 173q0 73 18 140t52.5 119.5q34.5 52.5 83 83T311 546q54 0 86.5-28t49.5-65h4l33 83h67L429-31q-24-113-85.5-161T186-240m37 303q34 0 68 25t62.5 67.5Q382 198 399 252t17 112q0 48-22.5 78T318 472q-40 0-73-25.5T188 378q-24-43-37-97t-13-110q0-108 85-108m78 543v10q6 16 23 43t39 56q22 29 44 51h49v-13q-11-17-24.5-43t-26-54Q393 628 385 606h-84z" horiz-adv-x="579" vert-adv-y="1000"/><glyph glyph-name="uni0124" unicode="Ĥ" d="m42 0 151 714h89l-64-302h314l64 302h88L533 0h-88l70 333H201L131 0H42m242 784v13q17 15 45 41.5t54.5 55Q410 922 424 944h85q15-39 40-78.5t44-68.5v-13h-55q-18 16-38.5 40T459 875q-30-27-60.5-50.5T342 784h-58z" horiz-adv-x="680" vert-adv-y="1000"/><glyph glyph-name="uni0125" unicode="ĥ" d="m28 0 161 760h88l-43-197q-6-30-15-62.5T202 436h5q19 25 45 50t59.5 42q33.5 17 76.5 17 62 0 98.5-34.5T523 408q0-20-3.5-40t-7.5-42L442 0h-88l71 336q9 45 9 66 0 33-16.5 51.5T364 472q-34 0-73.5-23.5t-73-76.5Q184 319 165 231L116 0H28m55 830v13q17 15 45 41.5t54.5 55Q209 968 223 990h85q15-39 40-78.5t44-68.5v-13h-55q-18 16-38.5 40T258 921q-30-27-60.5-50.5T141 830H83z" horiz-adv-x="579" vert-adv-y="1000"/><glyph glyph-name="uni0126" unicode="Ħ" d="m41 0 110 522H60l15 72h91l26 120h89l-26-120h314l26 120h90l-25-120h91l-14-72h-93L534 0h-90l70 333H200L130 0H41m176 412h314l23 110H240l-23-110z" horiz-adv-x="680" vert-adv-y="1000"/><glyph glyph-name="uni0127" unicode="ħ" d="m28 0 129 604H82l15 66h73l19 90h88l-20-90h169l-15-66H244q-14-57-25.5-103.5T201 428h5q18 25 44 50.5t59.5 42.5q33.5 17 76.5 17 63 0 99-35.5T521 399q0-19-3.5-39t-7.5-43L442 0h-88l70 327q9 43 9 65 0 34-17 53.5T362 465q-34 0-73.5-24t-74-77.5Q180 310 162 223L116 0H28z" horiz-adv-x="579" vert-adv-y="1000"/><glyph glyph-name="uni0128" unicode="Ĩ" d="m-20 0 10 49 85 20 122 576-76 19 10 50h250l-10-50-86-19L163 69l77-20-10-49H-20m122 784q14 62 43 95t72 33q29 0 54-14t46-27.5q21-13.5 38-13.5 22 0 34 13t24 43h53q-16-62-45-95t-72-33q-27 0-50.5 13.5t-45 27.5Q232 840 210 840q-21 0-33.5-14T154 784h-52z" horiz-adv-x="324" vert-adv-y="1000"/><glyph glyph-name="uni0129" unicode="ĩ" d="m28 0 114 536h88L116 0H28m3 606q14 62 43 95t72 33q29 0 54-14t46-27.5q21-13.5 38-13.5 22 0 34 13t24 43h53q-16-62-45-95t-72-33q-27 0-50.5 13.5t-45 27.5Q161 662 139 662q-21 0-33.5-14T83 606H31z" horiz-adv-x="258" vert-adv-y="1000"/><glyph glyph-name="uni012A" unicode="Ī" d="m-20 0 10 49 85 20 122 576-76 19 10 50h250l-10-50-86-19L163 69l77-20-10-49H-20m153 784 15 71h269l-15-71H133z" horiz-adv-x="324" vert-adv-y="1000"/><glyph glyph-name="uni012B" unicode="ī" d="m28 0 114 536h88L116 0H28m34 606 15 71h269l-15-71H62z" horiz-adv-x="258" vert-adv-y="1000"/><glyph glyph-name="uni012C" unicode="Ĭ" d="m-20 0 10 49 85 20 122 576-76 19 10 50h250l-10-50-86-19L163 69l77-20-10-49H-20m289 784q-54 0-89 28.5T145 896v10.5q0 5.5 1 11.5h52q0-29 18-45t62-16q46 0 69 16.5t30 44.5h55q-16-72-58-103t-105-31z" horiz-adv-x="324" vert-adv-y="1000"/><glyph glyph-name="uni012D" unicode="ĭ" d="m28 0 114 536h88L116 0H28m170 606q-54 0-89 28.5T74 718v10.5q0 5.5 1 11.5h52q0-29 18-45t62-16q46 0 69 16.5t30 44.5h55q-16-72-58-103t-105-31z" horiz-adv-x="258" vert-adv-y="1000"/><glyph glyph-name="uni012E" unicode="Į" d="m-20 0 10 49 85 20 122 576-76 19 10 50h250l-10-50-86-19L163 69l77-20-10-49H-20m123-217q-38 0-63.5 19.5T14-137q0 47 29.5 78T118 0h61q-20-16-41.5-35T101-77q-15-23-15-49 0-33 33-33 10 0 20.5 1.5T159-155v-55q-13-4-27.5-5.5T103-217z" horiz-adv-x="324" vert-adv-y="1000"/><glyph glyph-name="uni012F" unicode="į" d="M213 625q-21 0-34.5 12.5T165 672q0 26 15.5 45t43.5 19q46 0 46-45 0-31-18-48.5T213 625M28 0l114 536h88L116 0H28m27-217q-38 0-63.5 19.5T-34-137q0 47 29.5 78T70 0h61q-20-16-41.5-35T53-77q-15-23-15-49 0-33 33-33 10 0 20.5 1.5T111-155v-55q-13-4-27.5-5.5T55-217z" horiz-adv-x="258" vert-adv-y="1000"/><glyph glyph-name="uni0130" unicode="İ" d="m-20 0 10 49 85 20 122 576-76 19 10 50h250l-10-50-86-19L163 69l77-20-10-49H-20m299 803q-20 0-34 12.5T231 850q0 26 15.5 45t43.5 19q46 0 46-45 0-31-18-48.5T279 803z" horiz-adv-x="324" vert-adv-y="1000"/><glyph glyph-name="uni0132" unicode="Ĳ" d="m-20 0 10 49 85 20 122 576-76 19 10 50h250l-10-50-86-19L163 69l77-20-10-49H-20m264-190q-50 0-76 12l3 77q15-5 33-7.5t38-2.5q44 0 78 27.5T367 9l150 705h89L455-1q-22-101-76.5-145T244-190z" horiz-adv-x="597" vert-adv-y="1000"/><glyph glyph-name="uni0133" unicode="ĳ" d="M213 625q-21 0-34.5 12.5T165 672q0 26 15.5 45t43.5 19q46 0 46-45 0-31-18-48.5T213 625M28 0l114 536h88L116 0H28m442 625q-20 0-33.5 12.5T423 672q0 26 15.5 45t43.5 19q45 0 45-45 0-31-18-48.5T470 625M194-240q-37 0-62 10v74q12-4 27-7.5t31-3.5q61 0 82 98l128 605h87L357-77q-16-75-52.5-119T194-240z" horiz-adv-x="516" vert-adv-y="1000"/><glyph glyph-name="uni0134" unicode="Ĵ" d="M-80-190q-50 0-76 12l3 77q15-5 33-7.5t38-2.5q44 0 78 27.5T43 9l150 705h89L131-1q-22-101-76.5-145T-80-190M83 784v13q17 15 45 41.5t54.5 55Q209 922 223 944h85q15-39 40-78.5t44-68.5v-13h-55q-18 16-38.5 40T258 875q-30-27-60.5-50.5T141 784H83z" horiz-adv-x="273" vert-adv-y="1000"/><glyph glyph-name="uni0135" unicode="ĵ" d="M-64-240q-37 0-62 10v74q12-4 27-7.5t31-3.5q61 0 82 98l128 605h87L99-77q-16-75-52.5-119T-64-240M38 606v13q17 15 45 41.5t54.5 55Q164 744 178 766h85q15-39 40-78.5t44-68.5v-13h-55q-18 16-38.5 40T213 697q-30-27-60.5-50.5T96 606H38z" horiz-adv-x="258" vert-adv-y="1000"/><glyph glyph-name="uni0136" unicode="Ķ" d="m41 0 151 714h89l-74-347 62 66 274 281h108L341 400 510 0h-98L273 346l-83-61L130 0H41m100-221v13q10 16 24 42.5t26.5 55Q204-82 212-61h83v-10q-6-16-23-43t-39-56.5Q211-200 189-221h-48z" horiz-adv-x="562" vert-adv-y="1000"/><glyph glyph-name="uni0137" unicode="ķ" d="m27 0 161 760h89l-65-302q-17-80-29.5-123.5T165 277h2l254 259h104L295 306 438 0h-97L228 251l-72-57L116 0H27m87-221v13q10 16 24 42.5t26.5 55Q177-82 185-61h83v-10q-6-16-23-43t-39-56.5Q184-200 162-221h-48z" horiz-adv-x="495" vert-adv-y="1000"/><glyph glyph-name="uni0138" unicode="ĸ" d="m27 0 113 536h89l-30-135q-7-37-17.5-71T165 276h2l254 260h104L295 306 438 0h-97L228 251l-72-57L116 0H27z" horiz-adv-x="495" vert-adv-y="1000"/><glyph glyph-name="uni0139" unicode="Ĺ" d="m41 0 151 714h89L146 80h274L403 0H41m173 784v13q17 19 38 45t40 53q19 27 34 49h100v-10q-14-18-41.5-46.5t-58.5-57Q295 802 269 784h-55z" horiz-adv-x="478" vert-adv-y="1000"/><glyph glyph-name="uni013A" unicode="ĺ" d="m27 0 162 760h88L115 0H27m166 830v13q17 19 38 45t40 53q19 27 34 49h100v-10q-14-18-41.5-46.5t-58.5-57Q274 848 248 830h-55z" horiz-adv-x="258" vert-adv-y="1000"/><glyph glyph-name="uni013B" unicode="Ļ" d="m41 0 151 714h89L146 80h274L403 0H41m74-221v13q10 16 24 42.5t26.5 55Q178-82 186-61h83v-10q-6-16-23-43t-39-56.5Q185-200 163-221h-48z" horiz-adv-x="478" vert-adv-y="1000"/><glyph glyph-name="uni013C" unicode="ļ" d="m27 0 162 760h88L115 0H27m-62-221v13q10 16 24 42.5t26.5 55Q28-82 36-61h83v-10q-6-16-23-43t-39-56.5Q35-200 13-221h-48z" horiz-adv-x="258" vert-adv-y="1000"/><glyph glyph-name="uni013D" unicode="Ľ" d="m41 0 151 714h89L146 80h274L403 0H41m322 552v13q11 17 24.5 43t26.5 54q13 28 21 50h83v-10q-7-16-24-43t-39-56q-22-29-43-51h-49z" horiz-adv-x="478" vert-adv-y="1000"/><glyph glyph-name="uni013E" unicode="ľ" d="m27 0 162 760h88L115 0H27m256 600v13q11 17 24.5 43t26.5 54q13 28 21 50h83v-10q-7-16-24-43t-39-56q-22-29-43-51h-49z" horiz-adv-x="288" vert-adv-y="1000"/><glyph glyph-name="uni013F" unicode="Ŀ" d="m41 0 151 714h89L146 80h274L403 0H41m341 299q-20 0-34 12.5T334 346q0 26 15.5 45t43.5 19q46 0 46-45 0-31-18-48.5T382 299z" horiz-adv-x="478" vert-adv-y="1000"/><glyph glyph-name="uni0140" unicode="ŀ" d="m27 0 162 760h88L115 0H27m267 310q-20 0-34 12.5T246 357q0 26 15.5 45t43.5 19q46 0 46-45 0-31-18-48.5T294 310z" horiz-adv-x="297" vert-adv-y="1000"/><glyph glyph-name="uni0141" unicode="Ł" d="m40 0 53 246-52-30-31 58 100 57 81 383h90l-70-325 112 63 31-56-160-92-47-224h273L403 0H40z" horiz-adv-x="478" vert-adv-y="1000"/><glyph glyph-name="uni0142" unicode="ł" d="m27 0 61 285-55-33-30 55 102 62 84 391h88l-70-332 58 34 28-55-104-62L115 0H27z" horiz-adv-x="258" vert-adv-y="1000"/><glyph glyph-name="uni0143" unicode="Ń" d="m40 0 151 714h95l219-590h3q4 36 14 91.5T543 321l84 393h85L561 0h-95L245 592h-3q-2-21-7.5-55t-13-73.5Q214 424 206 388L124 0H40m376 784v13q17 19 38 45t40 53q19 27 34 49h100v-10q-14-18-41.5-46.5t-58.5-57Q497 802 471 784h-55z" horiz-adv-x="707" vert-adv-y="1000"/><glyph glyph-name="uni0144" unicode="ń" d="m24-3 115 542h78l-11-99q19 24 45 49.5t59.5 42.5q33.5 17 77.5 17 64 0 101-35.5t37-99.5q0-23-3.5-47t-7.5-42L444-3h-94l72 340q4 23 7 38.5t3 29.5q0 64-68 64-34 0-72.5-23.5t-72-75.5Q186 318 168 230L118-3H24m287 609v13q17 19 38 45t40 53q19 27 34 49h100v-10q-14-18-41.5-46.5t-58.5-57Q392 624 366 606h-55z" horiz-adv-x="579" vert-adv-y="1000"/><glyph glyph-name="uni0145" unicode="Ņ" d="m40 0 151 714h95l219-590h3q4 36 14 91.5T543 321l84 393h85L561 0h-95L245 592h-3q-2-21-7.5-55t-13-73.5Q214 424 206 388L124 0H40m150-221v13q10 16 24 42.5t26.5 55Q253-82 261-61h83v-10q-6-16-23-43t-39-56.5Q260-200 238-221h-48z" horiz-adv-x="707" vert-adv-y="1000"/><glyph glyph-name="uni0146" unicode="ņ" d="m24-3 115 542h78l-11-99q19 24 45 49.5t59.5 42.5q33.5 17 77.5 17 64 0 101-35.5t37-99.5q0-23-3.5-47t-7.5-42L444-3h-94l72 340q4 23 7 38.5t3 29.5q0 64-68 64-34 0-72.5-23.5t-72-75.5Q186 318 168 230L118-3H24m104-218v13q10 16 24 42.5t26.5 55Q191-82 199-61h83v-10q-6-16-23-43t-39-56.5Q198-200 176-221h-48z" horiz-adv-x="579" vert-adv-y="1000"/><glyph glyph-name="uni0147" unicode="Ň" d="m40 0 151 714h95l219-590h3q4 36 14 91.5T543 321l84 393h85L561 0h-95L245 592h-3q-2-21-7.5-55t-13-73.5Q214 424 206 388L124 0H40m382 784q-14 38-38.5 78T340 931v13h53q19-16 39-40t40-51q31 27 62 50.5t58 40.5h57v-13q-17-15-45-41.5t-55-55Q522 806 508 784h-86z" horiz-adv-x="707" vert-adv-y="1000"/><glyph glyph-name="uni0148" unicode="ň" d="m24-3 115 542h78l-11-99q19 24 45 49.5t59.5 42.5q33.5 17 77.5 17 64 0 101-35.5t37-99.5q0-23-3.5-47t-7.5-42L444-3h-94l72 340q4 23 7 38.5t3 29.5q0 64-68 64-34 0-72.5-23.5t-72-75.5Q186 318 168 230L118-3H24m293 609q-14 38-38.5 78T235 753v13h53q19-16 39-40t40-51q31 27 62 50.5t58 40.5h57v-13q-17-15-45-41.5t-55-55Q417 628 403 606h-86z" horiz-adv-x="579" vert-adv-y="1000"/><glyph glyph-name="uni0149" unicode="ŉ" d="m102-3 115 542h78l-11-99q19 24 45 49.5t59.5 42.5q33.5 17 77.5 17 64 0 101-35.5t37-99.5q0-23-3.5-47t-7.5-42L522-3h-94l72 340q4 23 7 38.5t3 29.5q0 64-68 64-34 0-72.5-23.5t-72-75.5Q264 318 246 230L196-3h-94M41 469q26 59 54 126t45 119h96l4-11q-24-53-60-116t-72-118H41z" horiz-adv-x="657" vert-adv-y="1000"/><glyph glyph-name="uni014A" unicode="Ŋ" d="M350-189q-23 0-44.5 3.5T274-177l3 77q15-4 33-7t39-3q43 0 77 25t47 85L245 592h-4q-5-38-14-93.5T206 388L124 0H40l151 714h95l219-583h3q7 42 17 98.5T546 339l80 375h86L561 0q-21-101-76-145t-135-44z" horiz-adv-x="707" vert-adv-y="1000"/><glyph glyph-name="uni014B" unicode="ŋ" d="M262-240q-18 0-33.5 3t-28.5 7v74q14-4 28-7.5t30-3.5q60 0 81 99l86 404q5 22 7.5 38.5T435 405q0 31-17 49t-54 18q-34 0-73-23.5T218 372q-34-53-53-141L116 0H28l114 536h72l-11-99h5q19 25 44.5 50t59 42q33.5 17 76.5 17 62 0 98.5-34t36.5-98q0-23-3.5-44.5T512 326L426-78q-16-74-52.5-118T262-240z" horiz-adv-x="579" vert-adv-y="1000"/><glyph glyph-name="uni014C" unicode="Ō" d="M337-10q-128 0-196.5 74.5T72 267q0 92 24.5 175T168 588.5q47 63.5 114 100T433 725q121 0 189-75.5T690 444q0-93-22.5-175t-67-144.5Q556 62 490 26T337-10m3 79q60 0 107 30t80 82.5Q560 234 577.5 302T595 446q0 95-45 147.5T427 646q-60 0-108-29.5t-82-81q-34-51.5-52-120T167 269q0-95 46-147.5T340 69m-8 715 15 71h269l-15-71H332z" horiz-adv-x="721" vert-adv-y="1000"/><glyph glyph-name="uni014D" unicode="ō" d="M248-8q-93 0-146.5 55.5T48 198q0 62 17 123t50.5 111q33.5 50 84 80.5T316 543q94 0 147-55.5T516 336q0-61-17-122t-50.5-111Q415 53 365 22.5T248-8m5 73q47 0 86.5 33.5t63 96.5Q426 258 426 346q0 30-10.5 58.5t-34.5 47Q357 470 317 470q-55 0-95.5-37.5t-62.5-100Q137 270 137 195q0-62 30.5-96T253 65m-55 541 15 71h269l-15-71H198z" horiz-adv-x="563" vert-adv-y="1000"/><glyph glyph-name="uni014E" unicode="Ŏ" d="M337-10q-128 0-196.5 74.5T72 267q0 92 24.5 175T168 588.5q47 63.5 114 100T433 725q121 0 189-75.5T690 444q0-93-22.5-175t-67-144.5Q556 62 490 26T337-10m3 79q60 0 107 30t80 82.5Q560 234 577.5 302T595 446q0 95-45 147.5T427 646q-60 0-108-29.5t-82-81q-34-51.5-52-120T167 269q0-95 46-147.5T340 69m128 715q-54 0-89 28.5T344 896v10.5q0 5.5 1 11.5h52q0-29 18-45t62-16q46 0 69 16.5t30 44.5h55q-16-72-58-103t-105-31z" horiz-adv-x="721" vert-adv-y="1000"/><glyph glyph-name="uni014F" unicode="ŏ" d="M248-8q-93 0-146.5 55.5T48 198q0 62 17 123t50.5 111q33.5 50 84 80.5T316 543q94 0 147-55.5T516 336q0-61-17-122t-50.5-111Q415 53 365 22.5T248-8m5 73q47 0 86.5 33.5t63 96.5Q426 258 426 346q0 30-10.5 58.5t-34.5 47Q357 470 317 470q-55 0-95.5-37.5t-62.5-100Q137 270 137 195q0-62 30.5-96T253 65m81 541q-54 0-89 28.5T210 718v10.5q0 5.5 1 11.5h52q0-29 18-45t62-16q46 0 69 16.5t30 44.5h55q-16-72-58-103t-105-31z" horiz-adv-x="563" vert-adv-y="1000"/><glyph glyph-name="uni0150" unicode="Ő" d="M337-10q-128 0-196.5 74.5T72 267q0 92 24.5 175T168 588.5q47 63.5 114 100T433 725q121 0 189-75.5T690 444q0-93-22.5-175t-67-144.5Q556 62 490 26T337-10m3 79q60 0 107 30t80 82.5Q560 234 577.5 302T595 446q0 95-45 147.5T427 646q-60 0-108-29.5t-82-81q-34-51.5-52-120T167 269q0-95 46-147.5T340 69m180 715v13q18 19 38.5 45t40 53q19.5 27 33.5 49h90v-10q-14-18-41-46.5t-58-57Q592 802 566 784h-46m-169 0v13q17 19 38 45t40.5 53q19.5 27 33.5 49h90v-10q-13-18-40.5-46.5t-59-57Q422 802 397 784h-46z" horiz-adv-x="721" vert-adv-y="1000"/><glyph glyph-name="uni0151" unicode="ő" d="M248-8q-93 0-146.5 55.5T48 198q0 62 17 123t50.5 111q33.5 50 84 80.5T316 543q94 0 147-55.5T516 336q0-61-17-122t-50.5-111Q415 53 365 22.5T248-8m5 73q47 0 86.5 33.5t63 96.5Q426 258 426 346q0 30-10.5 58.5t-34.5 47Q357 470 317 470q-55 0-95.5-37.5t-62.5-100Q137 270 137 195q0-62 30.5-96T253 65m133 541v13q18 19 38.5 45t40 53q19.5 27 33.5 49h90v-10q-14-18-41-46.5t-58-57Q458 624 432 606h-46m-169 0v13q17 19 38 45t40.5 53q19.5 27 33.5 49h90v-10q-13-18-40.5-46.5t-59-57Q288 624 263 606h-46z" horiz-adv-x="563" vert-adv-y="1000"/><glyph glyph-name="uni0152" unicode="Œ" d="M337-10q-128 0-196.5 74.5T72 267q0 92 24.5 175T168 588.5q47 63.5 114 100T433 725q72 0 115-11h351l-16-79H609l-48-223h256l-16-78H545L491 79h274L748 0H415q-18-4-37.5-7T337-10m3 79q34 0 61 9l118 557q-39 11-92 11-60 0-108-29.5t-82-81q-34-51.5-52-120T167 269q0-95 46-147.5T340 69z" horiz-adv-x="859" vert-adv-y="1000"/><glyph glyph-name="uni0153" unicode="œ" d="M243-8q-89 0-142 55.5T48 198q0 62 17 123t51 111q34 50 85.5 80.5T321 543q73 0 113-30.5t60-76.5q36 52 86 81t109 29q65 0 106-30.5t41-94.5q0-53-31.5-95.5t-99.5-68Q637 232 527 232h-21q-1-9-1.5-19t-.5-18q0-61 30-96.5T625 63q37 0 71 11.5t74 29.5V27Q730 8 691.5-1T609-10q-63 0-107.5 27T435 96q-31-47-79-75.5T243-8m273 311h10q60 0 111 11t82 35.5q31 24.5 31 67.5 0 23-15.5 39.5T688 473q-56 0-103-42.5T516 303M248 65q58 0 98 37t60.5 100.5Q427 266 427 346q0 56-27 90t-83 34q-55 0-95.5-37.5t-62.5-99Q137 272 137 200q0-66 29.5-100.5T248 65z" horiz-adv-x="866" vert-adv-y="1000"/><glyph glyph-name="uni0154" unicode="Ŕ" d="m41 0 151 714h157q220 0 220-181 0-77-40.5-134T391 315L509 0h-98L309 295H192L130 0H41m167 371h78q100 0 145.5 43.5T477 527q0 61-34.5 85T341 636h-76l-57-265m136 413v13q17 19 38 45t40 53q19 27 34 49h100v-10q-14-18-41.5-46.5t-58.5-57Q425 802 399 784h-55z" horiz-adv-x="573" vert-adv-y="1000"/><glyph glyph-name="uni0155" unicode="ŕ" d="m28 0 114 536h72l-11-99h5q21 27 44 52t52 41q29 16 67 16 14 0 29.5-1.5T429 539l-19-79q-27 6-51 6-50 0-89-33t-65-84q-26-51-37-104L116 0H28m222 606v13q17 19 38 45t40 53q19 27 34 49h100v-10q-14-18-41.5-46.5t-58.5-57Q331 624 305 606h-55z" horiz-adv-x="398" vert-adv-y="1000"/><glyph glyph-name="uni0156" unicode="Ŗ" d="m41 0 151 714h157q220 0 220-181 0-77-40.5-134T391 315L509 0h-98L309 295H192L130 0H41m167 371h78q100 0 145.5 43.5T477 527q0 61-34.5 85T341 636h-76l-57-265m-65-592v13q10 16 24 42.5t26.5 55Q206-82 214-61h83v-10q-6-16-23-43t-39-56.5Q213-200 191-221h-48z" horiz-adv-x="573" vert-adv-y="1000"/><glyph glyph-name="uni0157" unicode="ŗ" d="m28 0 114 536h72l-11-99h5q21 27 44 52t52 41q29 16 67 16 14 0 29.5-1.5T429 539l-19-79q-27 6-51 6-50 0-89-33t-65-84q-26-51-37-104L116 0H28m-60-221v13q10 16 24 42.5t26.5 55Q31-82 39-61h83v-10q-6-16-23-43t-39-56.5Q38-200 16-221h-48z" horiz-adv-x="398" vert-adv-y="1000"/><glyph glyph-name="uni0158" unicode="Ř" d="m41 0 151 714h157q220 0 220-181 0-77-40.5-134T391 315L509 0h-98L309 295H192L130 0H41m167 371h78q100 0 145.5 43.5T477 527q0 61-34.5 85T341 636h-76l-57-265m142 413q-14 38-38.5 78T268 931v13h53q19-16 39-40t40-51q31 27 62 50.5t58 40.5h57v-13q-17-15-45-41.5t-55-55Q450 806 436 784h-86z" horiz-adv-x="573" vert-adv-y="1000"/><glyph glyph-name="uni0159" unicode="ř" d="m28 0 114 536h72l-11-99h5q21 27 44 52t52 41q29 16 67 16 14 0 29.5-1.5T429 539l-19-79q-27 6-51 6-50 0-89-33t-65-84q-26-51-37-104L116 0H28m228 606q-14 38-38.5 78T174 753v13h53q19-16 39-40t40-51q31 27 62 50.5t58 40.5h57v-13q-17-15-45-41.5t-55-55Q356 628 342 606h-86z" horiz-adv-x="398" vert-adv-y="1000"/><glyph glyph-name="uni015A" unicode="Ś" d="M185-10q-52 0-91.5 8T19 22v88q30-16 71.5-29T186 68q45 0 83 14t61 43q23 29 23 75 0 40-26.5 68.5T235 334q-38 22-67.5 47t-46 57Q105 470 105 517q0 66 32 112.5t85.5 70.5Q276 724 340 724q56 0 98.5-11t80.5-31l-34-76q-26 14-65 26.5T340 645q-62 0-101-32t-39-90q0-31 11-51t34-37q23-17 57-37 43-26 75.5-51t51-58q18.5-33 18.5-82 0-107-71.5-162T185-10m115 794v13q17 19 38 45t40 53q19 27 34 49h100v-10q-14-18-41.5-46.5t-58.5-57Q381 802 355 784h-55z" horiz-adv-x="505" vert-adv-y="1000"/><glyph glyph-name="uni015B" unicode="ś" d="M155-10q-49 0-85.5 9.5T5 24v81q25-16 65-29.5T152 62q59 0 90 23t31 61q0 29-19 48.5T183 243q-57 32-86 66t-29 85q0 68 49.5 110T250 546q49 0 90.5-11.5T412 509l-28-70q-26 12-58 22.5T250 472q-44 0-69-20.5T156 399q0-26 17.5-45.5T244 305q34-20 61-40t42.5-46.5Q363 192 363 155q0-81-56.5-123T155-10m69 616v13q17 19 38 45t40 53q19 27 34 49h100v-10q-14-18-41.5-46.5t-58.5-57Q305 624 279 606h-55z" horiz-adv-x="432" vert-adv-y="1000"/><glyph glyph-name="uni015C" unicode="Ŝ" d="M185-10q-52 0-91.5 8T19 22v88q30-16 71.5-29T186 68q45 0 83 14t61 43q23 29 23 75 0 40-26.5 68.5T235 334q-38 22-67.5 47t-46 57Q105 470 105 517q0 66 32 112.5t85.5 70.5Q276 724 340 724q56 0 98.5-11t80.5-31l-34-76q-26 14-65 26.5T340 645q-62 0-101-32t-39-90q0-31 11-51t34-37q23-17 57-37 43-26 75.5-51t51-58q18.5-33 18.5-82 0-107-71.5-162T185-10m4 794v13q17 15 45 41.5t54.5 55Q315 922 329 944h85q15-39 40-78.5t44-68.5v-13h-55q-18 16-38.5 40T364 875q-30-27-60.5-50.5T247 784h-58z" horiz-adv-x="505" vert-adv-y="1000"/><glyph glyph-name="uni015D" unicode="ŝ" d="M155-10q-49 0-85.5 9.5T5 24v81q25-16 65-29.5T152 62q59 0 90 23t31 61q0 29-19 48.5T183 243q-57 32-86 66t-29 85q0 68 49.5 110T250 546q49 0 90.5-11.5T412 509l-28-70q-26 12-58 22.5T250 472q-44 0-69-20.5T156 399q0-26 17.5-45.5T244 305q34-20 61-40t42.5-46.5Q363 192 363 155q0-81-56.5-123T155-10m-42 616v13q17 15 45 41.5t54.5 55Q239 744 253 766h85q15-39 40-78.5t44-68.5v-13h-55q-18 16-38.5 40T288 697q-30-27-60.5-50.5T171 606h-58z" horiz-adv-x="432" vert-adv-y="1000"/><glyph glyph-name="uni015E" unicode="Ş" d="M185-10q-52 0-91.5 8T19 22v88q30-16 71.5-29T186 68q45 0 83 14t61 43q23 29 23 75 0 40-26.5 68.5T235 334q-38 22-67.5 47t-46 57Q105 470 105 517q0 66 32 112.5t85.5 70.5Q276 724 340 724q56 0 98.5-11t80.5-31l-34-76q-26 14-65 26.5T340 645q-62 0-101-32t-39-90q0-31 11-51t34-37q23-17 57-37 43-26 75.5-51t51-58q18.5-33 18.5-82 0-107-71.5-162T185-10m-60-230q-27 0-45 5v52q10-2 19.5-3t16.5-1q82 0 82 53 0 22-18.5 32T131-88l48 88h56l-29-57q23-7 43.5-23.5T270-134q0-45-37.5-75.5T125-240z" horiz-adv-x="505" vert-adv-y="1000"/><glyph glyph-name="uni015F" unicode="ş" d="M155-10q-49 0-85.5 9.5T5 24v81q25-16 65-29.5T152 62q59 0 90 23t31 61q0 29-19 48.5T183 243q-57 32-86 66t-29 85q0 68 49.5 110T250 546q49 0 90.5-11.5T412 509l-28-70q-26 12-58 22.5T250 472q-44 0-69-20.5T156 399q0-26 17.5-45.5T244 305q34-20 61-40t42.5-46.5Q363 192 363 155q0-81-56.5-123T155-10M88-240q-27 0-45 5v52q10-2 19.5-3t16.5-1q82 0 82 53 0 22-18.5 32T94-88l48 88h56l-29-57q23-7 43.5-23.5T233-134q0-45-37.5-75.5T88-240z" horiz-adv-x="432" vert-adv-y="1000"/><glyph glyph-name="uni0160" unicode="Š" d="M185-10q-52 0-91.5 8T19 22v88q30-16 71.5-29T186 68q45 0 83 14t61 43q23 29 23 75 0 40-26.5 68.5T235 334q-38 22-67.5 47t-46 57Q105 470 105 517q0 66 32 112.5t85.5 70.5Q276 724 340 724q56 0 98.5-11t80.5-31l-34-76q-26 14-65 26.5T340 645q-62 0-101-32t-39-90q0-31 11-51t34-37q23-17 57-37 43-26 75.5-51t51-58q18.5-33 18.5-82 0-107-71.5-162T185-10m121 794q-14 38-38.5 78T224 931v13h53q19-16 39-40t40-51q31 27 62 50.5t58 40.5h57v-13q-17-15-45-41.5t-55-55Q406 806 392 784h-86z" horiz-adv-x="505" vert-adv-y="1000"/><glyph glyph-name="uni0161" unicode="š" d="M155-10q-49 0-85.5 9.5T5 24v81q25-16 65-29.5T152 62q59 0 90 23t31 61q0 29-19 48.5T183 243q-57 32-86 66t-29 85q0 68 49.5 110T250 546q49 0 90.5-11.5T412 509l-28-70q-26 12-58 22.5T250 472q-44 0-69-20.5T156 399q0-26 17.5-45.5T244 305q34-20 61-40t42.5-46.5Q363 192 363 155q0-81-56.5-123T155-10m75 616q-14 38-38.5 78T148 753v13h53q19-16 39-40t40-51q31 27 62 50.5t58 40.5h57v-13q-17-15-45-41.5t-55-55Q330 628 316 606h-86z" horiz-adv-x="432" vert-adv-y="1000"/><glyph glyph-name="uni021A" unicode="Ț" d="m152 0 134 635H90l17 79h482l-16-79H377L242 0h-90M87-221v13q10 16 24 42.5t26.5 55Q150-82 158-61h83v-10q-6-16-23-43t-39-56.5Q157-200 135-221H87z" horiz-adv-x="501" vert-adv-y="1000"/><glyph glyph-name="uni021B" unicode="ț" d="M185-10q-54 0-91 26t-37 91q0 32 9 71l61 291H44l8 40 90 38 62 111h52l-27-122h135l-14-67H216l-62-292q-3-13-6-29.5t-3-30.5q0-23 12.5-39T198 62q18 0 35 3.5t36 9.5V8q-12-6-37-12t-47-6M39-221v13q10 16 24 42.5t26.5 55Q102-82 110-61h83v-10q-6-16-23-43t-39-56.5Q109-200 87-221H39z" horiz-adv-x="332" vert-adv-y="1000"/><glyph glyph-name="uni0164" unicode="Ť" d="m152 0 134 635H90l17 79h482l-16-79H377L242 0h-90m162 784q-14 38-38.5 78T232 931v13h53q19-16 39-40t40-51q31 27 62 50.5t58 40.5h57v-13q-17-15-45-41.5t-55-55Q414 806 400 784h-86z" horiz-adv-x="501" vert-adv-y="1000"/><glyph glyph-name="uni0165" unicode="ť" d="M185-10q-54 0-91 26t-37 91q0 32 9 71l61 291H44l8 40 90 38 62 111h52l-27-122h135l-14-67H216l-62-292q-3-13-6-29.5t-3-30.5q0-23 12.5-39T198 62q18 0 35 3.5t36 9.5V8q-12-6-37-12t-47-6m102 610v13q11 17 24.5 43t26.5 54q13 28 21 50h83v-10q-7-16-24-43t-39-56q-22-29-43-51h-49z" horiz-adv-x="332" vert-adv-y="1000"/><glyph glyph-name="uni0166" unicode="Ŧ" d="m152 0 69 327H83l16 73h136l51 235H90l17 79h482l-16-79H377l-51-235h141l-15-73H311L242 0h-90z" horiz-adv-x="501" vert-adv-y="1000"/><glyph glyph-name="uni0167" unicode="ŧ" d="M185-10q-54 0-91 26t-37 91q0 15 2.5 33t6.5 38l21 104H20l14 66h67l26 121H44l8 40 90 38 62 111h52l-27-122h135l-14-67H216l-26-121h118l-13-66H176l-22-105q-3-13-6-29.5t-3-30.5q0-23 12.5-39T198 62q18 0 35 3.5t36 9.5V8q-12-6-37-12t-47-6z" horiz-adv-x="332" vert-adv-y="1000"/><glyph glyph-name="uni0168" unicode="Ũ" d="M300-10q-112 0-166.5 51.5T79 188q0 17 3 41.5t9 53.5l92 431h89l-93-436q-5-23-8-48t-3-41q0-56 34.5-88T305 69q89 0 132 46t63 135l99 464h89L588 243q-16-78-50.5-135T445 20.5Q387-10 300-10m-21 794q14 62 43 95t72 33q29 0 54-14t46-27.5q21-13.5 38-13.5 22 0 34 13t24 43h53q-16-62-45-95t-72-33q-27 0-50.5 13.5t-45 27.5Q409 840 387 840q-21 0-33.5-14T331 784h-52z" horiz-adv-x="677" vert-adv-y="1000"/><glyph glyph-name="uni0169" unicode="ũ" d="M189-10q-61 0-97.5 34T55 123q0 23 3.5 43t7.5 43l70 327h89l-72-337q-9-43-9-67 0-32 16-50.5T214 63q34 0 73 24t73.5 77Q395 217 414 305l49 231h87L436 0h-72l11 99h-5q-19-25-44.5-50T266 7q-34-17-77-17m3 616q14 62 43 95t72 33q29 0 54-14t46-27.5q21-13.5 38-13.5 22 0 34 13t24 43h53q-16-62-45-95t-72-33q-27 0-50.5 13.5t-45 27.5Q322 662 300 662q-21 0-33.5-14T244 606h-52z" horiz-adv-x="579" vert-adv-y="1000"/><glyph glyph-name="uni016A" unicode="Ū" d="M300-10q-112 0-166.5 51.5T79 188q0 17 3 41.5t9 53.5l92 431h89l-93-436q-5-23-8-48t-3-41q0-56 34.5-88T305 69q89 0 132 46t63 135l99 464h89L588 243q-16-78-50.5-135T445 20.5Q387-10 300-10m10 794 15 71h269l-15-71H310z" horiz-adv-x="677" vert-adv-y="1000"/><glyph glyph-name="uni016B" unicode="ū" d="M189-10q-61 0-97.5 34T55 123q0 23 3.5 43t7.5 43l70 327h89l-72-337q-9-43-9-67 0-32 16-50.5T214 63q34 0 73 24t73.5 77Q395 217 414 305l49 231h87L436 0h-72l11 99h-5q-19-25-44.5-50T266 7q-34-17-77-17m34 616 15 71h269l-15-71H223z" horiz-adv-x="579" vert-adv-y="1000"/><glyph glyph-name="uni016C" unicode="Ŭ" d="M300-10q-112 0-166.5 51.5T79 188q0 17 3 41.5t9 53.5l92 431h89l-93-436q-5-23-8-48t-3-41q0-56 34.5-88T305 69q89 0 132 46t63 135l99 464h89L588 243q-16-78-50.5-135T445 20.5Q387-10 300-10m146 794q-54 0-89 28.5T322 896v10.5q0 5.5 1 11.5h52q0-29 18-45t62-16q46 0 69 16.5t30 44.5h55q-16-72-58-103t-105-31z" horiz-adv-x="677" vert-adv-y="1000"/><glyph glyph-name="uni016D" unicode="ŭ" d="M189-10q-61 0-97.5 34T55 123q0 23 3.5 43t7.5 43l70 327h89l-72-337q-9-43-9-67 0-32 16-50.5T214 63q34 0 73 24t73.5 77Q395 217 414 305l49 231h87L436 0h-72l11 99h-5q-19-25-44.5-50T266 7q-34-17-77-17m170 616q-54 0-89 28.5T235 718v10.5q0 5.5 1 11.5h52q0-29 18-45t62-16q46 0 69 16.5t30 44.5h55q-16-72-58-103t-105-31z" horiz-adv-x="579" vert-adv-y="1000"/><glyph glyph-name="uni016E" unicode="Ů" d="M300-10q-112 0-166.5 51.5T79 188q0 17 3 41.5t9 53.5l92 431h89l-93-436q-5-23-8-48t-3-41q0-56 34.5-88T305 69q89 0 132 46t63 135l99 464h89L588 243q-16-78-50.5-135T445 20.5Q387-10 300-10m154 794q-48 0-78 27.5T346 889q0 49 32 76.5t76 27.5q48 0 78.5-27t30.5-76q0-51-31-78.5T454 784m0 50q25 0 40.5 15t15.5 40q0 25-15.5 40T454 944q-23 0-39-15t-16-40q0-25 14.5-40t40.5-15z" horiz-adv-x="677" vert-adv-y="1000"/><glyph glyph-name="uni016F" unicode="ů" d="M189-10q-61 0-97.5 34T55 123q0 23 3.5 43t7.5 43l70 327h89l-72-337q-9-43-9-67 0-32 16-50.5T214 63q34 0 73 24t73.5 77Q395 217 414 305l49 231h87L436 0h-72l11 99h-5q-19-25-44.5-50T266 7q-34-17-77-17m178 616q-48 0-78 27.5T259 711q0 49 32 76.5t76 27.5q48 0 78.5-27t30.5-76q0-51-31-78.5T367 606m0 50q25 0 40.5 15t15.5 40q0 25-15.5 40T367 766q-23 0-39-15t-16-40q0-25 14.5-40t40.5-15z" horiz-adv-x="579" vert-adv-y="1000"/><glyph glyph-name="uni0170" unicode="Ű" d="M300-10q-112 0-166.5 51.5T79 188q0 17 3 41.5t9 53.5l92 431h89l-93-436q-5-23-8-48t-3-41q0-56 34.5-88T305 69q89 0 132 46t63 135l99 464h89L588 243q-16-78-50.5-135T445 20.5Q387-10 300-10m198 794v13q18 19 38.5 45t40 53q19.5 27 33.5 49h90v-10q-14-18-41-46.5t-58-57Q570 802 544 784h-46m-169 0v13q17 19 38 45t40.5 53q19.5 27 33.5 49h90v-10q-13-18-40.5-46.5t-59-57Q400 802 375 784h-46z" horiz-adv-x="677" vert-adv-y="1000"/><glyph glyph-name="uni0171" unicode="ű" d="M189-10q-61 0-97.5 34T55 123q0 23 3.5 43t7.5 43l70 327h89l-72-337q-9-43-9-67 0-32 16-50.5T214 63q34 0 73 24t73.5 77Q395 217 414 305l49 231h87L436 0h-72l11 99h-5q-19-25-44.5-50T266 7q-34-17-77-17m222 616v13q18 19 38.5 45t40 53q19.5 27 33.5 49h90v-10q-14-18-41-46.5t-58-57Q483 624 457 606h-46m-169 0v13q17 19 38 45t40.5 53q19.5 27 33.5 49h90v-10q-13-18-40.5-46.5t-59-57Q313 624 288 606h-46z" horiz-adv-x="579" vert-adv-y="1000"/><glyph glyph-name="uni0172" unicode="Ų" d="M300-10q-112 0-166.5 51.5T79 188q0 17 3 41.5t9 53.5l92 431h89l-93-436q-5-23-8-48t-3-41q0-56 34.5-88T305 69q89 0 132 46t63 135l99 464h89L588 243q-16-78-50.5-135T445 20.5Q387-10 300-10m-10-207q-38 0-63.5 19.5T201-137q0 47 29.5 78T305 0h61q-20-16-41.5-35T288-77q-15-23-15-49 0-33 33-33 10 0 20.5 1.5T346-155v-55q-13-4-27.5-5.5T290-217z" horiz-adv-x="677" vert-adv-y="1000"/><glyph glyph-name="uni0173" unicode="ų" d="M189-10q-61 0-97.5 34T55 123q0 23 3.5 43t7.5 43l70 327h89l-72-337q-9-43-9-67 0-32 16-50.5T214 63q34 0 73 24t73.5 77Q395 217 414 305l49 231h87L436 0h-72l11 99h-5q-19-25-44.5-50T266 7q-34-17-77-17m162-207q-38 0-63.5 19.5T262-137q0 47 29.5 78T366 0h61q-20-16-41.5-35T349-77q-15-23-15-49 0-33 33-33 10 0 20.5 1.5T407-155v-55q-13-4-27.5-5.5T351-217z" horiz-adv-x="579" vert-adv-y="1000"/><glyph glyph-name="uni0174" unicode="Ŵ" d="m137 0-30 714h88l14-435q1-41-.5-85t-3.5-84h3q14 39 34 89.5t41 94.5l196 420h91l20-418q3-47 4-98t0-88h3q13 38 29 83t35 89l187 432h95L619 0h-91l-22 460q-2 33-3 70.5t-1 68.5h-3q-10-30-23.5-61.5T440 457L229 0h-92m237 784v13q17 15 45 41.5t54.5 55Q500 922 514 944h85q15-39 40-78.5t44-68.5v-13h-55q-18 16-38.5 40T549 875q-30-27-60.5-50.5T432 784h-58z" horiz-adv-x="856" vert-adv-y="1000"/><glyph glyph-name="uni0175" unicode="ŵ" d="M79 0 57 536h86l8-286q1-55-.5-99.5T147 77h4q7 21 18.5 49.5t24 57Q206 212 216 233l141 303h95l17-287q1-37 2-85.5T470 77h4q13 38 33 89.5T551 273l117 263h93L513 0H407l-15 290q-2 40-1.5 77t.5 84h-4q-13-37-26.5-68.5T323 300L183 0H79m181 606v13q17 15 45 41.5t54.5 55Q386 744 400 766h85q15-39 40-78.5t44-68.5v-13h-55q-18 16-38.5 40T435 697q-30-27-60.5-50.5T318 606h-58z" horiz-adv-x="723" vert-adv-y="1000"/><glyph glyph-name="uni0176" unicode="Ŷ" d="m150 0 58 268L92 714h89l85-358 234 358h101L295 265 240 0h-90m51 784v13q17 15 45 41.5t54.5 55Q327 922 341 944h85q15-39 40-78.5t44-68.5v-13h-55q-18 16-38.5 40T376 875q-30-27-60.5-50.5T259 784h-58z" horiz-adv-x="509" vert-adv-y="1000"/><glyph glyph-name="uni0177" unicode="ŷ" d="M-25-240q-24 0-39.5 3t-29.5 7v71q14-4 30-6.5t34-2.5q40 0 69 25t55 73l35 62-81 544h88l35-265q5-33 7.5-71t4-72.5Q184 93 184 72h3q7 16 20.5 48t29.5 66q16 34 28 56l156 294h94L175-90q-41-75-85-112.5T-25-240m148 846v13q17 15 45 41.5t54.5 55Q249 744 263 766h85q15-39 40-78.5t44-68.5v-13h-55q-18 16-38.5 40T298 697q-30-27-60.5-50.5T181 606h-58z" horiz-adv-x="467" vert-adv-y="1000"/><glyph glyph-name="uni0178" unicode="Ÿ" d="m150 0 58 268L92 714h89l85-358 234 358h101L295 265 240 0h-90m311 809q-18 0-30 11t-12 31q0 23 14 40t39 17q20 0 30-11t10-29q0-28-16-43.5T461 809m-179 0q-19 0-31 11t-12 31q0 23 14 40t39 17q21 0 30.5-11t9.5-29q0-28-15.5-43.5T282 809z" horiz-adv-x="509" vert-adv-y="1000"/><glyph glyph-name="uni0179" unicode="Ź" d="M-10 0 4 70l445 564H134l17 80h422l-13-71L115 80h335L434 0H-10m333 784v13q17 19 38 45t40 53q19 27 34 49h100v-10q-14-18-41.5-46.5t-58.5-57Q404 802 378 784h-55z" horiz-adv-x="531" vert-adv-y="1000"/><glyph glyph-name="uni017A" unicode="ź" d="m-15 0 12 60 333 410H100l14 66h325l-14-71L98 66h255L340 0H-15m257 606v13q17 19 38 45t40 53q19 27 34 49h100v-10q-14-18-41.5-46.5t-58.5-57Q323 624 297 606h-55z" horiz-adv-x="445" vert-adv-y="1000"/><glyph glyph-name="uni017B" unicode="Ż" d="M-10 0 4 70l445 564H134l17 80h422l-13-71L115 80h335L434 0H-10m393 803q-20 0-34 12.5T335 850q0 26 15.5 45t43.5 19q46 0 46-45 0-31-18-48.5T383 803z" horiz-adv-x="531" vert-adv-y="1000"/><glyph glyph-name="uni017C" unicode="ż" d="m-15 0 12 60 333 410H100l14 66h325l-14-71L98 66h255L340 0H-15m317 625q-20 0-34 12.5T254 672q0 26 15.5 45t43.5 19q46 0 46-45 0-31-18-48.5T302 625z" horiz-adv-x="445" vert-adv-y="1000"/><glyph glyph-name="uni017D" unicode="Ž" d="M-10 0 4 70l445 564H134l17 80h422l-13-71L115 80h335L434 0H-10m339 784q-14 38-38.5 78T247 931v13h53q19-16 39-40t40-51q31 27 62 50.5t58 40.5h57v-13q-17-15-45-41.5t-55-55Q429 806 415 784h-86z" horiz-adv-x="531" vert-adv-y="1000"/><glyph glyph-name="uni017E" unicode="ž" d="m-15 0 12 60 333 410H100l14 66h325l-14-71L98 66h255L340 0H-15m263 606q-14 38-38.5 78T166 753v13h53q19-16 39-40t40-51q31 27 62 50.5t58 40.5h57v-13q-17-15-45-41.5t-55-55Q348 628 334 606h-86z" horiz-adv-x="445" vert-adv-y="1000"/><glyph glyph-name="uni017F" unicode="ſ" d="M-64-240q-19 0-34.5 3t-27.5 7v74q13-4 26-7.5t29-3.5q31 0 53.5 28T16-53l135 640q15 69 38.5 107.5t59 54.5q35.5 16 84.5 16 25 0 52-5.5t43-13.5l-23-67q-14 5-31 9.5t-35 4.5q-40 0-63-22t-36-84L103-63q-18-83-56-130t-111-47z" horiz-adv-x="283" vert-adv-y="1000"/><glyph glyph-name="uni0192" unicode="ƒ" d="M63-240q-19 0-35 3t-28 7v74q13-4 26.5-7.5T56-167q30 0 53 28t34 86l98 461h-92l6 36 100 33 13 69q20 101 64.5 139.5T451 724q25 0 51.5-6t42.5-13l-23-67q-14 5-30.5 9.5T456 652q-40 0-63-22t-36-84l-15-72h115l-13-66H328L229-63q-18-83-55.5-130T63-240z" horiz-adv-x="551" vert-adv-y="1000"/><glyph glyph-name="uni01FA" unicode="Ǻ" d="M337 829v10q26 23 56.5 57.5T447 958h110v-9q-13-13-41-35.5T456.5 868Q425 845 399 829h-62M-57 0l341 631q-21 25-21 68 0 49 32 77t76 28q48 0 79-27.5t31-76.5q0-29-12.5-51.5T437 612L513 0h-87l-26 222H158L41 0h-98m428 644q25 0 40.5 15t15.5 40q0 26-15.5 41T371 755q-23 0-39-15t-16-41q0-25 14.5-40t40.5-15M201 302h189l-16 141q-4 38-7.5 75t-5.5 69h-13q-16-32-33.5-68.5T276 443l-75-141z" horiz-adv-x="562" vert-adv-y="1000"/><glyph glyph-name="uni01FB" unicode="ǻ" d="M323 830v9q26 24 57 58t53 61h110v-9q-13-13-41-35.5t-60-45Q410 846 384 830h-61m31-245q-49 0-79 27.5T245 689q0 50 32 77.5t77 27.5q46 0 77-27t31-77q0-50-31-77.5T354 585m0 49q23 0 39 15t16 40q0 26-16 40.5T354 744q-25 0-40-14.5T299 689q0-25 13.5-40t41.5-15M193-10q-65 0-105 46.5T48 173q0 75 19.5 142.5t54.5 119q35 51.5 83 81.5t106 30q53 0 86-28t49-65h5l32 83h67L436 0h-70l13 99h-4q-35-44-80.5-76.5T193-10m29 73q36 0 72 27t64.5 72.5Q387 208 403 266q7 28 10 53t3 46q0 47-26 77t-70 30q-39 0-72-24.5t-58-67Q165 338 151.5 284T138 171q0-54 22-81t62-27z" horiz-adv-x="568" vert-adv-y="1000"/><glyph glyph-name="uni01FC" unicode="Ǽ" d="m-58 0 457 714h465l-16-79H574l-48-223h256l-15-78H511L457 79h273L713 0H350l47 222H183L44 0H-58m292 302h179l71 333h-41L234 302m235 482v13q17 19 38 45t40 53q19 27 34 49h100v-10q-14-18-41.5-46.5t-58.5-57Q550 802 524 784h-55z" horiz-adv-x="824" vert-adv-y="1000"/><glyph glyph-name="uni01FD" unicode="ǽ" d="M177-10q-58 0-93.5 47T48 172q0 76 19.5 143.5t54 119.5q34.5 52 81 81.5T303 546q48 0 77-28t45-65h5l33 83h56l-14-69q25 35 65.5 57t94.5 22q53 0 93-30.5t40-94.5q0-53-32-95.5t-101-68Q596 232 486 232h-20q-1-9-1.5-19t-.5-18q0-61 30-96.5T587 63q37 0 71.5 12t73.5 29V27Q692 9 653-.5T571-10q-53 0-92.5 19T419 66L405 0h-59l12 99h-4q-40-49-81-79t-96-30m302 313h9q60 0 111 10.5t81.5 34.5q30.5 24 30.5 64 0 32-18.5 46.5T648 473q-55 0-100.5-44.5T479 303M206 63q36 0 70.5 27t62.5 73q28 46 44 104 7 28 10 52.5t3 45.5q0 47-21.5 77T315 472q-37 0-69-24.5T189.5 381q-24.5-42-38-96T138 172q0-55 18-82t50-27m223 543v13q17 19 38 45t40 53q19 27 34 49h100v-10q-14-18-41.5-46.5t-58.5-57Q510 624 484 606h-55z" horiz-adv-x="820" vert-adv-y="1000"/><glyph glyph-name="uni01FE" unicode="Ǿ" d="M114-41 57 5l66 82q-26 35-38.5 81T72 267q0 92 24.5 175T168 588.5q47 63.5 114 100T433 725q93 0 160-52l63 79 58-46-72-88q23-31 35.5-76.5T690 444q0-93-22.5-175t-67-144.5Q556 62 490 26T337-10q-96 0-161 46l-62-77m71 205 353 442q-21 20-48.5 30.5T427 647q-60 0-108-29.5T236.5 536Q202 484 184 415.5T166 269q0-61 19-105m155-95q60 0 107.5 30t80.5 82.5Q561 234 578.5 302T596 446q0 27-4 51t-11 43L229 103q20-16 48.5-25t62.5-9m85 702v13q17 19 38 45t40 53q19 27 34 49h100v-10q-14-18-41.5-46.5t-58.5-57Q506 789 480 771h-55z" horiz-adv-x="721" vert-adv-y="1000"/><glyph glyph-name="uni01FF" unicode="ǿ" d="M82-38 29 3l54 67q-34 50-34 128 0 62 17 123t50.5 111q33.5 50 83.5 80.5T316 543q73 0 122-32l49 61 53-40-56-62q16-24 23-58t7-68q0-62-16.5-124T448 106.5q-33-51.5-83-83T249-8q-69 0-119 31L82-38m60 181 246 306q-11 9-28 15.5t-43 6.5q-55 0-96.5-37.5t-64-98.5Q134 274 134 204q0-42 8-61m111-80q47 0 87.5 33t64.5 94q24 61 24 145 0 17-1.5 31t-4.5 22L179 84q13-10 32.5-15.5T253 63m65 543v13q17 19 38 45t40 53q19 27 34 49h100v-10q-14-18-41.5-46.5t-58.5-57Q399 624 373 606h-55z" horiz-adv-x="563" vert-adv-y="1000"/><glyph glyph-name="uni0218" unicode="Ș" d="M185-10q-52 0-91.5 8T19 22v88q30-16 71.5-29T186 68q45 0 83 14t61 43q23 29 23 75 0 40-26.5 68.5T235 334q-38 22-67.5 47t-46 57Q105 470 105 517q0 66 32 112.5t85.5 70.5Q276 724 340 724q56 0 98.5-11t80.5-31l-34-76q-26 14-65 26.5T340 645q-62 0-101-32t-39-90q0-31 11-51t34-37q23-17 57-37 43-26 75.5-51t51-58q18.5-33 18.5-82 0-107-71.5-162T185-10M89-221v13q10 16 24 42.5t26.5 55Q152-82 160-61h83v-10q-6-16-23-43t-39-56.5Q159-200 137-221H89z" horiz-adv-x="505" vert-adv-y="1000"/><glyph glyph-name="uni0219" unicode="ș" d="M155-10q-49 0-85.5 9.5T5 24v81q25-16 65-29.5T152 62q59 0 90 23t31 61q0 29-19 48.5T183 243q-57 32-86 66t-29 85q0 68 49.5 110T250 546q49 0 90.5-11.5T412 509l-28-70q-26 12-58 22.5T250 472q-44 0-69-20.5T156 399q0-26 17.5-45.5T244 305q34-20 61-40t42.5-46.5Q363 192 363 155q0-81-56.5-123T155-10M52-221v13q10 16 24 42.5t26.5 55Q115-82 123-61h83v-10q-6-16-23-43t-39-56.5Q122-200 100-221H52z" horiz-adv-x="432" vert-adv-y="1000"/><glyph glyph-name="uni02C6" unicode="ˆ" d="M115 606v13q17 15 45 41.5t54.5 55Q241 744 255 766h85q15-39 40-78.5t44-68.5v-13h-55q-18 16-38.5 40T290 697q-30-27-60.5-50.5T173 606h-58z" horiz-adv-x="392" vert-adv-y="1000"/><glyph glyph-name="uni02C7" unicode="ˇ" d="M228 606q-14 38-38.5 78T146 753v13h53q19-16 39-40t40-51q31 27 62 50.5t58 40.5h57v-13q-17-15-45-41.5t-55-55Q328 628 314 606h-86z" horiz-adv-x="392" vert-adv-y="1000"/><glyph glyph-name="uni02C9" unicode="ˉ" d="m112 606 15 71h269l-15-71H112z" horiz-adv-x="349" vert-adv-y="1000"/><glyph glyph-name="uni02D8" unicode="˘" d="M263 606q-54 0-89 28.5T139 718v10.5q0 5.5 1 11.5h52q0-29 18-45t62-16q46 0 69 16.5t30 44.5h55q-16-72-58-103t-105-31z" horiz-adv-x="366" vert-adv-y="1000"/><glyph glyph-name="uni02D9" unicode="˙" d="M176 625q-20 0-34 12.5T128 672q0 26 15.5 45t43.5 19q46 0 46-45 0-31-18-48.5T176 625z" horiz-adv-x="185" vert-adv-y="1000"/><glyph glyph-name="uni02DA" unicode="˚" d="M245 606q-48 0-78 27.5T137 711q0 49 32 76.5t76 27.5q48 0 78.5-27t30.5-76q0-51-31-78.5T245 606m0 50q25 0 40.5 15t15.5 40q0 25-15.5 40T245 766q-23 0-39-15t-16-40q0-25 14.5-40t40.5-15z" horiz-adv-x="303" vert-adv-y="1000"/><glyph glyph-name="uni02DB" unicode="˛" d="M46-217q-38 0-63.5 19.5T-43-137q0 47 29.5 78T61 0h61q-20-16-41.5-35T44-77q-15-23-15-49 0-33 33-33 10 0 20.5 1.5T102-155v-55q-13-4-27.5-5.5T46-217z" horiz-adv-x="244" vert-adv-y="1000"/><glyph glyph-name="uni02DC" unicode="˜" d="M112 606q14 62 43 95t72 33q29 0 54-14t46-27.5q21-13.5 38-13.5 22 0 34 13t24 43h53q-16-62-45-95t-72-33q-27 0-50.5 13.5t-45 27.5Q242 662 220 662q-21 0-33.5-14T164 606h-52z" horiz-adv-x="417" vert-adv-y="1000"/><glyph glyph-name="uni02DD" unicode="˝" d="M284 606v13q18 19 38.5 45t40 53q19.5 27 33.5 49h90v-10q-14-18-41-46.5t-58-57Q356 624 330 606h-46m-169 0v13q17 19 38 45t40.5 53q19.5 27 33.5 49h90v-10q-13-18-40.5-46.5t-59-57Q186 624 161 606h-46z" horiz-adv-x="422" vert-adv-y="1000"/><glyph glyph-name="uni0384" unicode="΄" d="M301 606v14q13 24 29 57.5t31.5 67.5q15.5 34 25.5 61h94v-14q-9-20-30-53.5t-47-70Q378 632 356 606h-55z" horiz-adv-x="562" vert-adv-y="1000"/><glyph glyph-name="uni0385" unicode="΅" d="M274 678v11q16 29 38 71t37 78h98v-10q-23-32-59-73.5T314 678h-40m-82-47q-18 0-30 11t-12 31q0 23 13.5 40t38.5 17q21 0 30.5-11t9.5-29q0-28-16-43.5T192 631m234 0q-18 0-30 11t-12 31q0 23 13.5 40t38.5 17q20 0 30-11t10-29q0-28-16-43.5T426 631z" horiz-adv-x="452" vert-adv-y="1000"/><glyph glyph-name="uni0386" unicode="Ά" d="m-57 0 388 714h94L513 0h-88l-27 222H157L41 0h-98m257 302h189l-16 150q-4 38-7.5 84t-4.5 81h-3q-16-38-37-81.5T277 448l-77-146M44 514v14q13 24 29 57.5t31.5 67.5q15.5 34 25.5 61h94v-14q-9-20-30-53.5t-47-70Q121 540 99 514H44z" horiz-adv-x="562" vert-adv-y="1000"/><glyph glyph-name="uni0387" unicode="·" d="M133 285q-52 0-52 52 0 33 18.5 58t58.5 25q22 0 35.5-13.5T207 367q0-31-18-56.5T133 285z" horiz-adv-x="256" vert-adv-y="1000"/><glyph glyph-name="uni0388" unicode="Έ" d="m136 0 151 714h362l-17-79H359l-47-223h255l-15-78H296L241 79h274L498 0H136M48 514v14q13 24 29 57.5t31.5 67.5q15.5 34 25.5 61h94v-14q-9-20-30-53.5t-47-70Q125 540 103 514H48z" horiz-adv-x="609" vert-adv-y="1000"/><glyph glyph-name="uni0389" unicode="Ή" d="m119 0 151 714h89l-64-302h314l64 302h88L610 0h-88l70 333H278L208 0h-89M38 514v14q13 24 29 57.5T98.5 653q15.5 34 25.5 61h94v-14q-9-20-30-53.5t-47-70Q115 540 93 514H38z" horiz-adv-x="757" vert-adv-y="1000"/><glyph glyph-name="uni038A" unicode="Ί" d="m117 0 10 49 85 20 122 576-76 19 10 50h250l-10-50-86-19L300 69l77-20-10-49H117M38 514v14q13 24 29 57.5T98.5 653q15.5 34 25.5 61h94v-14q-9-20-30-53.5t-47-70Q115 540 93 514H38z" horiz-adv-x="461" vert-adv-y="1000"/><glyph glyph-name="uni038C" unicode="Ό" d="M392-10q-128 0-196.5 74.5T127 267q0 92 24.5 175T223 588.5q47 63.5 114 100T488 725q121 0 189-75.5T745 444q0-93-22.5-175t-67-144.5Q611 62 545 26T392-10m3 79q60 0 107 30t80 82.5Q615 234 632.5 302T650 446q0 95-45 147.5T482 646q-60 0-108-29.5t-82-81q-34-51.5-52-120T222 269q0-95 46-147.5T395 69M38 514v14q13 24 29 57.5T98.5 653q15.5 34 25.5 61h94v-14q-9-20-30-53.5t-47-70Q115 540 93 514H38z" horiz-adv-x="776" vert-adv-y="1000"/><glyph glyph-name="uni038E" unicode="Ύ" d="m288 0 58 268-116 446h89l85-358 234 358h101L433 265 378 0h-90M22 514v14q13 24 29 57.5T82.5 653Q98 687 108 714h94v-14q-9-20-30-53.5t-47-70Q99 540 77 514H22z" horiz-adv-x="647" vert-adv-y="1000"/><glyph glyph-name="uni038F" unicode="Ώ" d="M48 514v14q13 24 29 57.5t31.5 67.5q15.5 34 25.5 61h94v-14q-9-20-30-53.5t-47-70Q125 540 103 514H48M59 0l16 79h171q-37 37-67.5 99T148 336q0 78 23.5 148T240 608.5Q285 663 350.5 694T499 725q90 0 149-36.5t87.5-98.5Q764 528 764 450q0-84-28-153.5t-75.5-124Q613 118 553 79h177L714 0H418l14 70q67 40 121 95.5T638 292q31 71 31 159 0 55-18 99.5t-57 70Q555 646 492 646q-81 0-136.5-43.5t-84-115Q243 416 243 332q0-93 27.5-154T345 70L331 0H59z" horiz-adv-x="801" vert-adv-y="1000"/><glyph glyph-name="uni0390" unicode="ΐ" d="M174-10q-52 0-87.5 26T51 107q0 15 2.5 33.5T61 180l75 356h88l-76-359q-3-13-5.5-29t-2.5-30q0-24 11-40t40-16q17 0 33 3.5t36 9.5V8q-13-6-38.5-12T174-10m1 688v11q16 29 38 71t37 78h98v-10q-23-32-59-73.5T215 678h-40m-82-47q-18 0-30 11t-12 31q0 23 13.5 40t38.5 17q21 0 30.5-11t9.5-29q0-28-16-43.5T93 631m234 0q-18 0-30 11t-12 31q0 23 13.5 40t38.5 17q20 0 30-11t10-29q0-28-16-43.5T327 631z" horiz-adv-x="311" vert-adv-y="1000"/><glyph glyph-name="uni0391" unicode="Α" d="m-57 0 388 714h94L513 0h-88l-27 222H157L41 0h-98m257 302h189l-16 150q-4 38-7.5 84t-4.5 81h-3q-16-38-37-81.5T277 448l-77-146z" horiz-adv-x="562" vert-adv-y="1000"/><glyph glyph-name="uni0392" unicode="Β" d="m41 0 151 714h185q99 0 155.5-39T589 550q0-73-44-118.5T428 372v-5q49-13 82-49t33-96q0-73-35.5-122.5T410 25Q348 0 269 0H41m176 410h117q44 0 81 14t59 42.5q22 28.5 22 72.5 0 47-30 72.5T366 637H265l-48-227M146 76h126q85 0 131 38t46 108q0 48-31 81t-105 33H201L146 76z" horiz-adv-x="600" vert-adv-y="1000"/><glyph glyph-name="uni0393" unicode="Γ" d="m41 0 151 714h362l-16-79H264L130 0H41z" horiz-adv-x="478" vert-adv-y="1000"/><glyph glyph-name="uni0395" unicode="Ε" d="m41 0 151 714h362l-17-79H264l-47-223h255l-15-78H201L146 79h274L403 0H41z" horiz-adv-x="514" vert-adv-y="1000"/><glyph glyph-name="uni0396" unicode="Ζ" d="M-10 0 4 70l445 564H134l17 80h422l-13-71L115 80h335L434 0H-10z" horiz-adv-x="531" vert-adv-y="1000"/><glyph glyph-name="uni0397" unicode="Η" d="m42 0 151 714h89l-64-302h314l64 302h88L533 0h-88l70 333H201L131 0H42z" horiz-adv-x="680" vert-adv-y="1000"/><glyph glyph-name="uni0398" unicode="Θ" d="M338-10q-128 0-197 74.5T72 268q0 93 25 175.5t72 146Q216 653 283 689t151 36q121 0 189-75.5T691 443q0-93-23-175t-67.5-144.5Q556 61 490 25.5T338-10m2 79q61 0 108.5 30.5T529 183q33 53 50 120.5T596 445q0 95-45 148t-124 53q-61 0-109-29.5T236.5 535Q203 483 185 415t-18-145q0-94 46-147.5T340 69m-97 256 16 77h256l-16-77H243z" horiz-adv-x="722" vert-adv-y="1000"/><glyph glyph-name="uni0399" unicode="Ι" d="m-20 0 10 49 85 20 122 576-76 19 10 50h250l-10-50-86-19L163 69l77-20-10-49H-20z" horiz-adv-x="324" vert-adv-y="1000"/><glyph glyph-name="uni039A" unicode="Κ" d="m41 0 151 714h89l-74-347 62 66 274 281h108L341 400 510 0h-98L273 346l-83-61L130 0H41z" horiz-adv-x="562" vert-adv-y="1000"/><glyph glyph-name="uni039B" unicode="Λ" d="m-57 0 388 713h95L515 0h-88l-53 452q-4 41-7 85.5t-5 81.5q-16-38-37-81t-46-91L41 0h-98z" horiz-adv-x="562" vert-adv-y="1000"/><glyph glyph-name="uni039C" unicode="Μ" d="m40 0 151 714h126l69-583h4l317 583h137L696 0h-90l90 424q14 65 26.5 118t21.5 85h-2L398 0h-71l-76 626h-4q-2-20-7-53.5t-11.5-71Q222 464 215 429L124 0H40z" horiz-adv-x="841" vert-adv-y="1000"/><glyph glyph-name="uni039D" unicode="Ν" d="m40 0 151 714h95l219-590h3q4 36 14 91.5T543 321l84 393h85L561 0h-95L245 592h-3q-2-21-7.5-55t-13-73.5Q214 424 206 388L124 0H40z" horiz-adv-x="707" vert-adv-y="1000"/><glyph glyph-name="uni039E" unicode="Ξ" d="m139 635 17 79h398l-17-79H139m-21-301 16 78h314l-16-78H118M-14 0 2 79h437L422 0H-14z" horiz-adv-x="517" vert-adv-y="1000"/><glyph glyph-name="uni039F" unicode="Ο" d="M337-10q-128 0-196.5 74.5T72 267q0 92 24.5 175T168 588.5q47 63.5 114 100T433 725q121 0 189-75.5T690 444q0-93-22.5-175t-67-144.5Q556 62 490 26T337-10m3 79q60 0 107 30t80 82.5Q560 234 577.5 302T595 446q0 95-45 147.5T427 646q-60 0-108-29.5t-82-81q-34-51.5-52-120T167 269q0-95 46-147.5T340 69z" horiz-adv-x="721" vert-adv-y="1000"/><glyph glyph-name="uni03A0" unicode="Π" d="m41 0 151 714h493L534 0h-90l134 635H264L130 0H41z" horiz-adv-x="680" vert-adv-y="1000"/><glyph glyph-name="uni03A1" unicode="Ρ" d="m41 0 151 714h161q115 0 164.5-51.5T567 528q0-121-80-185t-234-64h-64L130 0H41m164 354h62q96 0 152.5 41T476 525q0 59-33.5 85.5T341 637h-76l-60-283z" horiz-adv-x="567" vert-adv-y="1000"/><glyph glyph-name="uni03A3" unicode="Σ" d="m-15 0 14 73 261 296-134 274 14 71h423l-17-79H222l132-273L105 79h352L440 0H-15z" horiz-adv-x="523" vert-adv-y="1000"/><glyph glyph-name="uni03A4" unicode="Τ" d="m152 0 134 635H90l17 79h482l-16-79H377L242 0h-90z" horiz-adv-x="501" vert-adv-y="1000"/><glyph glyph-name="uni03A5" unicode="Υ" d="m150 0 58 268L92 714h89l85-358 234 358h101L295 265 240 0h-90z" horiz-adv-x="509" vert-adv-y="1000"/><glyph glyph-name="uni03A6" unicode="Φ" d="m270-10 24 110q-105 8-163.5 65T72 325q0 83 34 152.5t108 112Q288 632 408 636l18 88h91l-18-88q103-6 162-62.5T720 416q0-55-17.5-109.5t-56.5-100Q607 161 543 132t-158-32L361-10h-91m39 186 82 383q-81-1-131-32.5T186.5 443Q163 391 163 330q0-71 38.5-111.5T309 176m92 0q79 4 129.5 37t74.5 84.5Q629 349 629 411q0 65-36.5 105T482 559l-81-383z" horiz-adv-x="751" vert-adv-y="1000"/><glyph glyph-name="uni03A7" unicode="Χ" d="m-52 0 291 378-127 336h90l97-273 212 273h98L339 374 474 0h-94L278 309 46 0h-98z" horiz-adv-x="527" vert-adv-y="1000"/><glyph glyph-name="uni03A8" unicode="Ψ" d="m273 0 46 218h-7q-81 0-128.5 28.5T116 320q-20 45-20 95 0 45 12 100l41 199h93l-44-209q-6-29-8.5-50t-2.5-36q0-125 139-125h8l90 420h90l-89-420h7q68 0 111 23t67 64.5q24 41.5 36 96.5l50 236h93l-51-244q-14-72-49-129t-98.5-90Q527 218 427 218h-18L363 0h-90z" horiz-adv-x="742" vert-adv-y="1000"/><glyph glyph-name="uni03AA" unicode="Ϊ" d="m-20 0 10 49 85 20 122 576-76 19 10 50h250l-10-50-86-19L163 69l77-20-10-49H-20m388 809q-18 0-30 11t-12 31q0 23 14 40t39 17q20 0 30-11t10-29q0-28-16-43.5T368 809m-179 0q-19 0-31 11t-12 31q0 23 14 40t39 17q21 0 30.5-11t9.5-29q0-28-15.5-43.5T189 809z" horiz-adv-x="324" vert-adv-y="1000"/><glyph glyph-name="uni03AB" unicode="Ϋ" d="m150 0 58 268L92 714h89l85-358 234 358h101L295 265 240 0h-90m311 809q-18 0-30 11t-12 31q0 23 14 40t39 17q20 0 30-11t10-29q0-28-16-43.5T461 809m-179 0q-19 0-31 11t-12 31q0 23 14 40t39 17q21 0 30.5-11t9.5-29q0-28-15.5-43.5T282 809z" horiz-adv-x="509" vert-adv-y="1000"/><glyph glyph-name="uni03AC" unicode="ά" d="M193-10q-64 0-104.5 46T48 173q0 76 19 143.5t53.5 119q34.5 51.5 82 81T307 546q57 0 89-27t49-65h5q8 17 21 41.5t28 40.5h72q-11-22-24.5-59t-27-82Q506 350 496 306l-35-157q-4-16-5.5-29.5T454 97q0-36 31-36 15 0 32 6V3q-8-5-26-9t-35-4q-90 0-90 99h-3q-34-41-75-70t-95-29m30 73q36 0 70.5 26.5t62 71.5Q383 206 399 264q7 28 10 54t3 47q0 47-25.5 77T317 472q-39 0-72-24.5T188 381q-24-42-37-96t-13-113q0-55 22-82t63-27m93 543v14q13 24 29 57.5t31.5 67.5q15.5 34 25.5 61h94v-14q-9-20-30-53.5t-47-70Q393 632 371 606h-55z" horiz-adv-x="572" vert-adv-y="1000"/><glyph glyph-name="uni03AD" unicode="έ" d="M208-10q-89 0-133.5 39T30 128q0 71 43 106.5T177 281v3q-31 13-53 39t-22 69q0 54 29 88t74.5 49.5Q251 545 300 545q51 0 88.5-9.5T458 509l-32-68q-21 12-53 21.5t-69 9.5q-50 0-85-20t-35-67q0-30 23-50t72-20h61l-15-74h-57q-41 0-75-9.5t-54.5-31Q118 179 118 142q0-34 24-57.5T222 61q46 0 87.5 13.5T385 105V31q-27-14-73-27.5T208-10m62 616v14q13 24 29 57.5t31.5 67.5q15.5 34 25.5 61h94v-14q-9-20-30-53.5t-47-70Q347 632 325 606h-55z" horiz-adv-x="451" vert-adv-y="1000"/><glyph glyph-name="uni03AE" unicode="ή" d="m302-240 123 576q5 22 7.5 38.5T435 405q0 31-17 49t-54 18q-34 0-73-23.5T218 372q-34-53-53-141L116 0H28l114 536h72l-11-99h5q19 25 44.5 50t59 42q33.5 17 76.5 17 62 0 98.5-34t36.5-98q0-23-3.5-46.5T512 326L390-240h-88m17 846v14q13 24 29 57.5t31.5 67.5q15.5 34 25.5 61h94v-14q-9-20-30-53.5t-47-70Q396 632 374 606h-55z" horiz-adv-x="579" vert-adv-y="1000"/><glyph glyph-name="uni03AF" unicode="ί" d="M174-10q-52 0-87.5 26T51 107q0 15 2.5 33.5T61 180l75 356h88l-76-359q-3-13-5.5-29t-2.5-30q0-24 11-40t40-16q17 0 33 3.5t36 9.5V8q-13-6-38.5-12T174-10m-20 616v14q13 24 29 57.5t31.5 67.5q15.5 34 25.5 61h94v-14q-9-20-30-53.5t-47-70Q231 632 209 606h-55z" horiz-adv-x="311" vert-adv-y="1000"/><glyph glyph-name="uni03B0" unicode="ΰ" d="M249-10q-89 0-137 46.5T64 166q0 20 3 42.5T79 273l55 263h88l-55-260q-9-42-12-64.5t-3-40.5q0-57 28-83t75-26q46 0 78.5 24.5t54 65.5q21.5 41 34 92t19 104.5Q447 402 449 451t2 85h88q0-71-6-147.5T509.5 241Q492 170 460 113.5t-83.5-90Q325-10 249-10m80 688v11q16 29 38 71t37 78h98v-10q-23-32-59-73.5T369 678h-40m-82-47q-18 0-30 11t-12 31q0 23 13.5 40t38.5 17q21 0 30.5-11t9.5-29q0-28-16-43.5T247 631m234 0q-18 0-30 11t-12 31q0 23 13.5 40t38.5 17q20 0 30-11t10-29q0-28-16-43.5T481 631z" horiz-adv-x="580" vert-adv-y="1000"/><glyph glyph-name="uni03B1" unicode="α" d="M193-10q-64 0-104.5 46T48 173q0 76 19 143.5t53.5 119q34.5 51.5 82 81T307 546q57 0 89-27t49-65h5q8 17 21 41.5t28 40.5h72q-11-22-24.5-59t-27-82Q506 350 496 306l-35-157q-4-16-5.5-29.5T454 97q0-36 31-36 15 0 32 6V3q-8-5-26-9t-35-4q-90 0-90 99h-3q-34-41-75-70t-95-29m30 73q36 0 70.5 26.5t62 71.5Q383 206 399 264q7 28 10 54t3 47q0 47-25.5 77T317 472q-39 0-72-24.5T188 381q-24-42-37-96t-13-113q0-55 22-82t63-27z" horiz-adv-x="572" vert-adv-y="1000"/><glyph glyph-name="uni03B2" unicode="β" d="m-23-240 165 775q14 63 40 115t74.5 83.5Q305 765 385 765q85 0 133-44.5T566 596q0-162-172-200 52-11 88.5-50.5T519 231q0-69-28-123.5t-81.5-86Q356-10 279-10q-58 0-93 17.5T126 44L65-240h-88M272 62q54 0 90 24t53.5 61.5Q433 185 433 227q0 60-32 97t-110 37h-32l16 74h35q88 0 127 44t39 111q0 44-24.5 73.5T376 693q-48 0-76.5-22.5T255 611q-16-37-25-79l-91-428q24-19 59.5-30.5T272 62z" horiz-adv-x="581" vert-adv-y="1000"/><glyph glyph-name="uni03B3" unicode="γ" d="M40-240q11 62 34.5 123.5T130 6L48 536h89l37-285q5-37 8.5-84t3.5-88h2q17 43 39.5 91.5T266 249l152 287h94L228 14q-33-61-57.5-123.5T132-240H40z" horiz-adv-x="464" vert-adv-y="1000"/><glyph glyph-name="uni03B4" unicode="δ" d="M234-10q-66 0-110 26T57.5 85.5Q35 129 35 181q0 113 69 182t184 99q-34 27-60 63t-26 86q0 67 48.5 110.5T382 765q58 0 102-18.5t72-37.5l-35-63q-26 16-61.5 32T381 694q-49 0-72-23t-23-60q0-38 23-63t63-57q52-42 88-94.5T496 265q0-73-29.5-135.5t-88-101Q320-10 234-10m9 73q51 0 88 27t56.5 72.5Q407 208 407 264q0 59-21 95.5T338 419q-58-14-106.5-42.5t-77.5-74Q125 257 125 193q0-61 30-95.5T243 63z" horiz-adv-x="556" vert-adv-y="1000"/><glyph glyph-name="uni03B5" unicode="ε" d="M208-10q-89 0-133.5 39T30 128q0 71 43 106.5T177 281v3q-31 13-53 39t-22 69q0 54 29 88t74.5 49.5Q251 545 300 545q51 0 88.5-9.5T458 509l-32-68q-21 12-53 21.5t-69 9.5q-50 0-85-20t-35-67q0-30 23-50t72-20h61l-15-74h-57q-41 0-75-9.5t-54.5-31Q118 179 118 142q0-34 24-57.5T222 61q46 0 87.5 13.5T385 105V31q-27-14-73-27.5T208-10z" horiz-adv-x="451" vert-adv-y="1000"/><glyph glyph-name="uni03B6" unicode="ζ" d="M185-202q47 40 69 69.5T276-73q0 28-24 42.5T185 2Q113 32 80.5 73T48 190q0 84 47 166t129 165q82 83 187 171-47-6-125-6H184l16 74h328l-14-67q-67-59-133.5-119T259 452.5q-55-61.5-88-124T138 203q0-53 22-80.5T237 71q58-25 91-52t33-80q0-44-25.5-79T277-202h-92z" horiz-adv-x="454" vert-adv-y="1000"/><glyph glyph-name="uni03B7" unicode="η" d="m302-240 123 576q5 22 7.5 38.5T435 405q0 31-17 49t-54 18q-34 0-73-23.5T218 372q-34-53-53-141L116 0H28l114 536h72l-11-99h5q19 25 44.5 50t59 42q33.5 17 76.5 17 62 0 98.5-34t36.5-98q0-23-3.5-46.5T512 326L390-240h-88z" horiz-adv-x="579" vert-adv-y="1000"/><glyph glyph-name="uni03B8" unicode="θ" d="M212-10q-80 0-122 51T48 196q0 44 5 93t16 95q27 120 65.5 205.5t95 130.5Q286 765 365 765q73 0 117.5-49T527 550q0-37-5.5-86T504 359q-24-113-63-195.5t-95-128Q290-10 212-10m-47 436h261q7 34 10.5 68.5T440 557q0 135-85 135-67 0-112.5-70T165 426m57-363q68 0 112 72.5T412 351H149q-8-41-11.5-77.5T134 204q0-74 21.5-107.5T222 63z" horiz-adv-x="547" vert-adv-y="1000"/><glyph glyph-name="uni03B9" unicode="ι" d="M174-10q-52 0-87.5 26T51 107q0 15 2.5 33.5T61 180l75 356h88l-76-359q-3-13-5.5-29t-2.5-30q0-24 11-40t40-16q17 0 33 3.5t36 9.5V8q-13-6-38.5-12T174-10z" horiz-adv-x="311" vert-adv-y="1000"/><glyph glyph-name="uni03BA" unicode="κ" d="m27 0 113 536h89l-30-135q-7-37-17.5-71T165 276h2l254 260h104L295 306 438 0h-97L228 251l-72-57L116 0H27z" horiz-adv-x="495" vert-adv-y="1000"/><glyph glyph-name="uni03BB" unicode="λ" d="M389-10q-42 0-64.5 22.5T295 93l-20 189q-4 32-6.5 72t-2.5 78q-14-34-28-65.5T208 305L37 0h-93l304 525-9 70q-5 44-20 71t-53 27q-14 0-27-1.5t-23-3.5l-11 70q13 3 32 5.5t37 2.5q76 0 106.5-38T320 613l57-499q3-25 11-39t25-14q6 0 15.5 1.5T446 67V1q-10-5-26.5-8T389-10z" horiz-adv-x="491" vert-adv-y="1000"/><glyph glyph-name="uni03BD" unicode="ν" d="M114 0 48 536h88l35-306q5-40 8-78t5-75q95 89 148.5 203.5T417 536h87q-22-110-58.5-203T351 158Q293 76 206 0h-92z" horiz-adv-x="495" vert-adv-y="1000"/><glyph glyph-name="uni03BE" unicode="ξ" d="M178-202q44 39 67 67.5T268-74q0 29-23.5 44.5T174 4Q106 30 73 70.5T40 179q0 81 53 140t154 81v3q-46 13-75.5 43.5T142 528q0 41 21.5 74t58 56q36.5 23 81.5 34-25-2-47-4t-54-2h-28l16 74h303l-15-68h-4q-43 0-86.5-10T308 652.5q-36-19.5-58-49T228 535q0-49 34-76t110-27h46l-15-68h-38q-59 0-113-18.5t-88-57Q130 250 130 190q0-46 23.5-72T236 69q30-11 57.5-27t45-41Q356-24 356-60q0-46-26-80.5T273-202h-95z" horiz-adv-x="447" vert-adv-y="1000"/><glyph glyph-name="uni03BF" unicode="ο" d="M248-8q-93 0-146.5 55.5T48 198q0 62 17 123t50.5 111q33.5 50 84 80.5T316 543q94 0 147-55.5T516 336q0-61-17-122t-50.5-111Q415 53 365 22.5T248-8m5 73q47 0 86.5 33.5t63 96.5Q426 258 426 346q0 30-10.5 58.5t-34.5 47Q357 470 317 470q-55 0-95.5-37.5t-62.5-100Q137 270 137 195q0-62 30.5-96T253 65z" horiz-adv-x="563" vert-adv-y="1000"/><glyph glyph-name="uni03C0" unicode="π" d="M444-10q-46 0-70.5 24T349 78q0 22 9 69l65 314H236L136 0H47l100 461H38l7 36 96 39h489l-15-75H511l-66-321q-3-14-4.5-26T439 94q0-32 32-32 12 0 23.5 2.5T514 70V2q-14-4-32-8t-38-4z" horiz-adv-x="610" vert-adv-y="1000"/><glyph glyph-name="uni03C1" unicode="ρ" d="M-22-240 95 315q13 59 39 112t74 85.5Q256 545 334 545q92 0 141.5-54.5T525 334q0-57-15-117t-46-111.5Q433 54 384.5 22T269-10q-49 0-83.5 17T123 52q-6-39-12.5-73.5T95-98L65-240h-87M260 63q44 0 77 24.5t55 65q22 40.5 33 88t11 94.5q0 63-25.5 100T329 472q-66 0-99.5-48T179 296l-39-180q20-21 50-37t70-16z" horiz-adv-x="573" vert-adv-y="1000"/><glyph glyph-name="uni03C2" unicode="ς" d="M185-208q45 40 68 72t23 63q0 24-16.5 38.5T191 0q-34 14-67 37t-54.5 64Q48 142 48 207q0 60 17.5 120t53 109.5q35.5 49.5 88 79.5T329 546q37 0 70-7t62-19l-25-73q-20 9-48 17t-62 8q-47 0-82.5-24t-59-62.5Q161 347 149.5 302T138 216q0-44 12-72t36.5-46Q211 80 248 66q30-12 56.5-27.5T347-1q16-24 16-62 0-44-25-79t-59-66h-94z" horiz-adv-x="454" vert-adv-y="1000"/><glyph glyph-name="uni03C3" unicode="σ" d="M246-8q-88 0-143 51.5T48 212q0 90 32 163.5t99 117Q246 536 352 536h248l-14-74H455q17-29 31.5-67T501 293q0-47-13.5-99.5T444 95q-30-46-79-74.5T246-8m6 73q59 0 95 35t52 92q16 57 16 124 0 47-10 84t-24 62h-33q-78 0-124-34t-66.5-90.5Q137 281 137 214q0-78 31-113.5T252 65z" horiz-adv-x="584" vert-adv-y="1000"/><glyph glyph-name="uni03C4" unicode="τ" d="M248-10q-54 0-91 26t-37 91q0 17 4 42t9 49l56 263H38l7 36 95 39h315l-16-75H277l-57-265q-4-23-7.5-43t-3.5-36q0-23 12.5-39T262 62q17 0 34 3.5t37 9.5V8q-12-6-37.5-12T248-10z" horiz-adv-x="425" vert-adv-y="1000"/><glyph glyph-name="uni03C5" unicode="υ" d="M249-10q-89 0-137 46.5T64 166q0 20 3 42.5T79 273l55 263h88l-55-260q-9-42-12-64.5t-3-40.5q0-57 28-83t75-26q46 0 78.5 24.5t54 65.5q21.5 41 34 92t19 104.5Q447 402 449 451t2 85h88q0-71-6-147.5T509.5 241Q492 170 460 113.5t-83.5-90Q325-10 249-10z" horiz-adv-x="580" vert-adv-y="1000"/><glyph glyph-name="uni03C6" unicode="φ" d="M181-240 230-9q-52 7-93 32T72 93q-24 45-24 111 0 104 41.5 182.5T212 541l56-52q-68-65-100.5-130.5T135 213q0-53 15.5-84.5T191 82q25-15 55-19l65 308q17 80 57 127t118 47q72 0 108.5-47.5T631 364q0-65-17-129t-54-117.5q-37-53.5-97-88T316-11l-48-229h-87M333 63q60 6 100.5 36t64.5 74.5q24 44.5 34.5 94.5t10.5 95q0 61-17.5 85T481 472q-35 0-54-27.5T397 361L333 63z" horiz-adv-x="679" vert-adv-y="1000"/><glyph glyph-name="uni03C7" unicode="χ" d="m-113-240 298 409-29 228q-4 38-17 53.5T104 466q-8 0-16.5-2.5T71 459l-16 65q13 6 32 10t36 4q57 0 81-33.5t32-91.5l19-165 196 288h93L275 151l33-242q6-39 18.5-58.5T370-169q10 0 20.5 2t19.5 4v-66q-14-5-30.5-8t-35.5-3q-42 0-65.5 18t-35 49Q232-142 227-103L205 74-14-240h-99z" horiz-adv-x="507" vert-adv-y="1000"/><glyph glyph-name="uni03C8" unicode="ψ" d="M209-240 259-8Q160 2 114.5 52.5T69 182q0 24 3 48t9 54l53 252h88l-53-255q-5-25-8-47.5t-3-41.5q0-53 25.5-87.5T274 64l147 695h86L360 66q94 10 144.5 71T574 300q19 102 19 236h90q0-116-15-213t-52-169Q579 82 512.5 40T344-8l-49-232h-86z" horiz-adv-x="723" vert-adv-y="1000"/><glyph glyph-name="uni03C9" unicode="ω" d="M187-10q-69 0-104 50T48 171q0 89 33 183t94 182h92q-53-81-91.5-173.5T137 173q0-62 20-86t49-24q40 0 66 34t39 97l32 149h86l-30-137q-4-17-6-35t-2-29q0-79 61-79 41 0 69.5 31t46.5 79.5Q586 222 594 277t8 103q0 87-13 156h87q8-36 11.5-76.5T691 383q0-43-7-95.5t-23.5-105Q644 130 616 86.5t-69.5-70Q505-10 448-10q-46 0-75 24t-41 63q-27-43-61.5-65T187-10z" horiz-adv-x="738" vert-adv-y="1000"/><glyph glyph-name="uni03CA" unicode="ϊ" d="M174-10q-52 0-87.5 26T51 107q0 15 2.5 33.5T61 180l75 356h88l-76-359q-3-13-5.5-29t-2.5-30q0-24 11-40t40-16q17 0 33 3.5t36 9.5V8q-13-6-38.5-12T174-10m123 641q-18 0-30 11t-12 31q0 23 14 40t39 17q20 0 30-11t10-29q0-28-16-43.5T297 631m-179 0q-19 0-31 11t-12 31q0 23 14 40t39 17q21 0 30.5-11t9.5-29q0-28-15.5-43.5T118 631z" horiz-adv-x="311" vert-adv-y="1000"/><glyph glyph-name="uni03CB" unicode="ϋ" d="M249-10q-89 0-137 46.5T64 166q0 20 3 42.5T79 273l55 263h88l-55-260q-9-42-12-64.5t-3-40.5q0-57 28-83t75-26q46 0 78.5 24.5t54 65.5q21.5 41 34 92t19 104.5Q447 402 449 451t2 85h88q0-71-6-147.5T509.5 241Q492 170 460 113.5t-83.5-90Q325-10 249-10m202 641q-18 0-30 11t-12 31q0 23 14 40t39 17q20 0 30-11t10-29q0-28-16-43.5T451 631m-179 0q-19 0-31 11t-12 31q0 23 14 40t39 17q21 0 30.5-11t9.5-29q0-28-15.5-43.5T272 631z" horiz-adv-x="580" vert-adv-y="1000"/><glyph glyph-name="uni03CC" unicode="ό" d="M248-8q-93 0-146.5 55.5T48 198q0 62 17 123t50.5 111q33.5 50 84 80.5T316 543q94 0 147-55.5T516 336q0-61-17-122t-50.5-111Q415 53 365 22.5T248-8m5 73q47 0 86.5 33.5t63 96.5Q426 258 426 346q0 30-10.5 58.5t-34.5 47Q357 470 317 470q-55 0-95.5-37.5t-62.5-100Q137 270 137 195q0-62 30.5-96T253 65m37 541v14q13 24 29 57.5t31.5 67.5q15.5 34 25.5 61h94v-14q-9-20-30-53.5t-47-70Q367 632 345 606h-55z" horiz-adv-x="563" vert-adv-y="1000"/><glyph glyph-name="uni03CD" unicode="ύ" d="M249-10q-89 0-137 46.5T64 166q0 20 3 42.5T79 273l55 263h88l-55-260q-9-42-12-64.5t-3-40.5q0-57 28-83t75-26q46 0 78.5 24.5t54 65.5q21.5 41 34 92t19 104.5Q447 402 449 451t2 85h88q0-71-6-147.5T509.5 241Q492 170 460 113.5t-83.5-90Q325-10 249-10m59 616v14q13 24 29 57.5t31.5 67.5q15.5 34 25.5 61h94v-14q-9-20-30-53.5t-47-70Q385 632 363 606h-55z" horiz-adv-x="580" vert-adv-y="1000"/><glyph glyph-name="uni03CE" unicode="ώ" d="M187-10q-69 0-104 50T48 171q0 89 33 183t94 182h92q-53-81-91.5-173.5T137 173q0-62 20-86t49-24q40 0 66 34t39 97l32 149h86l-30-137q-4-17-6-35t-2-29q0-79 61-79 41 0 69.5 31t46.5 79.5Q586 222 594 277t8 103q0 87-13 156h87q8-36 11.5-76.5T691 383q0-43-7-95.5t-23.5-105Q644 130 616 86.5t-69.5-70Q505-10 448-10q-46 0-75 24t-41 63q-27-43-61.5-65T187-10m203 616v14q13 24 29 57.5t31.5 67.5q15.5 34 25.5 61h94v-14q-9-20-30-53.5t-47-70Q467 632 445 606h-55z" horiz-adv-x="738" vert-adv-y="1000"/><glyph glyph-name="uni0401" unicode="Ё" d="m41 0 151 714h362l-17-79H264l-47-223h255l-15-78H201L146 79h274L403 0H41m440 809q-18 0-30 11t-12 31q0 23 14 40t39 17q20 0 30-11t10-29q0-28-16-43.5T481 809m-179 0q-19 0-31 11t-12 31q0 23 14 40t39 17q21 0 30.5-11t9.5-29q0-28-15.5-43.5T302 809z" horiz-adv-x="514" vert-adv-y="1000"/><glyph glyph-name="uni0402" unicode="Ђ" d="M399-10q-21 0-40 3.5T329 1v78q27-10 63-10 50 0 73.5 27.5T499 176l7 36q3 16 5 33t2 33q0 81-100 81H279L203 0h-89l135 635H90l17 79h445l-17-79H338l-42-197h125q91 0 136-39t45-112q0-18-2-42.5t-6-43.5l-8-37q-18-90-63-132T399-10z" horiz-adv-x="674" vert-adv-y="1000"/><glyph glyph-name="uni0403" unicode="Ѓ" d="m41 0 151 714h362l-16-79H264L130 0H41m299 784v13q17 19 38 45t40 53q19 27 34 49h100v-10q-14-18-41.5-46.5t-58.5-57Q421 802 395 784h-55z" horiz-adv-x="478" vert-adv-y="1000"/><glyph glyph-name="uni0404" unicode="Є" d="M326-10q-84 0-140.5 34t-85 95.5Q72 181 72 263q0 64 15 130t45.5 125q30.5 59 77 105.5T318 697q62 27 140 27 100 0 174-40l-36-74q-27 14-60.5 24.5T458 645q-72 0-126-31.5T242 529q-36-53-54-116h300l-16-79H171q-3-16-3.5-34t-.5-36q0-93 45.5-144T342 69q41 0 80.5 8T500 98V20Q460 5 420-2.5T326-10z" horiz-adv-x="587" vert-adv-y="1000"/><glyph glyph-name="uni0405" unicode="Ѕ" d="M185-10q-52 0-91.5 8T19 22v88q30-16 71.5-29T186 68q45 0 83 14t61 43q23 29 23 75 0 40-26.5 68.5T235 334q-38 22-67.5 47t-46 57Q105 470 105 517q0 66 32 112.5t85.5 70.5Q276 724 340 724q56 0 98.5-11t80.5-31l-34-76q-26 14-65 26.5T340 645q-62 0-101-32t-39-90q0-31 11-51t34-37q23-17 57-37 43-26 75.5-51t51-58q18.5-33 18.5-82 0-107-71.5-162T185-10z" horiz-adv-x="505" vert-adv-y="1000"/><glyph glyph-name="uni0406" unicode="І" d="m-20 0 10 49 85 20 122 576-76 19 10 50h250l-10-50-86-19L163 69l77-20-10-49H-20z" horiz-adv-x="324" vert-adv-y="1000"/><glyph glyph-name="uni0407" unicode="Ї" d="m-20 0 10 49 85 20 122 576-76 19 10 50h250l-10-50-86-19L163 69l77-20-10-49H-20m388 809q-18 0-30 11t-12 31q0 23 14 40t39 17q20 0 30-11t10-29q0-28-16-43.5T368 809m-179 0q-19 0-31 11t-12 31q0 23 14 40t39 17q21 0 30.5-11t9.5-29q0-28-15.5-43.5T189 809z" horiz-adv-x="324" vert-adv-y="1000"/><glyph glyph-name="uni0408" unicode="Ј" d="M-80-190q-50 0-76 12l3 77q15-5 33-7.5t38-2.5q44 0 78 27.5T43 9l150 705h89L131-1q-22-101-76.5-145T-80-190z" horiz-adv-x="273" vert-adv-y="1000"/><glyph glyph-name="uni0409" unicode="Љ" d="M30-11Q9-11-6.5-7.5T-32 0v78q10-4 23-7t27-3q30 0 52.5 12.5t43 45Q134 158 155 218q16 46 34.5 106T227 451.5q19 67.5 37.5 135T299 714h333l-63-302h51q84 0 131-24t66.5-64q19.5-40 19.5-88 0-82-36-134t-99.5-77Q638 0 555 0H392l134 634H365q-13-49-29-107.5t-33-119q-17-60.5-33.5-116T238 193q-22-63-48-109t-64-70.5Q88-11 30-11m467 87h72q176 0 176 152 0 59-33 83t-92 24h-67L497 76z" horiz-adv-x="895" vert-adv-y="1000"/><glyph glyph-name="uni040A" unicode="Њ" d="m41 0 151 714h89l-64-301h272l64 301h89l-64-301h53q83 0 130-24t66.5-64.5Q847 284 847 236q0-82-36-134t-99.5-77Q648 0 566 0H402l70 334H200L130 0H41m466 76h72q176 0 176 152 0 59-33 82.5T630 334h-67L507 76z" horiz-adv-x="905" vert-adv-y="1000"/><glyph glyph-name="uni040B" unicode="Ћ" d="m114 0 135 635H90l17 79h445l-17-79H338l-42-197h131q90 0 132.5-39T602 284q0-17-3-38t-8-45L549 0h-90l45 205q9 39 9 73 0 81-101 81H279L203 0h-89z" horiz-adv-x="674" vert-adv-y="1000"/><glyph glyph-name="uni040C" unicode="Ќ" d="m41 0 151 714h89l-74-347 337 347h108L299 357 522 0H420L204 354 130 0H41m319 784v13q17 19 38 45t40 53q19 27 34 49h100v-10q-14-18-41.5-46.5t-58.5-57Q441 802 415 784h-55z" horiz-adv-x="562" vert-adv-y="1000"/><glyph glyph-name="uni040E" unicode="Ў" d="M83-10q-23 0-46 4.5T0 4v87q17-8 38-13.5T81 72q54 0 91.5 31.5T253 205L103 714h90l86-313q9-35 17.5-68.5T311 266q13 29 27.5 57.5T370 381l195 333h101L337 178q-43-69-81.5-110.5T175.5 8Q134-10 83-10m306 794q-85 0-121.5 33.5T231 905q0 19 4 33h77q-3-16-3-28 0-28 19.5-45.5T394 847q46 0 77 18.5t41 72.5h84q-14-70-62-112t-145-42z" horiz-adv-x="574" vert-adv-y="1000"/><glyph glyph-name="uni040F" unicode="Џ" d="M205-188 246 0H41l151 714h90L147 79h315l134 635h89L534 0H330l-39-188h-86z" horiz-adv-x="680" vert-adv-y="1000"/><glyph glyph-name="uni0410" unicode="А" d="m-57 0 388 714h94L513 0h-88l-27 222H157L41 0h-98m257 302h189l-16 150q-4 38-7.5 84t-4.5 81h-3q-16-38-37-81.5T277 448l-77-146z" horiz-adv-x="562" vert-adv-y="1000"/><glyph glyph-name="uni0411" unicode="Б" d="m42 0 151 714h361l-17-79H266l-47-223h70q83 0 130.5-24t67-64q19.5-40 19.5-89 0-81-36-133t-99.5-77Q307 0 224 0H42m105 76h90q177 0 177 152 0 59-33 83t-92 24h-86L147 76z" horiz-adv-x="567" vert-adv-y="1000"/><glyph glyph-name="uni0412" unicode="В" d="m41 0 151 714h185q99 0 155.5-39T589 550q0-73-44-118.5T428 372v-5q49-13 82-49t33-96q0-73-35.5-122.5T410 25Q348 0 269 0H41m176 410h117q44 0 81 14t59 42.5q22 28.5 22 72.5 0 47-30 72.5T366 637H265l-48-227M146 76h126q85 0 131 38t46 108q0 48-31 81t-105 33H201L146 76z" horiz-adv-x="600" vert-adv-y="1000"/><glyph glyph-name="uni0413" unicode="Г" d="m41 0 151 714h362l-16-79H264L130 0H41z" horiz-adv-x="478" vert-adv-y="1000"/><glyph glyph-name="uni0414" unicode="Д" d="m-84-187 56 267h51q45 62 91.5 141t89 165.5Q246 473 279.5 557T331 714h291L488 80h91l-57-267h-85L476 0H39L-1-187h-83M124 80h273l118 553H395q-17-56-47.5-129.5t-68-151q-37.5-77.5-78-149T124 80z" horiz-adv-x="630" vert-adv-y="1000"/><glyph glyph-name="uni0415" unicode="Е" d="m41 0 151 714h362l-17-79H264l-47-223h255l-15-78H201L146 79h274L403 0H41z" horiz-adv-x="514" vert-adv-y="1000"/><glyph glyph-name="uni0416" unicode="Ж" d="m-50 0 331 376-174 338h96l172-340 72 340h86l-72-340 307 340h106L549 356 729 0h-99L457 356 382 0h-86l75 356L58 0H-50z" horiz-adv-x="784" vert-adv-y="1000"/><glyph glyph-name="uni0417" unicode="З" d="M192-10Q78-10-1 29v85q36-21 89.5-35.5T197 64q66 0 107.5 21t61.5 55q20 34 20 74 0 62-41 90t-116 28H127l15 73h95q49 0 93.5 14.5T404 466q29 32 29 87 0 49-30 73t-80 24q-45 0-88.5-16T150 592l-36 64q51 34 104.5 51T341 724q86 0 135-43.5T525 565q0-76-49.5-127.5T341 369v-2q60-9 99.5-48T480 210q0-60-32-110t-96-80q-64-30-160-30z" horiz-adv-x="538" vert-adv-y="1000"/><glyph glyph-name="uni0418" unicode="И" d="m41 0 151 714h85l-84-393q-7-30-15.5-68t-16-72.5Q154 146 149 129h2l452 585h104L556 0h-84l84 397q8 34 16 71.5t15.5 71Q595 573 601 595h-2L145 0H41z" horiz-adv-x="702" vert-adv-y="1000"/><glyph glyph-name="uni0419" unicode="Й" d="m41 0 151 714h85l-84-393q-7-30-15.5-68t-16-72.5Q154 146 149 129h2l452 585h104L556 0h-84l84 397q8 34 16 71.5t15.5 71Q595 573 601 595h-2L145 0H41m418 784q-85 0-121.5 33.5T301 905q0 19 4 33h77q-3-16-3-28 0-28 19.5-45.5T464 847q46 0 77 18.5t41 72.5h84q-14-70-62-112t-145-42z" horiz-adv-x="702" vert-adv-y="1000"/><glyph glyph-name="uni041A" unicode="К" d="m41 0 151 714h89l-74-347 337 347h108L299 357 522 0H420L204 354 130 0H41z" horiz-adv-x="562" vert-adv-y="1000"/><glyph glyph-name="uni041B" unicode="Л" d="M30-11Q9-11-6.5-7.5T-32 0v78q10-4 23-7t27-3q30 0 52.5 12.5t43 45Q134 158 155 218q16 46 34.5 106T227 451.5q19 67.5 37.5 135T299 714h355L502 0h-90l135 634H365q-13-49-29-107.5t-33-119q-17-60.5-33.5-116T238 193q-22-63-48-109t-64-70.5Q88-11 30-11z" horiz-adv-x="649" vert-adv-y="1000"/><glyph glyph-name="uni041C" unicode="М" d="m40 0 151 714h126l69-583h4l317 583h137L696 0h-90l90 424q14 65 26.5 118t21.5 85h-2L398 0h-71l-76 626h-4q-2-20-7-53.5t-11.5-71Q222 464 215 429L124 0H40z" horiz-adv-x="841" vert-adv-y="1000"/><glyph glyph-name="uni041D" unicode="Н" d="m42 0 151 714h89l-64-302h314l64 302h88L533 0h-88l70 333H201L131 0H42z" horiz-adv-x="680" vert-adv-y="1000"/><glyph glyph-name="uni041E" unicode="О" d="M337-10q-128 0-196.5 74.5T72 267q0 92 24.5 175T168 588.5q47 63.5 114 100T433 725q121 0 189-75.5T690 444q0-93-22.5-175t-67-144.5Q556 62 490 26T337-10m3 79q60 0 107 30t80 82.5Q560 234 577.5 302T595 446q0 95-45 147.5T427 646q-60 0-108-29.5t-82-81q-34-51.5-52-120T167 269q0-95 46-147.5T340 69z" horiz-adv-x="721" vert-adv-y="1000"/><glyph glyph-name="uni041F" unicode="П" d="m41 0 151 714h493L534 0h-90l134 635H264L130 0H41z" horiz-adv-x="680" vert-adv-y="1000"/><glyph glyph-name="uni0420" unicode="Р" d="m41 0 151 714h161q115 0 164.5-51.5T567 528q0-121-80-185t-234-64h-64L130 0H41m164 354h62q96 0 152.5 41T476 525q0 59-33.5 85.5T341 637h-76l-60-283z" horiz-adv-x="567" vert-adv-y="1000"/><glyph glyph-name="uni0421" unicode="С" d="M326-10q-119 0-186.5 73T72 263q0 64 15 130t45.5 125q30.5 59 77 105.5T318 697q62 27 140 27 100 0 174-40l-36-74q-27 14-60.5 24.5T458 645q-75 0-129.5-33.5t-90.5-89q-36-55.5-53.5-123T167 265q0-91 46.5-143.5T342 69q41 0 80.5 8T500 98V20Q461 6 421.5-2T326-10z" horiz-adv-x="587" vert-adv-y="1000"/><glyph glyph-name="uni0422" unicode="Т" d="m152 0 134 635H90l17 79h482l-16-79H377L242 0h-90z" horiz-adv-x="501" vert-adv-y="1000"/><glyph glyph-name="uni0423" unicode="У" d="M83-10q-23 0-46 4.5T0 4v87q17-8 38-13.5T81 72q54 0 91.5 31.5T253 205L103 714h90l86-313q9-35 17.5-68.5T311 266q13 29 27.5 57.5T370 381l195 333h101L337 178q-43-69-81.5-110.5T175.5 8Q134-10 83-10z" horiz-adv-x="574" vert-adv-y="1000"/><glyph glyph-name="uni0424" unicode="Ф" d="m270-10 24 110q-105 8-163.5 65T72 325q0 83 34 152.5t108 112Q288 632 408 636l18 88h91l-18-88q103-6 162-62.5T720 416q0-55-17.5-109.5t-56.5-100Q607 161 543 132t-158-32L361-10h-91m39 186 82 383q-81-1-131-32.5T186.5 443Q163 391 163 330q0-71 38.5-111.5T309 176m92 0q79 4 129.5 37t74.5 84.5Q629 349 629 411q0 65-36.5 105T482 559l-81-383z" horiz-adv-x="751" vert-adv-y="1000"/><glyph glyph-name="uni0425" unicode="Х" d="m-52 0 291 378-127 336h90l97-273 212 273h98L339 374 474 0h-94L278 309 46 0h-98z" horiz-adv-x="527" vert-adv-y="1000"/><glyph glyph-name="uni0426" unicode="Ц" d="M477-187 517 0H40l151 714h90L147 80h300l134 634h90L537 80h83l-58-267h-85z" horiz-adv-x="671" vert-adv-y="1000"/><glyph glyph-name="uni0427" unicode="Ч" d="m406 0 62 291q-34-15-84-29t-109-14q-75 0-115.5 35.5T119 385q0 21 3 39t8 41l53 249h89l-52-247q-4-20-7-36.5t-3-27.5q0-37 20-56.5t68-19.5q50 0 98.5 12.5T485 366l72 348h90L496 0h-90z" horiz-adv-x="642" vert-adv-y="1000"/><glyph glyph-name="uni0428" unicode="Ш" d="m40 0 151 714h90L146 80h253l134 634h90L489 80h252l134 634h89L813 0H40z" horiz-adv-x="959" vert-adv-y="1000"/><glyph glyph-name="uni0429" unicode="Щ" d="M771-187 810 0H40l151 714h90L146 80h253l134 634h90L489 80h252l134 634h89L830 80h83l-57-267h-85z" horiz-adv-x="965" vert-adv-y="1000"/><glyph glyph-name="uni042A" unicode="Ъ" d="m115 0 134 635H90l17 79h248l-64-302h65q84 0 131-24t66.5-64q19.5-40 19.5-89 0-81-36-133t-99.5-77Q374 0 291 0H115m105 76h84q177 0 177 152 0 59-33 83t-92 24h-81L220 76z" horiz-adv-x="631" vert-adv-y="1000"/><glyph glyph-name="uni042B" unicode="Ы" d="m41 0 151 714h89l-64-302h64q83 0 130.5-24t67-64q19.5-40 19.5-89 0-81-36-133t-99.5-77Q299 0 216 0H41m516 0 151 714h89L646 0h-89M146 76h83q177 0 177 152 0 59-33 83t-92 24h-80L146 76z" horiz-adv-x="792" vert-adv-y="1000"/><glyph glyph-name="uni042C" unicode="Ь" d="m41 0 151 714h89l-64-302h65q84 0 131-24t66.5-64q19.5-40 19.5-89 0-81-36-133t-99.5-77Q300 0 217 0H41m105 76h84q177 0 177 152 0 59-33 83t-92 24h-81L146 76z" horiz-adv-x="557" vert-adv-y="1000"/><glyph glyph-name="uni042D" unicode="Э" d="M179-10Q84-10 9 29v86q41-19 80.5-32.5T184 69q116 0 181 72t86 193H150l16 79h295q0 9 .5 19t.5 24q0 83-41.5 136T295 645q-47 0-85-9.5T138 614l-23 74q37 14 85 25t104 11q116 0 184-68.5T556 456q0-89-20-172.5T472 134Q428 68 355.5 29T179-10z" horiz-adv-x="586" vert-adv-y="1000"/><glyph glyph-name="uni042E" unicode="Ю" d="M609-10q-91 0-147.5 38t-82 101Q354 192 354 267q0 33 3 66H200L130 0H41l151 714h89l-64-302h153q20 90 66 160.5T550.5 684Q619 725 708 725q112 0 177-74t65-207q0-93-22-175t-64.5-145Q821 61 757 25.5T609-10m4 79q61 0 107 32t76 86.5Q826 242 841 309t15 137q0 98-43 149t-117 51q-57 0-102.5-29.5t-78-81Q483 484 466 415.5T449 269q0-55 16.5-100.5T518 96q36-27 95-27z" horiz-adv-x="982" vert-adv-y="1000"/><glyph glyph-name="uni042F" unicode="Я" d="m-39 0 251 326q-40 22-67 59t-27 101q0 83 37 133t98 72.5Q314 714 387 714h191L428 0h-90l63 296H293L69 0H-39m385 372h71l57 265h-87q-50 0-90-13.5t-63.5-45Q210 547 210 493t33-87.5Q276 372 346 372z" horiz-adv-x="575" vert-adv-y="1000"/><glyph glyph-name="uni0430" unicode="а" d="M193-10q-65 0-105 46.5T48 173q0 75 19.5 142.5t54.5 119q35 51.5 83 81.5t106 30q53 0 86-28t49-65h5l32 83h67L436 0h-70l13 99h-4q-35-44-80.5-76.5T193-10m29 73q36 0 72 27t64.5 72.5Q387 208 403 266q7 28 10 53t3 46q0 47-26 77t-70 30q-39 0-72-24.5t-58-67Q165 338 151.5 284T138 171q0-54 22-81t62-27z" horiz-adv-x="568" vert-adv-y="1000"/><glyph glyph-name="uni0431" unicode="б" d="M240-10q-92 0-141.5 57.5T49 216q0 45 8.5 103.5t27 120Q103 501 132.5 557t72 97q42.5 41 99.5 58 18 6 52.5 13.5t75.5 16q41 8.5 78 14.5t59 9l10-72q-28-5-72-12.5t-88.5-17Q374 654 343 644q-64-20-109.5-80T163 409l3-1q27 32 73 61t105 29q76 0 113.5-47.5T495 318q0-61-14.5-119.5T435.5 93q-30.5-47-79-75T240-10m8 73q44 0 74 24.5t48.5 63q18.5 38.5 26.5 81t8 77.5q0 60-21 88t-63 28q-37 0-70.5-18t-60-42.5Q164 340 149 318q-5-27-8-54t-3-51q0-67 25-108.5T248 63z" horiz-adv-x="545" vert-adv-y="1000"/><glyph glyph-name="uni0432" unicode="в" d="M259-10Q149-10 98.5 50T48 211q0 94 33.5 169.5t97 120Q242 545 332 545q86 0 133-34.5T512 409q0-59-38-92t-97-46v-2q43-11 71.5-36.5T477 155q0-37-20.5-75.5t-68.5-64Q340-10 259-10M147 303h109q44 0 82.5 9t62 30.5Q424 364 424 400q0 30-21 51t-70 21q-71 0-119-44t-67-125M265 62q66 0 96.5 28t30.5 66q0 38-31 57t-98 19H137v-24q0-77 34.5-111.5T265 62z" horiz-adv-x="541" vert-adv-y="1000"/><glyph glyph-name="uni0433" unicode="г" d="M198-10q-46 0-85.5 14T49 48q-24 30-24 78 0 52 27 86t68 56q41 22 84 37 60 23 98.5 46.5T341 416q0 25-16 40.5T268 472q-39 0-77.5-11T121 437l-24 70q35 13 80 25.5T277 545q67 0 110-28.5t43-95.5q0-47-24.5-78.5t-63-53Q304 268 262 253q-46-17-79-32.5T132 185q-18-20-18-52t23.5-51Q161 63 211 63q41 0 79 12t74 29V27q-35-17-75-27t-91-10z" horiz-adv-x="459" vert-adv-y="1000"/><glyph glyph-name="uni0434" unicode="д" d="M225-10q-87 0-132 53.5T48 185q0 57 16 115t47.5 106.5q31.5 48.5 78 77.5T297 513q59 0 91-25.5t49-59.5h3q1 8 1 15.5V456q0 123-33 182t-101 59q-25 0-54-6t-51-16l-22 65q24 12 63 21t75 9q110 0 161-79t51-229q0-61-11-126.5t-34.5-127Q461 147 425 97.5T339 19q-50-29-114-29m9 74q50 0 88 38t64 99q26 61 39 131-14 48-44 80.5T305 445q-45 0-83.5-35T160 316.5Q137 258 137 186q0-52 22.5-87T234 64z" horiz-adv-x="566" vert-adv-y="1000"/><glyph glyph-name="uni0435" unicode="е" d="M242-10q-93 0-143.5 54.5T48 192q0 64 18.5 126.5t53.5 114q35 51.5 84.5 82.5T316 546q76 0 114.5-33t38.5-92q0-53-32.5-95.5t-101.5-68Q266 232 156 232h-17q-1-9-1.5-19t-.5-18q0-61 29.5-96.5T258 63q38 0 72 10.5t74 30.5V29q-38-17-74.5-28T242-10m-90 313h7q60 0 111 10.5t82 35q31 24.5 31 65.5 0 26-17.5 42.5T311 473q-48 0-92.5-44.5T152 303z" horiz-adv-x="499" vert-adv-y="1000"/><glyph glyph-name="uni0436" unicode="ж" d="M44-10q-14 0-30.5 2T-16-2l13 72q23-7 48-7 43 0 76.5 25t56.5 65.5q23 40.5 34.5 89T224 338q0 58-22 96t-74 38q-15 0-28.5-2T72 465v72q14 3 32 6t37 3q86 0 129-54.5T313 340q0-9-.5-18.5T311 304h82l49 232h81l-50-232h79q9 40 28 82.5t49.5 78.5q30.5 36 74 58.5T804 546q17 0 34-2t35-7l-16-71q-11 3-25 4.5t-27 1.5q-43 0-76-25t-55-65.5q-22-40.5-33-89T630 198q0-58 21-96.5T724 63q17 0 29.5 2t26.5 6V-2q-13-2-31-5t-37-3q-86 0-129 54t-43 152v20q0 10 2 21h-83L409 0h-80l51 237h-79q-10-45-30.5-89t-52-80q-31.5-36-75-57T44-10z" horiz-adv-x="845" vert-adv-y="1000"/><glyph glyph-name="uni0437" unicode="з" d="M153-10q-43 0-84.5 9.5T-1 24v81q25-14 66.5-28.5T160 62q63 0 100.5 27.5T298 162q0 35-20.5 57T197 241h-74l17 74h49q33 0 65 7t53.5 26.5Q329 368 329 407q0 30-20.5 47.5T246 472q-35 0-67-8.5T108 438l-26 67q41 19 82.5 30t93.5 11q75 0 117-33t42-93q0-54-32.5-90T291 281v-2q43-11 67-39t24-75q0-74-57-124.5T153-10z" horiz-adv-x="444" vert-adv-y="1000"/><glyph glyph-name="uni0438" unicode="и" d="M189-10q-61 0-97.5 34T55 123q0 23 3.5 43t7.5 43l70 327h89l-72-337q-9-43-9-67 0-32 16-50.5T214 63q34 0 73 24t73.5 77Q395 217 414 305l49 231h87L436 0h-72l11 99h-5q-19-25-44.5-50T266 7q-34-17-77-17z" horiz-adv-x="579" vert-adv-y="1000"/><glyph glyph-name="uni0439" unicode="й" d="M189-10q-61 0-97.5 34T55 123q0 23 3.5 43t7.5 43l70 327h89l-72-337q-9-43-9-67 0-32 16-50.5T214 63q34 0 73 24t73.5 77Q395 217 414 305l49 231h87L436 0h-72l11 99h-5q-19-25-44.5-50T266 7q-34-17-77-17m171 616q-85 0-121.5 33.5T202 727q0 19 4 33h77q-3-16-3-28 0-28 19.5-45.5T365 669q46 0 77 18.5t41 72.5h84q-14-70-62-112t-145-42z" horiz-adv-x="579" vert-adv-y="1000"/><glyph glyph-name="uni043A" unicode="к" d="m28 0 113 536h87l-55-258 250 258h110L268 271 447 0H342L172 267 116 0H28z" horiz-adv-x="486" vert-adv-y="1000"/><glyph glyph-name="uni043B" unicode="л" d="M-3-7q-13 0-24 2.5T-44 0v76q14-6 33-6 32 0 55 21t43.5 67Q108 204 134 279q23 67 44 116t47.5 81.5Q252 509 291 525t97 16q34 0 66-4.5t58-12.5L400 0h-89l101 463q-7 1-17 2.5t-21 1.5q-42 0-67-19.5T261 381q-21-47-50-132-29-83-55.5-140t-63-86.5Q56-7-3-7z" horiz-adv-x="544" vert-adv-y="1000"/><glyph glyph-name="uni043C" unicode="м" d="m29 0 113 535h114l56-425h2l235 425h123L560 0h-80l65 307q9 37 18.5 75.5T581 453h-2L327 0h-69l-61 452h-3q-4-28-11-69t-15-78L106 0H29z" horiz-adv-x="699" vert-adv-y="1000"/><glyph glyph-name="uni043D" unicode="н" d="m28 0 114 536h87l-46-223h252l48 223h88L458 0h-89l50 240H167L116 0H28z" horiz-adv-x="601" vert-adv-y="1000"/><glyph glyph-name="uni043E" unicode="о" d="M248-8q-93 0-146.5 55.5T48 198q0 62 17 123t50.5 111q33.5 50 84 80.5T316 543q94 0 147-55.5T516 336q0-61-17-122t-50.5-111Q415 53 365 22.5T248-8m5 73q47 0 86.5 33.5t63 96.5Q426 258 426 346q0 30-10.5 58.5t-34.5 47Q357 470 317 470q-55 0-95.5-37.5t-62.5-100Q137 270 137 195q0-62 30.5-96T253 65z" horiz-adv-x="563" vert-adv-y="1000"/><glyph glyph-name="uni043F" unicode="п" d="m24-3 115 542h78l-11-99q19 24 45 49.5t59.5 42.5q33.5 17 77.5 17 64 0 101-35.5t37-99.5q0-23-3.5-47t-7.5-42L444-3h-94l72 340q4 23 7 38.5t3 29.5q0 64-68 64-34 0-72.5-23.5t-72-75.5Q186 318 168 230L118-3H24z" horiz-adv-x="579" vert-adv-y="1000"/><glyph glyph-name="uni0440" unicode="р" d="m-22-240 164 776h72l-12-100h4q35 44 79 76.5T385 545q65 0 105-46t40-137q0-74-18-140.5t-52-119Q426 50 377.5 20T269-10q-54 0-87 27.5T132 82h-5q-1-16-5-44.5T114-9L65-240h-87M262 63q40 0 73 25.5t56.5 68.5q23.5 43 36 97T440 364q0 108-85 108-33 0-67.5-24.5T224 381q-29-42-46.5-96T160 171q0-48 25-78t77-30z" horiz-adv-x="579" vert-adv-y="1000"/><glyph glyph-name="uni0441" unicode="с" d="M247-10q-89 0-144 50T48 190q0 72 19.5 136.5t56 113.5q36.5 49 88.5 77.5T328 546q35 0 69.5-7t63.5-19l-25-73q-20 9-47.5 17t-59.5 8q-57 0-100-38.5T162 331q-24-64-24-140 0-61 31-94.5T256 63q35 0 66.5 9.5T385 96V22Q357 8 322.5-1T247-10z" horiz-adv-x="453" vert-adv-y="1000"/><glyph glyph-name="uni0442" unicode="т" d="m28 0 114 536h72l-11-99h5q18 25 42.5 50t56.5 42q32 17 73 17 55 0 85-32t36-87h4q20 29 47.5 56.5t61.5 45q34 17.5 75 17.5 62 0 96-34t34-98q0-24-3-45t-8-43L739 0h-89l72 336q4 22 6.5 38.5T731 406q0 30-16.5 48T663 472q-33 0-69-24t-67.5-75Q495 322 478 242L427 0h-88l71 336q9 45 9 66 0 33-15 51.5T354 472q-32 0-69-23.5T216 372q-32-53-51-141L116 0H28z" horiz-adv-x="875" vert-adv-y="1000"/><glyph glyph-name="uni0443" unicode="у" d="M-25-240q-24 0-39.5 3t-29.5 7v71q14-4 30-6.5t34-2.5q40 0 69 25t55 73l35 62-81 544h88l35-265q5-33 7.5-71t4-72.5Q184 93 184 72h3q7 16 20.5 48t29.5 66q16 34 28 56l156 294h94L175-90q-41-75-85-112.5T-25-240z" horiz-adv-x="467" vert-adv-y="1000"/><glyph glyph-name="uni0444" unicode="ф" d="M188-240 237-9Q146 3 97 62T48 219q0 84 34.5 157t103 118.5Q254 540 354 544l46 216h81l-46-216q89-12 140-68t51-156q0-90-37.5-164T482 37.5Q413-7 318-8l-49-232h-81m65 305 86 406q-70-3-114.5-40.5t-65.5-93Q138 282 138 221q0-71 31.5-111T253 65m81 0q54 3 92.5 26t62.5 59.5q24 36.5 35.5 79.5t11.5 86q0 73-32 110.5T421 469L334 65z" horiz-adv-x="672" vert-adv-y="1000"/><glyph glyph-name="uni0445" unicode="х" d="m-37 0 232 276L79 536h89l83-198 157 198h102L287 272 410 0h-89l-91 208L65 0H-37z" horiz-adv-x="483" vert-adv-y="1000"/><glyph glyph-name="uni0446" unicode="ц" d="M393-186 433-7q-30 8-44 32.5T375 97h-4q-19-27-45-51.5t-59.5-40Q233-10 190-10q-62 0-98.5 34T55 123q0 23 3.5 43t7.5 43l70 327h89l-72-337q-9-43-9-67 0-32 16-50.5T214 63q34 0 73 24t73.5 77Q395 217 414 305l49 231h87l-80-378q-4-20-6-33.5T462 99q0-17 9-27.5T500 61q8 0 18 2t20 5l-56-254h-89z" horiz-adv-x="597" vert-adv-y="1000"/><glyph glyph-name="uni0447" unicode="ч" d="m326 0 32 151q7 35 16.5 68t16.5 58h-4q-30-40-73.5-66T214 185q-68 0-102.5 35T77 322q0 19 3.5 43t8.5 48l26 123h89l-27-130q-6-26-8.5-43.5T166 330q0-40 19.5-55.5T239 259q35 0 71.5 19t68.5 66.5Q411 392 430 480l12 56h88L416 0h-90z" horiz-adv-x="559" vert-adv-y="1000"/><glyph glyph-name="uni0448" unicode="ш" d="M185-10q-62 0-96 34t-34 98q0 24 3.5 45t7.5 43l69 326h89l-71-336q-5-22-7.5-38.5T143 130q0-30 16.5-48T211 64q33 0 69 24t67.5 75Q379 214 396 294l52 242h88l-72-336q-9-45-9-66 0-33 15-51.5T520 64q33 0 70 23.5t69 76.5q32 53 50 141l49 231h88L732 0h-72l11 99h-5q-18-25-42.5-50T567 7q-32-17-73-17-55 0-85 32t-36 87h-4q-20-29-47.5-56.5T260 7.5Q226-10 185-10z" horiz-adv-x="875" vert-adv-y="1000"/><glyph glyph-name="uni0449" unicode="щ" d="M690-186 729-7q-30 8-44.5 32.5T669 97h-3q-18-25-42.5-50t-57-41Q534-10 494-10q-55 0-85 32t-36 87h-4q-20-29-47-56.5t-61.5-45Q226-10 185-10q-62 0-96 34t-34 98q0 24 3.5 44.5T66 210l69 326h89l-71-337q-5-22-7.5-38t-2.5-31q0-30 16.5-48T211 64q32 0 68.5 23.5t68 74.5Q379 213 396 294l52 242h88l-72-337q-9-43-9-65 0-34 15-52t50-18q33 0 70 23.5t69 76.5q32 53 50 141l49 231h88l-80-378q-3-16-5-32t-2-27q0-38 37-38 13 0 22.5 2.5T835 68l-57-254h-88z" horiz-adv-x="893" vert-adv-y="1000"/><glyph glyph-name="uni044A" unicode="ъ" d="M326-10q-80 0-127 37.5T152 144q0 20 3 46t8 48l48 223H41l16 75h258l-50-233q24 5 51.5 8.5T372 315q83 0 124-37.5T537 173q0-49-22.5-90.5t-69-67Q399-10 326-10m7 72q61 0 89 32t28 72q0 43-25.5 60T348 243q-25 0-49.5-2.5T250 233q-6-29-8.5-48t-2.5-33q0-41 21-65.5T333 62z" horiz-adv-x="600" vert-adv-y="1000"/><glyph glyph-name="uni044B" unicode="ы" d="M236-10q-80 0-127 37.5T62 144q0 20 3 46t8 48l63 298h89l-50-233q24 5 51.5 8.5T282 315q81 0 122-36.5T445 174q0-50-22.5-92T354 15q-46-25-118-25M498 0l113 536h88L585 0h-87M241 62q61 0 89 31.5t28 72.5q0 44-26 60.5T257 243q-25 0-49.5-2.5T160 233q-6-29-8.5-47.5T149 152q0-43 21.5-66.5T241 62z" horiz-adv-x="728" vert-adv-y="1000"/><glyph glyph-name="uni044C" unicode="ь" d="M241-10q-85 0-132 38T62 145q0 20 3 45.5t8 47.5l63 298h89l-51-233q26 5 56 8.5t62 3.5q91 0 130-40t39-102q0-49-24.5-90.5t-73.5-67Q314-10 241-10m8 72q66 0 95.5 31t29.5 73q0 36-23 56.5T271 243q-31 0-59-2.5t-52-7.5q-6-29-8.5-48t-2.5-33q0-38 20.5-64T249 62z" horiz-adv-x="523" vert-adv-y="1000"/><glyph glyph-name="uni044D" unicode="э" d="M135-10q-40 0-74 8T10 14v79q30-13 60-21t65-8q71 0 116.5 46T312 238H82l15 74h224v15q0 76-30.5 110.5T202 472q-32 0-61.5-8T85 444l-26 67q30 13 67 23.5t85 10.5q101 0 150-57.5T410 329q0-65-15-125.5T347.5 95q-32.5-48-85-76.5T135-10z" horiz-adv-x="458" vert-adv-y="1000"/><glyph glyph-name="uni044E" unicode="ю" d="M480-8q-94 0-142.5 58T289 198q0 13 .5 24.5t.5 17.5H167L116 0H28l114 536h87l-46-223h119q32 115 96.5 172.5T546 543q95 0 143-58t48-149q0-65-16.5-126.5T671.5 99Q639 50 591 21T480-8m6 73q45 0 81.5 35t58 98Q647 261 647 346q0 56-26.5 90T545 470q-42 0-73.5-24.5T419 381q-21-40-31-88.5T378 195q0-58 26-94t82-36z" horiz-adv-x="786" vert-adv-y="1000"/><glyph glyph-name="uni044F" unicode="я" d="M21-6Q8-6-2.5-4T-20 0v70q10-3 25-3 26 0 42.5 17.5T87 148q15 32 36 57t55 38q-48 14-70.5 47T85 366q0 73 53 121.5T297 536h204L388 0h-87l45 211h-65q-47 0-69-23t-45-69q-19-40-37.5-68t-44-42.5Q60-6 21-6m253 292h88l37 175H283q-53 0-82-25.5T172 366q0-45 29-62.5t73-17.5z" horiz-adv-x="532" vert-adv-y="1000"/><glyph glyph-name="uni0451" unicode="ё" d="M242-10q-93 0-143.5 54.5T48 192q0 64 18.5 126.5t53.5 114q35 51.5 84.5 82.5T316 546q76 0 114.5-33t38.5-92q0-53-32.5-95.5t-101.5-68Q266 232 156 232h-17q-1-9-1.5-19t-.5-18q0-61 29.5-96.5T258 63q38 0 72 10.5t74 30.5V29q-38-17-74.5-28T242-10m-90 313h7q60 0 111 10.5t82 35q31 24.5 31 65.5 0 26-17.5 42.5T311 473q-48 0-92.5-44.5T152 303m273 328q-18 0-30 11t-12 31q0 23 14 40t39 17q20 0 30-11t10-29q0-28-16-43.5T425 631m-179 0q-19 0-31 11t-12 31q0 23 14 40t39 17q21 0 30.5-11t9.5-29q0-28-15.5-43.5T246 631z" horiz-adv-x="499" vert-adv-y="1000"/><glyph glyph-name="uni0452" unicode="ђ" d="M262-240q-35 0-62 10v75q27-11 58-11 60 0 81 99l82 383q5 22 7.5 38t2.5 28q0 33-17 51.5T360 452q-34 0-73-23.5T214 352q-34-53-53-141L116 0H28l128 604H82l15 66h73l19 90h88l-20-90h169l-15-66H245l-11-50q-8-35-15.5-66.5T199 418h5q28 41 71.5 74.5T384 526q63 0 99-35t36-103q0-20-3.5-40t-7.5-42L426-77q-16-75-52.5-119T262-240z" horiz-adv-x="579" vert-adv-y="1000"/><glyph glyph-name="uni0453" unicode="ѓ" d="M198-10q-46 0-85.5 14T49 48q-24 30-24 78 0 52 27 86t68 56q41 22 84 37 60 23 98.5 46.5T341 416q0 25-16 40.5T268 472q-39 0-77.5-11T121 437l-24 70q35 13 80 25.5T277 545q67 0 110-28.5t43-95.5q0-47-24.5-78.5t-63-53Q304 268 262 253q-46-17-79-32.5T132 185q-18-20-18-52t23.5-51Q161 63 211 63q41 0 79 12t74 29V27q-35-17-75-27t-91-10m96 616v13q17 19 38 45t40 53q19 27 34 49h100v-10q-14-18-41.5-46.5t-58.5-57Q375 624 349 606h-55z" horiz-adv-x="459" vert-adv-y="1000"/><glyph glyph-name="uni0454" unicode="є" d="M247-10q-89 0-144 50T48 190q0 61 16.5 123.5T115 429q34 53 87 85t126 32q35 0 69.5-7t63.5-19l-25-73q-20 9-47.5 17t-59.5 8q-56 0-103-39.5T155 312h225l-17-74H139q-1-12-1.5-23t-.5-24q0-54 29-91t90-37q39 0 68.5 9.5T385 96V22Q357 8 322.5-1T247-10z" horiz-adv-x="453" vert-adv-y="1000"/><glyph glyph-name="uni0455" unicode="ѕ" d="M155-10q-49 0-85.5 9.5T5 24v81q25-16 65-29.5T152 62q59 0 90 23t31 61q0 29-19 48.5T183 243q-57 32-86 66t-29 85q0 68 49.5 110T250 546q49 0 90.5-11.5T412 509l-28-70q-26 12-58 22.5T250 472q-44 0-69-20.5T156 399q0-26 17.5-45.5T244 305q34-20 61-40t42.5-46.5Q363 192 363 155q0-81-56.5-123T155-10z" horiz-adv-x="432" vert-adv-y="1000"/><glyph glyph-name="uni0456" unicode="і" d="M213 625q-21 0-34.5 12.5T165 672q0 26 15.5 45t43.5 19q46 0 46-45 0-31-18-48.5T213 625M28 0l114 536h88L116 0H28z" horiz-adv-x="258" vert-adv-y="1000"/><glyph glyph-name="uni0457" unicode="ї" d="m28 0 114 536h88L116 0H28m269 631q-18 0-30 11t-12 31q0 23 14 40t39 17q20 0 30-11t10-29q0-28-16-43.5T297 631m-179 0q-19 0-31 11t-12 31q0 23 14 40t39 17q21 0 30.5-11t9.5-29q0-28-15.5-43.5T118 631z" horiz-adv-x="258" vert-adv-y="1000"/><glyph glyph-name="uni0458" unicode="ј" d="M212 625q-20 0-33.5 12.5T165 672q0 26 15.5 45t43.5 19q45 0 45-45 0-31-18-48.5T212 625M-64-240q-37 0-62 10v74q12-4 27-7.5t31-3.5q61 0 82 98l128 605h87L99-77q-16-75-52.5-119T-64-240z" horiz-adv-x="258" vert-adv-y="1000"/><glyph glyph-name="uni0459" unicode="љ" d="M498-10q-80 0-127 37.5T324 144q0 20 3 46t8 48l47 225q-5 1-13.5 2.5T352 467q-31 0-52-19t-41-66.5Q239 334 210 249q-28-83-54.5-140t-63-86.5Q56-7-2-7q-14 0-25 2.5T-44 0v76q12-6 33-6 32 0 55 21t43.5 67Q108 204 134 279q21 63 40.5 111.5t43.5 82q24 33.5 60 51t91 17.5q31 0 62-5.5t52-12.5l-47-220q25 5 52.5 8.5T544 315q83 0 124-37.5T709 173q0-49-22.5-90.5t-69-67Q571-10 498-10m7 72q61 0 89 32t28 72q0 43-25.5 60T520 243q-25 0-50-2.5t-48-7.5q-6-29-8.5-48t-2.5-33q0-41 21-65.5T505 62z" horiz-adv-x="772" vert-adv-y="1000"/><glyph glyph-name="uni045A" unicode="њ" d="M544-10q-80 0-127.5 37.5T369 144q0 21 3.5 47t8.5 49H167L117 0H28l115 536h87l-47-223h214l48 223h88l-50-233q23 5 51 8.5t56 3.5q82 0 123.5-37.5T755 173q0-49-22.5-90.5t-69.5-67Q616-10 544-10m6 72q62 0 89.5 32t27.5 72q0 43-25.5 60T566 243q-25 0-50-2.5t-49-7.5q-6-30-8.5-48.5T456 151q0-41 21.5-65T550 62z" horiz-adv-x="818" vert-adv-y="1000"/><glyph glyph-name="uni045B" unicode="ћ" d="m28 0 129 604H82l15 66h73l19 90h88l-20-90h169l-15-66H244q-14-57-25.5-103.5T201 428h5q18 25 44 50.5t59.5 42.5q33.5 17 76.5 17 63 0 99-35.5T521 399q0-19-3.5-39t-7.5-43L442 0h-88l70 327q9 43 9 65 0 34-17 53.5T362 465q-34 0-73.5-24t-74-77.5Q180 310 162 223L116 0H28z" horiz-adv-x="579" vert-adv-y="1000"/><glyph glyph-name="uni045C" unicode="ќ" d="m28 0 113 536h87l-55-258 250 258h110L268 271 447 0H342L172 267 116 0H28m252 606v13q17 19 38 45t40 53q19 27 34 49h100v-10q-14-18-41.5-46.5t-58.5-57Q361 624 335 606h-55z" horiz-adv-x="486" vert-adv-y="1000"/><glyph glyph-name="uni045E" unicode="ў" d="M-25-240q-24 0-39.5 3t-29.5 7v71q14-4 30-6.5t34-2.5q40 0 69 25t55 73l35 62-81 544h88l35-265q5-33 7.5-71t4-72.5Q184 93 184 72h3q7 16 20.5 48t29.5 66q16 34 28 56l156 294h94L175-90q-41-75-85-112.5T-25-240m310 846q-85 0-121.5 33.5T127 727q0 19 4 33h77q-3-16-3-28 0-28 19.5-45.5T290 669q46 0 77 18.5t41 72.5h84q-14-70-62-112t-145-42z" horiz-adv-x="467" vert-adv-y="1000"/><glyph glyph-name="uni045F" unicode="џ" d="M189-10q-61 0-97.5 34T55 123q0 23 3.5 43t7.5 43l70 327h89l-72-337q-9-43-9-67 0-32 16-50.5T214 63q34 0 73 24t73.5 77Q395 217 414 305l49 231h87L436 0h-72l11 99h-5q-19-25-44.5-50T266 7q-34-17-77-17m-39-230 40 182 73 24h20l-45-206h-88z" horiz-adv-x="579" vert-adv-y="1000"/><glyph glyph-name="uni0490" unicode="Ґ" d="m41 0 151 714h274l31 146h85l-49-226H264L130 0H41z" horiz-adv-x="478" vert-adv-y="1000"/><glyph glyph-name="uni0491" unicode="ґ" d="m28 0 114 536h196l34 155h89l-48-221H215L116 0H28z" horiz-adv-x="390" vert-adv-y="1000"/><glyph glyph-name="uni1E80" unicode="Ẁ" d="m137 0-30 714h88l14-435q1-41-.5-85t-3.5-84h3q14 39 34 89.5t41 94.5l196 420h91l20-418q3-47 4-98t0-88h3q13 38 29 83t35 89l187 432h95L619 0h-91l-22 460q-2 33-3 70.5t-1 68.5h-3q-10-30-23.5-61.5T440 457L229 0h-92m404 784q-19 19-40.5 46T460 885q-19 28-29 49v10h94q11-37 30.5-75.5T595 796v-12h-54z" horiz-adv-x="856" vert-adv-y="1000"/><glyph glyph-name="uni1E81" unicode="ẁ" d="M79 0 57 536h86l8-286q1-55-.5-99.5T147 77h4q7 21 18.5 49.5t24 57Q206 212 216 233l141 303h95l17-287q1-37 2-85.5T470 77h4q13 38 33 89.5T551 273l117 263h93L513 0H407l-15 290q-2 40-1.5 77t.5 84h-4q-13-37-26.5-68.5T323 300L183 0H79m348 606q-19 19-40.5 46T346 707q-19 28-29 49v10h94q11-37 30.5-75.5T481 618v-12h-54z" horiz-adv-x="723" vert-adv-y="1000"/><glyph glyph-name="uni1E82" unicode="Ẃ" d="m137 0-30 714h88l14-435q1-41-.5-85t-3.5-84h3q14 39 34 89.5t41 94.5l196 420h91l20-418q3-47 4-98t0-88h3q13 38 29 83t35 89l187 432h95L619 0h-91l-22 460q-2 33-3 70.5t-1 68.5h-3q-10-30-23.5-61.5T440 457L229 0h-92m348 784v13q17 19 38 45t40 53q19 27 34 49h100v-10q-14-18-41.5-46.5t-58.5-57Q566 802 540 784h-55z" horiz-adv-x="856" vert-adv-y="1000"/><glyph glyph-name="uni1E83" unicode="ẃ" d="M79 0 57 536h86l8-286q1-55-.5-99.5T147 77h4q7 21 18.5 49.5t24 57Q206 212 216 233l141 303h95l17-287q1-37 2-85.5T470 77h4q13 38 33 89.5T551 273l117 263h93L513 0H407l-15 290q-2 40-1.5 77t.5 84h-4q-13-37-26.5-68.5T323 300L183 0H79m292 606v13q17 19 38 45t40 53q19 27 34 49h100v-10q-14-18-41.5-46.5t-58.5-57Q452 624 426 606h-55z" horiz-adv-x="723" vert-adv-y="1000"/><glyph glyph-name="uni1E84" unicode="Ẅ" d="m137 0-30 714h88l14-435q1-41-.5-85t-3.5-84h3q14 39 34 89.5t41 94.5l196 420h91l20-418q3-47 4-98t0-88h3q13 38 29 83t35 89l187 432h95L619 0h-91l-22 460q-2 33-3 70.5t-1 68.5h-3q-10-30-23.5-61.5T440 457L229 0h-92m497 809q-18 0-30 11t-12 31q0 23 14 40t39 17q20 0 30-11t10-29q0-28-16-43.5T634 809m-179 0q-19 0-31 11t-12 31q0 23 14 40t39 17q21 0 30.5-11t9.5-29q0-28-15.5-43.5T455 809z" horiz-adv-x="856" vert-adv-y="1000"/><glyph glyph-name="uni1E85" unicode="ẅ" d="M79 0 57 536h86l8-286q1-55-.5-99.5T147 77h4q7 21 18.5 49.5t24 57Q206 212 216 233l141 303h95l17-287q1-37 2-85.5T470 77h4q13 38 33 89.5T551 273l117 263h93L513 0H407l-15 290q-2 40-1.5 77t.5 84h-4q-13-37-26.5-68.5T323 300L183 0H79m441 631q-18 0-30 11t-12 31q0 23 14 40t39 17q20 0 30-11t10-29q0-28-16-43.5T520 631m-179 0q-19 0-31 11t-12 31q0 23 14 40t39 17q21 0 30.5-11t9.5-29q0-28-15.5-43.5T341 631z" horiz-adv-x="723" vert-adv-y="1000"/><glyph glyph-name="uni1EF2" unicode="Ỳ" d="m150 0 58 268L92 714h89l85-358 234 358h101L295 265 240 0h-90m218 784q-19 19-40.5 46T287 885q-19 28-29 49v10h94q11-37 30.5-75.5T422 796v-12h-54z" horiz-adv-x="509" vert-adv-y="1000"/><glyph glyph-name="uni1EF3" unicode="ỳ" d="M-25-240q-24 0-39.5 3t-29.5 7v71q14-4 30-6.5t34-2.5q40 0 69 25t55 73l35 62-81 544h88l35-265q5-33 7.5-71t4-72.5Q184 93 184 72h3q7 16 20.5 48t29.5 66q16 34 28 56l156 294h94L175-90q-41-75-85-112.5T-25-240m315 846q-19 19-40.5 46T209 707q-19 28-29 49v10h94q11-37 30.5-75.5T344 618v-12h-54z" horiz-adv-x="467" vert-adv-y="1000"/><glyph glyph-name="uni2013" unicode="–" d="m26 228 18 81h403l-17-81H26z" horiz-adv-x="480" vert-adv-y="1000"/><glyph glyph-name="uni2014" unicode="—" d="m26 228 18 81h883l-17-81H26z" horiz-adv-x="960" vert-adv-y="1000"/><glyph glyph-name="uni2015" unicode="―" d="m26 228 18 81h883l-17-81H26z" horiz-adv-x="960" vert-adv-y="1000"/><glyph glyph-name="uni2017" unicode="‗" d="m-75-90 14 64h397l-14-64H-75m-26-132 14 64h397l-14-64h-397z" horiz-adv-x="395" vert-adv-y="1000"/><glyph glyph-name="uni2018" unicode="‘" d="m63 469-3 11q24 53 60 116t71 118h67q-26-59-53-126t-46-119H63z" horiz-adv-x="174" vert-adv-y="1000"/><glyph glyph-name="uni2019" unicode="’" d="M60 469q26 59 54 126t45 119h96l4-11q-24-53-60-116t-72-118H60z" horiz-adv-x="174" vert-adv-y="1000"/><glyph glyph-name="uni201A" unicode="‚" d="M-49-129Q-23-70 4-3t46 119h96l4-11Q125 52 89-11T18-129h-67z" horiz-adv-x="243" vert-adv-y="1000"/><glyph glyph-name="uni201B" unicode="‛" d="M151 469q-15 54-25 117.5T112 703l8 11h85q0-59 2-123.5t6-121.5h-62z" horiz-adv-x="174" vert-adv-y="1000"/><glyph glyph-name="uni201C" unicode="“" d="m247 469-4 11q24 53 61 116t72 118h66q-26-59-53.5-126T343 469h-96m-184 0-3 11q24 53 60 116t71 118h67q-26-59-53-126t-46-119H63z" horiz-adv-x="358" vert-adv-y="1000"/><glyph glyph-name="uni201D" unicode="”" d="M244 469q26 59 53 126t45 119h97l4-11q-23-53-60-116t-73-118h-66m-184 0q26 59 54 126t45 119h96l4-11q-24-53-60-116t-72-118H60z" horiz-adv-x="358" vert-adv-y="1000"/><glyph glyph-name="uni201E" unicode="„" d="M134-129q26 59 53.5 126T233 116h96l4-11q-24-53-60.5-116T202-129h-68m-183 0Q-23-70 4-3t46 119h96l4-11Q125 52 89-11T18-129h-67z" horiz-adv-x="426" vert-adv-y="1000"/><glyph glyph-name="uni2020" unicode="†" d="m122 0 132 499-149-16 18 88 143-16 18 205h104l-70-205 159 16-18-88-153 15L226 0H122z" horiz-adv-x="470" vert-adv-y="1000"/><glyph glyph-name="uni2021" unicode="‡" d="m125 0 65 184-158-15 19 87 152-15 8 143 50 135-158-16 19 88 152-16 13 185h105l-65-185 159 16-19-88-153 16-6-135-52-143 159 15-19-87-153 15L230 0H125z" horiz-adv-x="470" vert-adv-y="1000"/><glyph glyph-name="uni2022" unicode="•" d="M208 241q-47 0-79 29t-32 95q0 67 32 95.5t79 28.5q46 0 78.5-28.5T319 365q0-66-32.5-95T208 241z" horiz-adv-x="376" vert-adv-y="1000"/><glyph glyph-name="uni2026" unicode="…" d="M72-14q-52 0-52 52 0 33 18.5 58T97 121q22 0 35.5-13.5T146 68q0-31-18-56.5T72-14m257 0q-52 0-52 52 0 33 18.5 58t58.5 25q22 0 35.5-13.5T403 68q0-31-18-56.5T329-14m256 0q-52 0-52 52 0 33 18.5 58t58.5 25q22 0 35.5-13.5T659 68q0-31-18-56.5T585-14z" horiz-adv-x="769" vert-adv-y="1000"/><glyph glyph-name="uni2030" unicode="‰" d="M195 276q-55 0-85 37T80 421q0 29 5 68t17.5 80q12.5 41 34 76.5t54.5 57q33 21.5 79 21.5 57 0 87-35.5T387 587q0-27-5.5-66.5t-18.5-82Q350 396 327.5 359t-55-60Q240 276 195 276M113 0l530 714h78L191 0h-78m89 342q26 0 45.5 19.5t32.5 50q13 30.5 20.5 63.5t11 62q3.5 29 3.5 44 0 41-13 59.5T264 659q-26 0-45-18t-32-46q-13-28-20.5-60.5t-11-62.5q-3.5-30-3.5-50 0-80 50-80M562-10q-55 0-85 37t-30 107q0 30 5 69.5t17.5 80.5q12.5 41 34.5 76t54.5 56.5Q591 438 637 438q58 0 88-35.5T755 302q0-27-6-66.5t-19-82q-13-42.5-35-80T640 13q-33-23-78-23m328 0q-55 0-85.5 37T774 134q0 30 5 69.5t17.5 80.5q12.5 41 34.5 76t55 56.5q33 21.5 79 21.5 57 0 87-35.5t30-100.5q0-27-6-66.5t-19-82q-13-42.5-35-80T967.5 13Q935-10 890-10M569 56q26 0 45.5 19.5t32.5 50q13 30.5 20.5 64t11 62Q682 280 682 295q0 41-13 59.5T631 373q-26 0-45-18t-31.5-46q-12.5-28-20-60.5t-11-62.5q-3.5-30-3.5-50 0-80 49-80m328 0q26 0 45.5 19.5t32 50q12.5 30.5 20 64t11 62q3.5 28.5 3.5 43.5 0 41-13 59.5T959 373q-26 0-45-18t-32-46q-13-28-20.5-60.5t-11-62.5q-3.5-30-3.5-50 0-80 50-80z" horiz-adv-x="1126" vert-adv-y="1000"/><glyph glyph-name="uni2032" unicode="′" d="m68 456 127 258h96L124 456H68z" horiz-adv-x="220" vert-adv-y="1000"/><glyph glyph-name="uni2033" unicode="″" d="m237 456 127 258h96L293 456h-56m-169 0 127 258h96L124 456H68z" horiz-adv-x="389" vert-adv-y="1000"/><glyph glyph-name="uni2039" unicode="‹" d="M154 54 42 268v14l192 189 43-43-144-163 82-185-61-26z" horiz-adv-x="287" vert-adv-y="1000"/><glyph glyph-name="uni203A" unicode="›" d="M53 54 10 97l144 163-82 185 61 26 111-214v-13L53 54z" horiz-adv-x="287" vert-adv-y="1000"/><glyph glyph-name="uni203C" unicode="‼" d="m310 201 91 513h107L381 201h-71m-4-215q-53 0-53 54 0 32 18 56.5t57 24.5q23 0 37-14t14-40q0-29-18-55t-55-26M77 201l91 513h107L148 201H77M73-14q-53 0-53 54 0 32 18 56.5T95 121q23 0 37-14t14-40q0-29-18-55T73-14z" horiz-adv-x="494" vert-adv-y="1000"/><glyph glyph-name="uni2044" unicode="⁄" d="m-240 0 530 714h79L-161 0h-79z" horiz-adv-x="130" vert-adv-y="1000"/><glyph glyph-name="uni207F" unicode="ⁿ" d="m68.6 285.2 74.75 325.19h50.71l-7.15-59.4q12.35 14.4 29.25 29.7 16.9 15.3 38.67 25.5 21.78 10.2 50.38 10.2 41.6 0 65.65-21.3 24.05-21.3 24.05-59.7 0-13.8-2.27-28.2-2.28-14.4-4.88-25.2L341.61 285.2h-61.1l46.8 203.99q2.6 13.8 4.55 23.1 1.95 9.3 1.95 17.7 0 38.4-44.2 38.4-22.1 0-47.13-14.1-25.02-14.1-46.8-45.3-21.78-31.2-33.48-84L129.7 285.2H68.6z" horiz-adv-x="376" vert-adv-y="1000"/><glyph glyph-name="uni20A3" unicode="₣" d="m77 0 27 128H20l14 66h84l110 520h355l-17-79H297l-54-254h252l-17-79H227l-24-108h137l-13-66H190L162 0H77z" horiz-adv-x="551" vert-adv-y="1000"/><glyph glyph-name="uni20A4" unicode="₤" d="M-11 0 3 74q53 12 83 48t44 101H37l15 67h94l15 77H64l16 67h96l24 115q18 82 68.5 128T412 723q50 0 94-12.5t72-29.5l-34-69q-24 14-61.5 26T410 650q-55 0-84.5-30T285 537l-22-103h178l-15-67H249l-17-77h178l-14-67H218q-13-54-34.5-87.5T122 80h351L456 0H-11z" horiz-adv-x="551" vert-adv-y="1000"/><glyph glyph-name="uni20A7" unicode="₧" d="m27 0 152 714h105q109 0 159.5-49.5T494 532q0-74-31.5-131.5t-97-89.5Q300 279 198 279h-25L113 0H27m163 354h16q78 0 121 25.5t60 64q17 38.5 17 77.5 0 116-131 116h-25l-58-283M574-10q-54 0-77.5 27T473 84q0 26 13 84l38 178h-73l8 40 81 38 50 91h54l-23-102h98l-13-67h-98l-41-184q-5-22-6.5-36.5T559 101q0-39 39-39 16 0 32 4t29 8V7q-17-7-38.5-12T574-10z" horiz-adv-x="737" vert-adv-y="1000"/><glyph glyph-name="uni20AC" unicode="€" d="M329-10q-97 0-157 62t-60 193H30l13 66h74q2 19 6.5 41.5T132 389H59l14 67h77q44 122 121.5 194.5T456 723q50 0 84.5-12.5T605 678l-41-71q-22 15-49.5 26.5T452 645q-66 0-121-47.5T242 456h204l-13-67H221q-5-17-9.5-37.5T205 311h183l-15-66H201q0-93 36.5-134.5T341 69q35 0 66.5 7.5T468 96V19Q441 7 405-1.5T329-10z" horiz-adv-x="551" vert-adv-y="1000"/><glyph glyph-name="uni2105" unicode="℅" d="M248 385q-56 0-90.5 32T123 515q0 49 20 96t62 77q42 30 108 30 24 0 43.5-5t39.5-12l-19-51q-16 7-33.5 11.5T307 666q-37 0-62.5-21t-39-55Q192 556 192 518q0-79 65-79 23 0 41 5.5t33 10.5v-52q-15-7-38-12.5t-45-5.5M95 0l535 714h78L175 0H95m434-4q-57 0-89.5 33T407 121q0 52 18 100t55 78.5q37 30.5 95 30.5 59 0 91.5-35.5T699 198q0-58-19.5-103.5t-57.5-72Q584-4 529-4m7 52q34 0 55 25t30 59.5q9 34.5 9 63.5 0 38-15 59t-45 21q-34 0-55-24t-30.5-59q-9.5-35-9.5-67 0-78 61-78z" horiz-adv-x="777" vert-adv-y="1000"/><glyph glyph-name="uni2113" unicode="ℓ" d="M302-10q-41 0-76 16.5T169.5 61Q148 99 148 164v113q-22-8-46-15t-48-13v59q26 7 49 14.5t45 14.5v239q0 40 14.5 74t46 54q31.5 20 83.5 20 58 0 92.5-38.5T419 577q0-65-24.5-119T327 364.5Q284 325 230 302V167q0-50 19.5-79.5T311 58q35 0 61 22.5t31 80.5h51q-4-82-41.5-126.5T302-10m-72 376q122 64 122 208 0 92-60 92-38 0-50-25.5T230 574V366z" horiz-adv-x="520" vert-adv-y="1000"/><glyph glyph-name="uni2116" unicode="№" d="m27 0 151 714h100l169-587q7 41 17 94.5t20 99.5l84 393h80L497 0h-97L228 597q-6-44-16-100.5T191 389L108 0H27m723 134q-58 0-90.5 35T627 266q0 52 19 99.5t56.5 77.5q37.5 30 92.5 30 57 0 90.5-36.5T919 339q0-28-8-63t-27-67.5Q865 176 832.5 155T750 134m5 58q33 0 54 21.5t31.5 55Q851 302 851 336q0 77-61 77-32 0-53-21.5T705.5 337Q695 304 695 269q0-37 15-57t45-20M597 0l15 71h235L831 0H597z" horiz-adv-x="953" vert-adv-y="1000"/><glyph glyph-name="uni2122" unicode="™" d="M325 362v352h94l94-271 97 271h91V362h-64v204q0 8 1 31.5t2 35.5h-4L535 362h-53l-96 271h-4q1-16 2-36t1-26V362h-60m-207 0v298H17v54h266v-54H181V362h-63z" horiz-adv-x="773" vert-adv-y="1000"/><glyph glyph-name="uni03A9" unicode="Ω" d="M-10 0 6 79h171q-37 37-67.5 99T79 336q0 78 23.5 148T171 608.5Q216 663 281.5 694T430 725q90 0 149-36.5t87.5-98.5Q695 528 695 450q0-84-28-153.5t-75.5-124Q544 118 484 79h177L645 0H349l14 70q67 40 121 95.5T569 292q31 71 31 159 0 55-18 99.5t-57 70Q486 646 423 646q-81 0-136.5-43.5t-84-115Q174 416 174 332q0-93 27.5-154T276 70L262 0H-10z" horiz-adv-x="732" vert-adv-y="1000"/><glyph glyph-name="uni212E" unicode="℮" d="M320-17q-84 0-142 39T90.5 124Q61 187 61 259t23 124q23 52 60.5 86t83.5 50q46 16 92 16 74 0 132.5-33.5T545 406q34-62 34-147H175V85q22-23 61-41.5T320 25q73 0 116 30t77 84l35-20q-24-37-53-68T424 1.5Q382-17 320-17M175 301h291v135q-19 20-57 39t-90 19q-49 0-85-17t-59-40V301z" horiz-adv-x="619" vert-adv-y="1000"/><glyph glyph-name="uni215B" unicode="⅛" d="m85 0 530 714h79L164 0H85m74 285 53 251q5 25 13.5 56.5T240 645q-8-7-19.5-17.5T197 608l-52-34-28 47 142 92h62l-91-428h-71M574-9q-56 0-91.5 28.5T447 98q0 88 110 129-24 18-38.5 38.5T504 321q0 49 37.5 81.5T647 435q58 0 87-29t29-69q0-40-26.5-69T664 223q30-19 48-43t18-61q0-55-42.5-91.5T574-9m44 260q27 10 52 27t25 53q0 23-15.5 36T640 380q-33 0-51-17t-18-43q0-26 14-41.5t33-27.5M580 46q37-1 58.5 19.5T660 117q0 25-17.5 45.5T602 195q-37-13-62.5-34T514 105q0-27 18.5-42.5T580 46z" horiz-adv-x="802" vert-adv-y="1000"/><glyph glyph-name="uni215C" unicode="⅜" d="M170 278q-33 0-62.5 7.5T55 305v65q26-15 57-25t60-10q50 0 74.5 22t24.5 59q0 64-84 64h-46l12 55h46q46 0 74 19t28 54q0 59-64 57-26-1-48.5-9.5T145 632l-28 48q23 18 57 30.5t76 12.5q60 0 90-29t30-72q0-45-27-72.5T268 509v-4q34-8 53-32.5t19-58.5q0-58-41.5-97T170 278M134 0l530 714h79L213 0h-79m479-10q-56 0-91.5 28.5T486 97q0 88 110 129-24 18-38.5 38.5T543 320q0 49 37.5 81.5T686 434q58 0 87-29t29-69q0-40-26.5-69T703 222q30-19 48-43t18-61q0-55-42.5-91.5T613-10m44 260q27 10 52 27t25 53q0 23-15.5 36T679 379q-33 0-51-17t-18-43q0-26 14-41.5t33-27.5M619 45q37-1 58.5 19.5T699 116q0 25-17.5 45.5T641 194q-37-13-62.5-34T553 104q0-27 18.5-42.5T619 45z" horiz-adv-x="841" vert-adv-y="1000"/><glyph glyph-name="uni215D" unicode="⅝" d="m138 0 530 714h79L217 0h-79m33 277q-59 0-103 25v67q25-16 52.5-25t55.5-9q50 0 77 25.5t27 67.5q0 34-23 51t-56 17q-16 0-32-2.5t-33-8.5l-27 23 60 205h212l-12-62H214l-31-105q9 2 20.5 4t24.5 2q55 0 87-31t32-86q0-37-17-73.5T274.5 301Q236 277 171 277M619-11q-56 0-91.5 28.5T492 96q0 88 110 129-24 18-38.5 38.5T549 319q0 49 37.5 81.5T692 433q58 0 87-29t29-69q0-40-26.5-69T709 221q30-19 48-43t18-61q0-55-42.5-91.5T619-11m44 260q27 10 52 27t25 53q0 23-15.5 36T685 378q-33 0-51-17t-18-43q0-26 14-41.5t33-27.5M625 44q37-1 58.5 19.5T705 115q0 25-17.5 45.5T647 193q-37-13-62.5-34T559 103q0-27 18.5-42.5T625 44z" horiz-adv-x="847" vert-adv-y="1000"/><glyph glyph-name="uni215E" unicode="⅞" d="m72 0 530 714h79L151 0H72m488-10q-56 0-91.5 28.5T433 97q0 88 110 129-24 18-38.5 38.5T490 320q0 49 37.5 81.5T633 434q58 0 87-29t29-69q0-40-26.5-69T650 222q30-19 48-43t18-61q0-55-42.5-91.5T560-10m44 260q27 10 52 27t25 53q0 23-15.5 36T626 379q-33 0-51-17t-18-43q0-26 14-41.5t33-27.5M566 45q37-1 58.5 19.5T646 116q0 25-17.5 45.5T588 194q-37-13-62.5-34T500 104q0-27 18.5-42.5T566 45M90 286l228 369H126l13 59h268l-10-48-228-380H90z" horiz-adv-x="788" vert-adv-y="1000"/><glyph glyph-name="uni0394" unicode="Δ" d="m-27 0 11 54 348 659h92l73-660-11-53H-27M89 79h319l-38 370q-9 96-9 169-16-40-34-80t-43-87L89 79z" horiz-adv-x="562" vert-adv-y="1000"/><glyph glyph-name="uni2074" unicode="⁴" d="m233 416 20 97H75l11 52 235 282h71l-59-275h61l-11-59h-63l-20-97h-67m-75 156h108l20 92q6 26 11 49.5t12 47.5q-4-7-13.5-20.5T275 713q-11-14-19-23l-98-118z" horiz-adv-x="353" vert-adv-y="1000"/><glyph glyph-name="uni2075" unicode="⁵" d="M198 409q-59 0-103 25v67q25-16 52.5-25t55.5-9q50 0 77 25.5t27 67.5q0 34-23 51t-56 17q-16 0-32-2.5t-33-8.5l-27 23 60 205h212l-12-62H241l-31-105q9 2 20.5 4t24.5 2q55 0 87-31t32-86q0-37-17-73.5T301.5 433Q263 409 198 409z" horiz-adv-x="353" vert-adv-y="1000"/><glyph glyph-name="uni2077" unicode="⁷" d="m113 417 228 369H149l13 59h268l-10-48-228-380h-79z" horiz-adv-x="353" vert-adv-y="1000"/><glyph glyph-name="uni2078" unicode="⁸" d="M215 409q-56 0-91.5 28.5T88 516q0 88 110 129-24 18-38.5 38.5T145 739q0 49 37.5 81.5T288 853q58 0 87-29t29-69q0-40-26.5-69T305 641q30-19 48-43t18-61q0-55-42.5-91.5T215 409m44 260q27 10 52 27t25 53q0 23-15.5 36T281 798q-33 0-51-17t-18-43q0-26 14-41.5t33-27.5m-38-205q37-1 58.5 19.5T301 535q0 25-17.5 45.5T243 613q-37-13-62.5-34T155 523q0-27 18.5-42.5T221 464z" horiz-adv-x="353" vert-adv-y="1000"/><glyph glyph-name="uniFFFC" unicode="￼" d="M916 593v94h-95v54h148V593h-53m-286 94v54h133v-54H630m-191 0v54h133v-54H439M41 593v148h148v-54H95v-94H41m207 94v54h132v-54H248m668-285v132h53V402h-53m-875 0v132h54V402H41m253-242q-66 0-97 40.5T166 307q0 67 31 107t97 40q66 0 97-40t31-107q0-66-31-106.5T294 160m434 1q-24 0-39 5v50q7-2 15-3t18-1q18 0 30 8.5t12 33.5v196h61V256q0-50-27-72.5T728 161m-265 3v286h84q53 0 80.5-16t27.5-57q0-24-11.5-40T611 317v-4q22-5 37-18.5t15-47.5q0-39-26.5-61T564 164H463m-169 47q34 0 50 25.5t16 70.5q0 45-16 70.5T294 403q-34 0-50-25.5T228 307q0-45 16-70.5t50-25.5m229 126h32q23 0 31.5 8t8.5 24q0 31-43 31h-29v-63M41 210v133h54V210H41m875 0v133h53V210h-53m-393 4h36q24 0 33 10.5t9 28.5q0 16-9.5 26T557 289h-34v-75M916 19v132h53V19h-53M41 19v132h54V19H41m780-206v53h95v95h53v-148H821m-780 0v148h54v-95h94v-53H41m589 0v53h133v-53H630m-191 0v53h133v-53H439m-191 0v53h132v-53H248z" horiz-adv-x="1000" vert-adv-y="1000"/><glyph glyph-name="uniFFFD" unicode="�" d="M499-156 41 302l458 458 459-458-459-458m-71 335h103v23q0 25 10 39.5t43 40.5q43 34 64.5 65t21.5 80q0 67-46 104t-126 37q-42 0-86-14t-78-34l40-87q33 17 64 28t58 11q31 0 46-14t15-37q0-29-13-46t-46-43q-38-30-54-57.5T428 208v-29m56-200q27 0 47.5 15.5T552 45q0 37-20.5 52T484 112q-29 0-49-15t-20-52q0-35 20-50.5T484-21z" horiz-adv-x="1000" vert-adv-y="1000"/><glyph glyph-name="uni01F0" unicode="ǰ" d="M-64-240q-37 0-62 10v74q12-4 27-7.5t31-3.5q61 0 82 98l128 605h87L99-77q-16-75-52.5-119T-64-240m218 846q-14 38-38.5 78T72 753v13h53q19-16 39-40t40-51q31 27 62 50.5t58 40.5h57v-13q-17-15-45-41.5t-55-55Q254 628 240 606h-86z" horiz-adv-x="258" vert-adv-y="1000"/><glyph glyph-name="uni02BC" unicode="ʼ" d="M60 469q26 59 54 126t45 119h96l4-11q-24-53-60-116t-72-118H60z" horiz-adv-x="174" vert-adv-y="1000"/><glyph glyph-name="uni03D1" unicode="ϑ" d="M205-10q-83 0-120 40t-37 97q0 35 9.5 66.5T80 256q7 19 13.5 36.5T100 327q0 13-7.5 20.5T74 355q-10 0-24-4.5T26 341l5 67q17 7 35 12t41 5q40 0 60-22.5t20-56.5q0-28-8-55t-18-53q-10-26-17.5-51.5T136 134q0-32 18-52.5T214 61q45 0 79 25.5t59 66q25 40.5 42 88t27.5 92.5q10.5 45 15.5 78-128 2-192 48t-64 131q0 79 48.5 127T357 765q91 0 135-65t44-174q0-12-.5-26t-1.5-23h70l-15-67h-64q-7-48-21-104.5t-38.5-112Q441 138 405 92t-85.5-74Q270-10 205-10m239 487q2 7 2.5 21.5t.5 29.5q0 83-24 124.5T355 694q-44 0-65.5-29T268 592q0-64 45.5-89.5T444 477z" horiz-adv-x="581" vert-adv-y="1000"/><glyph glyph-name="uni03D2" unicode="ϒ" d="m150 0 58 268L92 714h89l85-358q27 50 58.5 105.5T385 565q29 48 50 76 30 40 57.5 59.5T560 720q14 0 28.5-2.5T614 712l-19-71q-7 1-13 3t-14 2q-16 0-32-11t-38-41q-16-22-47.5-72t-72-117.5Q338 337 294 260L240 0h-90z" horiz-adv-x="516" vert-adv-y="1000"/><glyph glyph-name="uni03D6" unicode="ϖ" d="M220-10q-68 0-106 44T76 164q0 70 28 148t78 149H52l7 36 96 39h675l-16-75H699q7-30 10-60t3-60q0-57-13-118.5T658.5 108Q631 55 587 22.5T481-10q-49 0-79 24.5T362 82q-25-44-60-68t-82-24m12 73q44 0 69.5 37.5T340 194l18 86h85l-15-73q-3-14-5.5-32.5T420 142q0-79 61-79 32 0 58.5 24t45 64.5q18.5 40.5 28.5 91T623 346q0 28-2.5 58t-6.5 57H272q-44-67-75-142t-31-154q0-50 18-76t48-26z" horiz-adv-x="805" vert-adv-y="1000"/><glyph glyph-name="uni1E3E" unicode="Ḿ" d="m40 0 151 714h126l69-583h4l317 583h137L696 0h-90l90 424q14 65 26.5 118t21.5 85h-2L398 0h-71l-76 626h-4q-2-20-7-53.5t-11.5-71Q222 464 215 429L124 0H40m424 784v13q17 19 38 45t40 53q19 27 34 49h100v-10q-14-18-41.5-46.5t-58.5-57Q545 802 519 784h-55z" horiz-adv-x="841" vert-adv-y="1000"/><glyph glyph-name="uni1E3F" unicode="ḿ" d="m28 0 114 536h72l-11-99h5q18 25 42.5 50t56.5 42q32 17 73 17 55 0 85-32t36-87h4q20 29 47.5 56.5t61.5 45q34 17.5 75 17.5 62 0 96-34t34-98q0-24-3-45t-8-43L739 0h-89l72 336q4 22 6.5 38.5T731 406q0 30-16.5 48T663 472q-33 0-69-24t-67.5-75Q495 322 478 242L427 0h-88l71 336q9 45 9 66 0 33-15 51.5T354 472q-32 0-69-23.5T216 372q-32-53-51-141L116 0H28m440 606v13q17 19 38 45t40 53q19 27 34 49h100v-10q-14-18-41.5-46.5t-58.5-57Q549 624 523 606h-55z" horiz-adv-x="875" vert-adv-y="1000"/><glyph glyph-name="uni1E00" unicode="Ḁ" d="m-57 0 388 714h94L513 0h-88l-27 222H157L41 0h-98m257 302h189l-16 150q-4 38-7.5 84t-4.5 81h-3q-16-38-37-81.5T277 448l-77-146m13-572q-49 0-78.5 27T105-166q0 50 29.5 77.5T213-61q47 0 79.5-27.5T325-165q0-50-32.5-77.5T213-270m0 49q24 0 39.5 14.5T268-166q0 26-15.5 40.5T213-111q-25 0-40-14.5T158-166q0-26 13.5-40.5T213-221z" horiz-adv-x="562" vert-adv-y="1000"/><glyph glyph-name="uni1E01" unicode="ḁ" d="M193-10q-65 0-105 46.5T48 173q0 75 19.5 142.5t54.5 119q35 51.5 83 81.5t106 30q53 0 86-28t49-65h5l32 83h67L436 0h-70l13 99h-4q-35-44-80.5-76.5T193-10m29 73q36 0 72 27t64.5 72.5Q387 208 403 266q7 28 10 53t3 46q0 47-26 77t-70 30q-39 0-72-24.5t-58-67Q165 338 151.5 284T138 171q0-54 22-81t62-27m0-333q-49 0-78.5 27T114-166q0 50 29.5 77.5T222-61q47 0 79.5-27.5T334-165q0-50-32.5-77.5T222-270m0 49q24 0 39.5 14.5T277-166q0 26-15.5 40.5T222-111q-25 0-40-14.5T167-166q0-26 13.5-40.5T222-221z" horiz-adv-x="568" vert-adv-y="1000"/><glyph glyph-name="uni02F3" unicode="˳" d="M73-270q-49 0-78.5 27T-35-166q0 50 29.5 77.5T73-61q47 0 79.5-27.5T185-165q0-50-32.5-77.5T73-270m0 49q24 0 39.5 14.5T128-166q0 26-15.5 40.5T73-111q-25 0-40-14.5T18-166q0-26 13.5-40.5T73-221z" horiz-adv-x="333" vert-adv-y="1000"/><glyph glyph-name="uni01A0" unicode="Ơ" d="M337-10q-128 0-196.5 74.5T72 267q0 92 24.5 175T168 588.5q47 63.5 114 100T433 725q73 0 127-27.5t86-78.5q44 18 62.5 53t26.5 88h96l4-11q-17-67-56-110t-110-71q10-27 15.5-58t5.5-66q0-93-22.5-175t-67-144.5Q556 62 490 26T337-10m3 79q60 0 107 30t80 82.5Q560 234 577.5 302T595 446q0 95-45 147.5T427 646q-60 0-108-29.5t-82-81q-34-51.5-52-120T167 269q0-95 46-147.5T340 69z" horiz-adv-x="719" vert-adv-y="1000"/><glyph glyph-name="uni01A1" unicode="ơ" d="M248-8q-93 0-146.5 55.5T48 198q0 62 17 123t50.5 111q33.5 50 84 80.5T316 543q106 0 159-70 47 19 65.5 57t26.5 88h95l4-11q-16-66-54.5-109.5T500 427q16-39 16-91 0-61-17-122t-50.5-111Q415 53 365 22.5T248-8m5 73q47 0 86.5 33.5t63 96.5Q426 258 426 346q0 30-10.5 58.5t-34.5 47Q357 470 317 470q-55 0-95.5-37.5t-62.5-100Q137 270 137 195q0-62 30.5-96T253 65z" horiz-adv-x="568" vert-adv-y="1000"/><glyph glyph-name="uni01AF" unicode="Ư" d="M303-10q-113 0-168.5 52.5T79 190q0 18 3.5 43.5T91 283l92 431h89l-93-437q-11-52-11-82 0-57 32-91.5T305 69q85 0 130 45.5T500 251l99 463h89l-21-96q38 8 64.5 41T768 760h95l4-11q-17-79-74-128t-138-64l-67-314q-16-78-50-135t-91-87.5Q390-10 303-10z" horiz-adv-x="727" vert-adv-y="1000"/><glyph glyph-name="uni01B0" unicode="ư" d="M189-10q-61 0-97.5 34T55 126q0 20 3.5 40t7.5 43l70 327h89l-72-337q-9-43-9-65 0-34 16-52.5T214 63q34 0 73 24t73.5 77Q395 217 414 305l49 231h87l-13-61q40 8 65.5 41.5T639 618h95l4-11q-18-80-75-128.5T524 414L436 0h-72l11 99h-5q-19-25-44.5-50T266 7q-34-17-77-17z" horiz-adv-x="626" vert-adv-y="1000"/><glyph glyph-name="uni0400" unicode="Ѐ" d="m41 0 151 714h362l-17-79H264l-47-223h255l-15-78H201L146 79h274L403 0H41m347 784q-19 19-40.5 46T307 885q-19 28-29 49v10h94q11-37 30.5-75.5T442 796v-12h-54z" horiz-adv-x="514" vert-adv-y="1000"/><glyph glyph-name="uni040D" unicode="Ѝ" d="m41 0 151 714h85l-84-393q-7-30-15.5-68t-16-72.5Q154 146 149 129h2l452 585h104L556 0h-84l84 397q8 34 16 71.5t15.5 71Q595 573 601 595h-2L145 0H41m423 784q-19 19-40.5 46T383 885q-19 28-29 49v10h94q11-37 30.5-75.5T518 796v-12h-54z" horiz-adv-x="702" vert-adv-y="1000"/><glyph glyph-name="uni0450" unicode="ѐ" d="M242-10q-93 0-143.5 54.5T48 192q0 64 18.5 126.5t53.5 114q35 51.5 84.5 82.5T316 546q76 0 114.5-33t38.5-92q0-53-32.5-95.5t-101.5-68Q266 232 156 232h-17q-1-9-1.5-19t-.5-18q0-61 29.5-96.5T258 63q38 0 72 10.5t74 30.5V29q-38-17-74.5-28T242-10m-90 313h7q60 0 111 10.5t82 35q31 24.5 31 65.5 0 26-17.5 42.5T311 473q-48 0-92.5-44.5T152 303m180 303q-19 19-40.5 46T251 707q-19 28-29 49v10h94q11-37 30.5-75.5T386 618v-12h-54z" horiz-adv-x="499" vert-adv-y="1000"/><glyph glyph-name="uni045D" unicode="ѝ" d="M189-10q-61 0-97.5 34T55 123q0 23 3.5 43t7.5 43l70 327h89l-72-337q-9-43-9-67 0-32 16-50.5T214 63q34 0 73 24t73.5 77Q395 217 414 305l49 231h87L436 0h-72l11 99h-5q-19-25-44.5-50T266 7q-34-17-77-17m176 616q-19 19-40.5 46T284 707q-19 28-29 49v10h94q11-37 30.5-75.5T419 618v-12h-54z" horiz-adv-x="579" vert-adv-y="1000"/><glyph glyph-name="uni0460" unicode="Ѡ" d="M180-5q-34 95-55.5 213t-24 247Q98 584 120 714h93q-20-122-18.5-237.5t15-213Q223 166 240 97h5q13 29 33 67t43 79l153 263q2 52 7 106t14 102h93q-15-84-17.5-170.5T575 375q7-82 20-154.5T624 92h4q86 119 155 275.5T895 714h94q-47-205-135.5-389.5T643-5h-80q-21 52-38 118.5t-28.5 135Q485 317 481 376L265-5h-85z" horiz-adv-x="919" vert-adv-y="1000"/><glyph glyph-name="uni0461" unicode="ѡ" d="M136 0q-26 67-44.5 152.5t-23 183Q64 433 83 537h87q-14-95-13.5-181T168 199q11-71 26-121h3q14 26 33.5 52.5T269 184l106 149q-1 49 3 102t13 102h88q-15-81-16-164.5t8.5-160Q481 136 498 76h4q72 86 129 204.5T725 537h87q-38-146-106-278T525 0h-82q-19 52-35 117.5T386 242L216 0h-80z" horiz-adv-x="789" vert-adv-y="1000"/><glyph glyph-name="uni0462" unicode="Ѣ" d="m74 0 114 537H70l16 76h118l22 101h90l-23-101h188l-16-76H278l-28-125h67q115 0 164.5-48.5T531 235q0-114-80-174.5T221 0H74m105 77h56q91 0 148 37t57 117q0 54-34 78t-101 24h-71L179 77z" horiz-adv-x="588" vert-adv-y="1000"/><glyph glyph-name="uni0463" unicode="ѣ" d="M274-10q-86 0-132 39T96 145q0 21 3 46t8 47l47 222H44l15 75h111l23 109h88l-22-109h140l-16-75H243l-35-157q25 5 57 8.5t61 3.5q86 0 127-37.5T494 173q0-52-25.5-93.5T394 14q-49-24-120-24m8 72q61 0 93.5 29t32.5 75q0 40-25.5 58.5T305 243q-26 0-56.5-2.5T193 233q-6-29-8.5-48t-2.5-33q0-90 100-90z" horiz-adv-x="557" vert-adv-y="1000"/><glyph glyph-name="uni0464" unicode="Ѥ" d="M601-10q-121 0-186.5 72.5T349 262q0 35 3 71H200L130 0H41l151 714h89l-64-302h151q17 62 48 118t76.5 100Q538 674 598 699t136 25q99 0 175-40l-37-74q-26 14-60 24.5T734 645q-72 0-125.5-32t-90-84.5Q482 476 464 412h300l-16-78H447q-3-17-4-34.5t-1-35.5q0-93 47-144t128-51q41 0 80.5 8T776 98V20Q736 5 696-2.5T601-10z" horiz-adv-x="863" vert-adv-y="1000"/><glyph glyph-name="uni0465" unicode="ѥ" d="M486-10q-89 0-144 49t-55 151q0 24 3 50H167L116 0H28l114 536h87l-46-223h121q16 63 50.5 116t87 85Q494 546 566 546q36 0 70-7t64-19l-25-73q-20 9-47.5 17t-59.5 8q-62 0-107-43t-67-117h225l-17-74H379q-2-16-2.5-26t-.5-21q0-59 32-93.5T496 63q38 0 68 9.5T623 96V22Q596 8 562-1t-76-9z" horiz-adv-x="693" vert-adv-y="1000"/><glyph glyph-name="uni0466" unicode="Ѧ" d="m-57 0 417 713h80L560 0h-88l-52 333h-55L296 0h-83l72 333h-57L36 0h-93m331 412h134l-12 73q-4 32-8 66t-5 62q-13-29-29.5-59.5T317 487l-43-75z" horiz-adv-x="607" vert-adv-y="1000"/><glyph glyph-name="uni0467" unicode="ѧ" d="m-46 0 313 536h111L470 0h-87l-38 240h-43L253 0h-82l54 240h-43L44 0h-90m267 309h114q-8 46-13.5 86T311 471q-23-45-45.5-84.5T221 309z" horiz-adv-x="534" vert-adv-y="1000"/><glyph glyph-name="uni0468" unicode="Ѩ" d="m41 0 151 714h89l-64-302h207l176 301h81L800 0h-88l-52 333h-55L536 0h-82l72 333h-58L277 0h-94l196 333H200L130 0H41m473 412h133l-10 71q-7 44-9.5 72t-3.5 60q-13-29-29-61.5T558 486l-44-74z" horiz-adv-x="849" vert-adv-y="1000"/><glyph glyph-name="uni0469" unicode="ѩ" d="m28 0 114 536h88l-47-223h152l130 223h110L667 0h-87l-37 240h-42L451 0h-82l53 240h-42L241 0h-91l141 240H167L116 0H28m393 311h112l-23 160-89-160z" horiz-adv-x="731" vert-adv-y="1000"/><glyph glyph-name="uni046A" unicode="Ѫ" d="M-40 0 64 221q26 55 52.5 95t65 63.5Q220 403 282 407L159 646l14 68h518l-15-68-229-239q59-5 88.5-29t40-64q10.5-40 13.5-92L602 0h-90l-12 223q-4 61-23 90t-71 29h-9L324 0h-89l72 342h-6q-37 0-61-11.5t-43-38Q178 266 156 220L52 0h-92m404 421 199 214H257l107-214z" horiz-adv-x="666" vert-adv-y="1000"/><glyph glyph-name="uni046B" unicode="ѫ" d="m-54 0 95 177q19 35 41 64t55 48q33 19 87 24L116 485l10 51h455l-11-51-181-172q45-7 69-27t35-50q11-30 17-70L533 0h-85l-22 165q-7 49-26.5 70T333 256L279 0h-81l54 256q-48 0-75-20t-52-70L37 0h-91m357 316 146 145H213l90-145z" horiz-adv-x="601" vert-adv-y="1000"/><glyph glyph-name="uni046C" unicode="Ѭ" d="m41 0 151 714h89l-64-302h313L409 646l14 68h518l-14-68-229-239q58-5 87.5-29t40.5-64q11-40 14-92L852 0h-89l-11 223q-3 61-23 90.5T656 342h-8L575 0h-89l72 342h-7q-36 0-60.5-11.5T447 293q-19-26-40-71L303 0h-93l104 221q16 35 32.5 63.5T384 333H200L130 0H41m574 421 198 214H507l108-214z" horiz-adv-x="921" vert-adv-y="1000"/><glyph glyph-name="uni046D" unicode="ѭ" d="m28 0 114 536h88l-47-223h249L324 485l9 51h456l-11-51-181-172q45-7 69-27t35-50q11-30 17-70L742 0h-86l-22 165q-7 49-26.5 70T542 256L487 0h-80l52 256q-47 0-73-20t-53-71L246 0h-92l95 177q8 16 20 33t28 30H167L116 0H28m483 316 147 145H421l90-145z" horiz-adv-x="803" vert-adv-y="1000"/><glyph glyph-name="uni046E" unicode="Ѯ" d="M382-208q-16 6-40.5 12t-61.5 6q-40 0-83.5-2t-93.5-2q-66 0-102 30.5T-35-86q0 52 26.5 82T66 41q48 15 112 22 38 5 75 12.5t67 23q30 15.5 48 43t18 72.5q0 62-41 90t-116 28H127l15 73h95q49 0 94 14.5t73.5 46.5q28.5 32 28.5 87 0 49-30 73t-80 24q-45 0-88.5-16T150 592l-36 64q42 28 85.5 44.5T293 722q-14 28-35.5 58.5T220 836v12h61q18-20 35.5-41t37.5-47q31 37 59.5 64.5T481 852q16 0 24.5-2.5T521 844v-56q-7 2-14 3t-17 1q-20 0-38-19t-47-57q50-10 85-48t35-103q0-76-49.5-127.5T341 369v-2q60-9 99.5-48T480 210q0-73-35.5-120t-101-71.5Q278-6 189-14q-79-8-106.5-20T55-74q0-17 13.5-29t50.5-12q42 0 81 3t88 3q32 0 53.5-5t40.5-10v-84z" horiz-adv-x="538" vert-adv-y="1000"/><glyph glyph-name="uni046F" unicode="ѯ" d="M335-192q-19 8-39.5 13.5T245-173q-41 0-75.5-2T87-177q-49 0-78 15t-42 37.5Q-46-102-46-77q0 38 16.5 61.5t44 37.5q27.5 14 62 21.5T147 58q39 8 76 18t61 31q24 21 24 61 0 34-23 53.5T207 241h-73l16 74h49q33 0 65 6.5t53.5 26.5q21.5 20 21.5 59 0 30-20 47.5T255 472q-33 0-65.5-8.5T118 438l-26 67q30 14 60.5 23.5T216 543q-14 25-32.5 52T147 647v13h61q18-20 35.5-41.5T279 573q29 36 57 64t68 28q15 0 25-2.5t17-4.5v-57q-7 1-14 2.5t-17 1.5q-19 0-37-15.5T334 538q44-13 68.5-43t24.5-75q0-54-32.5-90T301 281v-2q40-10 65.5-38t25.5-73q0-62-33-97t-88-53Q216 0 150-10q-55-8-85-19.5T35-68q0-37 57-37 43 0 80 2.5t74 2.5q24 0 45.5-3.5T335-119v-73z" horiz-adv-x="454" vert-adv-y="1000"/><glyph glyph-name="uni0470" unicode="Ѱ" d="m273 0 46 218h-7q-81 0-128.5 28.5T116 320q-20 45-20 95 0 45 12 100l41 199h93l-44-209q-6-29-8.5-50t-2.5-36q0-125 139-125h8l90 420h90l-89-420h7q68 0 111 23t67 64.5q24 41.5 36 96.5l50 236h93l-51-244q-14-72-49-129t-98.5-90Q527 218 427 218h-18L363 0h-90z" horiz-adv-x="742" vert-adv-y="1000"/><glyph glyph-name="uni0471" unicode="ѱ" d="M209-240 259-8Q160 2 114.5 52.5T69 182q0 24 3 48t9 54l53 252h88l-53-255q-5-25-8-47.5t-3-41.5q0-53 25.5-87.5T274 64l147 695h86L360 66q94 10 144.5 71T574 300q19 102 19 236h90q0-116-15-213t-52-169Q579 82 512.5 40T344-8l-49-232h-86z" horiz-adv-x="723" vert-adv-y="1000"/><glyph glyph-name="uni0472" unicode="Ѳ" d="M337-10q-128 0-196.5 74.5T72 267q0 92 24.5 175T168 588.5q47 63.5 114 100T433 725q121 0 189-75.5T690 444q0-93-22.5-175t-67-144.5Q556 62 490 26T337-10M182 403h411q1 10 1.5 20.5t.5 22.5q0 95-45 147.5T427 646q-62 0-111-31t-83.5-86Q198 474 182 403M340 69q63 0 112 33.5t82.5 91.5Q568 252 583 325H169q-3-27-3-56 0-95 46.5-147.5T340 69z" horiz-adv-x="721" vert-adv-y="1000"/><glyph glyph-name="uni0473" unicode="ѳ" d="M249-8q-93 0-147 55.5T48 198q0 62 17 123t50.5 111q33.5 50 84 80.5T316 543q99 0 150.5-56T518 344q0-62-17-124t-51-113.5q-34-51.5-84.5-83T249-8m-95 320h273q0 9 .5 16.5t.5 17.5q0 57-27.5 90.5T317 470q-60 0-102-44t-61-114m99-248q55 0 100 46t64 128H140q-2-11-2.5-22t-.5-22q0-62 30.5-96T253 64z" horiz-adv-x="563" vert-adv-y="1000"/><glyph glyph-name="uni0474" unicode="Ѵ" d="M169 0 92 714h88l45-453q5-41 7.5-82t1.5-79l3 1q11 35 29.5 79.5T303 263l126 266q32 67 57 109t55 62q30 20 78 20 18 0 31.5-2t27.5-6v-72q-10 4-22.5 6.5T628 649q-32 0-54.5-31T518 520L266 0h-97z" horiz-adv-x="567" vert-adv-y="1000"/><glyph glyph-name="uni0475" unicode="ѵ" d="M110 0 47 536h89l30-296q4-44 7-83.5t4-89.5h3q17 46 38 93.5t35 79.5l76 163q23 49 42.5 78.5t45 43.5q25.5 14 65.5 14 23 0 40-5v-64q-7 2-14.5 3t-18.5 1q-23 0-38.5-18T417 400L226 0H110z" horiz-adv-x="450" vert-adv-y="1000"/><glyph glyph-name="uni0476" unicode="Ѷ" d="M169 0 92 714h88l45-453q5-41 7.5-82t1.5-79l3 1q11 35 29.5 79.5T303 263l126 266q32 67 57 109t55 62q30 20 78 20 18 0 31.5-2t27.5-6v-72q-10 4-22.5 6.5T628 649q-32 0-54.5-31T518 520L266 0h-97m243 784q-19 19-40.5 46t-40 55Q313 913 302 934v10h96q10-37 29.5-75.5T467 796v-12h-55m-171 0q-19 19-40.5 46t-40 55Q142 913 131 934v10h95q11-37 30-75.5t41-72.5v-12h-56z" horiz-adv-x="567" vert-adv-y="1000"/><glyph glyph-name="uni0477" unicode="ѷ" d="M110 0 47 536h89l30-296q4-44 7-83.5t4-89.5h3q17 46 38 93.5t35 79.5l76 163q23 49 42.5 78.5t45 43.5q25.5 14 65.5 14 23 0 40-5v-64q-7 2-14.5 3t-18.5 1q-23 0-38.5-18T417 400L226 0H110m212 606q-19 19-40.5 46t-40 55Q223 735 212 756v10h96q10-37 29.5-75.5T377 618v-12h-55m-171 0q-19 19-40.5 46t-40 55Q52 735 41 756v10h95q11-37 30-75.5t41-72.5v-12h-56z" horiz-adv-x="450" vert-adv-y="1000"/><glyph glyph-name="uni0478" unicode="Ѹ" d="M337-10q-128 0-196.5 74.5T72 267q0 92 24.5 175T168 588.5q47 63.5 114 100T433 725q121 0 189-75.5T690 444q0-93-22.5-175t-67-144.5Q556 62 490 26T337-10m3 79q60 0 107 30t80 82.5Q560 234 577.5 302T595 446q0 95-45 147.5T427 646q-60 0-108-29.5t-82-81q-34-51.5-52-120T167 269q0-95 46-147.5T340 69m356-309q-24 0-39.5 3t-29.5 7v71q14-4 30-6.5t34-2.5q40 0 69 25t55 73l35 62-81 544h88l35-265q5-33 7.5-71t4-72.5Q905 93 905 72h3q7 16 20.5 48t29.5 66q16 34 28 56l156 294h94L896-90q-41-75-85-112.5T696-240z" horiz-adv-x="1188" vert-adv-y="1000"/><glyph glyph-name="uni0479" unicode="ѹ" d="M248-8q-93 0-146.5 55.5T48 198q0 62 17 123t50.5 111q33.5 50 84 80.5T316 543q94 0 147-55.5T516 336q0-61-17-122t-50.5-111Q415 53 365 22.5T248-8m5 73q47 0 86.5 33.5t63 96.5Q426 258 426 346q0 30-10.5 58.5t-34.5 47Q357 470 317 470q-55 0-95.5-37.5t-62.5-100Q137 270 137 195q0-62 30.5-96T253 65m285-305q-24 0-39.5 3t-29.5 7v71q14-4 30-6.5t34-2.5q40 0 69 25t55 73l35 62-81 544h88l35-265q5-33 7.5-71t4-72.5Q747 93 747 72h3q7 16 20.5 48t29.5 66q16 34 28 56l156 294h94L738-90q-41-75-85-112.5T538-240z" horiz-adv-x="1030" vert-adv-y="1000"/><glyph glyph-name="uni047A" unicode="Ѻ" d="M319-61q-29 0-44 18T259 1q-88 21-137.5 92.5T72 276q0 86 22 161.5T157.5 573q41.5 60 100 98.5T390 721q10 29 28 41t46 12q28 0 43.5-16.5T524 714q87-22 136.5-92T710 435q0-115-37.5-211T564 66.5Q493 5 392-7q-10-29-28.5-41.5T319-61m87 136q64 16 111 68t72.5 128.5Q615 348 615 436q0 82-29 129.5T506 633q-12-20-30-29.5t-40-9.5q-24 0-40 11.5T376 638q-63-16-110-67t-73-127q-26-76-26-165 0-76 27.5-127.5T278 81q23 38 68 38 51 0 60-44z" horiz-adv-x="741" vert-adv-y="1000"/><glyph glyph-name="uni047B" unicode="ѻ" d="M251-54q-25 0-39 14.5T197-1Q124 12 86 67T48 207q0 53 13.5 106.5t41.5 100q28 46.5 69.5 80T270 539q8 28 25 39t43 11q24 0 38-14t15-39q72-16 107.5-69.5T534 335q0-77-23.5-147.5T439 66Q391 15 318-2q-8-28-25-40t-42-12M212 72q22 34 60 34 17 0 29.5-9T320 76q56 21 90 91t34 174q0 45-16.5 77.5T377 462q-11-18-25.5-25.5T318 429q-38 0-49 32-33-11-63-45t-49.5-88Q137 274 137 202q0-52 19-86.5T212 72z" horiz-adv-x="583" vert-adv-y="1000"/><glyph glyph-name="uni047C" unicode="Ѽ" d="M435 910q12 62 47.5 90.5T570 1029q40 0 74-14t69-28q35-14 77-14h12l-13-63h-9q-39 0-68 8.5T659.5 938Q636 949 613 957.5t-50 8.5q-23 0-39-14t-23-42h-66m92-155 7 37q57 22 57 45 0 8-5.5 12t-12.5 7q-11 4-20.5 10.5T543 889q0 36 47 36 28 0 44.5-16.5T651 864q0-77-124-109M280-10q-110 0-159.5 67T71 234q0 68 13.5 137.5T124 504q26 63 64 112.5t87 78Q324 723 384 723q85 0 137-44l-42-70q-24 16-46 25.5t-48 9.5q-43 0-77.5-26.5t-61-70.5Q220 503 202 449.5T175 341q-9-55-9-102 0-79 31-124.5T295 69q41 0 69 19.5t38 33.5l43 201h91l-41-205q11-13 37-31t66-18q45 0 82 27.5t66 74Q775 217 795 273t30 114.5Q835 446 835 497q0 73-26.5 110T736 644q-26 0-49-10.5T638 608l-36 72q66 43 145 43 89 0 135-59.5T928 497q0-69-14.5-141t-42-137.5q-27.5-65.5-68-117T710 20q-53-30-117-30-61 0-97.5 20.5T440 53q-20-21-59.5-42T280-10z" horiz-adv-x="959" vert-adv-y="1000"/><glyph glyph-name="uni047D" unicode="ѽ" d="M330 761q12 61 47.5 89.5T465 879q41 0 75-14t69-28q35-14 77-14h12l-14-62h-8q-39 0-68 8.5T555 789q-24 11-47 19.5t-50 8.5q-48 0-61-56h-67m96-156 8 37q57 20 57 45 0 8-5.5 12.5T472 707q-10 5-20 11t-10 21q0 17 12.5 27t34.5 10q29 0 45.5-17t16.5-45q0-37-31-65t-94-44M225-10q-90 0-133 55.5T49 202q0 67 19 128.5t53 110q34 48.5 81.5 76.5T307 545q68 0 106-31l-45-67q-28 22-65 22-39-1-69.5-25.5t-51.5-64Q161 340 150 294t-11-91q0-63 22.5-99.5T233 67q35 0 56 12t30 23l34 165h88l-35-167q11-13 33.5-22.5T487 68q54 0 93.5 39.5t60.5 104Q662 276 662 352q0 50-15.5 83.5T593 469q-14 0-31.5-4.5T524 447l-33 69q27 16 56 22.5t62 6.5q71 0 107.5-52.5T753 357q0-67-15.5-132.5t-49-118.5q-33.5-53-85-84.5T480-10q-43 0-75 14t-48 30q-21-16-53.5-30T225-10z" horiz-adv-x="798" vert-adv-y="1000"/><glyph glyph-name="uni047E" unicode="Ѿ" d="M180-5q-34 95-55.5 213t-24 247Q98 584 120 714h93q-20-122-18.5-237.5t15-213Q223 166 240 97h5q13 29 33 67t43 79l153 263q2 52 7 106t14 102h93q-15-84-17.5-170.5T575 375q7-82 20-154.5T624 92h4q86 119 155 275.5T895 714h94q-47-205-135.5-389.5T643-5h-80q-21 52-38 118.5t-28.5 135Q485 317 481 376L265-5h-85m227 794-21 84 3 13h405l-2-13-58-84h-16l-13 50h-91l-35-50h-16l-13 50h-91l-35-50h-17z" horiz-adv-x="919" vert-adv-y="1000"/><glyph glyph-name="uni047F" unicode="ѿ" d="M136 0q-26 67-44.5 152.5t-23 183Q64 433 83 537h87q-14-95-13.5-181T168 199q11-71 26-121h3q14 26 33.5 52.5T269 184l106 149q-1 49 3 102t13 102h88q-15-81-16-164.5t8.5-160Q481 136 498 76h4q72 86 129 204.5T725 537h87q-38-146-106-278T525 0h-82q-19 52-35 117.5T386 242L216 0h-80m168 611-21 84 3 13h405l-2-13-58-84h-16l-13 50h-91l-35-50h-16l-13 50h-91l-35-50h-17z" horiz-adv-x="789" vert-adv-y="1000"/><glyph glyph-name="uni0480" unicode="Ҁ" d="M256-240 306-9Q196-3 134 69T72 262q0 65 15 130.5t45.5 125q30.5 59.5 77 106T318 697q62 27 140 27 100 0 174-40l-36-74q-27 14-60.5 24.5T458 645q-75 0-129.5-33.5t-90.5-89q-36-55.5-53.5-123T167 264q0-91 46.5-142.5T341 70q19 0 37 3t38 11l-69-324h-91z" horiz-adv-x="587" vert-adv-y="1000"/></font>
</defs>
</svg>
