<svg><defs><font id="NotoSans-ThinItalic" horiz-adv-x="2608" vert-adv-y="2608"><font-face font-family="Noto Sans Thin" font-weight="400" ascent="1069" descent="-293"/><glyph glyph-name="uni21" unicode="!" d="m77 174 114 540h28L101 174H77M55-8Q32-8 32 14q0 14 7.5 27T62 54q12 0 17-7t5-15q0-14-7.5-27T55-8z" horiz-adv-x="210" vert-adv-y="1000"/><glyph glyph-name="uni22" unicode="&quot;" d="m248 456 51 258h28l-59-258h-20m-138 0 51 258h28l-59-258h-20z" horiz-adv-x="310" vert-adv-y="1000"/><glyph glyph-name="uni23" unicode="#" d="m107 0 65 227H35l2 24h141l62 211H97l2 24h148l66 228h25l-65-228h186l66 228h25l-66-228h140l-2-24H478l-59-211h143l-2-24H413L345 0h-26l68 227H198L132 0h-25m97 251h189l59 211H266l-62-211z" horiz-adv-x="614" vert-adv-y="1000"/><glyph glyph-name="uni24" unicode="$" d="m191-58 24 108q-52 0-95.5 9T51 79v28q29-13 72.5-22T221 75l59 278q-42 16-74.5 35t-51 46.5Q136 462 136 505q0 55 29.5 92t78 56Q292 672 348 675l17 83h24l-17-83q37-3 73-11t68-23l-11-24q-36 17-69 23.5t-66 9.5l-60-280q43-18 76-35.5t51.5-43Q453 266 453 223q0-54-30-91.5T344.5 73Q296 52 239 50L215-58h-24m94 436 58 272q-50-2-90.5-19.5t-64.5-49Q164 550 164 507q0-38 16.5-61t44-38.5Q252 392 285 378M245 75q48 3 89.5 20.5t67 49Q427 176 427 221q0 34-15.5 55.5T368 313q-28 15-67 31L245 75z" horiz-adv-x="550" vert-adv-y="1000"/><glyph glyph-name="uni25" unicode="%" d="M188 276q-48 0-75 32T86 408q0 34 6.5 76t20 84q13.5 42 34.5 77.5t51 57q30 21.5 70 21.5 101 0 101-129 0-32-6-74t-19-85q-13-43-34.5-79T258 298.5Q228 276 188 276M120 0l527 714h30L150 0h-30m69 301q34 0 59 20.5t43 53.5q18 33 29.5 72t16.5 77.5q5 38.5 5 68.5 0 55-19 80.5T267 699q-33 0-58.5-20T165 626.5q-18-32.5-29.5-71t-17-77Q113 440 113 410q0-56 20.5-82.5T189 301M527-12q-48 0-75 32t-27 100q0 34 6.5 76t20 84q13.5 42 34.5 77.5t51 57q30 21.5 70 21.5 101 0 101-129 0-32-6-74t-19-85q-13-43-34.5-79T597 10.5Q567-12 527-12m1 25q34 0 59 20.5T630 87q18 33 29.5 72t16.5 77.5q5 38.5 5 68.5 0 55-18.5 80.5T606 411q-33 0-58.5-20T504 338.5q-18-32.5-29.5-71t-17-77Q452 152 452 122q0-56 20.5-82.5T528 13z" horiz-adv-x="763" vert-adv-y="1000"/><glyph glyph-name="uni26" unicode="&amp;" d="M223-10q-76 0-126 41T47 146q0 67 29 111.5t79.5 76.5Q206 366 271 395q-32 43-49.5 79.5T204 550q0 51 22.5 90.5t63 62Q330 725 383 725q58 0 96.5-36.5T518 597q0-57-27.5-94t-75-63Q368 414 309 386l176-246q37 36 71 85.5T613 328h27q-27-62-63-113t-77-94L585 0h-31l-72 105q-55-50-114.5-82.5T223-10m71 414q31 14 65.5 30t64.5 38q30 22 48.5 52.5T491 597q0 46-33 74.5T379 700q-41 0-74.5-17.5t-53.5-51Q231 598 231 551q0-37 16-71.5t47-75.5M226 15q78 0 133 29.5T468 123L285 377q-63-28-110.5-58.5t-74-71.5Q74 206 74 148q0-43 21-72.5t56-45Q186 15 226 15z" horiz-adv-x="682" vert-adv-y="1000"/><glyph glyph-name="uni27" unicode="'" d="m110 456 51 258h28l-59-258h-20z" horiz-adv-x="172" vert-adv-y="1000"/><glyph glyph-name="uni28" unicode="(" d="M97-158Q66-102 49-32T32 118q0 122 32 232t87 203q55 93 126 161h34q-79-76-136-172.5T88 337Q58 229 58 118q0-157 68-276H97z" horiz-adv-x="242" vert-adv-y="1000"/><glyph glyph-name="uni29" unicode=")" d="M-63-158Q16-82 73 14.5T160 219q30 108 30 219 0 157-68 276h29q31-56 48-126t17-150q0-122-32-232T97 3Q42-90-29-158h-34z" horiz-adv-x="242" vert-adv-y="1000"/><glyph glyph-name="uni2a" unicode="*" d="m396 338-78 190-149-141-19 20 156 133-179 97 14 25 174-108 38 203 27-6-49-201 204 27-1-28-200-15 88-185-26-11z" horiz-adv-x="531" vert-adv-y="1000"/><glyph glyph-name="uni2b" unicode="+" d="M317 365h218v-24H317V123h-24v218H75v24h218v218h24V365z" horiz-adv-x="570" vert-adv-y="1000"/><glyph glyph-name="uni2c" unicode="," d="M-45-129Q-8-56 16 1.5T60 116h27l1-12Q67 48 38.5-14.5T-22-129h-23z" horiz-adv-x="183" vert-adv-y="1000"/><glyph glyph-name="uni2d" unicode="-" d="m38 259 5 25h231l-5-25H38z" horiz-adv-x="312" vert-adv-y="1000"/><glyph glyph-name="uni2e" unicode="." d="M55-8Q32-8 32 14q0 14 7.5 27T62 54q12 0 17-7t5-15q0-14-7.5-27T55-8z" horiz-adv-x="210" vert-adv-y="1000"/><glyph glyph-name="uni2f" unicode="/" d="m-43 0 406 714h29L-14 0h-29z" horiz-adv-x="306" vert-adv-y="1000"/><glyph glyph-name="uni30" unicode="0" d="M236-10q-76 0-123 53.5T66 203q0 66 10.5 138.5T109 482q22 68 57 123t83 87.5Q297 725 359 725q85 0 127-55.5T528 522q0-75-11.5-150.5t-35-144Q458 159 423 105.5T341 21q-47-31-105-31m1 25q52 0 94 30t73.5 81.5q31.5 51.5 53 117T490 380q11 71 11 140 0 84-34.5 132T358 700q-57 0-100.5-31.5t-75-84.5q-31.5-53-51-118t-29-133Q93 265 93 204q0-96 38.5-142.5T237 15z" horiz-adv-x="550" vert-adv-y="1000"/><glyph glyph-name="uni31" unicode="1" d="m229 0 119 563q9 43 16 72.5t12 49.5q-14-11-27-20.5T315 641l-136-90-13 20 216 143h25L256 0h-27z" horiz-adv-x="550" vert-adv-y="1000"/><glyph glyph-name="uni32" unicode="2" d="m10 0 4 23 264 239q34 31 69.5 65t66 73q30.5 39 49 83.5T481 579q0 57-35.5 88.5T352 699q-83 0-174-64l-13 20q51 38 99.5 53.5T352 724q70 0 112.5-40.5T507 579q0-68-29-124.5T401 347q-48-51-104-101L52 26v-1h373l-5-25H10z" horiz-adv-x="550" vert-adv-y="1000"/><glyph glyph-name="uni33" unicode="3" d="M210-10q-61 0-108.5 12.5T22 33v28q32-19 81.5-32.5T211 15q71 0 123.5 25t81 68.5Q444 152 444 209q0 76-50.5 113T260 359h-79l5 25h79q40 0 81 11t75.5 34q34.5 23 55.5 59t21 87q0 55-37.5 89.5T363 699q-54 0-105.5-17.5T154 629l-13 21q49 34 105 54t118 20q70 0 115.5-42T525 574q0-58-25.5-100t-67-68Q391 380 344 372v-2q58-11 92.5-53T471 209q0-64-32.5-113.5t-91-77.5Q289-10 210-10z" horiz-adv-x="550" vert-adv-y="1000"/><glyph glyph-name="uni34" unicode="4" d="m330 0 41 194H15l4 18 458 506h31L402 219h127l-6-25H397L356 0h-26M57 219h319l65 305q9 41 14.5 67t10 47.5Q470 660 477 686h-2q-19-26-35-44.5T395 592L57 219z" horiz-adv-x="550" vert-adv-y="1000"/><glyph glyph-name="uni35" unicode="5" d="M206-10q-52 0-97 12T38 32v30q28-20 74-33.5T208 15q64 0 118.5 24.5t88 75.5Q448 166 448 246q0 70-42 113t-121 43q-44 0-76.5-6T139 379l-15 14 96 321h317l-5-25H239l-85-281q24 7 55.5 13t75.5 6q57 0 99.5-22.5T451 341q24-41 24-94 0-87-38-144t-99.5-85Q276-10 206-10z" horiz-adv-x="550" vert-adv-y="1000"/><glyph glyph-name="uni36" unicode="6" d="M253-10q-67 0-108 30t-59 80q-18 50-18 109 0 52 12 111.5T113.5 439q21.5 59 52 111t67.5 89q47 47 103.5 67T448 726q27 0 52.5-4t42.5-10l-6-26q-16 7-39 11t-50 4q-73 0-139-36T190.5 546Q138 463 105 322h2q19 28 49 55t72 44.5q42 17.5 96 17.5 76 0 121.5-47.5T491 267q0-81-34-143.5t-88.5-98Q314-10 253-10m-1 25q48 0 87 21.5t67 58q28 36.5 43 81t15 91.5q0 71-39 109t-104 38q-59 0-106-24.5t-77-61Q108 292 101 258q-2-13-4-28.5T95 197q0-31 7-63t24-59q17-27 47.5-43.5T252 15z" horiz-adv-x="550" vert-adv-y="1000"/><glyph glyph-name="uni37" unicode="7" d="m114 0 410 689H128l5 25h429l-3-17L146 0h-32z" horiz-adv-x="550" vert-adv-y="1000"/><glyph glyph-name="uni38" unicode="8" d="M238-10q-55 0-98 21T72 70q-25 38-25 88 0 64 30.5 105t82 67.5Q211 357 274 377q-30 19-55.5 41T177 470.5Q161 501 161 542q0 56 26 97t71 63q45 22 103 22 50 0 88-19.5t59.5-52Q530 620 530 580q0-54-26-92t-71-66q-45-28-100-49 37-20 69-43.5t51-56.5q19-33 19-83 0-65-32.5-109.5t-86-67.5Q300-10 238-10m68 397q56 21 100.5 46.5t70.5 61q26 35.5 26 85.5 0 56-41 87.5T360 699q-48 0-87.5-17.5T210 629q-23-35-23-87 0-55 33.5-90.5T306 387M239 15q54 0 101 19t76.5 58q29.5 39 29.5 98 0 47-18.5 76.5t-51 51.5Q344 340 303 363q-60-20-112.5-44t-85-61.5Q73 220 73 158q0-67 47.5-105T239 15z" horiz-adv-x="550" vert-adv-y="1000"/><glyph glyph-name="uni39" unicode="9" d="M165-10q-35 0-65.5 4.5T47 6v28q19-8 51-13.5t67-5.5q62 0 122.5 36.5t111.5 118Q450 251 484 387h-2q-18-27-47.5-53t-71-42.5Q322 275 269 275q-79 0-124 48t-45 120q0 81 33 144.5t88 100Q276 724 342 724q63 0 103-29t59-78q19-49 19-110 0-54-13-116.5t-36.5-124Q450 205 418 152.5T348 65q-43-39-90-57t-93-18m105 310q58 0 105 24t77 60q30 36 39 74 3 13 4 25.5t1 28.5q0 48-14 90.5T434 672q-34 27-92 27-66 0-114.5-37T153 566.5Q127 508 127 443q0-66 39-104.5T270 300z" horiz-adv-x="550" vert-adv-y="1000"/><glyph glyph-name="uni3a" unicode=":" d="M157 470q-23 0-23 22 0 14 7.5 27t22.5 13q12 0 17-7t5-15q0-14-7.5-27T157 470M55-8Q32-8 32 14q0 14 7.5 27T62 54q12 0 17-7t5-15q0-14-7.5-27T55-8z" horiz-adv-x="210" vert-adv-y="1000"/><glyph glyph-name="uni3b" unicode=";" d="M156 470q-23 0-23 22 0 14 7.5 27t22.5 13q12 0 17-7t5-15q0-14-7.5-27T156 470M-45-129Q-8-56 16 1.5T60 116h27l1-12Q67 48 38.5-14.5T-22-129h-23z" horiz-adv-x="210" vert-adv-y="1000"/><glyph glyph-name="uni3c" unicode="&lt;" d="M534 138 76 353v18l458 215v-26L111 362l423-198v-26z" horiz-adv-x="570" vert-adv-y="1000"/><glyph glyph-name="uni3d" unicode="=" d="M75 443v24h460v-24H75m0-204v24h460v-24H75z" horiz-adv-x="570" vert-adv-y="1000"/><glyph glyph-name="uni3e" unicode="&gt;" d="m76 164 423 198L76 560v26l458-215v-18L76 138v26z" horiz-adv-x="570" vert-adv-y="1000"/><glyph glyph-name="uni3f" unicode="?" d="M121 174q9 58 27.5 92t46 58q27.5 24 63.5 53 34 25 65 50.5t51.5 59Q395 520 395 569q0 59-36.5 94.5T263 699q-59 0-132-32l-10 23q43 20 77 27t65 7q73 0 115.5-44T421 570q0-52-20-88.5T346.5 416Q312 387 270 357q-31-23-56-46t-42.5-55Q154 224 145 174h-24M104-8Q81-8 81 14q0 14 7.5 27T111 54q12 0 17-7t5-15q0-14-7.5-27T104-8z" horiz-adv-x="403" vert-adv-y="1000"/><glyph glyph-name="uni40" unicode="@" d="M375-90q-63 0-120.5 20.5T152-8Q107 33 81 95.5T55 242q0 87 29.5 169.5t88 149q58.5 66.5 145 106T519 706q89 0 153.5-36T772 568q35-66 35-155 0-83-27-153t-72.5-111.5Q662 107 604 107q-83 0-83 102h-2q-27-49-67.5-75.5T359 107q-49 0-81.5 32T245 231q0 79 34 141t89.5 98Q424 506 491 506q34 0 65-6.5t55-16.5l-38-142q-13-47-20.5-78.5T545 210q0-33 12.5-55.5T605 132q45 0 85 37.5t65 101Q780 334 780 413q0 81-31 141t-89.5 93.5Q601 681 517 681q-105 0-185.5-35.5t-136-97Q140 487 111.5 408T83 243q0-105 41-173.5T231.5-32Q298-65 375-65q48 0 97.5 7.5T572-31v-25q-45-16-93.5-25T375-90m-14 222q64 0 110 48.5T542 320l39 145q-19 7-42 11.5t-51 4.5q-57 0-106.5-31T302 362.5Q272 306 272 232q0-49 24.5-74.5T361 132z" horiz-adv-x="834" vert-adv-y="1000"/><glyph glyph-name="uni41" unicode="A" d="m-50 0 418 716h24L498 0h-25l-41 271H138L-20 0h-30m202 296h276l-43 298q-6 39-11 88h-2q-11-22-23.5-44.5T324 594L152 296z" horiz-adv-x="547" vert-adv-y="1000"/><glyph glyph-name="uni42" unicode="B" d="m50 0 151 714h181q104 0 151-38.5T580 571q0-80-45-130.5T410 376l-1-2q59-14 89-52.5t30-98.5q0-77-38-126.5t-103-73Q322 0 240 0H50m109 388h163q103 0 167 44t64 139q0 118-177 118H223l-64-301M82 25h170q66 0 123 20t91.5 63.5Q501 152 501 223q0 76-50.5 108T314 363H154L82 25z" horiz-adv-x="598" vert-adv-y="1000"/><glyph glyph-name="uni43" unicode="C" d="M326-10q-76 0-130.5 34.5t-83 97Q84 184 84 268q0 102 29.5 186T196 598.5q53 60.5 123.5 93T471 724q92 0 162-37l-12-25q-35 21-73 29t-77 8q-77 0-142.5-31T214 580.5Q165 524 137.5 445T110 270q0-118 58-186.5T327 15q51 0 94 8.5T500 44V21Q466 8 422-1t-96-9z" horiz-adv-x="594" vert-adv-y="1000"/><glyph glyph-name="uni44" unicode="D" d="m50 0 151 714h145q136 0 213.5-71.5T637 425q0-82-26.5-158t-81-136.5Q475 70 392 35T196 0H50m32 25h115q102 0 179.5 32t129 88q51.5 56 78 128T610 425q0 136-71.5 200T336 689H223L82 25z" horiz-adv-x="677" vert-adv-y="1000"/><glyph glyph-name="uni45" unicode="E" d="m50 0 151 714h358l-5-25H223l-64-300h312l-5-25H154L82 25h331l-5-25H50z" horiz-adv-x="535" vert-adv-y="1000"/><glyph glyph-name="uni46" unicode="F" d="m50 0 151 714h359l-5-25H223l-71-335h314l-6-25H146L77 0H50z" horiz-adv-x="487" vert-adv-y="1000"/><glyph glyph-name="uni47" unicode="G" d="M333-10q-120 0-184.5 75T84 267q0 105 30.5 189.5T198 601q53 60 121.5 91.5T464 724q56 0 106-11t94-31l-11-25q-43 19-91 30.5T463 699q-71 0-134.5-30.5t-113-87Q166 525 138 445.5T110 267q0-85 29-141t79.5-83.5Q269 15 334 15q53 0 105.5 10.5T531 53l58 272H388l6 25h227L554 36Q504 13 446 1.5T333-10z" horiz-adv-x="690" vert-adv-y="1000"/><glyph glyph-name="uni48" unicode="H" d="m50 0 151 714h27l-69-326h421l69 326h27L525 0h-27l77 363H154L77 0H50z" horiz-adv-x="681" vert-adv-y="1000"/><glyph glyph-name="uni49" unicode="I" d="m8 0 4 20 66 3 142 667-65 4 4 20h158l-4-20-67-4L104 23l66-3-4-20H8z" horiz-adv-x="279" vert-adv-y="1000"/><glyph glyph-name="uni4a" unicode="J" d="M-88-174q-22 0-45 4t-37 9l1 25q19-6 41-9t41-3q64 0 94.5 38T51-9l153 723h27L77-13Q60-95 20-134.5T-88-174z" horiz-adv-x="231" vert-adv-y="1000"/><glyph glyph-name="uni4b" unicode="K" d="m50 0 151 714h27l-83-390 57 52 390 338h37L283 414 484 0h-30L262 396 138 291 77 0H50z" horiz-adv-x="543" vert-adv-y="1000"/><glyph glyph-name="uni4c" unicode="L" d="m50 0 151 714h27L82 25h329l-5-25H50z" horiz-adv-x="491" vert-adv-y="1000"/><glyph glyph-name="uni4d" unicode="M" d="m50 0 151 714h38L357 47h3l399 667h42L650 0h-26l127 602q3 15 7.5 33t10.5 43h-2L360 0h-20L220 679h-2q-4-25-7-42t-8-40L77 0H50z" horiz-adv-x="806" vert-adv-y="1000"/><glyph glyph-name="uni4e" unicode="N" d="m50 0 151 714h19L503 54h2q7 39 15 80.5t16 76.5l107 503h26L518 0h-20L216 659h-2q-9-43-16-80t-15-77L77 0H50z" horiz-adv-x="674" vert-adv-y="1000"/><glyph glyph-name="uni4f" unicode="O" d="M334-10q-92 0-147 39t-79 104q-24 65-24 143 0 82 21 162t63.5 145q42.5 65 108 103.5T431 725q111 0 178-68.5T676 446q0-47-10-107t-33-121q-23-61-62-112.5T473.5 22Q415-10 334-10m1 25q71 0 123.5 29t89 77q36.5 48 59 105T639 340.5Q649 398 649 445q0 118-53.5 186.5T429 700q-71 0-124-27t-90-72q-37-45-60-100.5T121.5 387Q111 329 111 277q0-77 23-136t72.5-92.5Q256 15 335 15z" horiz-adv-x="716" vert-adv-y="1000"/><glyph glyph-name="uni50" unicode="P" d="m50 0 151 714h155q98 0 150-44.5T558 538q0-68-29.5-120.5T438 335q-61-30-156-30H141L77 0H50m97 330h139q86 0 140.5 26.5t79.5 73Q531 476 531 537q0 79-47 115.5T351 689H223l-76-359z" horiz-adv-x="558" vert-adv-y="1000"/><glyph glyph-name="uni51" unicode="Q" d="M445-170 333-10h-8q-85 2-138.5 39.5t-78 102Q84 196 84 276q0 82 21 162t63.5 145q42.5 65 108 103.5T431 725q111 0 178-68.5T676 446q0-45-9-102t-30-116q-21-59-56.5-110t-88-85.5Q440-2 367-9l113-161h-35M335 15q71 0 123.5 29t89 77q36.5 48 59 105T639 340.5Q649 398 649 445q0 118-53.5 186.5T429 700q-71 0-124-27t-90-72q-37-45-60-100.5T121.5 387Q111 329 111 277q0-77 23-136t72.5-92.5Q256 15 335 15z" horiz-adv-x="716" vert-adv-y="1000"/><glyph glyph-name="uni52" unicode="R" d="m50 0 151 714h147q210 0 210-165 0-96-51.5-151.5T358 325L475 0h-29L332 320H145L77 0H50m100 345h152q63 0 115 21t83 65.5Q531 476 531 548q0 141-189 141H223l-73-344z" horiz-adv-x="562" vert-adv-y="1000"/><glyph glyph-name="uni53" unicode="S" d="M198-10Q134-10 92.5 0T19 24v29q35-17 79-27.5T198 15q33 0 69.5 9T336 53q32 20 51.5 52.5T407 184q0 46-20 77t-54.5 54Q298 338 252 360q-34 16-64.5 39T137 454q-20 32-20 77 0 53 20 90t53.5 59.5q33.5 22.5 73.5 33t80 10.5q54 0 91.5-10t73.5-27l-11-25q-40 20-74 28.5t-81 8.5q-29 0-63.5-8T214 664q-31-19-50.5-51T144 532q0-42 18.5-69.5t47-46.5q28.5-19 59.5-35 46-24 83.5-49t59.5-60q22-35 22-88 0-54-22-91t-57.5-59.5Q319 11 278 .5T198-10z" horiz-adv-x="498" vert-adv-y="1000"/><glyph glyph-name="uni54" unicode="T" d="m172 0 146 689H93l5 25h478l-5-25H345L199 0h-27z" horiz-adv-x="485" vert-adv-y="1000"/><glyph glyph-name="uni55" unicode="U" d="M300-10q-96 0-154 49.5T88 183q0 17 2 34t6 37l98 460h27l-97-458q-8-40-8-71 0-83 50-126.5T301 15q101 0 171 60t96 182l98 457h27l-98-462Q566 115 488.5 52.5T300-10z" horiz-adv-x="692" vert-adv-y="1000"/><glyph glyph-name="uni56" unicode="V" d="m196 0-90 714h25l71-568q4-27 7-56t4-53h2q11 23 24.5 48t32.5 59l309 570h29L219 0h-23z" horiz-adv-x="535" vert-adv-y="1000"/><glyph glyph-name="uni57" unicode="W" d="m160 0-35 714h24l27-543q3-59 3-119h3q12 28 23 53t29 62l263 547h25l36-547q2-28 2.5-59.5T561 48h3q10 27 22 55.5t28 62.5l249 548h28L565 0h-22l-37 580q-2 27-2.5 48.5T503 674h-2q-9-24-16-40.5T470 601L182 0h-22z" horiz-adv-x="826" vert-adv-y="1000"/><glyph glyph-name="uni58" unicode="X" d="m-59 0 310 372-135 342h27l126-324 264 324h31L281 369 430 0h-27L262 350-27 0h-32z" horiz-adv-x="489" vert-adv-y="1000"/><glyph glyph-name="uni59" unicode="Y" d="m174 0 57 271L96 714h27l126-413 298 413h31L259 275 201 0h-27z" horiz-adv-x="485" vert-adv-y="1000"/><glyph glyph-name="uni5a" unicode="Z" d="m-8 0 3 18 534 671H155l5 25h411l-4-18L34 25h402l-5-25H-8z" horiz-adv-x="538" vert-adv-y="1000"/><glyph glyph-name="uni5b" unicode="[" d="m-9-158 186 872h192l-6-27H198L24-131h167l-7-27H-9z" horiz-adv-x="303" vert-adv-y="1000"/><glyph glyph-name="uni5c" unicode="\" d="M228 0 98 714h24L251 0h-23z" horiz-adv-x="306" vert-adv-y="1000"/><glyph glyph-name="uni5d" unicode="]" d="m-72-158 6 27H99l174 818H106l7 27h193L120-158H-72z" horiz-adv-x="303" vert-adv-y="1000"/><glyph glyph-name="uni5e" unicode="^" d="m50 278 312 441h24l118-441h-25L369 686 82 278H50z" horiz-adv-x="550" vert-adv-y="1000"/><glyph glyph-name="uni5f" unicode="_" d="m-85-134 6 25h371l-6-25H-85z" horiz-adv-x="371" vert-adv-y="1000"/><glyph glyph-name="uni60" unicode="`" d="M244 606q-16 18-35 46.5t-36 57Q156 738 147 756v10h28q10-26 25.5-54t31.5-53q16-25 27-41v-12h-15z" horiz-adv-x="226" vert-adv-y="1000"/><glyph glyph-name="uni61" unicode="a" d="M197-10q-72 0-109 51.5T51 178q0 61 17 124.5t50.5 117q33.5 53.5 84 86T319 538q47 0 76-20.5t44.5-51Q455 436 460 407h2l27 121h22L399 0h-22l28 139h-2q-17-31-47.5-65.5t-71-59Q244-10 197-10m3 25q46 0 93.5 33t85 89.5Q416 194 430 264q6 31 9 53t3 41q0 74-33 114.5T318 513q-58 0-103-29.5T139.5 405q-30.5-49-46-108.5T78 178q0-75 30-119t92-44z" horiz-adv-x="547" vert-adv-y="1000"/><glyph glyph-name="uni62" unicode="b" d="M239-10q-51 0-83.5 19t-50 49Q88 88 83 121h-2L55 0H32l161 760h26l-46-217q-7-31-16.5-73.5T137 389h2q19 34 50 68.5t73.5 57.5q42.5 23 94.5 23 72 0 114-51.5T513 350q0-61-16.5-124T446 109.5Q412 56 360.5 23T239-10m1 25q62 0 108 29.5t77 79Q456 173 471 232t15 118q0 75-35 119t-99 44q-55 0-101-30t-79.5-79.5Q138 354 119.5 293T101 170q0-78 38.5-116.5T240 15z" horiz-adv-x="568" vert-adv-y="1000"/><glyph glyph-name="uni63" unicode="c" d="M247-10q-62 0-105 27T77 90q-22 46-22 104 0 69 18.5 131T128 435q36 48 88 75.5T335 538q34 0 66.5-6t56.5-18l-8-25q-25 13-56.5 18.5T335 513q-78 0-134.5-43T113 355.5Q82 284 82 196q0-50 18.5-91T156 39.5Q193 15 248 15q36 0 66 8t61 22V19Q351 7 319.5-1.5T247-10z" horiz-adv-x="452" vert-adv-y="1000"/><glyph glyph-name="uni64" unicode="d" d="M201-10q-77 0-113.5 51.5T51 178q0 61 16.5 124T118 418.5q34 53.5 85.5 86.5T324 538q50 0 83-20t51-50q18-30 22-61h2q5 34 12 69.5t14 66.5l46 217h26L419 0h-22l28 141h-2q-21-35-53.5-69.5t-75-58Q252-10 201-10m2 25q48 0 94 27t83.5 75q37.5 48 60 110T463 358q0 78-39.5 116.5T323 513q-61 0-107-29.5t-77-79Q108 355 93 296T78 178q0-77 31-120t94-43z" horiz-adv-x="568" vert-adv-y="1000"/><glyph glyph-name="uni65" unicode="e" d="M246-10q-47 0-89 20.5T88.5 76Q62 121 62 194q0 72 20.5 134.5t58 109.5q37.5 47 86.5 73.5T333 538q55 0 90-32t35-82q0-49-26-81.5T360.5 291Q315 272 255 264t-128-8H93q-1-11-2.5-28T89 194q0-87 44-133t118-46q43 0 77 11.5T386 48V22q-22-12-60.5-22T246-10M97 281h48q83 0 148 15t101.5 46.5Q431 374 431 423q0 39-26 64.5T329 513q-49 0-96.5-27.5t-84-79.5Q112 354 97 281z" horiz-adv-x="491" vert-adv-y="1000"/><glyph glyph-name="uni66" unicode="f" d="M-71-240q-13 0-32 3t-29 7v26q14-5 31-8t30-3q35 0 57 25.5T18-116l131 619H56l4 22 95 3 17 81q16 73 54 114.5T337 765q23 0 42.5-4t33.5-9l-8-25q-30 13-69 13-61 0-93-32.5T197 605l-16-77h120l-5-25H176L43-120q-13-64-42-92t-72-28z" horiz-adv-x="264" vert-adv-y="1000"/><glyph glyph-name="uni67" unicode="g" d="M172-240q-44 0-81 10t-65 23v29q29-15 68.5-26t78.5-11q96 0 146 52t69 139l9 41q6 28 14.5 63.5T427 144h-2q-21-36-54.5-71.5t-76-59Q252-10 202-10q-78 0-114.5 51.5T51 178q0 61 16.5 124T118 418.5q34 53.5 85.5 86.5T325 538q49 0 82-19.5t50.5-50Q475 438 480 407h2l27 121h22L413-28q-13-64-42-111.5t-77.5-74Q245-240 172-240m33 255q46 0 91.5 27t83 74Q417 163 440 225.5T463 358q0 78-38.5 116.5T324 513q-62 0-108-29.5t-77-79Q108 355 93 296T78 178q0-75 30-119t97-44z" horiz-adv-x="568" vert-adv-y="1000"/><glyph glyph-name="uni68" unicode="h" d="m32 0 161 760h26l-43-203q-9-42-19-85.5T137 389h2q17 32 48 66.5t74 58.5q43 24 97 24 65 0 100-33t35-97q0-29-8-66L413 0h-26l73 345q4 17 5.5 31.5T467 404q0 56-30 82.5T354 513q-56 0-105-34t-84.5-88.5Q129 336 116 274L58 0H32z" horiz-adv-x="553" vert-adv-y="1000"/><glyph glyph-name="uni69" unicode="i" d="M189 659q-23 0-23 22 0 13 7.5 26.5T196 721q12 0 17-7t5-15q0-13-7.5-26.5T189 659M32 0l112 528h26L58 0H32z" horiz-adv-x="207" vert-adv-y="1000"/><glyph glyph-name="uni6a" unicode="j" d="M189 659q-23 0-23 22 0 13 7.5 26.5T196 721q12 0 17-7t5-15q0-13-7.5-26.5T189 659M-86-240q-14 0-30 3t-26 7v26q12-6 28-8.5t28-2.5q41 0 62.5 26.5T8-115l136 643h26L33-119q-13-61-41.5-91T-86-240z" horiz-adv-x="207" vert-adv-y="1000"/><glyph glyph-name="uni6b" unicode="k" d="m32 0 161 760h26l-80-376q-11-50-20-91.5T98 204h1l345 324h33L232 298 384 0h-29L213 281 94 172 58 0H32z" horiz-adv-x="439" vert-adv-y="1000"/><glyph glyph-name="uni6c" unicode="l" d="m32 0 161 760h26L58 0H32z" horiz-adv-x="207" vert-adv-y="1000"/><glyph glyph-name="uni6d" unicode="m" d="m32 0 112 528h22l-29-139h2q15 32 42.5 66.5t66 58.5q38.5 24 89.5 24 68 0 95.5-41T456 389h1q16 33 44 67.5t67.5 58Q608 538 658 538q59 0 91.5-33t32.5-97q0-29-8-66L702 0h-26l73 345q4 17 5.5 31.5T756 404q0 56-27.5 82.5T653 513q-38 0-73-20t-63.5-54Q488 405 467 362.5T437 275L379 0h-26l71 330q4 21 6 42.5t2 34.5q0 50-26.5 78T331 513q-37 0-72-20.5T195 438q-29-34-49.5-76.5T116 274L58 0H32z" horiz-adv-x="842" vert-adv-y="1000"/><glyph glyph-name="uni6e" unicode="n" d="m32 0 112 528h22l-28-139h2q16 31 47 66t74 59q43 24 97 24 65 0 100-33t35-97q0-29-8-66L413 0h-26l73 345q4 17 5.5 31.5T467 404q0 56-30 82.5T354 513q-56 0-105-34t-84.5-88.5Q129 336 116 274L58 0H32z" horiz-adv-x="553" vert-adv-y="1000"/><glyph glyph-name="uni6f" unicode="o" d="M237-10q-92 0-137 56.5T55 192q0 105 36.5 182.5t99 120.5Q253 538 331 538q59 0 98.5-26t60-71Q510 396 510 338q0-71-18.5-134t-54-111q-35.5-48-86-75.5T237-10m3 25q76 0 130.5 43.5t83.5 117Q483 249 483 339q0 76-38.5 125T329 513q-70 0-126-39.5T114.5 362Q82 290 82 192q0-81 39.5-129T240 15z" horiz-adv-x="565" vert-adv-y="1000"/><glyph glyph-name="uni70" unicode="p" d="m-17-232 161 760h22l-28-139h2q19 35 50 69.5t73 57q42 22.5 94 22.5 72 0 114-51.5T513 350q0-61-16.5-124T446 109.5Q412 56 360.5 23T239-10q-51 0-83.5 19t-50 49Q88 88 83 121h-2q-5-34-12-69.5T55-15L9-232h-26M240 15q62 0 108 29.5t77 79Q456 173 471 232t15 118q0 75-35 119t-99 44q-52 0-97.5-29t-80-78q-34.5-49-54-110.5T101 170q0-78 38.5-116.5T240 15z" horiz-adv-x="568" vert-adv-y="1000"/><glyph glyph-name="uni71" unicode="q" d="m344-232 46 217q7 31 17 76.5t20 83.5h-2q-19-34-52-70t-77-60.5Q252-10 202-10q-77 0-114 51.5T51 178q0 61 16.5 124T118 418.5q34 53.5 85.5 86.5T325 538q50 0 82.5-20t50-50q17.5-30 22.5-61h2l27 121h22L370-232h-26M205 15q49 0 95 28.5t83 77.5q37 49 58.5 110T463 358q0 78-38.5 116.5T324 513q-62 0-108-29.5t-77-79Q108 355 93 296T78 178q0-75 30-119t97-44z" horiz-adv-x="568" vert-adv-y="1000"/><glyph glyph-name="uni72" unicode="r" d="m32 0 112 528h22l-28-139h2q16 29 44 63.5t67 59q39 24.5 85 24.5 33 0 59-8l-6-24q-10 3-23.5 5t-29.5 2q-46 0-92-33t-81-88.5Q128 334 114 266L58 0H32z" horiz-adv-x="370" vert-adv-y="1000"/><glyph glyph-name="uni73" unicode="s" d="M164-10q-52 0-90.5 12.5T12 27v30q30-17 69.5-29.5T165 15q82 0 117.5 34.5T318 136q0 34-16.5 56t-43 38Q232 246 204 261q-33 18-61.5 35.5T97 338q-17 24-17 61 0 49 23.5 79.5t63 45Q206 538 254 538q46 0 82.5-9t62.5-21l-9-25q-26 13-62 21.5t-75 8.5q-62 0-104-26.5T107 401q0-30 15.5-50t41-35.5Q189 300 218 285q32-17 61-35.5t47.5-45Q345 178 345 137t-19-74q-19-33-58.5-53T164-10z" horiz-adv-x="423" vert-adv-y="1000"/><glyph glyph-name="uni74" unicode="t" d="M146-10q-50 0-72.5 24T51 82q0 13 1.5 27.5T58 140l77 363H58l5 22 77 3 34 131h21l-28-131h163l-6-25H161L85 143q-4-17-5.5-31.5T78 84q0-33 16-51t53-18q24 0 42.5 3.5T224 28V3q-16-5-34-9t-44-4z" horiz-adv-x="309" vert-adv-y="1000"/><glyph glyph-name="uni75" unicode="u" d="M190-10q-65 0-100 33t-35 97q0 29 8 66l72 342h26L88 183q-4-17-5.5-31.5T81 124q0-56 30-82.5T194 15q56 0 105 34t84.5 88.5Q419 192 432 254l58 274h26L404 0h-22l28 139h-2q-16-31-47-66t-74-59q-43-24-97-24z" horiz-adv-x="553" vert-adv-y="1000"/><glyph glyph-name="uni76" unicode="v" d="M132 0 50 528h26l59-390q5-32 8-54.5t5-47.5h2q13 24 25 47t30 55l225 390h29L153 0h-21z" horiz-adv-x="410" vert-adv-y="1000"/><glyph glyph-name="uni77" unicode="w" d="M87 0 54 528h26l22-372q2-38 3-64t1-50h2q7 16 13.5 30t16.5 33.5q10 19.5 26 50.5l193 372h20l39-372q4-38 6-64t3-50h2q8 23 19.5 47.5T477 156l177 372h27L430 0h-23l-40 389q-3 25-5 46t-3 48h-1q-13-27-23.5-49T312 389L110 0H87z" horiz-adv-x="651" vert-adv-y="1000"/><glyph glyph-name="uni78" unicode="x" d="m-33 0 239 273L86 528h30l109-237 212 237h32L239 271 369 0h-29L220 253-1 0h-32z" horiz-adv-x="455" vert-adv-y="1000"/><glyph glyph-name="uni79" unicode="y" d="M-57-243q-36 0-57 10v26q12-5 25.5-8t33.5-3q36 0 65.5 28T74-103L138 7 50 528h26l59-356q7-46 12.5-79t7.5-56h2q11 22 28.5 54.5T228 168l202 360h29L96-115q-34-61-70-94.5T-57-243z" horiz-adv-x="410" vert-adv-y="1000"/><glyph glyph-name="uni7a" unicode="z" d="m-14 0 3 17 402 486H108l6 25h322l-3-15L28 25h313l-5-25H-14z" horiz-adv-x="436" vert-adv-y="1000"/><glyph glyph-name="uni7b" unicode="{" d="M199-158q-69 0-99.5 23T69-59q0 21 6 48l37 169q6 24 6 43 0 34-21.5 49T27 265l5 25q61 0 89.5 26.5T164 407l37 172q15 71 59 102.5T376 714h6l-5-25q-63-1-100-27.5T226 573l-36-170q-10-50-33.5-83.5T91 278v-2q53-17 53-75 0-20-6-47L102-13q-6-25-6-44 0-46 25.5-61t85.5-15v-25h-8z" horiz-adv-x="327" vert-adv-y="1000"/><glyph glyph-name="uni7c" unicode="|" d="M282-241V760h25V-241h-25z" horiz-adv-x="535" vert-adv-y="1000"/><glyph glyph-name="uni7d" unicode="}" d="m-50-159 5 25q63 1 100 27.5T106-18l36 170q10 50 33.5 83.5T241 277v2q-53 18-53 75 0 20 6 47l36 167q6 26 6 44 0 46-25.5 61T125 688v25h8q69 0 99.5-23t30.5-76q0-21-6-48l-37-169q-6-24-6-43 0-34 21.5-49t69.5-15l-5-25q-61 0-89.5-26.5T168 148L131-24q-15-70-59-102.5T-44-159h-6z" horiz-adv-x="327" vert-adv-y="1000"/><glyph glyph-name="uni7e" unicode="~" d="M302 342q-27 14-50.5 22.5T193 373q-29 0-59-12.5T76 318v31q22 22 53 35t64 13q42 0 67.5-9.5T315 364q27-14 50.5-22.5T420 333q27 0 55.5 11.5T534 387v-29q-19-20-48.5-34.5T420 309q-36 0-62 9t-56 24z" horiz-adv-x="570" vert-adv-y="1000"/><glyph glyph-name="unia1" unicode="¡" d="M152 474q-12 0-17 7t-5 15q0 14 7.5 27t21.5 13q23 0 23-22 0-14-7.5-27T152 474M-5-182l118 536h24L23-182H-5z" horiz-adv-x="210" vert-adv-y="1000"/><glyph glyph-name="unia2" unicode="¢" d="m238-10 22 103q-74 11-113.5 65.5T107 289q0 68 18 129.5T177 528q34 48 82.5 77.5T369 638l18 86h25l-18-86q30-1 60-7t53-17l-8-25q-25 13-57 18.5t-59 5.5q-74 0-130-43.5T165.5 453Q134 380 134 290q0-75 41.5-125T293 115q34 0 66 6.5t64 22.5v-24q-38-20-71.5-24.5T284 91L263-10h-25z" horiz-adv-x="550" vert-adv-y="1000"/><glyph glyph-name="unia3" unicode="£" d="m-6 0 4 23q60 11 97 51t53 113l31 148H78l5 25h102l33 158q22 104 71 154.5T424 723q41 0 75.5-10t57.5-22l-12-24q-23 11-53 21t-68 10q-75 0-118-45.5T243 512l-32-152h189l-5-25H205l-32-152q-15-70-40.5-105.5T69 25h382l-5-25H-6z" horiz-adv-x="550" vert-adv-y="1000"/><glyph glyph-name="unia4" unicode="¤" d="m514 126-77 78q-29-26-64-38.5T302 153q-36 0-71 12.5T168 204l-78-78-15 16 77 78q-25 28-37.5 63T102 354q0 36 12.5 71t37.5 63l-77 78 15 16 78-78q28 26 63 38.5t71 12.5q36 0 71-12.5t64-38.5l77 77 15-16-77-77q26-28 38.5-63t12.5-71q0-36-12.5-71T452 220l78-78-16-16m-213 49q49 0 90 24.5t65.5 65.5q24.5 41 24.5 90t-24 89.5Q433 485 392.5 509T303 533q-49 0-90-24.5t-65-65Q124 403 124 354q0-50 24-90.5t64-64.5q40-24 89-24z" horiz-adv-x="570" vert-adv-y="1000"/><glyph glyph-name="unia5" unicode="¥" d="m202 0 34 162H70l5 25h167l23 111H99l5 25h157L120 714h27l136-380 297 380h31L305 323h157l-5-25H291l-23-111h165l-5-25H263L229 0h-27z" horiz-adv-x="550" vert-adv-y="1000"/><glyph glyph-name="unia6" unicode="¦" d="M282 395v365h25V395h-25m0-635v366h25v-366h-25z" horiz-adv-x="535" vert-adv-y="1000"/><glyph glyph-name="unia7" unicode="§" d="M176-1q-47 0-86 11T28 32v29q31-16 70.5-27T176 23q80 0 125.5 30t45.5 86q0 31-16.5 49T287 219q-27 13-58 27-29 13-58 30.5t-48.5 44Q103 347 103 386q0 43 22 71t54.5 44.5Q212 518 243 525q-30 13-55.5 37T162 627q0 49 27.5 78t69 41.5Q300 759 342 759q39 0 79-9t66-20l-10-24q-27 12-65 20.5t-70 8.5q-34 0-69-9.5t-59.5-33Q189 669 189 627q0-37 31.5-58t81.5-44q28-13 58.5-28t51.5-40q21-25 21-66 0-39-18-69.5t-44.5-53Q344 246 316 231q26-16 42-37t16-54q0-71-54.5-106T176-1m118 245q44 23 78 58.5t34 87.5q0 32-15.5 51t-46 35Q314 492 270 511q-32-8-64.5-21t-54-37.5Q130 428 130 386q0-35 19.5-58t56-41.5Q242 268 294 244z" horiz-adv-x="498" vert-adv-y="1000"/><glyph glyph-name="unia8" unicode="¨" d="M459 647q-19 0-19 21 0 13 6 27t23 14q20 0 20-21 0-14-6.5-27.5T459 647m-176 0q-19 0-19 21 0 13 6 27t23 14q20 0 20-21 0-14-6.5-27.5T283 647z" horiz-adv-x="575" vert-adv-y="1000"/><glyph glyph-name="unia9" unicode="©" d="M416-8q-80 0-147 28.5t-116 79Q104 150 77 216T50 357q0 78 29 144.5t79.5 116Q209 667 275 694.5T416 722q80 0 147-30t116-81.5q49-51.5 76-117T782 357q0-75-28.5-141.5T674.5 99q-50.5-50-117-78.5T416-8m0 25q73 0 135 27.5t108 75Q705 167 730.5 228T756 357q0 69-25.5 130T659 595.5Q613 643 551 670t-135 27q-72 0-133.5-26.5t-108-73Q128 551 102 489.5T76 357q0-69 24.5-130.5T170 118q45-47 107.5-74T416 17m19 126q-92 0-148.5 53T230 356q0 66 26.5 114.5t74 75Q378 572 439 572q43 0 72-7t54-19l-11-23q-23 11-50.5 17t-64.5 6q-80 0-131-51t-51-139q0-94 50.5-141T435 168q35 0 60 4.5t55 15.5v-24q-26-10-53.5-15.5T435 143z" horiz-adv-x="832" vert-adv-y="1000"/><glyph glyph-name="uniaa" unicode="ª" d="M184 398q-41 0-67.5 27T90 504q0 62 22 111t57.5 78q35.5 29 77.5 29 35 0 54-18t27-44h2l16 56h21l-66-314h-21l13 72h-1q-19-32-47-54t-61-22m0 25q26 0 49 17t41.5 44.5q18.5 27.5 29 60.5t10.5 65q0 34-16.5 60.5T245 697q-31 0-60.5-24T136 605.5Q117 562 117 504q0-36 18-58.5t49-22.5z" horiz-adv-x="322" vert-adv-y="1000"/><glyph glyph-name="uniab" unicode="«" d="M125 87 20 272l3 13 184 187 15-15L51 275l92-178-18-10m161 0L181 272l3 13 184 187 15-15-171-182 92-178-18-10z" horiz-adv-x="371" vert-adv-y="1000"/><glyph glyph-name="uniac" unicode="¬" d="M518 365V132h-24v209H75v24h443z" horiz-adv-x="570" vert-adv-y="1000"/><glyph glyph-name="uniad" unicode="­" d="m37 259 5 25h231l-5-25H37z" horiz-adv-x="302" vert-adv-y="1000"/><glyph glyph-name="uniae" unicode="®" d="M416-8q-80 0-147 28.5t-116 79Q104 150 77 216T50 357q0 78 29 144.5t79.5 116Q209 667 275 694.5T416 722q80 0 147-30t116-81.5q49-51.5 76-117T782 357q0-75-28.5-141.5T674.5 99q-50.5-50-117-78.5T416-8m0 25q73 0 135 27.5t108 75Q705 167 730.5 228T756 357q0 69-25.5 130T659 595.5Q613 643 551 670t-135 27q-72 0-133.5-26.5t-108-73Q128 551 102 489.5T76 357q0-69 24.5-130.5T170 118q45-47 107.5-74T416 17M298 143v426h118q62 0 101-28.5t39-91.5q0-49-26.5-78.5T463 329l114-186h-32L436 324H323V143h-25m24 203h90q50 0 85 24.5t35 78.5q0 51-33 73.5T414 545h-92V346z" horiz-adv-x="832" vert-adv-y="1000"/><glyph glyph-name="uniaf" unicode="¯" d="m101 760 6 25h394l-6-25H101z" horiz-adv-x="480" vert-adv-y="1000"/><glyph glyph-name="unib0" unicode="°" d="M214 441q-60 0-101.5 38.5T71 583q0 64 41 102.5T214 724q62 0 102.5-39.5T357 583q0-65-40.5-103.5T214 441m-1 25q51 0 84 33t33 84q0 53-33 84.5T213 699q-53 0-84-31.5T98 583q0-51 31-84t84-33z" horiz-adv-x="428" vert-adv-y="1000"/><glyph glyph-name="unib1" unicode="±" d="M317 365h218v-24H317V123h-24v218H75v24h218v218h24V365M75 0v24h460V0H75z" horiz-adv-x="570" vert-adv-y="1000"/><glyph glyph-name="unib2" unicode="²" d="m50 416 4 21 143 121q74 63 113.5 107t39.5 95q0 32-20.5 51T273 830q-57 0-117-41l-12 20q61 46 130 46 50 0 76.5-26.5T377 761q0-41-20.5-76t-57-69.5Q263 581 215 541L95 441h228l-5-25H50z" horiz-adv-x="312" vert-adv-y="1000"/><glyph glyph-name="unib3" unicode="³" d="M172 412q-33 0-62 7t-51 18v28q26-13 53.5-20.5T172 437q62 0 102 28.5t40 86.5q0 36-27.5 56T207 628h-47l5 25h47q55 0 95.5 26t40.5 77q0 32-19 51t-57 19q-35 0-65-10.5T147 788l-10 22q30 19 64 30t72 11q47 0 75-25t28-67q0-53-30-81t-67-37v-2q28-7 45.5-30.5T342 552q0-74-49-107t-121-33z" horiz-adv-x="312" vert-adv-y="1000"/><glyph glyph-name="unib4" unicode="´" d="M114 606v6q22 20 49 48t51 56q24 28 39 50h30v-7q-26-34-67-77t-81-76h-21z" horiz-adv-x="218" vert-adv-y="1000"/><glyph glyph-name="uni03BC" unicode="μ" d="m-17-232 161 760h26L98 186q-6-27-7.5-43T89 116q0-42 29-71.5T200 15q50 0 99.5 28t87.5 83.5Q425 182 443 264l56 264h26L413 0h-22l28 139h-2q-18-35-48.5-69.5t-73-57Q253-10 197-10q-57 0-85.5 26T73 74h-2Q61 12 40-87L9-232h-26z" horiz-adv-x="562" vert-adv-y="1000"/><glyph glyph-name="unib6" unicode="¶" d="M361-127v482q-17-5-33-7t-38-2q-56 0-92.5 28T143 450q-18 48-18 107 0 96 44 149.5T305 760h242v-887h-26v862H387v-862h-26z" horiz-adv-x="655" vert-adv-y="1000"/><glyph glyph-name="unib7" unicode="·" d="M117 283q-23 0-23 22 0 14 7.5 27t22.5 13q12 0 17-7t5-15q0-14-7.5-27T117 283z" horiz-adv-x="210" vert-adv-y="1000"/><glyph glyph-name="unib8" unicode="¸" d="M-30-240q-34 0-55 6v24q23-6 53-6 20 0 42.5 7.5t38.5 24Q65-168 65-139q0 54-85 54L27 0h26L19-65q33-3 53-22.5T92-139q0-33-18-55.5t-45.5-34Q1-240-30-240z" horiz-adv-x="193" vert-adv-y="1000"/><glyph glyph-name="unib9" unicode="¹" d="m192 416 59 279q6 29 13.5 60t15.5 60q-18-11-35-19.5T203 774l-49-25-11 22 146 73h21l-91-428h-27z" horiz-adv-x="312" vert-adv-y="1000"/><glyph glyph-name="uniba" unicode="º" d="M204 395q-53 0-81.5 35T94 518q0 60 22 107t60.5 73.5Q215 725 263 725q54 0 81.5-34.5T372 603q0-58-21.5-105t-59-75Q254 395 204 395m1 25q41 0 72 24.5t49 66q18 41.5 18 90.5 0 42-21 70.5T261 700q-39 0-71-23.5T139.5 612Q121 571 121 518q0-44 21.5-71t62.5-27z" horiz-adv-x="352" vert-adv-y="1000"/><glyph glyph-name="unibb" unicode="»" d="m168 87-15 15 171 182-92 178 18 10 105-185-3-13L168 87M7 87l-15 15 171 182-92 178 18 10 105-185-3-13L7 87z" horiz-adv-x="371" vert-adv-y="1000"/><glyph glyph-name="unibc" unicode="¼" d="m76 0 530 714h34L109 0H76m86 287 59 279q6 29 13.5 60t15.5 60q-18-11-35-19.5T173 645l-49-25-11 22 146 73h21l-91-428h-27M508 1l25 117H338l7 28 256 286h26l-62-289h67l-6-25h-66L535 1h-27M377 143h161l26 120q6 30 14 66t14 60q-11-15-34-41.5T512 295L377 143z" horiz-adv-x="671" vert-adv-y="1000"/><glyph glyph-name="unibd" unicode="½" d="m68 0 530 714h34L101 0H68m94 287 59 279q6 29 13.5 60t15.5 60q-18-11-35-19.5T173 645l-49-25-11 22 146 73h21l-91-428h-27M371 1l4 21 143 121q74 63 113.5 107t39.5 95q0 32-20.5 51T594 415q-57 0-117-41l-12 20q61 46 130 46 50 0 76.5-26.5T698 346q0-41-20.5-76t-57-69.5Q584 166 536 126L416 26h228l-5-25H371z" horiz-adv-x="713" vert-adv-y="1000"/><glyph glyph-name="unibe" unicode="¾" d="M134 280q-33 0-62 7t-51 18v28q26-13 53.5-20.5T134 305q62 0 102 28.5t40 86.5q0 36-27.5 56T169 496h-47l5 25h47q55 0 95.5 26t40.5 77q0 32-19 51t-57 19q-35 0-65-10.5T109 656l-10 22q30 19 64 30t72 11q47 0 75-25t28-67q0-53-30-81t-67-37v-2q28-7 45.5-30.5T304 420q0-74-49-107t-121-33M111 0l530 714h34L144 0h-33m413 2 25 117H354l7 28 256 286h26l-62-289h67l-6-25h-66L551 2h-27M393 144h161l26 120q6 30 14 66t14 60q-11-15-34-41.5T528 296L393 144z" horiz-adv-x="687" vert-adv-y="1000"/><glyph glyph-name="unibf" unicode="¿" d="M295 358q-9-58-27.5-92t-46-58Q194 184 158 155q-34-25-65-50.5t-51.5-59Q21 12 21-37q0-59 36.5-94.5T153-167q59 0 132 32l10-23q-43-20-77-27t-65-7q-73 0-115.5 44T-5-38q0 52 20 88.5T69.5 116q34.5 29 76.5 59 31 23 56 46t42.5 55q17.5 32 26.5 82h24m17 182q23 0 23-22 0-14-7.5-27T305 478q-12 0-17 7t-5 15q0 14 7.5 27t21.5 13z" horiz-adv-x="403" vert-adv-y="1000"/><glyph glyph-name="unic0" unicode="À" d="m-50 0 418 716h24L498 0h-25l-41 271H138L-20 0h-30m202 296h276l-43 298q-6 39-11 88h-2q-11-22-23.5-44.5T324 594L152 296m251 496q-16 18-35 46.5t-36 57Q315 924 306 942v10h28q10-26 25.5-54t31.5-53q16-25 27-41v-12h-15z" horiz-adv-x="547" vert-adv-y="1000"/><glyph glyph-name="unic1" unicode="Á" d="m-50 0 418 716h24L498 0h-25l-41 271H138L-20 0h-30m202 296h276l-43 298q-6 39-11 88h-2q-11-22-23.5-44.5T324 594L152 296m211 496v6q22 20 49 48t51 56q24 28 39 50h30v-7q-26-34-67-77t-81-76h-21z" horiz-adv-x="547" vert-adv-y="1000"/><glyph glyph-name="unic2" unicode="Â" d="m-50 0 418 716h24L498 0h-25l-41 271H138L-20 0h-30m202 296h276l-43 298q-6 39-11 88h-2q-11-22-23.5-44.5T324 594L152 296m115 496 1 6q22 20 48.5 47.5t51.5 55q25 27.5 41 48.5h22q7-21 20-48t28-55q15-28 29-48l-2-6h-18q-21 28-40.5 62T415 917q-26-29-59.5-63T290 792h-23z" horiz-adv-x="547" vert-adv-y="1000"/><glyph glyph-name="unic3" unicode="Ã" d="m-50 0 418 716h24L498 0h-25l-41 271H138L-20 0h-30m202 296h276l-43 298q-6 39-11 88h-2q-11-22-23.5-44.5T324 594L152 296m86 508q13 49 35.5 73.5T335 902q24 0 42.5-11t34-26q15.5-15 30.5-26t31-11q22 0 40.5 14t32.5 60h27q-14-47-37-73t-64-26q-22 0-39.5 11T400 840q-15 15-31 26t-35 11q-20 0-38.5-14T264 804h-26z" horiz-adv-x="547" vert-adv-y="1000"/><glyph glyph-name="unic4" unicode="Ä" d="m-50 0 418 716h24L498 0h-25l-41 271H138L-20 0h-30m202 296h276l-43 298q-6 39-11 88h-2q-11-22-23.5-44.5T324 594L152 296m330 537q-19 0-19 21 0 13 6 27t23 14q20 0 20-21 0-14-6.5-27.5T482 833m-176 0q-19 0-19 21 0 13 6 27t23 14q20 0 20-21 0-14-6.5-27.5T306 833z" horiz-adv-x="547" vert-adv-y="1000"/><glyph glyph-name="unic5" unicode="Å" d="m-50 0 418 716h24L498 0h-25l-41 271H138L-20 0h-30m202 296h276l-43 298q-6 39-11 88h-2q-11-22-23.5-44.5T324 594L152 296m238 399q-40 0-70.5 27.5T289 795q0 43 30 71.5t71 28.5q41 0 70.5-29.5T490 795q0-44-29.5-72T390 695m0 24q34 0 55 22.5t21 53.5q0 31-22.5 53.5T390 871q-33 0-55-22.5T313 795q0-31 21.5-53.5T390 719z" horiz-adv-x="547" vert-adv-y="1000"/><glyph glyph-name="unic6" unicode="Æ" d="m-51 0 442 714h426l-5-25H471l-64-300h322l-5-25H402L330 25h341l-5-25H298l57 270H147L-19 0h-32m213 295h198l83 394h-38L162 295z" horiz-adv-x="783" vert-adv-y="1000"/><glyph glyph-name="unic7" unicode="Ç" d="M326-10q-76 0-130.5 34.5t-83 97Q84 184 84 268q0 102 29.5 186T196 598.5q53 60.5 123.5 93T471 724q92 0 162-37l-12-25q-35 21-73 29t-77 8q-77 0-142.5-31T214 580.5Q165 524 137.5 445T110 270q0-118 58-186.5T327 15q51 0 94 8.5T500 44V21Q466 8 422-1t-96-9m-95-230q-34 0-55 6v24q23-6 53-6 20 0 42.5 7.5t38.5 24q16 16.5 16 45.5 0 54-85 54l47 85h26l-34-65q33-3 53-22.5t20-51.5q0-33-18-55.5t-45.5-34Q262-240 231-240z" horiz-adv-x="594" vert-adv-y="1000"/><glyph glyph-name="unic8" unicode="È" d="m50 0 151 714h358l-5-25H223l-64-300h312l-5-25H154L82 25h331l-5-25H50m358 792q-16 18-35 46.5t-36 57Q320 924 311 942v10h28q10-26 25.5-54t31.5-53q16-25 27-41v-12h-15z" horiz-adv-x="535" vert-adv-y="1000"/><glyph glyph-name="unic9" unicode="É" d="m50 0 151 714h358l-5-25H223l-64-300h312l-5-25H154L82 25h331l-5-25H50m308 792v6q22 20 49 48t51 56q24 28 39 50h30v-7q-26-34-67-77t-81-76h-21z" horiz-adv-x="535" vert-adv-y="1000"/><glyph glyph-name="unica" unicode="Ê" d="m50 0 151 714h358l-5-25H223l-64-300h312l-5-25H154L82 25h331l-5-25H50m227 792 1 6q22 20 48.5 47.5t51.5 55q25 27.5 41 48.5h22q7-21 20-48t28-55q15-28 29-48l-2-6h-18q-21 28-40.5 62T425 917q-26-29-59.5-63T300 792h-23z" horiz-adv-x="535" vert-adv-y="1000"/><glyph glyph-name="unicb" unicode="Ë" d="m50 0 151 714h358l-5-25H223l-64-300h312l-5-25H154L82 25h331l-5-25H50m447 833q-19 0-19 21 0 13 6 27t23 14q20 0 20-21 0-14-6.5-27.5T497 833m-176 0q-19 0-19 21 0 13 6 27t23 14q20 0 20-21 0-14-6.5-27.5T321 833z" horiz-adv-x="535" vert-adv-y="1000"/><glyph glyph-name="unicc" unicode="Ì" d="m8 0 4 20 66 3 142 667-65 4 4 20h158l-4-20-67-4L104 23l66-3-4-20H8m262 792q-16 18-35 46.5t-36 57Q182 924 173 942v10h28q10-26 25.5-54t31.5-53q16-25 27-41v-12h-15z" horiz-adv-x="279" vert-adv-y="1000"/><glyph glyph-name="unicd" unicode="Í" d="m8 0 4 20 66 3 142 667-65 4 4 20h158l-4-20-67-4L104 23l66-3-4-20H8m211 792v6q22 20 49 48t51 56q24 28 39 50h30v-7q-26-34-67-77t-81-76h-21z" horiz-adv-x="279" vert-adv-y="1000"/><glyph glyph-name="unice" unicode="Î" d="m8 0 4 20 66 3 142 667-65 4 4 20h158l-4-20-67-4L104 23l66-3-4-20H8m115 792 1 6q22 20 48.5 47.5t51.5 55q25 27.5 41 48.5h22q7-21 20-48t28-55q15-28 29-48l-2-6h-18q-21 28-40.5 62T271 917q-26-29-59.5-63T146 792h-23z" horiz-adv-x="279" vert-adv-y="1000"/><glyph glyph-name="unicf" unicode="Ï" d="m8 0 4 20 66 3 142 667-65 4 4 20h158l-4-20-67-4L104 23l66-3-4-20H8m335 833q-19 0-19 21 0 13 6 27t23 14q20 0 20-21 0-14-6.5-27.5T343 833m-176 0q-19 0-19 21 0 13 6 27t23 14q20 0 20-21 0-14-6.5-27.5T167 833z" horiz-adv-x="279" vert-adv-y="1000"/><glyph glyph-name="unid0" unicode="Ð" d="m50 0 73 343H44l5 25h79l73 346h145q136 0 213.5-71.5T637 425q0-82-26.5-158t-81-136.5Q475 70 392 35T196 0H50m32 25h115q102 0 179.5 32t129 88q51.5 56 78 128T610 425q0 136-71.5 200T336 689H223l-68-321h195l-6-25H150L82 25z" horiz-adv-x="677" vert-adv-y="1000"/><glyph glyph-name="unid1" unicode="Ñ" d="m50 0 151 714h19L503 54h2q7 39 15 80.5t16 76.5l107 503h26L518 0h-20L216 659h-2q-9-43-16-80t-15-77L77 0H50m257 804q13 49 35.5 73.5T404 902q24 0 42.5-11t34-26q15.5-15 30.5-26t31-11q22 0 40.5 14t32.5 60h27q-14-47-37-73t-64-26q-22 0-39.5 11T469 840q-15 15-31 26t-35 11q-20 0-38.5-14T333 804h-26z" horiz-adv-x="674" vert-adv-y="1000"/><glyph glyph-name="unid2" unicode="Ò" d="M334-10q-92 0-147 39t-79 104q-24 65-24 143 0 82 21 162t63.5 145q42.5 65 108 103.5T431 725q111 0 178-68.5T676 446q0-47-10-107t-33-121q-23-61-62-112.5T473.5 22Q415-10 334-10m1 25q71 0 123.5 29t89 77q36.5 48 59 105T639 340.5Q649 398 649 445q0 118-53.5 186.5T429 700q-71 0-124-27t-90-72q-37-45-60-100.5T121.5 387Q111 329 111 277q0-77 23-136t72.5-92.5Q256 15 335 15m135 777q-16 18-35 46.5t-36 57Q382 924 373 942v10h28q10-26 25.5-54t31.5-53q16-25 27-41v-12h-15z" horiz-adv-x="716" vert-adv-y="1000"/><glyph glyph-name="unid3" unicode="Ó" d="M334-10q-92 0-147 39t-79 104q-24 65-24 143 0 82 21 162t63.5 145q42.5 65 108 103.5T431 725q111 0 178-68.5T676 446q0-47-10-107t-33-121q-23-61-62-112.5T473.5 22Q415-10 334-10m1 25q71 0 123.5 29t89 77q36.5 48 59 105T639 340.5Q649 398 649 445q0 118-53.5 186.5T429 700q-71 0-124-27t-90-72q-37-45-60-100.5T121.5 387Q111 329 111 277q0-77 23-136t72.5-92.5Q256 15 335 15m84 777v6q22 20 49 48t51 56q24 28 39 50h30v-7q-26-34-67-77t-81-76h-21z" horiz-adv-x="716" vert-adv-y="1000"/><glyph glyph-name="unid4" unicode="Ô" d="M334-10q-92 0-147 39t-79 104q-24 65-24 143 0 82 21 162t63.5 145q42.5 65 108 103.5T431 725q111 0 178-68.5T676 446q0-47-10-107t-33-121q-23-61-62-112.5T473.5 22Q415-10 334-10m1 25q71 0 123.5 29t89 77q36.5 48 59 105T639 340.5Q649 398 649 445q0 118-53.5 186.5T429 700q-71 0-124-27t-90-72q-37-45-60-100.5T121.5 387Q111 329 111 277q0-77 23-136t72.5-92.5Q256 15 335 15m-10 777 1 6q22 20 48.5 47.5t51.5 55q25 27.5 41 48.5h22q7-21 20-48t28-55q15-28 29-48l-2-6h-18q-21 28-40.5 62T473 917q-26-29-59.5-63T348 792h-23z" horiz-adv-x="716" vert-adv-y="1000"/><glyph glyph-name="unid5" unicode="Õ" d="M334-10q-92 0-147 39t-79 104q-24 65-24 143 0 82 21 162t63.5 145q42.5 65 108 103.5T431 725q111 0 178-68.5T676 446q0-47-10-107t-33-121q-23-61-62-112.5T473.5 22Q415-10 334-10m1 25q71 0 123.5 29t89 77q36.5 48 59 105T639 340.5Q649 398 649 445q0 118-53.5 186.5T429 700q-71 0-124-27t-90-72q-37-45-60-100.5T121.5 387Q111 329 111 277q0-77 23-136t72.5-92.5Q256 15 335 15m-35 789q13 49 35.5 73.5T397 902q24 0 42.5-11t34-26q15.5-15 30.5-26t31-11q22 0 40.5 14t32.5 60h27q-14-47-37-73t-64-26q-22 0-39.5 11T462 840q-15 15-31 26t-35 11q-20 0-38.5-14T326 804h-26z" horiz-adv-x="716" vert-adv-y="1000"/><glyph glyph-name="unid6" unicode="Ö" d="M334-10q-92 0-147 39t-79 104q-24 65-24 143 0 82 21 162t63.5 145q42.5 65 108 103.5T431 725q111 0 178-68.5T676 446q0-47-10-107t-33-121q-23-61-62-112.5T473.5 22Q415-10 334-10m1 25q71 0 123.5 29t89 77q36.5 48 59 105T639 340.5Q649 398 649 445q0 118-53.5 186.5T429 700q-71 0-124-27t-90-72q-37-45-60-100.5T121.5 387Q111 329 111 277q0-77 23-136t72.5-92.5Q256 15 335 15m210 818q-19 0-19 21 0 13 6 27t23 14q20 0 20-21 0-14-6.5-27.5T545 833m-176 0q-19 0-19 21 0 13 6 27t23 14q20 0 20-21 0-14-6.5-27.5T369 833z" horiz-adv-x="716" vert-adv-y="1000"/><glyph glyph-name="unid7" unicode="×" d="m502 567 17-17-197-197 197-197-17-17-197 197-197-197-17 17 197 197L91 550l17 17 197-197 197 197z" horiz-adv-x="570" vert-adv-y="1000"/><glyph glyph-name="unid8" unicode="Ø" d="M44-26 26-8l98 107q-21 37-30.5 82T84 276q0 82 21 162t63.5 145q42.5 65 108 103.5T431 725q61 0 109-20.5t80-61.5l89 97 19-17-93-102q19-31 30-75.5t11-99.5q0-47-10-107t-33-121q-23-61-62-112.5T473.5 22Q415-10 334-10q-70 0-118.5 23.5T138 77L44-26m99 146 459 503q-27 37-70 57t-103 20q-71 0-124-27t-90-72q-37-45-60-100.5T121.5 387Q111 329 111 277q0-46 7.5-85.5T143 120M335 15q71 0 123.5 29t89 77q36.5 48 59 105T639 340.5Q649 398 649 445q0 95-33 155L156 97q27-38 71.5-60T335 15z" horiz-adv-x="716" vert-adv-y="1000"/><glyph glyph-name="unid9" unicode="Ù" d="M300-10q-96 0-154 49.5T88 183q0 17 2 34t6 37l98 460h27l-97-458q-8-40-8-71 0-83 50-126.5T301 15q101 0 171 60t96 182l98 457h27l-98-462Q566 115 488.5 52.5T300-10m173 802q-16 18-35 46.5t-36 57Q385 924 376 942v10h28q10-26 25.5-54t31.5-53q16-25 27-41v-12h-15z" horiz-adv-x="692" vert-adv-y="1000"/><glyph glyph-name="unida" unicode="Ú" d="M300-10q-96 0-154 49.5T88 183q0 17 2 34t6 37l98 460h27l-97-458q-8-40-8-71 0-83 50-126.5T301 15q101 0 171 60t96 182l98 457h27l-98-462Q566 115 488.5 52.5T300-10m114 802v6q22 20 49 48t51 56q24 28 39 50h30v-7q-26-34-67-77t-81-76h-21z" horiz-adv-x="692" vert-adv-y="1000"/><glyph glyph-name="unidb" unicode="Û" d="M300-10q-96 0-154 49.5T88 183q0 17 2 34t6 37l98 460h27l-97-458q-8-40-8-71 0-83 50-126.5T301 15q101 0 171 60t96 182l98 457h27l-98-462Q566 115 488.5 52.5T300-10m25 802 1 6q22 20 48.5 47.5t51.5 55q25 27.5 41 48.5h22q7-21 20-48t28-55q15-28 29-48l-2-6h-18q-21 28-40.5 62T473 917q-26-29-59.5-63T348 792h-23z" horiz-adv-x="692" vert-adv-y="1000"/><glyph glyph-name="unidc" unicode="Ü" d="M300-10q-96 0-154 49.5T88 183q0 17 2 34t6 37l98 460h27l-97-458q-8-40-8-71 0-83 50-126.5T301 15q101 0 171 60t96 182l98 457h27l-98-462Q566 115 488.5 52.5T300-10m244 843q-19 0-19 21 0 13 6 27t23 14q20 0 20-21 0-14-6.5-27.5T544 833m-176 0q-19 0-19 21 0 13 6 27t23 14q20 0 20-21 0-14-6.5-27.5T368 833z" horiz-adv-x="692" vert-adv-y="1000"/><glyph glyph-name="unidd" unicode="Ý" d="m174 0 57 271L96 714h27l126-413 298 413h31L259 275 201 0h-27m141 792v6q22 20 49 48t51 56q24 28 39 50h30v-7q-26-34-67-77t-81-76h-21z" horiz-adv-x="485" vert-adv-y="1000"/><glyph glyph-name="unide" unicode="Þ" d="m50 0 151 714h27l-28-132h128q100 0 151-42t51-120q0-72-24-120t-66-76q-42-28-96-39.5T231 173H113L77 0H50m69 198h116q73 0 133.5 20t97.5 68q37 48 37 133 0 67-46 102.5T323 557H195l-76-359z" horiz-adv-x="558" vert-adv-y="1000"/><glyph glyph-name="unidf" unicode="ß" d="M-89-240q-17 0-31 3t-24 7v26q12-6 27-8.5t29-2.5q38 0 62 26.5T8-116l143 679q21 100 72 151t140 51q69 0 104.5-34t35.5-83q0-44-16-71t-39.5-44Q424 516 399 502q-31-18-55-41t-24-67q0-29 21-50.5t47-44.5q26-24 48.5-55.5T459 162q0-75-44.5-123.5T276-10q-44 0-75 8t-52 19v28q57-30 127-30 74 0 114.5 37.5T431 162q0 40-18 67t-41 49q-28 26-53 51.5T294 394q0 38 13.5 61t35 39q21.5 16 44.5 29 22 13 42 28t33 38q13 23 13 58 0 40-29.5 66.5T362 740q-81 0-124.5-47T177 563L33-120q-13-62-45.5-91T-89-240z" horiz-adv-x="531" vert-adv-y="1000"/><glyph glyph-name="unie0" unicode="à" d="M197-10q-72 0-109 51.5T51 178q0 61 17 124.5t50.5 117q33.5 53.5 84 86T319 538q47 0 76-20.5t44.5-51Q455 436 460 407h2l27 121h22L399 0h-22l28 139h-2q-17-31-47.5-65.5t-71-59Q244-10 197-10m3 25q46 0 93.5 33t85 89.5Q416 194 430 264q6 31 9 53t3 41q0 74-33 114.5T318 513q-58 0-103-29.5T139.5 405q-30.5-49-46-108.5T78 178q0-75 30-119t92-44m179 591q-16 18-35 46.5t-36 57Q291 738 282 756v10h28q10-26 25.5-54t31.5-53q16-25 27-41v-12h-15z" horiz-adv-x="547" vert-adv-y="1000"/><glyph glyph-name="unie1" unicode="á" d="M197-10q-72 0-109 51.5T51 178q0 61 17 124.5t50.5 117q33.5 53.5 84 86T319 538q47 0 76-20.5t44.5-51Q455 436 460 407h2l27 121h22L399 0h-22l28 139h-2q-17-31-47.5-65.5t-71-59Q244-10 197-10m3 25q46 0 93.5 33t85 89.5Q416 194 430 264q6 31 9 53t3 41q0 74-33 114.5T318 513q-58 0-103-29.5T139.5 405q-30.5-49-46-108.5T78 178q0-75 30-119t92-44m108 591v6q22 20 49 48t51 56q24 28 39 50h30v-7q-26-34-67-77t-81-76h-21z" horiz-adv-x="547" vert-adv-y="1000"/><glyph glyph-name="unie2" unicode="â" d="M197-10q-72 0-109 51.5T51 178q0 61 17 124.5t50.5 117q33.5 53.5 84 86T319 538q47 0 76-20.5t44.5-51Q455 436 460 407h2l27 121h22L399 0h-22l28 139h-2q-17-31-47.5-65.5t-71-59Q244-10 197-10m3 25q46 0 93.5 33t85 89.5Q416 194 430 264q6 31 9 53t3 41q0 74-33 114.5T318 513q-58 0-103-29.5T139.5 405q-30.5-49-46-108.5T78 178q0-75 30-119t92-44m26 591 1 6q22 20 48.5 47.5t51.5 55q25 27.5 41 48.5h22q7-21 20-48t28-55q15-28 29-48l-2-6h-18q-21 28-40.5 62T374 731q-26-29-59.5-63T249 606h-23z" horiz-adv-x="547" vert-adv-y="1000"/><glyph glyph-name="unie3" unicode="ã" d="M197-10q-72 0-109 51.5T51 178q0 61 17 124.5t50.5 117q33.5 53.5 84 86T319 538q47 0 76-20.5t44.5-51Q455 436 460 407h2l27 121h22L399 0h-22l28 139h-2q-17-31-47.5-65.5t-71-59Q244-10 197-10m3 25q46 0 93.5 33t85 89.5Q416 194 430 264q6 31 9 53t3 41q0 74-33 114.5T318 513q-58 0-103-29.5T139.5 405q-30.5-49-46-108.5T78 178q0-75 30-119t92-44m-20 603q13 49 35.5 73.5T277 716q24 0 42.5-11t34-26q15.5-15 30.5-26t31-11q22 0 40.5 14t32.5 60h27q-14-47-37-73t-64-26q-22 0-39.5 11T342 654q-15 15-31 26t-35 11q-20 0-38.5-14T206 618h-26z" horiz-adv-x="547" vert-adv-y="1000"/><glyph glyph-name="unie4" unicode="ä" d="M197-10q-72 0-109 51.5T51 178q0 61 17 124.5t50.5 117q33.5 53.5 84 86T319 538q47 0 76-20.5t44.5-51Q455 436 460 407h2l27 121h22L399 0h-22l28 139h-2q-17-31-47.5-65.5t-71-59Q244-10 197-10m3 25q46 0 93.5 33t85 89.5Q416 194 430 264q6 31 9 53t3 41q0 74-33 114.5T318 513q-58 0-103-29.5T139.5 405q-30.5-49-46-108.5T78 178q0-75 30-119t92-44m245 632q-19 0-19 21 0 13 6 27t23 14q20 0 20-21 0-14-6.5-27.5T445 647m-176 0q-19 0-19 21 0 13 6 27t23 14q20 0 20-21 0-14-6.5-27.5T269 647z" horiz-adv-x="547" vert-adv-y="1000"/><glyph glyph-name="unie5" unicode="å" d="M197-10q-72 0-109 51.5T51 178q0 61 17 124.5t50.5 117q33.5 53.5 84 86T319 538q47 0 76-20.5t44.5-51Q455 436 460 407h2l27 121h22L399 0h-22l28 139h-2q-17-31-47.5-65.5t-71-59Q244-10 197-10m3 25q46 0 93.5 33t85 89.5Q416 194 430 264q6 31 9 53t3 41q0 74-33 114.5T318 513q-58 0-103-29.5T139.5 405q-30.5-49-46-108.5T78 178q0-75 30-119t92-44m153 596q-40 0-70.5 27.5T252 711q0 43 30 71.5t71 28.5q41 0 70.5-29.5T453 711q0-44-29.5-72T353 611m0 24q34 0 55 22.5t21 53.5q0 31-22.5 53.5T353 787q-33 0-55-22.5T276 711q0-31 21.5-53.5T353 635z" horiz-adv-x="547" vert-adv-y="1000"/><glyph glyph-name="unie6" unicode="æ" d="M194-10q-68 0-105.5 51T51 178q0 61 17 124.5t50 117q33 53.5 82.5 86T314 538q46 0 72-22t38-53q12-31 14-56h2l28 121h23l-27-124q37 60 88.5 97T678 538q52 0 87-32t35-81q0-49-26-82t-71.5-52Q657 272 597 264t-128-8h-34q-1-11-2.5-28t-1.5-34q0-84 42-131.5T595 15q40 0 74.5 11T728 48V23q-23-13-60-23t-74-10q-69 0-119.5 37T411 146L380 0h-22l28 133h-2q-16-33-43-66t-63.5-55Q241-10 194-10m3 25q49 0 92 33t75 89.5Q396 194 410 264q7 32 9.5 53t2.5 41q0 74-28.5 114.5T313 513q-56 0-100-29.5T139 405q-30-49-45.5-108.5T78 178q0-76 31-119.5T197 15m242 266h48q83 0 148 15t101.5 46.5Q773 374 773 424q0 35-24.5 62T675 513q-52 0-100.5-27.5T490 406q-36-52-51-125z" horiz-adv-x="842" vert-adv-y="1000"/><glyph glyph-name="unie7" unicode="ç" d="M247-10q-62 0-105 27T77 90q-22 46-22 104 0 69 18.5 131T128 435q36 48 88 75.5T335 538q34 0 66.5-6t56.5-18l-8-25q-25 13-56.5 18.5T335 513q-78 0-134.5-43T113 355.5Q82 284 82 196q0-50 18.5-91T156 39.5Q193 15 248 15q36 0 66 8t61 22V19Q351 7 319.5-1.5T247-10m-94-230q-34 0-55 6v24q23-6 53-6 20 0 42.5 7.5t38.5 24q16 16.5 16 45.5 0 54-85 54l47 85h26l-34-65q33-3 53-22.5t20-51.5q0-33-18-55.5t-45.5-34Q184-240 153-240z" horiz-adv-x="452" vert-adv-y="1000"/><glyph glyph-name="unie8" unicode="è" d="M246-10q-47 0-89 20.5T88.5 76Q62 121 62 194q0 72 20.5 134.5t58 109.5q37.5 47 86.5 73.5T333 538q55 0 90-32t35-82q0-49-26-81.5T360.5 291Q315 272 255 264t-128-8H93q-1-11-2.5-28T89 194q0-87 44-133t118-46q43 0 77 11.5T386 48V22q-22-12-60.5-22T246-10M97 281h48q83 0 148 15t101.5 46.5Q431 374 431 423q0 39-26 64.5T329 513q-49 0-96.5-27.5t-84-79.5Q112 354 97 281m250 325q-16 18-35 46.5t-36 57Q259 738 250 756v10h28q10-26 25.5-54t31.5-53q16-25 27-41v-12h-15z" horiz-adv-x="491" vert-adv-y="1000"/><glyph glyph-name="unie9" unicode="é" d="M246-10q-47 0-89 20.5T88.5 76Q62 121 62 194q0 72 20.5 134.5t58 109.5q37.5 47 86.5 73.5T333 538q55 0 90-32t35-82q0-49-26-81.5T360.5 291Q315 272 255 264t-128-8H93q-1-11-2.5-28T89 194q0-87 44-133t118-46q43 0 77 11.5T386 48V22q-22-12-60.5-22T246-10M97 281h48q83 0 148 15t101.5 46.5Q431 374 431 423q0 39-26 64.5T329 513q-49 0-96.5-27.5t-84-79.5Q112 354 97 281m190 325v6q22 20 49 48t51 56q24 28 39 50h30v-7q-26-34-67-77t-81-76h-21z" horiz-adv-x="491" vert-adv-y="1000"/><glyph glyph-name="uniea" unicode="ê" d="M246-10q-47 0-89 20.5T88.5 76Q62 121 62 194q0 72 20.5 134.5t58 109.5q37.5 47 86.5 73.5T333 538q55 0 90-32t35-82q0-49-26-81.5T360.5 291Q315 272 255 264t-128-8H93q-1-11-2.5-28T89 194q0-87 44-133t118-46q43 0 77 11.5T386 48V22q-22-12-60.5-22T246-10M97 281h48q83 0 148 15t101.5 46.5Q431 374 431 423q0 39-26 64.5T329 513q-49 0-96.5-27.5t-84-79.5Q112 354 97 281m101 325 1 6q22 20 48.5 47.5t51.5 55q25 27.5 41 48.5h22q7-21 20-48t28-55q15-28 29-48l-2-6h-18q-21 28-40.5 62T346 731q-26-29-59.5-63T221 606h-23z" horiz-adv-x="491" vert-adv-y="1000"/><glyph glyph-name="unieb" unicode="ë" d="M246-10q-47 0-89 20.5T88.5 76Q62 121 62 194q0 72 20.5 134.5t58 109.5q37.5 47 86.5 73.5T333 538q55 0 90-32t35-82q0-49-26-81.5T360.5 291Q315 272 255 264t-128-8H93q-1-11-2.5-28T89 194q0-87 44-133t118-46q43 0 77 11.5T386 48V22q-22-12-60.5-22T246-10M97 281h48q83 0 148 15t101.5 46.5Q431 374 431 423q0 39-26 64.5T329 513q-49 0-96.5-27.5t-84-79.5Q112 354 97 281m318 366q-19 0-19 21 0 13 6 27t23 14q20 0 20-21 0-14-6.5-27.5T415 647m-176 0q-19 0-19 21 0 13 6 27t23 14q20 0 20-21 0-14-6.5-27.5T239 647z" horiz-adv-x="491" vert-adv-y="1000"/><glyph glyph-name="uniec" unicode="ì" d="m32 0 112 528h26L58 0H32m157 606q-16 18-35 46.5t-36 57Q101 738 92 756v10h28q10-26 25.5-54t31.5-53q16-25 27-41v-12h-15z" horiz-adv-x="207" vert-adv-y="1000"/><glyph glyph-name="unied" unicode="í" d="m32 0 112 528h26L58 0H32m96 606v6q22 20 49 48t51 56q24 28 39 50h30v-7q-26-34-67-77t-81-76h-21z" horiz-adv-x="207" vert-adv-y="1000"/><glyph glyph-name="uniee" unicode="î" d="m32 0 112 528h26L58 0H32m19 606 1 6q22 20 48.5 47.5t51.5 55q25 27.5 41 48.5h22q7-21 20-48t28-55q15-28 29-48l-2-6h-18q-21 28-40.5 62T199 731q-26-29-59.5-63T74 606H51z" horiz-adv-x="207" vert-adv-y="1000"/><glyph glyph-name="unief" unicode="ï" d="m32 0 112 528h26L58 0H32m233 647q-19 0-19 21 0 13 6 27t23 14q20 0 20-21 0-14-6.5-27.5T265 647m-176 0q-19 0-19 21 0 13 6 27t23 14q20 0 20-21 0-14-6.5-27.5T89 647z" horiz-adv-x="207" vert-adv-y="1000"/><glyph glyph-name="unif0" unicode="ð" d="M224-10q-54 0-93 25.5t-60 69Q50 128 50 182t16 104.5q16 50.5 47.5 91t77 64Q236 465 296 465q68 0 113-35.5t58-85.5h2q0 82-24.5 165T376 652l-134-75-11 21 130 72q-29 37-77 71l19 21q23-18 43.5-39t36.5-40l124 69 11-21-120-66q38-55 67-137t29-186q0-69-17-132.5t-51-113q-34-49.5-84.5-78T224-10m1 25q57 0 109.5 31t86 91.5Q454 198 454 288q0 22-8 48t-26.5 50q-18.5 24-49 39T295 440q-68 0-117-35.5t-75-94Q77 252 77 183q0-76 41.5-122T225 15z" horiz-adv-x="551" vert-adv-y="1000"/><glyph glyph-name="unif1" unicode="ñ" d="m32 0 112 528h22l-28-139h2q16 31 47 66t74 59q43 24 97 24 65 0 100-33t35-97q0-29-8-66L413 0h-26l73 345q4 17 5.5 31.5T467 404q0 56-30 82.5T354 513q-56 0-105-34t-84.5-88.5Q129 336 116 274L58 0H32m149 618q13 49 35.5 73.5T278 716q24 0 42.5-11t34-26q15.5-15 30.5-26t31-11q22 0 40.5 14t32.5 60h27q-14-47-37-73t-64-26q-22 0-39.5 11T343 654q-15 15-31 26t-35 11q-20 0-38.5-14T207 618h-26z" horiz-adv-x="553" vert-adv-y="1000"/><glyph glyph-name="unif2" unicode="ò" d="M237-10q-92 0-137 56.5T55 192q0 105 36.5 182.5t99 120.5Q253 538 331 538q59 0 98.5-26t60-71Q510 396 510 338q0-71-18.5-134t-54-111q-35.5-48-86-75.5T237-10m3 25q76 0 130.5 43.5t83.5 117Q483 249 483 339q0 76-38.5 125T329 513q-70 0-126-39.5T114.5 362Q82 290 82 192q0-81 39.5-129T240 15m122 591q-16 18-35 46.5t-36 57Q274 738 265 756v10h28q10-26 25.5-54t31.5-53q16-25 27-41v-12h-15z" horiz-adv-x="565" vert-adv-y="1000"/><glyph glyph-name="unif3" unicode="ó" d="M237-10q-92 0-137 56.5T55 192q0 105 36.5 182.5t99 120.5Q253 538 331 538q59 0 98.5-26t60-71Q510 396 510 338q0-71-18.5-134t-54-111q-35.5-48-86-75.5T237-10m3 25q76 0 130.5 43.5t83.5 117Q483 249 483 339q0 76-38.5 125T329 513q-70 0-126-39.5T114.5 362Q82 290 82 192q0-81 39.5-129T240 15m69 591v6q22 20 49 48t51 56q24 28 39 50h30v-7q-26-34-67-77t-81-76h-21z" horiz-adv-x="565" vert-adv-y="1000"/><glyph glyph-name="unif4" unicode="ô" d="M237-10q-92 0-137 56.5T55 192q0 105 36.5 182.5t99 120.5Q253 538 331 538q59 0 98.5-26t60-71Q510 396 510 338q0-71-18.5-134t-54-111q-35.5-48-86-75.5T237-10m3 25q76 0 130.5 43.5t83.5 117Q483 249 483 339q0 76-38.5 125T329 513q-70 0-126-39.5T114.5 362Q82 290 82 192q0-81 39.5-129T240 15m-24 591 1 6q22 20 48.5 47.5t51.5 55q25 27.5 41 48.5h22q7-21 20-48t28-55q15-28 29-48l-2-6h-18q-21 28-40.5 62T364 731q-26-29-59.5-63T239 606h-23z" horiz-adv-x="565" vert-adv-y="1000"/><glyph glyph-name="unif5" unicode="õ" d="M237-10q-92 0-137 56.5T55 192q0 105 36.5 182.5t99 120.5Q253 538 331 538q59 0 98.5-26t60-71Q510 396 510 338q0-71-18.5-134t-54-111q-35.5-48-86-75.5T237-10m3 25q76 0 130.5 43.5t83.5 117Q483 249 483 339q0 76-38.5 125T329 513q-70 0-126-39.5T114.5 362Q82 290 82 192q0-81 39.5-129T240 15m-52 603q13 49 35.5 73.5T285 716q24 0 42.5-11t34-26q15.5-15 30.5-26t31-11q22 0 40.5 14t32.5 60h27q-14-47-37-73t-64-26q-22 0-39.5 11T350 654q-15 15-31 26t-35 11q-20 0-38.5-14T214 618h-26z" horiz-adv-x="565" vert-adv-y="1000"/><glyph glyph-name="unif6" unicode="ö" d="M237-10q-92 0-137 56.5T55 192q0 105 36.5 182.5t99 120.5Q253 538 331 538q59 0 98.5-26t60-71Q510 396 510 338q0-71-18.5-134t-54-111q-35.5-48-86-75.5T237-10m3 25q76 0 130.5 43.5t83.5 117Q483 249 483 339q0 76-38.5 125T329 513q-70 0-126-39.5T114.5 362Q82 290 82 192q0-81 39.5-129T240 15m204 632q-19 0-19 21 0 13 6 27t23 14q20 0 20-21 0-14-6.5-27.5T444 647m-176 0q-19 0-19 21 0 13 6 27t23 14q20 0 20-21 0-14-6.5-27.5T268 647z" horiz-adv-x="565" vert-adv-y="1000"/><glyph glyph-name="unif7" unicode="÷" d="M304 500q-15 0-20 9t-5 22q0 12 5 21.5t20 9.5q18 0 22.5-9.5T331 531q0-13-4.5-22t-22.5-9M75 341v24h460v-24H75m229-197q-15 0-20 9t-5 22q0 12 5 21.5t20 9.5q18 0 22.5-9.5T331 175q0-13-4.5-22t-22.5-9z" horiz-adv-x="570" vert-adv-y="1000"/><glyph glyph-name="unif8" unicode="ø" d="M14-29-4-11l85 87q-13 24-19.5 53T55 192q0 105 36.5 182.5t99 120.5Q253 538 331 538q47 0 82-17t57-47l79 81 18-18-83-85q26-49 26-114 0-71-18.5-134t-54-111q-35.5-48-86-75.5T237-10q-51 0-86 17.5T95 54L14-29m86 124 352 361q-19 26-50 41.5T329 513q-70 0-126-39.5T114.5 362Q82 290 82 192q0-28 5-53t13-44m140-80q76 0 130.5 43.5t83.5 117Q483 249 483 339q0 55-18 94L113 73q41-58 127-58z" horiz-adv-x="565" vert-adv-y="1000"/><glyph glyph-name="unif9" unicode="ù" d="M190-10q-65 0-100 33t-35 97q0 29 8 66l72 342h26L88 183q-4-17-5.5-31.5T81 124q0-56 30-82.5T194 15q56 0 105 34t84.5 88.5Q419 192 432 254l58 274h26L404 0h-22l28 139h-2q-16-31-47-66t-74-59q-43-24-97-24m178 616q-16 18-35 46.5t-36 57Q280 738 271 756v10h28q10-26 25.5-54t31.5-53q16-25 27-41v-12h-15z" horiz-adv-x="553" vert-adv-y="1000"/><glyph glyph-name="unifa" unicode="ú" d="M190-10q-65 0-100 33t-35 97q0 29 8 66l72 342h26L88 183q-4-17-5.5-31.5T81 124q0-56 30-82.5T194 15q56 0 105 34t84.5 88.5Q419 192 432 254l58 274h26L404 0h-22l28 139h-2q-16-31-47-66t-74-59q-43-24-97-24m113 616v6q22 20 49 48t51 56q24 28 39 50h30v-7q-26-34-67-77t-81-76h-21z" horiz-adv-x="553" vert-adv-y="1000"/><glyph glyph-name="unifb" unicode="û" d="M190-10q-65 0-100 33t-35 97q0 29 8 66l72 342h26L88 183q-4-17-5.5-31.5T81 124q0-56 30-82.5T194 15q56 0 105 34t84.5 88.5Q419 192 432 254l58 274h26L404 0h-22l28 139h-2q-16-31-47-66t-74-59q-43-24-97-24m25 616 1 6q22 20 48.5 47.5t51.5 55q25 27.5 41 48.5h22q7-21 20-48t28-55q15-28 29-48l-2-6h-18q-21 28-40.5 62T363 731q-26-29-59.5-63T238 606h-23z" horiz-adv-x="553" vert-adv-y="1000"/><glyph glyph-name="unifc" unicode="ü" d="M190-10q-65 0-100 33t-35 97q0 29 8 66l72 342h26L88 183q-4-17-5.5-31.5T81 124q0-56 30-82.5T194 15q56 0 105 34t84.5 88.5Q419 192 432 254l58 274h26L404 0h-22l28 139h-2q-16-31-47-66t-74-59q-43-24-97-24m243 657q-19 0-19 21 0 13 6 27t23 14q20 0 20-21 0-14-6.5-27.5T433 647m-176 0q-19 0-19 21 0 13 6 27t23 14q20 0 20-21 0-14-6.5-27.5T257 647z" horiz-adv-x="553" vert-adv-y="1000"/><glyph glyph-name="unifd" unicode="ý" d="M-57-243q-36 0-57 10v26q12-5 25.5-8t33.5-3q36 0 65.5 28T74-103L138 7 50 528h26l59-356q7-46 12.5-79t7.5-56h2q11 22 28.5 54.5T228 168l202 360h29L96-115q-34-61-70-94.5T-57-243m279 849v6q22 20 49 48t51 56q24 28 39 50h30v-7q-26-34-67-77t-81-76h-21z" horiz-adv-x="410" vert-adv-y="1000"/><glyph glyph-name="unife" unicode="þ" d="m-17-232 210 992h26l-46-217q-7-31-16.5-73.5T137 389h3q19 36 50.5 70.5T264 516q42 22 93 22 72 0 114-51.5T513 350q0-61-16.5-124T446 109.5Q412 56 360.5 23T239-10q-51 0-83.5 19t-50 49Q88 88 83 121h-2q-5-34-12-69.5T55-15L9-232h-26M240 15q62 0 108 29.5t77 79Q456 173 471 232t15 118q0 75-35 119t-99 44q-52 0-101-31.5T164.5 393Q127 336 111 262q-6-29-8-50.5t-2-41.5q0-78 38.5-116.5T240 15z" horiz-adv-x="568" vert-adv-y="1000"/><glyph glyph-name="uniff" unicode="ÿ" d="M-57-243q-36 0-57 10v26q12-5 25.5-8t33.5-3q36 0 65.5 28T74-103L138 7 50 528h26l59-356q7-46 12.5-79t7.5-56h2q11 22 28.5 54.5T228 168l202 360h29L96-115q-34-61-70-94.5T-57-243m417 890q-19 0-19 21 0 13 6 27t23 14q20 0 20-21 0-14-6.5-27.5T360 647m-176 0q-19 0-19 21 0 13 6 27t23 14q20 0 20-21 0-14-6.5-27.5T184 647z" horiz-adv-x="410" vert-adv-y="1000"/><glyph glyph-name="uni0100" unicode="Ā" d="m-50 0 418 716h24L498 0h-25l-41 271H138L-20 0h-30m202 296h276l-43 298q-6 39-11 88h-2q-11-22-23.5-44.5T324 594L152 296m115 504 5 25h242l-5-25H267z" horiz-adv-x="547" vert-adv-y="1000"/><glyph glyph-name="uni0101" unicode="ā" d="M197-10q-72 0-109 51.5T51 178q0 61 17 124.5t50.5 117q33.5 53.5 84 86T319 538q47 0 76-20.5t44.5-51Q455 436 460 407h2l27 121h22L399 0h-22l28 139h-2q-17-31-47.5-65.5t-71-59Q244-10 197-10m3 25q46 0 93.5 33t85 89.5Q416 194 430 264q6 31 9 53t3 41q0 74-33 114.5T318 513q-58 0-103-29.5T139.5 405q-30.5-49-46-108.5T78 178q0-75 30-119t92-44m25 599 5 25h242l-5-25H225z" horiz-adv-x="547" vert-adv-y="1000"/><glyph glyph-name="uni0102" unicode="Ă" d="m-50 0 418 716h24L498 0h-25l-41 271H138L-20 0h-30m202 296h276l-43 298q-6 39-11 88h-2q-11-22-23.5-44.5T324 594L152 296m235 496q-46 0-74 24t-28 68q0 12 2 20h26q-3-21 2-41t22-33q17-13 50-13 45 0 70 23.5t38 63.5h26q-16-55-48.5-83.5T387 792z" horiz-adv-x="547" vert-adv-y="1000"/><glyph glyph-name="uni0103" unicode="ă" d="M197-10q-72 0-109 51.5T51 178q0 61 17 124.5t50.5 117q33.5 53.5 84 86T319 538q47 0 76-20.5t44.5-51Q455 436 460 407h2l27 121h22L399 0h-22l28 139h-2q-17-31-47.5-65.5t-71-59Q244-10 197-10m3 25q46 0 93.5 33t85 89.5Q416 194 430 264q6 31 9 53t3 41q0 74-33 114.5T318 513q-58 0-103-29.5T139.5 405q-30.5-49-46-108.5T78 178q0-75 30-119t92-44m146 591q-46 0-74 24t-28 68q0 12 2 20h26q-3-21 2-41t22-33q17-13 50-13 45 0 70 23.5t38 63.5h26q-16-55-48.5-83.5T346 606z" horiz-adv-x="547" vert-adv-y="1000"/><glyph glyph-name="uni0104" unicode="Ą" d="m-50 0 418 716h24L498 0h-25l-41 271H138L-20 0h-30m202 296h276l-43 298q-6 39-11 88h-2q-11-22-23.5-44.5T324 594L152 296m272-513q-30 0-49.5 18T355-149q0 35 19.5 64t49 53Q453-8 483 11l15-11q-24-16-51-38t-46.5-49Q381-114 381-147q0-45 46-45 13 0 24.5 2t20.5 5v-24q-9-3-21-5.5t-27-2.5z" horiz-adv-x="547" vert-adv-y="1000"/><glyph glyph-name="uni0105" unicode="ą" d="M197-10q-72 0-109 51.5T51 178q0 61 17 124.5t50.5 117q33.5 53.5 84 86T319 538q47 0 76-20.5t44.5-51Q455 436 460 407h2l27 121h22L399 0h-22l28 139h-2q-17-31-47.5-65.5t-71-59Q244-10 197-10m3 25q46 0 93.5 33t85 89.5Q416 194 430 264q6 31 9 53t3 41q0 74-33 114.5T318 513q-58 0-103-29.5T139.5 405q-30.5-49-46-108.5T78 178q0-75 30-119t92-44m125-232q-30 0-49.5 18T256-149q0 35 19.5 64t49 53Q354-8 384 11l15-11q-24-16-51-38t-46.5-49Q282-114 282-147q0-45 46-45 13 0 24.5 2t20.5 5v-24q-9-3-21-5.5t-27-2.5z" horiz-adv-x="547" vert-adv-y="1000"/><glyph glyph-name="uni0106" unicode="Ć" d="M326-10q-76 0-130.5 34.5t-83 97Q84 184 84 268q0 102 29.5 186T196 598.5q53 60.5 123.5 93T471 724q92 0 162-37l-12-25q-35 21-73 29t-77 8q-77 0-142.5-31T214 580.5Q165 524 137.5 445T110 270q0-118 58-186.5T327 15q51 0 94 8.5T500 44V21Q466 8 422-1t-96-9m88 802v6q22 20 49 48t51 56q24 28 39 50h30v-7q-26-34-67-77t-81-76h-21z" horiz-adv-x="594" vert-adv-y="1000"/><glyph glyph-name="uni0107" unicode="ć" d="M247-10q-62 0-105 27T77 90q-22 46-22 104 0 69 18.5 131T128 435q36 48 88 75.5T335 538q34 0 66.5-6t56.5-18l-8-25q-25 13-56.5 18.5T335 513q-78 0-134.5-43T113 355.5Q82 284 82 196q0-50 18.5-91T156 39.5Q193 15 248 15q36 0 66 8t61 22V19Q351 7 319.5-1.5T247-10m34 616v6q22 20 49 48t51 56q24 28 39 50h30v-7q-26-34-67-77t-81-76h-21z" horiz-adv-x="452" vert-adv-y="1000"/><glyph glyph-name="uni0108" unicode="Ĉ" d="M326-10q-76 0-130.5 34.5t-83 97Q84 184 84 268q0 102 29.5 186T196 598.5q53 60.5 123.5 93T471 724q92 0 162-37l-12-25q-35 21-73 29t-77 8q-77 0-142.5-31T214 580.5Q165 524 137.5 445T110 270q0-118 58-186.5T327 15q51 0 94 8.5T500 44V21Q466 8 422-1t-96-9m24 802 1 6q22 20 48.5 47.5t51.5 55q25 27.5 41 48.5h22q7-21 20-48t28-55q15-28 29-48l-2-6h-18q-21 28-40.5 62T498 917q-26-29-59.5-63T373 792h-23z" horiz-adv-x="594" vert-adv-y="1000"/><glyph glyph-name="uni0109" unicode="ĉ" d="M247-10q-62 0-105 27T77 90q-22 46-22 104 0 69 18.5 131T128 435q36 48 88 75.5T335 538q34 0 66.5-6t56.5-18l-8-25q-25 13-56.5 18.5T335 513q-78 0-134.5-43T113 355.5Q82 284 82 196q0-50 18.5-91T156 39.5Q193 15 248 15q36 0 66 8t61 22V19Q351 7 319.5-1.5T247-10m-46 616 1 6q22 20 48.5 47.5t51.5 55q25 27.5 41 48.5h22q7-21 20-48t28-55q15-28 29-48l-2-6h-18q-21 28-40.5 62T349 731q-26-29-59.5-63T224 606h-23z" horiz-adv-x="452" vert-adv-y="1000"/><glyph glyph-name="uni010A" unicode="Ċ" d="M326-10q-76 0-130.5 34.5t-83 97Q84 184 84 268q0 102 29.5 186T196 598.5q53 60.5 123.5 93T471 724q92 0 162-37l-12-25q-35 21-73 29t-77 8q-77 0-142.5-31T214 580.5Q165 524 137.5 445T110 270q0-118 58-186.5T327 15q51 0 94 8.5T500 44V21Q466 8 422-1t-96-9m161 855q-23 0-23 22 0 13 7.5 26.5T494 907q12 0 17-7t5-15q0-13-7.5-26.5T487 845z" horiz-adv-x="594" vert-adv-y="1000"/><glyph glyph-name="uni010B" unicode="ċ" d="M247-10q-62 0-105 27T77 90q-22 46-22 104 0 69 18.5 131T128 435q36 48 88 75.5T335 538q34 0 66.5-6t56.5-18l-8-25q-25 13-56.5 18.5T335 513q-78 0-134.5-43T113 355.5Q82 284 82 196q0-50 18.5-91T156 39.5Q193 15 248 15q36 0 66 8t61 22V19Q351 7 319.5-1.5T247-10m91 669q-23 0-23 22 0 13 7.5 26.5T345 721q12 0 17-7t5-15q0-13-7.5-26.5T338 659z" horiz-adv-x="452" vert-adv-y="1000"/><glyph glyph-name="uni010C" unicode="Č" d="M326-10q-76 0-130.5 34.5t-83 97Q84 184 84 268q0 102 29.5 186T196 598.5q53 60.5 123.5 93T471 724q92 0 162-37l-12-25q-35 21-73 29t-77 8q-77 0-142.5-31T214 580.5Q165 524 137.5 445T110 270q0-118 58-186.5T327 15q51 0 94 8.5T500 44V21Q466 8 422-1t-96-9m127 802q-7 20-20 48t-28 55q-15 27-29 48l2 6h18q21-28 40-62.5t33-62.5q26 28 60 62.5t65 62.5h23l-1-6-48-48q-27-27-52-54.5T475 792h-22z" horiz-adv-x="594" vert-adv-y="1000"/><glyph glyph-name="uni010D" unicode="č" d="M247-10q-62 0-105 27T77 90q-22 46-22 104 0 69 18.5 131T128 435q36 48 88 75.5T335 538q34 0 66.5-6t56.5-18l-8-25q-25 13-56.5 18.5T335 513q-78 0-134.5-43T113 355.5Q82 284 82 196q0-50 18.5-91T156 39.5Q193 15 248 15q36 0 66 8t61 22V19Q351 7 319.5-1.5T247-10m77 616q-7 20-20 48t-28 55q-15 27-29 48l2 6h18q21-28 40-62.5t33-62.5q26 28 60 62.5t65 62.5h23l-1-6-48-48q-27-27-52-54.5T346 606h-22z" horiz-adv-x="452" vert-adv-y="1000"/><glyph glyph-name="uni010E" unicode="Ď" d="m50 0 151 714h145q136 0 213.5-71.5T637 425q0-82-26.5-158t-81-136.5Q475 70 392 35T196 0H50m32 25h115q102 0 179.5 32t129 88q51.5 56 78 128T610 425q0 136-71.5 200T336 689H223L82 25m341 767q-7 20-20 48t-28 55q-15 27-29 48l2 6h18q21-28 40-62.5t33-62.5q26 28 60 62.5t65 62.5h23l-1-6-48-48q-27-27-52-54.5T445 792h-22z" horiz-adv-x="677" vert-adv-y="1000"/><glyph glyph-name="uni010F" unicode="ď" d="M196-10q-77 0-113.5 51.5T46 178q0 61 16.5 124T113 418.5q34 53.5 85.5 86.5T319 538q50 0 83-20t51-50q18-30 22-61h2q5 34 12 69.5t14 66.5l46 217h26L414 0h-22l28 141h-2q-21-35-53.5-69.5t-75-58Q247-10 196-10m2 25q48 0 94 27t83.5 75q37.5 48 60 110T458 358q0 78-39.5 116.5T318 513q-61 0-107-29.5t-77-79Q103 355 88 296T73 178q0-77 31-120t94-43m405 585v6q13 16 30.5 44t33 58.5Q682 739 690 760h28v-6q-14-37-41.5-79.5T620 600h-17z" horiz-adv-x="572" vert-adv-y="1000"/><glyph glyph-name="uni0110" unicode="Đ" d="m50 0 73 343H44l5 25h79l73 346h145q136 0 213.5-71.5T637 425q0-82-26.5-158t-81-136.5Q475 70 392 35T196 0H50m32 25h115q102 0 179.5 32t129 88q51.5 56 78 128T610 425q0 136-71.5 200T336 689H223l-68-321h195l-6-25H150L82 25z" horiz-adv-x="677" vert-adv-y="1000"/><glyph glyph-name="uni0111" unicode="đ" d="M206-10q-72 0-113.5 51.5T51 178q0 61 16.5 124T118 418.5q34 53.5 85.5 86.5T324 538q50 0 83-19t51-49q18-30 22-63h2q5 34 12 69.5t14 66.5l18 87H303l5 25h224l22 105h26l-22-105h72l-6-25h-72L419 0h-22l28 139h-2q-19-35-50-69.5t-73-57Q258-10 206-10m3 25q52 0 98 28.5t80.5 77.5Q422 170 442 232.5T462 362q0 76-39 113.5T323 513q-61 0-107-29.5t-77-79Q108 355 93 296T78 178q0-75 34.5-119T209 15z" horiz-adv-x="568" vert-adv-y="1000"/><glyph glyph-name="uni0112" unicode="Ē" d="m50 0 151 714h358l-5-25H223l-64-300h312l-5-25H154L82 25h331l-5-25H50m227 800 5 25h242l-5-25H277z" horiz-adv-x="535" vert-adv-y="1000"/><glyph glyph-name="uni0113" unicode="ē" d="M246-10q-47 0-89 20.5T88.5 76Q62 121 62 194q0 72 20.5 134.5t58 109.5q37.5 47 86.5 73.5T333 538q55 0 90-32t35-82q0-49-26-81.5T360.5 291Q315 272 255 264t-128-8H93q-1-11-2.5-28T89 194q0-87 44-133t118-46q43 0 77 11.5T386 48V22q-22-12-60.5-22T246-10M97 281h48q83 0 148 15t101.5 46.5Q431 374 431 423q0 39-26 64.5T329 513q-49 0-96.5-27.5t-84-79.5Q112 354 97 281m98 333 5 25h242l-5-25H195z" horiz-adv-x="491" vert-adv-y="1000"/><glyph glyph-name="uni0114" unicode="Ĕ" d="m50 0 151 714h358l-5-25H223l-64-300h312l-5-25H154L82 25h331l-5-25H50m342 792q-46 0-74 24t-28 68q0 12 2 20h26q-3-21 2-41t22-33q17-13 50-13 45 0 70 23.5t38 63.5h26q-16-55-48.5-83.5T392 792z" horiz-adv-x="535" vert-adv-y="1000"/><glyph glyph-name="uni0115" unicode="ĕ" d="M246-10q-47 0-89 20.5T88.5 76Q62 121 62 194q0 72 20.5 134.5t58 109.5q37.5 47 86.5 73.5T333 538q55 0 90-32t35-82q0-49-26-81.5T360.5 291Q315 272 255 264t-128-8H93q-1-11-2.5-28T89 194q0-87 44-133t118-46q43 0 77 11.5T386 48V22q-22-12-60.5-22T246-10M97 281h48q83 0 148 15t101.5 46.5Q431 374 431 423q0 39-26 64.5T329 513q-49 0-96.5-27.5t-84-79.5Q112 354 97 281m229 325q-46 0-74 24t-28 68q0 12 2 20h26q-3-21 2-41t22-33q17-13 50-13 45 0 70 23.5t38 63.5h26q-16-55-48.5-83.5T326 606z" horiz-adv-x="491" vert-adv-y="1000"/><glyph glyph-name="uni0116" unicode="Ė" d="m50 0 151 714h358l-5-25H223l-64-300h312l-5-25H154L82 25h331l-5-25H50m364 845q-23 0-23 22 0 13 7.5 26.5T421 907q12 0 17-7t5-15q0-13-7.5-26.5T414 845z" horiz-adv-x="535" vert-adv-y="1000"/><glyph glyph-name="uni0117" unicode="ė" d="M246-10q-47 0-89 20.5T88.5 76Q62 121 62 194q0 72 20.5 134.5t58 109.5q37.5 47 86.5 73.5T333 538q55 0 90-32t35-82q0-49-26-81.5T360.5 291Q315 272 255 264t-128-8H93q-1-11-2.5-28T89 194q0-87 44-133t118-46q43 0 77 11.5T386 48V22q-22-12-60.5-22T246-10M97 281h48q83 0 148 15t101.5 46.5Q431 374 431 423q0 39-26 64.5T329 513q-49 0-96.5-27.5t-84-79.5Q112 354 97 281m235 378q-23 0-23 22 0 13 7.5 26.5T339 721q12 0 17-7t5-15q0-13-7.5-26.5T332 659z" horiz-adv-x="491" vert-adv-y="1000"/><glyph glyph-name="uni0118" unicode="Ę" d="m50 0 151 714h358l-5-25H223l-64-300h312l-5-25H154L82 25h331l-5-25H50m257-217q-30 0-49.5 18T238-149q0 35 19.5 64t49 53Q336-8 366 11l15-11q-24-16-51-38t-46.5-49Q264-114 264-147q0-45 46-45 13 0 24.5 2t20.5 5v-24q-9-3-21-5.5t-27-2.5z" horiz-adv-x="535" vert-adv-y="1000"/><glyph glyph-name="uni0119" unicode="ę" d="M239-10q-47 0-89 20.5T81.5 76Q55 121 55 194q0 72 20.5 134.5t58 109.5q37.5 47 86.5 73.5T326 538q56 0 90.5-32t34.5-82q0-49-26-81.5T353.5 291Q308 272 248 264t-128-8H86q-2-11-3-28t-1-34q0-87 44-133t118-46q43 0 77 11.5T379 48V22q-14-8-34-14-27-21-52.5-43t-42-47.5Q234-108 234-137q0-45 46-45 14 0 25 2t20 5v-24q-9-3-21-5.5t-27-2.5q-30 0-49.5 18T208-139q0 42 27.5 75.5T299-4q-31-6-60-6M90 281h48q84 0 148.5 15t101 46.5Q424 374 424 423q0 39-26 64.5T322 513q-48 0-96-27.5T141.5 406Q105 354 90 281z" horiz-adv-x="491" vert-adv-y="1000"/><glyph glyph-name="uni011A" unicode="Ě" d="m50 0 151 714h358l-5-25H223l-64-300h312l-5-25H154L82 25h331l-5-25H50m327 792q-7 20-20 48t-28 55q-15 27-29 48l2 6h18q21-28 40-62.5t33-62.5q26 28 60 62.5t65 62.5h23l-1-6-48-48q-27-27-52-54.5T399 792h-22z" horiz-adv-x="535" vert-adv-y="1000"/><glyph glyph-name="uni011B" unicode="ě" d="M246-10q-47 0-89 20.5T88.5 76Q62 121 62 194q0 72 20.5 134.5t58 109.5q37.5 47 86.5 73.5T333 538q55 0 90-32t35-82q0-49-26-81.5T360.5 291Q315 272 255 264t-128-8H93q-1-11-2.5-28T89 194q0-87 44-133t118-46q43 0 77 11.5T386 48V22q-22-12-60.5-22T246-10M97 281h48q83 0 148 15t101.5 46.5Q431 374 431 423q0 39-26 64.5T329 513q-49 0-96.5-27.5t-84-79.5Q112 354 97 281m216 325q-7 20-20 48t-28 55q-15 27-29 48l2 6h18q21-28 40-62.5t33-62.5q26 28 60 62.5t65 62.5h23l-1-6-48-48q-27-27-52-54.5T335 606h-22z" horiz-adv-x="491" vert-adv-y="1000"/><glyph glyph-name="uni011C" unicode="Ĝ" d="M333-10q-120 0-184.5 75T84 267q0 105 30.5 189.5T198 601q53 60 121.5 91.5T464 724q56 0 106-11t94-31l-11-25q-43 19-91 30.5T463 699q-71 0-134.5-30.5t-113-87Q166 525 138 445.5T110 267q0-85 29-141t79.5-83.5Q269 15 334 15q53 0 105.5 10.5T531 53l58 272H388l6 25h227L554 36Q504 13 446 1.5T333-10m28 802 1 6q22 20 48.5 47.5t51.5 55q25 27.5 41 48.5h22q7-21 20-48t28-55q15-28 29-48l-2-6h-18q-21 28-40.5 62T509 917q-26-29-59.5-63T384 792h-23z" horiz-adv-x="690" vert-adv-y="1000"/><glyph glyph-name="uni011D" unicode="ĝ" d="M172-240q-44 0-81 10t-65 23v29q29-15 68.5-26t78.5-11q96 0 146 52t69 139l9 41q6 28 14.5 63.5T427 144h-2q-21-36-54.5-71.5t-76-59Q252-10 202-10q-78 0-114.5 51.5T51 178q0 61 16.5 124T118 418.5q34 53.5 85.5 86.5T325 538q49 0 82-19.5t50.5-50Q475 438 480 407h2l27 121h22L413-28q-13-64-42-111.5t-77.5-74Q245-240 172-240m33 255q46 0 91.5 27t83 74Q417 163 440 225.5T463 358q0 78-38.5 116.5T324 513q-62 0-108-29.5t-77-79Q108 355 93 296T78 178q0-75 30-119t97-44m17 591 1 6q22 20 48.5 47.5t51.5 55q25 27.5 41 48.5h22q7-21 20-48t28-55q15-28 29-48l-2-6h-18q-21 28-40.5 62T370 731q-26-29-59.5-63T245 606h-23z" horiz-adv-x="568" vert-adv-y="1000"/><glyph glyph-name="uni011E" unicode="Ğ" d="M333-10q-120 0-184.5 75T84 267q0 105 30.5 189.5T198 601q53 60 121.5 91.5T464 724q56 0 106-11t94-31l-11-25q-43 19-91 30.5T463 699q-71 0-134.5-30.5t-113-87Q166 525 138 445.5T110 267q0-85 29-141t79.5-83.5Q269 15 334 15q53 0 105.5 10.5T531 53l58 272H388l6 25h227L554 36Q504 13 446 1.5T333-10m141 802q-46 0-74 24t-28 68q0 12 2 20h26q-3-21 2-41t22-33q17-13 50-13 45 0 70 23.5t38 63.5h26q-16-55-48.5-83.5T474 792z" horiz-adv-x="690" vert-adv-y="1000"/><glyph glyph-name="uni011F" unicode="ğ" d="M172-240q-44 0-81 10t-65 23v29q29-15 68.5-26t78.5-11q96 0 146 52t69 139l9 41q6 28 14.5 63.5T427 144h-2q-21-36-54.5-71.5t-76-59Q252-10 202-10q-78 0-114.5 51.5T51 178q0 61 16.5 124T118 418.5q34 53.5 85.5 86.5T325 538q49 0 82-19.5t50.5-50Q475 438 480 407h2l27 121h22L413-28q-13-64-42-111.5t-77.5-74Q245-240 172-240m33 255q46 0 91.5 27t83 74Q417 163 440 225.5T463 358q0 78-38.5 116.5T324 513q-62 0-108-29.5t-77-79Q108 355 93 296T78 178q0-75 30-119t97-44m152 591q-46 0-74 24t-28 68q0 12 2 20h26q-3-21 2-41t22-33q17-13 50-13 45 0 70 23.5t38 63.5h26q-16-55-48.5-83.5T357 606z" horiz-adv-x="568" vert-adv-y="1000"/><glyph glyph-name="uni0120" unicode="Ġ" d="M333-10q-120 0-184.5 75T84 267q0 105 30.5 189.5T198 601q53 60 121.5 91.5T464 724q56 0 106-11t94-31l-11-25q-43 19-91 30.5T463 699q-71 0-134.5-30.5t-113-87Q166 525 138 445.5T110 267q0-85 29-141t79.5-83.5Q269 15 334 15q53 0 105.5 10.5T531 53l58 272H388l6 25h227L554 36Q504 13 446 1.5T333-10m165 855q-23 0-23 22 0 13 7.5 26.5T505 907q12 0 17-7t5-15q0-13-7.5-26.5T498 845z" horiz-adv-x="690" vert-adv-y="1000"/><glyph glyph-name="uni0121" unicode="ġ" d="M172-240q-44 0-81 10t-65 23v29q29-15 68.5-26t78.5-11q96 0 146 52t69 139l9 41q6 28 14.5 63.5T427 144h-2q-21-36-54.5-71.5t-76-59Q252-10 202-10q-78 0-114.5 51.5T51 178q0 61 16.5 124T118 418.5q34 53.5 85.5 86.5T325 538q49 0 82-19.5t50.5-50Q475 438 480 407h2l27 121h22L413-28q-13-64-42-111.5t-77.5-74Q245-240 172-240m33 255q46 0 91.5 27t83 74Q417 163 440 225.5T463 358q0 78-38.5 116.5T324 513q-62 0-108-29.5t-77-79Q108 355 93 296T78 178q0-75 30-119t97-44m153 644q-23 0-23 22 0 13 7.5 26.5T365 721q12 0 17-7t5-15q0-13-7.5-26.5T358 659z" horiz-adv-x="568" vert-adv-y="1000"/><glyph glyph-name="uni0122" unicode="Ģ" d="M333-10q-120 0-184.5 75T84 267q0 105 30.5 189.5T198 601q53 60 121.5 91.5T464 724q56 0 106-11t94-31l-11-25q-43 19-91 30.5T463 699q-71 0-134.5-30.5t-113-87Q166 525 138 445.5T110 267q0-85 29-141t79.5-83.5Q269 15 334 15q53 0 105.5 10.5T531 53l58 272H388l6 25h227L554 36Q504 13 446 1.5T333-10m-98-211v7q26 30 52 71t40 82h23v-10q-15-37-41-78t-57-72h-17z" horiz-adv-x="690" vert-adv-y="1000"/><glyph glyph-name="uni0123" unicode="ģ" d="M172-240q-44 0-81 10t-65 23v29q29-15 68.5-26t78.5-11q96 0 146 52t69 139l9 41q6 28 14.5 63.5T427 144h-2q-21-36-54.5-71.5t-76-59Q252-10 202-10q-78 0-114.5 51.5T51 178q0 61 16.5 124T118 418.5q34 53.5 85.5 86.5T325 538q49 0 82-19.5t50.5-50Q475 438 480 407h2l27 121h22L413-28q-13-64-42-111.5t-77.5-74Q245-240 172-240m33 255q46 0 91.5 27t83 74Q417 163 440 225.5T463 358q0 78-38.5 116.5T324 513q-62 0-108-29.5t-77-79Q108 355 93 296T78 178q0-75 30-119t97-44m127 591v10q9 22 25.5 50t35.5 54q19 26 37 46h10v-13q-11-13-26.5-38.5T383 660q-15-29-24-54h-27z" horiz-adv-x="568" vert-adv-y="1000"/><glyph glyph-name="uni0124" unicode="Ĥ" d="m50 0 151 714h27l-69-326h421l69 326h27L525 0h-27l77 363H154L77 0H50m278 792 1 6q22 20 48.5 47.5t51.5 55q25 27.5 41 48.5h22q7-21 20-48t28-55q15-28 29-48l-2-6h-18q-21 28-40.5 62T476 917q-26-29-59.5-63T351 792h-23z" horiz-adv-x="681" vert-adv-y="1000"/><glyph glyph-name="uni0125" unicode="ĥ" d="m32 0 161 760h26l-43-203q-9-42-19-85.5T137 389h2q17 32 48 66.5t74 58.5q43 24 97 24 65 0 100-33t35-97q0-29-8-66L413 0h-26l73 345q4 17 5.5 31.5T467 404q0 56-30 82.5T354 513q-56 0-105-34t-84.5-88.5Q129 336 116 274L58 0H32m85 838 1 6q22 20 48.5 47.5t51.5 55q25 27.5 41 48.5h22q7-21 20-48t28-55q15-28 29-48l-2-6h-18q-21 28-40.5 62T265 963q-26-29-59.5-63T140 838h-23z" horiz-adv-x="553" vert-adv-y="1000"/><glyph glyph-name="uni0126" unicode="Ħ" d="m50 0 117 550H68l6 25h98l29 139h27l-30-139h422l29 139h27l-30-139h99l-6-25h-98L525 0h-27l77 363H154L77 0H50m109 388h421l34 161H193l-34-161z" horiz-adv-x="681" vert-adv-y="1000"/><glyph glyph-name="uni0127" unicode="ħ" d="m32 0 134 630H95l6 25h70l22 105h26l-22-105h229l-6-25H192q-14-64-24-108.5T151 446q-7-31-14-57h2q17 32 48 66.5t74 58.5q43 24 97 24 65 0 100-33t35-97q0-29-8-66L413 0h-26l73 345q4 17 5.5 31.5T467 404q0 56-30 82.5T354 513q-56 0-105-34t-84.5-88.5Q129 336 116 274L58 0H32z" horiz-adv-x="553" vert-adv-y="1000"/><glyph glyph-name="uni0128" unicode="Ĩ" d="m8 0 4 20 66 3 142 667-65 4 4 20h158l-4-20-67-4L104 23l66-3-4-20H8m92 804q13 49 35.5 73.5T197 902q24 0 42.5-11t34-26q15.5-15 30.5-26t31-11q22 0 40.5 14t32.5 60h27q-14-47-37-73t-64-26q-22 0-39.5 11T262 840q-15 15-31 26t-35 11q-20 0-38.5-14T126 804h-26z" horiz-adv-x="279" vert-adv-y="1000"/><glyph glyph-name="uni0129" unicode="ĩ" d="m32 0 112 528h26L58 0H32M18 618q13 49 35.5 73.5T115 716q24 0 42.5-11t34-26q15.5-15 30.5-26t31-11q22 0 40.5 14t32.5 60h27q-14-47-37-73t-64-26q-22 0-39.5 11T180 654q-15 15-31 26t-35 11q-20 0-38.5-14T44 618H18z" horiz-adv-x="207" vert-adv-y="1000"/><glyph glyph-name="uni012A" unicode="Ī" d="m8 0 4 20 66 3 142 667-65 4 4 20h158l-4-20-67-4L104 23l66-3-4-20H8m118 800 5 25h242l-5-25H126z" horiz-adv-x="279" vert-adv-y="1000"/><glyph glyph-name="uni012B" unicode="ī" d="m32 0 112 528h26L58 0H32m25 614 5 25h242l-5-25H57z" horiz-adv-x="207" vert-adv-y="1000"/><glyph glyph-name="uni012C" unicode="Ĭ" d="m8 0 4 20 66 3 142 667-65 4 4 20h158l-4-20-67-4L104 23l66-3-4-20H8m239 792q-46 0-74 24t-28 68q0 12 2 20h26q-3-21 2-41t22-33q17-13 50-13 45 0 70 23.5t38 63.5h26q-16-55-48.5-83.5T247 792z" horiz-adv-x="279" vert-adv-y="1000"/><glyph glyph-name="uni012D" unicode="ĭ" d="m32 0 112 528h26L58 0H32m148 606q-46 0-74 24t-28 68q0 12 2 20h26q-3-21 2-41t22-33q17-13 50-13 45 0 70 23.5t38 63.5h26q-16-55-48.5-83.5T180 606z" horiz-adv-x="207" vert-adv-y="1000"/><glyph glyph-name="uni012E" unicode="Į" d="m8 0 4 20 66 3 142 667-65 4 4 20h158l-4-20-67-4L104 23l66-3-4-20H8m75-217q-30 0-49.5 18T14-149q0 35 19.5 64t49 53Q112-8 142 11l15-11q-24-16-51-38T59.5-87Q40-114 40-147q0-45 46-45 13 0 24.5 2t20.5 5v-24q-9-3-21-5.5T83-217z" horiz-adv-x="279" vert-adv-y="1000"/><glyph glyph-name="uni012F" unicode="į" d="M189 659q-23 0-23 22 0 13 7.5 26.5T196 721q12 0 17-7t5-15q0-13-7.5-26.5T189 659M32 0l112 528h26L58 0H32m-48-217q-30 0-49.5 18T-85-149q0 35 19.5 64t49 53Q13-8 43 11L58 0Q34-16 7-38t-46.5-49Q-59-114-59-147q0-45 46-45 13 0 24.5 2t20.5 5v-24q-9-3-21-5.5t-27-2.5z" horiz-adv-x="207" vert-adv-y="1000"/><glyph glyph-name="uni0130" unicode="İ" d="m8 0 4 20 66 3 142 667-65 4 4 20h158l-4-20-67-4L104 23l66-3-4-20H8m252 845q-23 0-23 22 0 13 7.5 26.5T267 907q12 0 17-7t5-15q0-13-7.5-26.5T260 845z" horiz-adv-x="279" vert-adv-y="1000"/><glyph glyph-name="uni0132" unicode="Ĳ" d="m8 0 4 20 66 3 142 667-65 4 4 20h158l-4-20-67-4L104 23l66-3-4-20H8m173-174q-22 0-45 4t-37 9l1 25q19-6 41-9t41-3q64 0 94.5 38T320-9l153 723h27L346-13q-17-82-57-121.5T181-174z" horiz-adv-x="490" vert-adv-y="1000"/><glyph glyph-name="uni0133" unicode="ĳ" d="M189 659q-23 0-23 22 0 13 7.5 26.5T196 721q12 0 17-7t5-15q0-13-7.5-26.5T189 659M32 0l112 528h26L58 0H32m354 659q-23 0-23 22 0 13 7.5 26.5T393 721q12 0 17-7t5-15q0-13-7.5-26.5T386 659M111-240q-14 0-30 3t-26 7v26q12-6 28-8.5t28-2.5q41 0 62.5 26.5T205-115l136 643h26L230-119q-13-61-41.5-91T111-240z" horiz-adv-x="394" vert-adv-y="1000"/><glyph glyph-name="uni0134" unicode="Ĵ" d="M-88-174q-22 0-45 4t-37 9l1 25q19-6 41-9t41-3q64 0 94.5 38T51-9l153 723h27L77-13Q60-95 20-134.5T-88-174m197 966 1 6q22 20 48.5 47.5t51.5 55q25 27.5 41 48.5h22q7-21 20-48t28-55q15-28 29-48l-2-6h-18q-21 28-40.5 62T257 917q-26-29-59.5-63T132 792h-23z" horiz-adv-x="231" vert-adv-y="1000"/><glyph glyph-name="uni0135" unicode="ĵ" d="M-86-240q-14 0-30 3t-26 7v26q12-6 28-8.5t28-2.5q41 0 62.5 26.5T8-115l136 643h26L33-119q-13-61-41.5-91T-86-240M52 606l1 6q22 20 48.5 47.5t51.5 55q25 27.5 41 48.5h22q7-21 20-48t28-55q15-28 29-48l-2-6h-18q-21 28-40.5 62T200 731q-26-29-59.5-63T75 606H52z" horiz-adv-x="207" vert-adv-y="1000"/><glyph glyph-name="uni0136" unicode="Ķ" d="m50 0 151 714h27l-83-390 57 52 390 338h37L283 414 484 0h-30L262 396 138 291 77 0H50m86-221v7q26 30 52 71t40 82h23v-10q-15-37-41-78t-57-72h-17z" horiz-adv-x="543" vert-adv-y="1000"/><glyph glyph-name="uni0137" unicode="ķ" d="m32 0 161 760h26l-80-376q-11-50-20-91.5T98 204h1l345 324h33L232 298 384 0h-29L213 281 94 172 58 0H32m56-221v7q26 30 52 71t40 82h23v-10q-15-37-41-78t-57-72H88z" horiz-adv-x="439" vert-adv-y="1000"/><glyph glyph-name="uni0138" unicode="ĸ" d="m32 0 112 528h26l-31-144q-11-49-20.5-92.5T98 204h1l345 324h33L232 298 384 0h-29L213 281 94 172 58 0H32z" horiz-adv-x="439" vert-adv-y="1000"/><glyph glyph-name="uni0139" unicode="Ĺ" d="m50 0 151 714h27L82 25h329l-5-25H50m154 792v6q22 20 49 48t51 56q24 28 39 50h30v-7q-26-34-67-77t-81-76h-21z" horiz-adv-x="491" vert-adv-y="1000"/><glyph glyph-name="uni013A" unicode="ĺ" d="m32 0 161 760h26L58 0H32m167 838v6q22 20 49 48t51 56q24 28 39 50h30v-7q-26-34-67-77t-81-76h-21z" horiz-adv-x="207" vert-adv-y="1000"/><glyph glyph-name="uni013B" unicode="Ļ" d="m50 0 151 714h27L82 25h329l-5-25H50m77-221v7q26 30 52 71t40 82h23v-10q-15-37-41-78t-57-72h-17z" horiz-adv-x="491" vert-adv-y="1000"/><glyph glyph-name="uni013C" unicode="ļ" d="m32 0 161 760h26L58 0H32m-88-221v7q26 30 52 71t40 82h23v-10q-15-37-41-78t-57-72h-17z" horiz-adv-x="207" vert-adv-y="1000"/><glyph glyph-name="uni013D" unicode="Ľ" d="m50 0 151 714h27L82 25h329l-5-25H50m309 549v6q13 16 30.5 44t33 58.5Q438 688 446 709h28v-6q-14-37-41.5-79.5T376 549h-17z" horiz-adv-x="491" vert-adv-y="1000"/><glyph glyph-name="uni013E" unicode="ľ" d="m32 0 161 760h26L58 0H32m206 597v6q13 16 30.5 44t33 58.5Q317 736 325 757h28v-6q-14-37-41.5-79.5T255 597h-17z" horiz-adv-x="207" vert-adv-y="1000"/><glyph glyph-name="uni013F" unicode="Ŀ" d="m50 0 151 714h27L82 25h329l-5-25H50m328 347q-23 0-23 22 0 13 7.5 26.5T385 409q12 0 17-7t5-15q0-13-7.5-26.5T378 347z" horiz-adv-x="491" vert-adv-y="1000"/><glyph glyph-name="uni0140" unicode="ŀ" d="m32 0 161 760h26L58 0H32m194 335q-23 0-23 22 0 13 7.5 26.5T233 397q12 0 17-7t5-15q0-13-7.5-26.5T226 335z" horiz-adv-x="207" vert-adv-y="1000"/><glyph glyph-name="uni0141" unicode="Ł" d="m50 0 60 285-88-52-12 21 107 63 84 397h27l-80-378 178 105 12-21-197-116L82 25h339l-5-25H50z" horiz-adv-x="491" vert-adv-y="1000"/><glyph glyph-name="uni0142" unicode="ł" d="m32 0 71 336-74-44-10 20 91 54 83 394h26l-80-376 88 53 10-20-104-63L58 0H32z" horiz-adv-x="207" vert-adv-y="1000"/><glyph glyph-name="uni0143" unicode="Ń" d="m50 0 151 714h19L503 54h2q7 39 15 80.5t16 76.5l107 503h26L518 0h-20L216 659h-2q-9-43-16-80t-15-77L77 0H50m368 792v6q22 20 49 48t51 56q24 28 39 50h30v-7q-26-34-67-77t-81-76h-21z" horiz-adv-x="674" vert-adv-y="1000"/><glyph glyph-name="uni0144" unicode="ń" d="m32 0 112 528h22l-28-139h2q16 31 47 66t74 59q43 24 97 24 65 0 100-33t35-97q0-29-8-66L413 0h-26l73 345q4 17 5.5 31.5T467 404q0 56-30 82.5T354 513q-56 0-105-34t-84.5-88.5Q129 336 116 274L58 0H32m273 606v6q22 20 49 48t51 56q24 28 39 50h30v-7q-26-34-67-77t-81-76h-21z" horiz-adv-x="553" vert-adv-y="1000"/><glyph glyph-name="uni0145" unicode="Ņ" d="m50 0 151 714h19L503 54h2q7 39 15 80.5t16 76.5l107 503h26L518 0h-20L216 659h-2q-9-43-16-80t-15-77L77 0H50m118-221v7q26 30 52 71t40 82h23v-10q-15-37-41-78t-57-72h-17z" horiz-adv-x="674" vert-adv-y="1000"/><glyph glyph-name="uni0146" unicode="ņ" d="m32 0 112 528h22l-28-139h2q16 31 47 66t74 59q43 24 97 24 65 0 100-33t35-97q0-29-8-66L413 0h-26l73 345q4 17 5.5 31.5T467 404q0 56-30 82.5T354 513q-56 0-105-34t-84.5-88.5Q129 336 116 274L58 0H32m83-221v7q26 30 52 71t40 82h23v-10q-15-37-41-78t-57-72h-17z" horiz-adv-x="553" vert-adv-y="1000"/><glyph glyph-name="uni0147" unicode="Ň" d="m50 0 151 714h19L503 54h2q7 39 15 80.5t16 76.5l107 503h26L518 0h-20L216 659h-2q-9-43-16-80t-15-77L77 0H50m377 792q-7 20-20 48t-28 55q-15 27-29 48l2 6h18q21-28 40-62.5t33-62.5q26 28 60 62.5t65 62.5h23l-1-6-48-48q-27-27-52-54.5T449 792h-22z" horiz-adv-x="674" vert-adv-y="1000"/><glyph glyph-name="uni0148" unicode="ň" d="m32 0 112 528h22l-28-139h2q16 31 47 66t74 59q43 24 97 24 65 0 100-33t35-97q0-29-8-66L413 0h-26l73 345q4 17 5.5 31.5T467 404q0 56-30 82.5T354 513q-56 0-105-34t-84.5-88.5Q129 336 116 274L58 0H32m305 606q-7 20-20 48t-28 55q-15 27-29 48l2 6h18q21-28 40-62.5t33-62.5q26 28 60 62.5t65 62.5h23l-1-6-48-48q-27-27-52-54.5T359 606h-22z" horiz-adv-x="553" vert-adv-y="1000"/><glyph glyph-name="uni0149" unicode="ŉ" d="m87 0 112 528h22l-28-139h2q16 31 47 66t74 59q43 24 97 24 65 0 100-33t35-97q0-29-8-66L468 0h-26l73 345q4 17 5.5 31.5T522 404q0 56-30 82.5T409 513q-56 0-105-34t-84.5-88.5Q184 336 171 274L113 0H87M74 469q22 35 44 78.5t39.5 87Q175 678 186 714h20l5-9q-22-61-52.5-122.5T94 469H74z" horiz-adv-x="608" vert-adv-y="1000"/><glyph glyph-name="uni014A" unicode="Ŋ" d="M343-174q-20 0-38 3t-30 10l3 23q15-4 31-7t33-3q46 0 76 21t48 57q18 36 27 81L216 659h-2q-9-43-16-80t-15-77L77 0H50l151 714h19L503 54h2q7 39 15 80.5t16 76.5l107 503h26L519 5q-17-82-59-130.5T343-174z" horiz-adv-x="674" vert-adv-y="1000"/><glyph glyph-name="uni014B" unicode="ŋ" d="M266-240q-17 0-30.5 3t-24.5 7v26q12-6 27-8.5t29-2.5q37 0 61 26.5t34 72.5l98 461q4 17 5.5 31.5T467 404q0 56-30 82.5T354 513q-56 0-105-34t-84.5-88.5Q129 336 116 274L58 0H32l112 528h22l-28-139h2q16 31 47 66t74 59q43 24 97 24 65 0 100-33t35-97q0-29-8-66l-98-462q-13-61-44.5-90.5T266-240z" horiz-adv-x="553" vert-adv-y="1000"/><glyph glyph-name="uni014C" unicode="Ō" d="M334-10q-92 0-147 39t-79 104q-24 65-24 143 0 82 21 162t63.5 145q42.5 65 108 103.5T431 725q111 0 178-68.5T676 446q0-47-10-107t-33-121q-23-61-62-112.5T473.5 22Q415-10 334-10m1 25q71 0 123.5 29t89 77q36.5 48 59 105T639 340.5Q649 398 649 445q0 118-53.5 186.5T429 700q-71 0-124-27t-90-72q-37-45-60-100.5T121.5 387Q111 329 111 277q0-77 23-136t72.5-92.5Q256 15 335 15m-10 785 5 25h242l-5-25H325z" horiz-adv-x="716" vert-adv-y="1000"/><glyph glyph-name="uni014D" unicode="ō" d="M237-10q-92 0-137 56.5T55 192q0 105 36.5 182.5t99 120.5Q253 538 331 538q59 0 98.5-26t60-71Q510 396 510 338q0-71-18.5-134t-54-111q-35.5-48-86-75.5T237-10m3 25q76 0 130.5 43.5t83.5 117Q483 249 483 339q0 76-38.5 125T329 513q-70 0-126-39.5T114.5 362Q82 290 82 192q0-81 39.5-129T240 15m-15 599 5 25h242l-5-25H225z" horiz-adv-x="565" vert-adv-y="1000"/><glyph glyph-name="uni014E" unicode="Ŏ" d="M334-10q-92 0-147 39t-79 104q-24 65-24 143 0 82 21 162t63.5 145q42.5 65 108 103.5T431 725q111 0 178-68.5T676 446q0-47-10-107t-33-121q-23-61-62-112.5T473.5 22Q415-10 334-10m1 25q71 0 123.5 29t89 77q36.5 48 59 105T639 340.5Q649 398 649 445q0 118-53.5 186.5T429 700q-71 0-124-27t-90-72q-37-45-60-100.5T121.5 387Q111 329 111 277q0-77 23-136t72.5-92.5Q256 15 335 15m109 777q-46 0-74 24t-28 68q0 12 2 20h26q-3-21 2-41t22-33q17-13 50-13 45 0 70 23.5t38 63.5h26q-16-55-48.5-83.5T444 792z" horiz-adv-x="716" vert-adv-y="1000"/><glyph glyph-name="uni014F" unicode="ŏ" d="M237-10q-92 0-137 56.5T55 192q0 105 36.5 182.5t99 120.5Q253 538 331 538q59 0 98.5-26t60-71Q510 396 510 338q0-71-18.5-134t-54-111q-35.5-48-86-75.5T237-10m3 25q76 0 130.5 43.5t83.5 117Q483 249 483 339q0 76-38.5 125T329 513q-70 0-126-39.5T114.5 362Q82 290 82 192q0-81 39.5-129T240 15m108 591q-46 0-74 24t-28 68q0 12 2 20h26q-3-21 2-41t22-33q17-13 50-13 45 0 70 23.5t38 63.5h26q-16-55-48.5-83.5T348 606z" horiz-adv-x="565" vert-adv-y="1000"/><glyph glyph-name="uni0150" unicode="Ő" d="M334-10q-92 0-147 39t-79 104q-24 65-24 143 0 82 21 162t63.5 145q42.5 65 108 103.5T431 725q111 0 178-68.5T676 446q0-47-10-107t-33-121q-23-61-62-112.5T473.5 22Q415-10 334-10m1 25q71 0 123.5 29t89 77q36.5 48 59 105T639 340.5Q649 398 649 445q0 118-53.5 186.5T429 700q-71 0-124-27t-90-72q-37-45-60-100.5T121.5 387Q111 329 111 277q0-77 23-136t72.5-92.5Q256 15 335 15m162 777v6q22 20 49.5 48t52 56q24.5 28 38.5 50h30v-7q-26-34-67-77t-81-76h-22m-160 0v6q22 20 49.5 48t52 56q24.5 28 38.5 50h30v-7q-26-34-67-77t-81-76h-22z" horiz-adv-x="716" vert-adv-y="1000"/><glyph glyph-name="uni0151" unicode="ő" d="M237-10q-92 0-137 56.5T55 192q0 105 36.5 182.5t99 120.5Q253 538 331 538q59 0 98.5-26t60-71Q510 396 510 338q0-71-18.5-134t-54-111q-35.5-48-86-75.5T237-10m3 25q76 0 130.5 43.5t83.5 117Q483 249 483 339q0 76-38.5 125T329 513q-70 0-126-39.5T114.5 362Q82 290 82 192q0-81 39.5-129T240 15m147 591v6q22 20 49.5 48t52 56q24.5 28 38.5 50h30v-7q-26-34-67-77t-81-76h-22m-160 0v6q22 20 49.5 48t52 56q24.5 28 38.5 50h30v-7q-26-34-67-77t-81-76h-22z" horiz-adv-x="565" vert-adv-y="1000"/><glyph glyph-name="uni0152" unicode="Œ" d="M334-3q-92 0-147 37t-79 100.5Q84 198 84 276q0 82 21 161.5t63.5 144q42.5 64.5 108 103T431 723q35 0 62.5-2.5T546 714h368l-5-25H568l-64-300h322l-5-25H499L427 25h341l-5-25H398q-28-3-64-3m1 25q17 0 34.5 1t30.5 2l141 665q-23 4-51 6t-61 2q-71 0-124-26.5T215 600q-37-45-60-100t-33.5-113Q111 329 111 277q0-77 23-134.5t72.5-89Q256 22 335 22z" horiz-adv-x="880" vert-adv-y="1000"/><glyph glyph-name="uni0153" unicode="œ" d="M229-10q-89 0-131.5 56.5T55 192q0 105 34.5 182.5t94 120.5Q243 538 319 538q79 0 121-51t47-128q35 79 95.5 127.5T729 535q52 0 85.5-29.5T848 429q0-51-26-84.5t-71.5-53Q705 272 645 264t-128-8h-34q-1-11-2.5-28t-1.5-34q0-84 47-131.5T651 15q43 0 72 11.5T776 52l4-25Q757 11 722 .5T646-10q-45 0-86 17t-69 54q-28 37-35 98-31-76-88-122.5T229-10m3 25q72 0 124 43.5t79.5 117Q463 249 463 339q0 76-36.5 125T317 513q-69 0-122-39.5T112 362q-30-72-30-170 0-81 37.5-129T232 15m255 266h48q83 0 148 15.5T784.5 344q36.5 32 36.5 84 0 35-24.5 58.5T725 510q-54 0-102.5-27t-84-78Q503 354 487 281z" horiz-adv-x="890" vert-adv-y="1000"/><glyph glyph-name="uni0154" unicode="Ŕ" d="m50 0 151 714h147q210 0 210-165 0-96-51.5-151.5T358 325L475 0h-29L332 320H145L77 0H50m100 345h152q63 0 115 21t83 65.5Q531 476 531 548q0 141-189 141H223l-73-344m206 447v6q22 20 49 48t51 56q24 28 39 50h30v-7q-26-34-67-77t-81-76h-21z" horiz-adv-x="562" vert-adv-y="1000"/><glyph glyph-name="uni0155" unicode="ŕ" d="m32 0 112 528h22l-28-139h2q16 29 44 63.5t67 59q39 24.5 85 24.5 33 0 59-8l-6-24q-10 3-23.5 5t-29.5 2q-46 0-92-33t-81-88.5Q128 334 114 266L58 0H32m194 606v6q22 20 49 48t51 56q24 28 39 50h30v-7q-26-34-67-77t-81-76h-21z" horiz-adv-x="370" vert-adv-y="1000"/><glyph glyph-name="uni0156" unicode="Ŗ" d="m50 0 151 714h147q210 0 210-165 0-96-51.5-151.5T358 325L475 0h-29L332 320H145L77 0H50m100 345h152q63 0 115 21t83 65.5Q531 476 531 548q0 141-189 141H223l-73-344m-16-566v7q26 30 52 71t40 82h23v-10q-15-37-41-78t-57-72h-17z" horiz-adv-x="562" vert-adv-y="1000"/><glyph glyph-name="uni0157" unicode="ŗ" d="m32 0 112 528h22l-28-139h2q16 29 44 63.5t67 59q39 24.5 85 24.5 33 0 59-8l-6-24q-10 3-23.5 5t-29.5 2q-46 0-92-33t-81-88.5Q128 334 114 266L58 0H32m-86-221v7q26 30 52 71t40 82h23v-10q-15-37-41-78t-57-72h-17z" horiz-adv-x="370" vert-adv-y="1000"/><glyph glyph-name="uni0158" unicode="Ř" d="m50 0 151 714h147q210 0 210-165 0-96-51.5-151.5T358 325L475 0h-29L332 320H145L77 0H50m100 345h152q63 0 115 21t83 65.5Q531 476 531 548q0 141-189 141H223l-73-344m221 447q-7 20-20 48t-28 55q-15 27-29 48l2 6h18q21-28 40-62.5t33-62.5q26 28 60 62.5t65 62.5h23l-1-6-48-48q-27-27-52-54.5T393 792h-22z" horiz-adv-x="562" vert-adv-y="1000"/><glyph glyph-name="uni0159" unicode="ř" d="m32 0 112 528h22l-28-139h2q16 29 44 63.5t67 59q39 24.5 85 24.5 33 0 59-8l-6-24q-10 3-23.5 5t-29.5 2q-46 0-92-33t-81-88.5Q128 334 114 266L58 0H32m222 606q-7 20-20 48t-28 55q-15 27-29 48l2 6h18q21-28 40-62.5t33-62.5q26 28 60 62.5t65 62.5h23l-1-6-48-48q-27-27-52-54.5T276 606h-22z" horiz-adv-x="370" vert-adv-y="1000"/><glyph glyph-name="uni015A" unicode="Ś" d="M198-10Q134-10 92.5 0T19 24v29q35-17 79-27.5T198 15q33 0 69.5 9T336 53q32 20 51.5 52.5T407 184q0 46-20 77t-54.5 54Q298 338 252 360q-34 16-64.5 39T137 454q-20 32-20 77 0 53 20 90t53.5 59.5q33.5 22.5 73.5 33t80 10.5q54 0 91.5-10t73.5-27l-11-25q-40 20-74 28.5t-81 8.5q-29 0-63.5-8T214 664q-31-19-50.5-51T144 532q0-42 18.5-69.5t47-46.5q28.5-19 59.5-35 46-24 83.5-49t59.5-60q22-35 22-88 0-54-22-91t-57.5-59.5Q319 11 278 .5T198-10m106 802v6q22 20 49 48t51 56q24 28 39 50h30v-7q-26-34-67-77t-81-76h-21z" horiz-adv-x="498" vert-adv-y="1000"/><glyph glyph-name="uni015B" unicode="ś" d="M164-10q-52 0-90.5 12.5T12 27v30q30-17 69.5-29.5T165 15q82 0 117.5 34.5T318 136q0 34-16.5 56t-43 38Q232 246 204 261q-33 18-61.5 35.5T97 338q-17 24-17 61 0 49 23.5 79.5t63 45Q206 538 254 538q46 0 82.5-9t62.5-21l-9-25q-26 13-62 21.5t-75 8.5q-62 0-104-26.5T107 401q0-30 15.5-50t41-35.5Q189 300 218 285q32-17 61-35.5t47.5-45Q345 178 345 137t-19-74q-19-33-58.5-53T164-10m61 616v6q22 20 49 48t51 56q24 28 39 50h30v-7q-26-34-67-77t-81-76h-21z" horiz-adv-x="423" vert-adv-y="1000"/><glyph glyph-name="uni015C" unicode="Ŝ" d="M198-10Q134-10 92.5 0T19 24v29q35-17 79-27.5T198 15q33 0 69.5 9T336 53q32 20 51.5 52.5T407 184q0 46-20 77t-54.5 54Q298 338 252 360q-34 16-64.5 39T137 454q-20 32-20 77 0 53 20 90t53.5 59.5q33.5 22.5 73.5 33t80 10.5q54 0 91.5-10t73.5-27l-11-25q-40 20-74 28.5t-81 8.5q-29 0-63.5-8T214 664q-31-19-50.5-51T144 532q0-42 18.5-69.5t47-46.5q28.5-19 59.5-35 46-24 83.5-49t59.5-60q22-35 22-88 0-54-22-91t-57.5-59.5Q319 11 278 .5T198-10m34 802 1 6q22 20 48.5 47.5t51.5 55q25 27.5 41 48.5h22q7-21 20-48t28-55q15-28 29-48l-2-6h-18q-21 28-40.5 62T380 917q-26-29-59.5-63T255 792h-23z" horiz-adv-x="498" vert-adv-y="1000"/><glyph glyph-name="uni015D" unicode="ŝ" d="M164-10q-52 0-90.5 12.5T12 27v30q30-17 69.5-29.5T165 15q82 0 117.5 34.5T318 136q0 34-16.5 56t-43 38Q232 246 204 261q-33 18-61.5 35.5T97 338q-17 24-17 61 0 49 23.5 79.5t63 45Q206 538 254 538q46 0 82.5-9t62.5-21l-9-25q-26 13-62 21.5t-75 8.5q-62 0-104-26.5T107 401q0-30 15.5-50t41-35.5Q189 300 218 285q32-17 61-35.5t47.5-45Q345 178 345 137t-19-74q-19-33-58.5-53T164-10m-11 616 1 6q22 20 48.5 47.5t51.5 55q25 27.5 41 48.5h22q7-21 20-48t28-55q15-28 29-48l-2-6h-18q-21 28-40.5 62T301 731q-26-29-59.5-63T176 606h-23z" horiz-adv-x="423" vert-adv-y="1000"/><glyph glyph-name="uni015E" unicode="Ş" d="M198-10Q134-10 92.5 0T19 24v29q35-17 79-27.5T198 15q33 0 69.5 9T336 53q32 20 51.5 52.5T407 184q0 46-20 77t-54.5 54Q298 338 252 360q-34 16-64.5 39T137 454q-20 32-20 77 0 53 20 90t53.5 59.5q33.5 22.5 73.5 33t80 10.5q54 0 91.5-10t73.5-27l-11-25q-40 20-74 28.5t-81 8.5q-29 0-63.5-8T214 664q-31-19-50.5-51T144 532q0-42 18.5-69.5t47-46.5q28.5-19 59.5-35 46-24 83.5-49t59.5-60q22-35 22-88 0-54-22-91t-57.5-59.5Q319 11 278 .5T198-10m-82-230q-34 0-55 6v24q23-6 53-6 20 0 42.5 7.5t38.5 24q16 16.5 16 45.5 0 54-85 54l47 85h26l-34-65q33-3 53-22.5t20-51.5q0-33-18-55.5t-45.5-34Q147-240 116-240z" horiz-adv-x="498" vert-adv-y="1000"/><glyph glyph-name="uni015F" unicode="ş" d="M164-10q-52 0-90.5 12.5T12 27v30q30-17 69.5-29.5T165 15q82 0 117.5 34.5T318 136q0 34-16.5 56t-43 38Q232 246 204 261q-33 18-61.5 35.5T97 338q-17 24-17 61 0 49 23.5 79.5t63 45Q206 538 254 538q46 0 82.5-9t62.5-21l-9-25q-26 13-62 21.5t-75 8.5q-62 0-104-26.5T107 401q0-30 15.5-50t41-35.5Q189 300 218 285q32-17 61-35.5t47.5-45Q345 178 345 137t-19-74q-19-33-58.5-53T164-10M80-240q-34 0-55 6v24q23-6 53-6 20 0 42.5 7.5t38.5 24q16 16.5 16 45.5 0 54-85 54l47 85h26l-34-65q33-3 53-22.5t20-51.5q0-33-18-55.5t-45.5-34Q111-240 80-240z" horiz-adv-x="423" vert-adv-y="1000"/><glyph glyph-name="uni0160" unicode="Š" d="M198-10Q134-10 92.5 0T19 24v29q35-17 79-27.5T198 15q33 0 69.5 9T336 53q32 20 51.5 52.5T407 184q0 46-20 77t-54.5 54Q298 338 252 360q-34 16-64.5 39T137 454q-20 32-20 77 0 53 20 90t53.5 59.5q33.5 22.5 73.5 33t80 10.5q54 0 91.5-10t73.5-27l-11-25q-40 20-74 28.5t-81 8.5q-29 0-63.5-8T214 664q-31-19-50.5-51T144 532q0-42 18.5-69.5t47-46.5q28.5-19 59.5-35 46-24 83.5-49t59.5-60q22-35 22-88 0-54-22-91t-57.5-59.5Q319 11 278 .5T198-10m137 802q-7 20-20 48t-28 55q-15 27-29 48l2 6h18q21-28 40-62.5t33-62.5q26 28 60 62.5t65 62.5h23l-1-6-48-48q-27-27-52-54.5T357 792h-22z" horiz-adv-x="498" vert-adv-y="1000"/><glyph glyph-name="uni0161" unicode="š" d="M164-10q-52 0-90.5 12.5T12 27v30q30-17 69.5-29.5T165 15q82 0 117.5 34.5T318 136q0 34-16.5 56t-43 38Q232 246 204 261q-33 18-61.5 35.5T97 338q-17 24-17 61 0 49 23.5 79.5t63 45Q206 538 254 538q46 0 82.5-9t62.5-21l-9-25q-26 13-62 21.5t-75 8.5q-62 0-104-26.5T107 401q0-30 15.5-50t41-35.5Q189 300 218 285q32-17 61-35.5t47.5-45Q345 178 345 137t-19-74q-19-33-58.5-53T164-10m92 616q-7 20-20 48t-28 55q-15 27-29 48l2 6h18q21-28 40-62.5t33-62.5q26 28 60 62.5t65 62.5h23l-1-6-48-48q-27-27-52-54.5T278 606h-22z" horiz-adv-x="423" vert-adv-y="1000"/><glyph glyph-name="uni021A" unicode="Ț" d="m172 0 146 689H93l5 25h478l-5-25H345L199 0h-27M81-221v7q26 30 52 71t40 82h23v-10q-15-37-41-78t-57-72H81z" horiz-adv-x="485" vert-adv-y="1000"/><glyph glyph-name="uni021B" unicode="ț" d="M146-10q-50 0-72.5 24T51 82q0 13 1.5 27.5T58 140l77 363H58l5 22 77 3 34 131h21l-28-131h163l-6-25H161L85 143q-4-17-5.5-31.5T78 84q0-33 16-51t53-18q24 0 42.5 3.5T224 28V3q-16-5-34-9t-44-4M6-221v7q26 30 52 71t40 82h23v-10q-15-37-41-78t-57-72H6z" horiz-adv-x="309" vert-adv-y="1000"/><glyph glyph-name="uni0164" unicode="Ť" d="m172 0 146 689H93l5 25h478l-5-25H345L199 0h-27m173 792q-7 20-20 48t-28 55q-15 27-29 48l2 6h18q21-28 40-62.5t33-62.5q26 28 60 62.5t65 62.5h23l-1-6-48-48q-27-27-52-54.5T367 792h-22z" horiz-adv-x="485" vert-adv-y="1000"/><glyph glyph-name="uni0165" unicode="ť" d="M146-10q-50 0-72.5 24T51 82q0 13 1.5 27.5T58 140l77 363H58l5 22 77 3 34 131h21l-28-131h163l-6-25H161L85 143q-4-17-5.5-31.5T78 84q0-33 16-51t53-18q24 0 42.5 3.5T224 28V3q-16-5-34-9t-44-4m119 607v6q13 16 30.5 44t33 58.5Q344 736 352 757h28v-6q-14-37-41.5-79.5T282 597h-17z" horiz-adv-x="309" vert-adv-y="1000"/><glyph glyph-name="uni0166" unicode="Ŧ" d="m172 0 75 355H85l5 25h162l66 309H93l5 25h478l-5-25H345l-66-309h169l-5-25H274L199 0h-27z" horiz-adv-x="485" vert-adv-y="1000"/><glyph glyph-name="uni0167" unicode="ŧ" d="M146-10q-50 0-72.5 24T51 82q0 13 1.5 27.5T58 140l31 145H17l5 25h72l41 193H58l5 22 77 3 34 131h21l-28-131h163l-6-25H161l-41-193h128l-6-25H115L85 143q-4-17-5.5-31.5T78 84q0-33 16-51t53-18q24 0 42.5 3.5T224 28V3q-16-5-34-9t-44-4z" horiz-adv-x="309" vert-adv-y="1000"/><glyph glyph-name="uni0168" unicode="Ũ" d="M300-10q-96 0-154 49.5T88 183q0 17 2 34t6 37l98 460h27l-97-458q-8-40-8-71 0-83 50-126.5T301 15q101 0 171 60t96 182l98 457h27l-98-462Q566 115 488.5 52.5T300-10m-2 814q13 49 35.5 73.5T395 902q24 0 42.5-11t34-26q15.5-15 30.5-26t31-11q22 0 40.5 14t32.5 60h27q-14-47-37-73t-64-26q-22 0-39.5 11T460 840q-15 15-31 26t-35 11q-20 0-38.5-14T324 804h-26z" horiz-adv-x="692" vert-adv-y="1000"/><glyph glyph-name="uni0169" unicode="ũ" d="M190-10q-65 0-100 33t-35 97q0 29 8 66l72 342h26L88 183q-4-17-5.5-31.5T81 124q0-56 30-82.5T194 15q56 0 105 34t84.5 88.5Q419 192 432 254l58 274h26L404 0h-22l28 139h-2q-16-31-47-66t-74-59q-43-24-97-24m-14 628q13 49 35.5 73.5T273 716q24 0 42.5-11t34-26q15.5-15 30.5-26t31-11q22 0 40.5 14t32.5 60h27q-14-47-37-73t-64-26q-22 0-39.5 11T338 654q-15 15-31 26t-35 11q-20 0-38.5-14T202 618h-26z" horiz-adv-x="553" vert-adv-y="1000"/><glyph glyph-name="uni016A" unicode="Ū" d="M300-10q-96 0-154 49.5T88 183q0 17 2 34t6 37l98 460h27l-97-458q-8-40-8-71 0-83 50-126.5T301 15q101 0 171 60t96 182l98 457h27l-98-462Q566 115 488.5 52.5T300-10m40 810 5 25h242l-5-25H340z" horiz-adv-x="692" vert-adv-y="1000"/><glyph glyph-name="uni016B" unicode="ū" d="M190-10q-65 0-100 33t-35 97q0 29 8 66l72 342h26L88 183q-4-17-5.5-31.5T81 124q0-56 30-82.5T194 15q56 0 105 34t84.5 88.5Q419 192 432 254l58 274h26L404 0h-22l28 139h-2q-16-31-47-66t-74-59q-43-24-97-24m31 624 5 25h242l-5-25H221z" horiz-adv-x="553" vert-adv-y="1000"/><glyph glyph-name="uni016C" unicode="Ŭ" d="M300-10q-96 0-154 49.5T88 183q0 17 2 34t6 37l98 460h27l-97-458q-8-40-8-71 0-83 50-126.5T301 15q101 0 171 60t96 182l98 457h27l-98-462Q566 115 488.5 52.5T300-10m157 802q-46 0-74 24t-28 68q0 12 2 20h26q-3-21 2-41t22-33q17-13 50-13 45 0 70 23.5t38 63.5h26q-16-55-48.5-83.5T457 792z" horiz-adv-x="692" vert-adv-y="1000"/><glyph glyph-name="uni016D" unicode="ŭ" d="M190-10q-65 0-100 33t-35 97q0 29 8 66l72 342h26L88 183q-4-17-5.5-31.5T81 124q0-56 30-82.5T194 15q56 0 105 34t84.5 88.5Q419 192 432 254l58 274h26L404 0h-22l28 139h-2q-16-31-47-66t-74-59q-43-24-97-24m151 616q-46 0-74 24t-28 68q0 12 2 20h26q-3-21 2-41t22-33q17-13 50-13 45 0 70 23.5t38 63.5h26q-16-55-48.5-83.5T341 606z" horiz-adv-x="553" vert-adv-y="1000"/><glyph glyph-name="uni016E" unicode="Ů" d="M300-10q-96 0-154 49.5T88 183q0 17 2 34t6 37l98 460h27l-97-458q-8-40-8-71 0-83 50-126.5T301 15q101 0 171 60t96 182l98 457h27l-98-462Q566 115 488.5 52.5T300-10m156 807q-40 0-70.5 27.5T355 897q0 43 30 71.5t71 28.5q41 0 70.5-29.5T556 897q0-44-29.5-72T456 797m0 24q34 0 55 22.5t21 53.5q0 31-22.5 53.5T456 973q-33 0-55-22.5T379 897q0-31 21.5-53.5T456 821z" horiz-adv-x="692" vert-adv-y="1000"/><glyph glyph-name="uni016F" unicode="ů" d="M190-10q-65 0-100 33t-35 97q0 29 8 66l72 342h26L88 183q-4-17-5.5-31.5T81 124q0-56 30-82.5T194 15q56 0 105 34t84.5 88.5Q419 192 432 254l58 274h26L404 0h-22l28 139h-2q-16-31-47-66t-74-59q-43-24-97-24m160 621q-40 0-70.5 27.5T249 711q0 43 30 71.5t71 28.5q41 0 70.5-29.5T450 711q0-44-29.5-72T350 611m0 24q34 0 55 22.5t21 53.5q0 31-22.5 53.5T350 787q-33 0-55-22.5T273 711q0-31 21.5-53.5T350 635z" horiz-adv-x="553" vert-adv-y="1000"/><glyph glyph-name="uni0170" unicode="Ű" d="M300-10q-96 0-154 49.5T88 183q0 17 2 34t6 37l98 460h27l-97-458q-8-40-8-71 0-83 50-126.5T301 15q101 0 171 60t96 182l98 457h27l-98-462Q566 115 488.5 52.5T300-10m204 802v6q22 20 49.5 48t52 56q24.5 28 38.5 50h30v-7q-26-34-67-77t-81-76h-22m-160 0v6q22 20 49.5 48t52 56q24.5 28 38.5 50h30v-7q-26-34-67-77t-81-76h-22z" horiz-adv-x="692" vert-adv-y="1000"/><glyph glyph-name="uni0171" unicode="ű" d="M190-10q-65 0-100 33t-35 97q0 29 8 66l72 342h26L88 183q-4-17-5.5-31.5T81 124q0-56 30-82.5T194 15q56 0 105 34t84.5 88.5Q419 192 432 254l58 274h26L404 0h-22l28 139h-2q-16-31-47-66t-74-59q-43-24-97-24m202 616v6q22 20 49.5 48t52 56q24.5 28 38.5 50h30v-7q-26-34-67-77t-81-76h-22m-160 0v6q22 20 49.5 48t52 56q24.5 28 38.5 50h30v-7q-26-34-67-77t-81-76h-22z" horiz-adv-x="553" vert-adv-y="1000"/><glyph glyph-name="uni0172" unicode="Ų" d="M300-10q-96 0-154 49.5T88 183q0 17 2 34t6 37l98 460h27l-97-458q-8-40-8-71 0-83 50-126.5T301 15q101 0 171 60t96 182l98 457h27l-98-462Q566 115 488.5 52.5T300-10m0-207q-30 0-49.5 18T231-149q0 35 19.5 64t49 53Q329-8 359 11l15-11q-24-16-51-38t-46.5-49Q257-114 257-147q0-45 46-45 13 0 24.5 2t20.5 5v-24q-9-3-21-5.5t-27-2.5z" horiz-adv-x="692" vert-adv-y="1000"/><glyph glyph-name="uni0173" unicode="ų" d="M190-10q-65 0-100 33t-35 97q0 29 8 66l72 342h26L88 183q-4-17-5.5-31.5T81 124q0-56 30-82.5T194 15q56 0 105 34t84.5 88.5Q419 192 432 254l58 274h26L404 0h-22l28 139h-2q-16-31-47-66t-74-59q-43-24-97-24m140-207q-30 0-49.5 18T261-149q0 35 19.5 64t49 53Q359-8 389 11l15-11q-24-16-51-38t-46.5-49Q287-114 287-147q0-45 46-45 13 0 24.5 2t20.5 5v-24q-9-3-21-5.5t-27-2.5z" horiz-adv-x="553" vert-adv-y="1000"/><glyph glyph-name="uni0174" unicode="Ŵ" d="m160 0-35 714h24l27-543q3-59 3-119h3q12 28 23 53t29 62l263 547h25l36-547q2-28 2.5-59.5T561 48h3q10 27 22 55.5t28 62.5l249 548h28L565 0h-22l-37 580q-2 27-2.5 48.5T503 674h-2q-9-24-16-40.5T470 601L182 0h-22m241 792 1 6q22 20 48.5 47.5t51.5 55q25 27.5 41 48.5h22q7-21 20-48t28-55q15-28 29-48l-2-6h-18q-21 28-40.5 62T549 917q-26-29-59.5-63T424 792h-23z" horiz-adv-x="826" vert-adv-y="1000"/><glyph glyph-name="uni0175" unicode="ŵ" d="M87 0 54 528h26l22-372q2-38 3-64t1-50h2q7 16 13.5 30t16.5 33.5q10 19.5 26 50.5l193 372h20l39-372q4-38 6-64t3-50h2q8 23 19.5 47.5T477 156l177 372h27L430 0h-23l-40 389q-3 25-5 46t-3 48h-1q-13-27-23.5-49T312 389L110 0H87m167 606 1 6q22 20 48.5 47.5t51.5 55q25 27.5 41 48.5h22q7-21 20-48t28-55q15-28 29-48l-2-6h-18q-21 28-40.5 62T402 731q-26-29-59.5-63T277 606h-23z" horiz-adv-x="651" vert-adv-y="1000"/><glyph glyph-name="uni0176" unicode="Ŷ" d="m174 0 57 271L96 714h27l126-413 298 413h31L259 275 201 0h-27m48 792 1 6q22 20 48.5 47.5t51.5 55q25 27.5 41 48.5h22q7-21 20-48t28-55q15-28 29-48l-2-6h-18q-21 28-40.5 62T370 917q-26-29-59.5-63T245 792h-23z" horiz-adv-x="485" vert-adv-y="1000"/><glyph glyph-name="uni0177" unicode="ŷ" d="M-57-243q-36 0-57 10v26q12-5 25.5-8t33.5-3q36 0 65.5 28T74-103L138 7 50 528h26l59-356q7-46 12.5-79t7.5-56h2q11 22 28.5 54.5T228 168l202 360h29L96-115q-34-61-70-94.5T-57-243m201 849 1 6q22 20 48.5 47.5t51.5 55q25 27.5 41 48.5h22q7-21 20-48t28-55q15-28 29-48l-2-6h-18q-21 28-40.5 62T292 731q-26-29-59.5-63T167 606h-23z" horiz-adv-x="410" vert-adv-y="1000"/><glyph glyph-name="uni0178" unicode="Ÿ" d="m174 0 57 271L96 714h27l126-413 298 413h31L259 275 201 0h-27m254 833q-19 0-19 21 0 13 6 27t23 14q20 0 20-21 0-14-6.5-27.5T428 833m-176 0q-19 0-19 21 0 13 6 27t23 14q20 0 20-21 0-14-6.5-27.5T252 833z" horiz-adv-x="485" vert-adv-y="1000"/><glyph glyph-name="uni0179" unicode="Ź" d="m-8 0 3 18 534 671H155l5 25h411l-4-18L34 25h402l-5-25H-8m339 792v6q22 20 49 48t51 56q24 28 39 50h30v-7q-26-34-67-77t-81-76h-21z" horiz-adv-x="538" vert-adv-y="1000"/><glyph glyph-name="uni017A" unicode="ź" d="m-14 0 3 17 402 486H108l6 25h322l-3-15L28 25h313l-5-25H-14m257 606v6q22 20 49 48t51 56q24 28 39 50h30v-7q-26-34-67-77t-81-76h-21z" horiz-adv-x="436" vert-adv-y="1000"/><glyph glyph-name="uni017B" unicode="Ż" d="m-8 0 3 18 534 671H155l5 25h411l-4-18L34 25h402l-5-25H-8m394 845q-23 0-23 22 0 13 7.5 26.5T393 907q12 0 17-7t5-15q0-13-7.5-26.5T386 845z" horiz-adv-x="538" vert-adv-y="1000"/><glyph glyph-name="uni017C" unicode="ż" d="m-14 0 3 17 402 486H108l6 25h322l-3-15L28 25h313l-5-25H-14m317 659q-23 0-23 22 0 13 7.5 26.5T310 721q12 0 17-7t5-15q0-13-7.5-26.5T303 659z" horiz-adv-x="436" vert-adv-y="1000"/><glyph glyph-name="uni017D" unicode="Ž" d="m-8 0 3 18 534 671H155l5 25h411l-4-18L34 25h402l-5-25H-8m369 792q-7 20-20 48t-28 55q-15 27-29 48l2 6h18q21-28 40-62.5t33-62.5q26 28 60 62.5t65 62.5h23l-1-6-48-48q-27-27-52-54.5T383 792h-22z" horiz-adv-x="538" vert-adv-y="1000"/><glyph glyph-name="uni017E" unicode="ž" d="m-14 0 3 17 402 486H108l6 25h322l-3-15L28 25h313l-5-25H-14m283 606q-7 20-20 48t-28 55q-15 27-29 48l2 6h18q21-28 40-62.5t33-62.5q26 28 60 62.5t65 62.5h23l-1-6-48-48q-27-27-52-54.5T291 606h-22z" horiz-adv-x="436" vert-adv-y="1000"/><glyph glyph-name="uni017F" unicode="ſ" d="M-87-240q-13 0-29 3t-23 7v26q9-4 24-7.5t28-3.5q41 0 65 25.5T16-102l154 724q15 71 56 107t103 36q30 0 50.5-5t28.5-8l-8-25q-14 7-33.5 10t-38.5 3q-43 0-69.5-17T217 678.5Q202 651 195 618L41-106Q26-176-4.5-208T-87-240z" horiz-adv-x="264" vert-adv-y="1000"/><glyph glyph-name="uni0192" unicode="ƒ" d="M61-241q-34 0-55 9v27q12-6 27-8.5t29-2.5q38 0 61.5 26t33.5 71l116 543H172l5 22 101 3 22 102q19 86 58 129.5T468 724q23 0 42-4t34-10l-8-24q-31 13-68 13-64 0-95-38t-48-114l-21-98h120l-6-25H299L183-119q-13-63-45.5-92.5T61-241z" horiz-adv-x="550" vert-adv-y="1000"/><glyph glyph-name="uni01FA" unicode="Ǻ" d="M378 846v6q22 20 49 48t51 56q24 28 39 50h30v-7q-26-34-67-77t-81-76h-21M-50 0l378 631q-24 12-39 35t-15 54q0 43 30 71.5t71 28.5q41 0 70.5-29.5T475 720q0-40-24-66.5T392 621L498 0h-25l-49 271H142L-22 0h-28m425 644q34 0 55 22t21 54q0 32-22.5 54T375 796q-33 0-55-22t-22-54q0-32 21.5-54t55.5-22M156 296h264l-43 263q-5 31-8 61l-19 3q-7-12-16.5-29T313 559L156 296z" horiz-adv-x="547" vert-adv-y="1000"/><glyph glyph-name="uni01FB" unicode="ǻ" d="M345 818v6q23 20 49.5 48t51 56q24.5 28 38.5 50h30v-7q-26-34-67-77t-81-76h-21m13-238q-40 0-70.5 27.5T257 680q0 43 30 71.5t71 28.5q41 0 70.5-29.5T458 680q0-44-29.5-72T358 580m0 24q34 0 55 22t21 54q0 32-22.5 54T358 756q-33 0-55-22t-22-54q0-32 21.5-54t55.5-22M197-10q-72 0-109 51.5T51 178q0 61 17 124.5t50.5 117q33.5 53.5 84 86T319 538q47 0 76-20.5t44.5-51Q455 436 460 407h2l27 121h22L399 0h-22l28 139h-2q-17-31-47.5-65.5t-71-59Q244-10 197-10m3 25q46 0 93.5 33t85 89.5Q416 194 430 264q6 31 9 53t3 41q0 74-33 114.5T318 513q-58 0-103-29.5T139.5 405q-30.5-49-46-108.5T78 178q0-75 30-119t92-44z" horiz-adv-x="547" vert-adv-y="1000"/><glyph glyph-name="uni01FC" unicode="Ǽ" d="m-51 0 442 714h426l-5-25H471l-64-300h322l-5-25H402L330 25h341l-5-25H298l57 270H147L-19 0h-32m213 295h198l83 394h-38L162 295m327 497v6q22 20 49 48t51 56q24 28 39 50h30v-7q-26-34-67-77t-81-76h-21z" horiz-adv-x="783" vert-adv-y="1000"/><glyph glyph-name="uni01FD" unicode="ǽ" d="M194-10q-68 0-105.5 51T51 178q0 61 17 124.5t50 117q33 53.5 82.5 86T314 538q46 0 72-22t38-53q12-31 14-56h2l28 121h23l-27-124q37 60 88.5 97T678 538q52 0 87-32t35-81q0-49-26-82t-71.5-52Q657 272 597 264t-128-8h-34q-1-11-2.5-28t-1.5-34q0-84 42-131.5T595 15q40 0 74.5 11T728 48V23q-23-13-60-23t-74-10q-69 0-119.5 37T411 146L380 0h-22l28 133h-2q-16-33-43-66t-63.5-55Q241-10 194-10m3 25q49 0 92 33t75 89.5Q396 194 410 264q7 32 9.5 53t2.5 41q0 74-28.5 114.5T313 513q-56 0-100-29.5T139 405q-30-49-45.5-108.5T78 178q0-76 31-119.5T197 15m242 266h48q83 0 148 15t101.5 46.5Q773 374 773 424q0 35-24.5 62T675 513q-52 0-100.5-27.5T490 406q-36-52-51-125m22 325v6q22 20 49 48t51 56q24 28 39 50h30v-7q-26-34-67-77t-81-76h-21z" horiz-adv-x="842" vert-adv-y="1000"/><glyph glyph-name="uni01FE" unicode="Ǿ" d="M44-26 26-8l98 107q-21 37-30.5 82T84 276q0 82 21 162t63.5 145q42.5 65 108 103.5T431 725q61 0 109-20.5t80-61.5l89 97 19-17-93-102q19-31 30-75.5t11-99.5q0-47-10-107t-33-121q-23-61-62-112.5T473.5 22Q415-10 334-10q-70 0-118.5 23.5T138 77L44-26m99 146 459 503q-27 37-70 57t-103 20q-71 0-124-27t-90-72q-37-45-60-100.5T121.5 387Q111 329 111 277q0-46 7.5-85.5T143 120M335 15q71 0 123.5 29t89 77q36.5 48 59 105T639 340.5Q649 398 649 445q0 95-33 155L156 97q27-38 71.5-60T335 15m99 783v6q22 20 49 48t51 56q24 28 39 50h30v-7q-26-34-67-77t-81-76h-21z" horiz-adv-x="716" vert-adv-y="1000"/><glyph glyph-name="uni01FF" unicode="ǿ" d="M14-29-4-11l85 87q-13 24-19.5 53T55 192q0 105 36.5 182.5t99 120.5Q253 538 331 538q47 0 82-17t57-47l79 81 18-18-83-85q26-49 26-114 0-71-18.5-134t-54-111q-35.5-48-86-75.5T237-10q-51 0-86 17.5T95 54L14-29m86 124 352 361q-19 26-50 41.5T329 513q-70 0-126-39.5T114.5 362Q82 290 82 192q0-28 5-53t13-44m140-80q76 0 130.5 43.5t83.5 117Q483 249 483 339q0 55-18 94L113 73q41-58 127-58m82 591v6q22 20 49 48t51 56q24 28 39 50h30v-7q-26-34-67-77t-81-76h-21z" horiz-adv-x="565" vert-adv-y="1000"/><glyph glyph-name="uni0218" unicode="Ș" d="M198-10Q134-10 92.5 0T19 24v29q35-17 79-27.5T198 15q33 0 69.5 9T336 53q32 20 51.5 52.5T407 184q0 46-20 77t-54.5 54Q298 338 252 360q-34 16-64.5 39T137 454q-20 32-20 77 0 53 20 90t53.5 59.5q33.5 22.5 73.5 33t80 10.5q54 0 91.5-10t73.5-27l-11-25q-40 20-74 28.5t-81 8.5q-29 0-63.5-8T214 664q-31-19-50.5-51T144 532q0-42 18.5-69.5t47-46.5q28.5-19 59.5-35 46-24 83.5-49t59.5-60q22-35 22-88 0-54-22-91t-57.5-59.5Q319 11 278 .5T198-10M93-221v7q26 30 52 71t40 82h23v-10q-15-37-41-78t-57-72H93z" horiz-adv-x="498" vert-adv-y="1000"/><glyph glyph-name="uni0219" unicode="ș" d="M164-10q-52 0-90.5 12.5T12 27v30q30-17 69.5-29.5T165 15q82 0 117.5 34.5T318 136q0 34-16.5 56t-43 38Q232 246 204 261q-33 18-61.5 35.5T97 338q-17 24-17 61 0 49 23.5 79.5t63 45Q206 538 254 538q46 0 82.5-9t62.5-21l-9-25q-26 13-62 21.5t-75 8.5q-62 0-104-26.5T107 401q0-30 15.5-50t41-35.5Q189 300 218 285q32-17 61-35.5t47.5-45Q345 178 345 137t-19-74q-19-33-58.5-53T164-10M56-221v7q26 30 52 71t40 82h23v-10q-15-37-41-78t-57-72H56z" horiz-adv-x="423" vert-adv-y="1000"/><glyph glyph-name="uni02C6" unicode="ˆ" d="m113 606 1 6q22 20 48.5 47.5t51.5 55q25 27.5 41 48.5h22q7-21 20-48t28-55q15-28 29-48l-2-6h-18q-21 28-40.5 62T261 731q-26-29-59.5-63T136 606h-23z" horiz-adv-x="320" vert-adv-y="1000"/><glyph glyph-name="uni02C7" unicode="ˇ" d="M222 606q-7 20-20 48t-28 55q-15 27-29 48l2 6h18q21-28 40-62.5t33-62.5q26 28 60 62.5t65 62.5h23l-1-6-48-48q-27-27-52-54.5T244 606h-22z" horiz-adv-x="320" vert-adv-y="1000"/><glyph glyph-name="uni02C9" unicode="ˉ" d="m115 614 5 25h242l-5-25H115z" horiz-adv-x="323" vert-adv-y="1000"/><glyph glyph-name="uni02D8" unicode="˘" d="M237 606q-46 0-74 24t-28 68q0 12 2 20h26q-3-21 2-41t22-33q17-13 50-13 45 0 70 23.5t38 63.5h26q-16-55-48.5-83.5T237 606z" horiz-adv-x="314" vert-adv-y="1000"/><glyph glyph-name="uni02D9" unicode="˙" d="M153 659q-23 0-23 22 0 13 7.5 26.5T160 721q12 0 17-7t5-15q0-13-7.5-26.5T153 659z" horiz-adv-x="131" vert-adv-y="1000"/><glyph glyph-name="uni02DA" unicode="˚" d="M238 611q-40 0-70.5 27.5T137 711q0 43 30 71.5t71 28.5q41 0 70.5-29.5T338 711q0-44-29.5-72T238 611m0 24q34 0 55 22.5t21 53.5q0 31-22.5 53.5T238 787q-33 0-55-22.5T161 711q0-31 21.5-53.5T238 635z" horiz-adv-x="285" vert-adv-y="1000"/><glyph glyph-name="uni02DB" unicode="˛" d="M24-217q-30 0-49.5 18T-45-149q0 35 19.5 64t49 53Q53-8 83 11L98 0Q74-16 47-38T.5-87Q-19-114-19-147q0-45 46-45 13 0 24.5 2t20.5 5v-24q-9-3-21-5.5T24-217z" horiz-adv-x="213" vert-adv-y="1000"/><glyph glyph-name="uni02DC" unicode="˜" d="M115 618q13 49 35.5 73.5T212 716q24 0 42.5-11t34-26q15.5-15 30.5-26t31-11q22 0 40.5 14t32.5 60h27q-14-47-37-73t-64-26q-22 0-39.5 11T277 654q-15 15-31 26t-35 11q-20 0-38.5-14T141 618h-26z" horiz-adv-x="394" vert-adv-y="1000"/><glyph glyph-name="uni02DD" unicode="˝" d="M274 606v6q22 20 49.5 48t52 56q24.5 28 38.5 50h30v-7q-26-34-67-77t-81-76h-22m-160 0v6q22 20 49.5 48t52 56q24.5 28 38.5 50h30v-7q-26-34-67-77t-81-76h-22z" horiz-adv-x="379" vert-adv-y="1000"/><glyph glyph-name="uni0384" unicode="΄" d="M325 606v7q15 25 32.5 58.5t33 69Q406 776 417 807h27v-9q-12-30-29-65t-36-68q-19-33-36-59h-18z" horiz-adv-x="542" vert-adv-y="1000"/><glyph glyph-name="uni0385" unicode="΅" d="M255 670v7q20 35 38 78.5t30 82.5h27v-9q-14-37-34-80.5T273 670h-18m-86-22q-19 0-19 21 0 13 6 27t23 14q20 0 20-21 0-13-6.5-27T169 648m196 0q-19 0-19 21 0 13 6 27t23 14q20 0 20-21 0-13-6.5-27T365 648z" horiz-adv-x="373" vert-adv-y="1000"/><glyph glyph-name="uni0386" unicode="Ά" d="m-50 0 418 716h24L498 0h-25l-41 271H138L-20 0h-30m202 296h276l-43 298q-6 39-11 88h-2q-11-22-23.5-44.5T324 594L152 296M95 514v7q15 25 32.5 58.5t33 69Q176 684 187 715h27v-9q-12-30-29-65t-36-68q-19-33-36-59H95z" horiz-adv-x="547" vert-adv-y="1000"/><glyph glyph-name="uni0387" unicode="·" d="M113 314q-23 0-23 22 0 14 7.5 27t22.5 13q12 0 17-7t5-15q0-14-7.5-27T113 314z" horiz-adv-x="227" vert-adv-y="1000"/><glyph glyph-name="uni0388" unicode="Έ" d="m97 0 151 714h358l-5-25H270l-64-300h312l-5-25H201L129 25h331l-5-25H97M48 514v7q15 25 32.5 58.5t33 69Q129 684 140 715h27v-9q-12-30-29-65t-36-68q-19-33-36-59H48z" horiz-adv-x="582" vert-adv-y="1000"/><glyph glyph-name="uni0389" unicode="Ή" d="m97 0 151 714h27l-69-326h421l69 326h27L572 0h-27l77 363H201L124 0H97M48 514v7q15 25 32.5 58.5t33 69Q129 684 140 715h27v-9q-12-30-29-65t-36-68q-19-33-36-59H48z" horiz-adv-x="728" vert-adv-y="1000"/><glyph glyph-name="uni038A" unicode="Ί" d="m95 0 4 20 66 3 142 667-65 4 4 20h158l-4-20-67-4L191 23l66-3-4-20H95M48 514v7q15 25 32.5 58.5t33 69Q129 684 140 715h27v-9q-12-30-29-65t-36-68q-19-33-36-59H48z" horiz-adv-x="366" vert-adv-y="1000"/><glyph glyph-name="uni038C" unicode="Ό" d="M359-10q-92 0-147 39t-79 104q-24 65-24 143 0 82 21 162t63.5 145q42.5 65 108 103.5T456 725q111 0 178-68.5T701 446q0-47-10-107t-33-121q-23-61-62-112.5T498.5 22Q440-10 359-10m1 25q71 0 123.5 29t89 77q36.5 48 59 105T664 340.5Q674 398 674 445q0 118-53.5 186.5T454 700q-71 0-124-27t-90-72q-37-45-60-100.5T146.5 387Q136 329 136 277q0-77 23-136t72.5-92.5Q281 15 360 15M48 514v7q15 25 32.5 58.5t33 69Q129 684 140 715h27v-9q-12-30-29-65t-36-68q-19-33-36-59H48z" horiz-adv-x="741" vert-adv-y="1000"/><glyph glyph-name="uni038E" unicode="Ύ" d="m310 0 57 271-135 443h27l126-413 298 413h31L395 275 337 0h-27M40 514v7q15 25 32.5 58.5t33 69Q121 684 132 715h27v-9q-12-30-29-65t-36-68q-19-33-36-59H40z" horiz-adv-x="621" vert-adv-y="1000"/><glyph glyph-name="uni038F" unicode="Ώ" d="M48 514v7q15 25 32.5 58.5t33 69Q129 684 140 715h27v-9q-12-30-29-65t-36-68q-19-33-36-59H48M17 0l5 25h219q-57 41-94 112.5T110 304q0 88 26.5 164.5T212 603q49 58 117.5 90T482 725q76 0 134-30.5t90.5-89.5Q739 546 739 462q0-142-69.5-254.5T466 25h210l-5-25H413l4 23q137 65 216 174.5T712 462q0 115-62.5 176.5T481 700q-78 0-141.5-30.5T231 585q-45-54-69.5-126T137 304q0-97 38.5-166.5T277 23l-4-23H17z" horiz-adv-x="777" vert-adv-y="1000"/><glyph glyph-name="uni0390" unicode="ΐ" d="M144-10q-99 0-99 99 0 12 2 25t5 28l82 386h26L79 144q-3-15-5-28.5T72 91q0-38 20-57t55-19q16 0 32 2t28 5V-2q-11-3-29.5-5.5T144-10m29 680v7q20 35 38 78.5t30 82.5h27v-9q-14-37-34-80.5T191 670h-18m-86-22q-19 0-19 21 0 13 6 27t23 14q20 0 20-21 0-13-6.5-27T87 648m196 0q-19 0-19 21 0 13 6 27t23 14q20 0 20-21 0-13-6.5-27T283 648z" horiz-adv-x="279" vert-adv-y="1000"/><glyph glyph-name="uni0391" unicode="Α" d="m-50 0 418 716h24L498 0h-25l-41 271H138L-20 0h-30m202 296h276l-43 298q-6 39-11 88h-2q-11-22-23.5-44.5T324 594L152 296z" horiz-adv-x="547" vert-adv-y="1000"/><glyph glyph-name="uni0392" unicode="Β" d="m50 0 151 714h181q104 0 151-38.5T580 571q0-80-45-130.5T410 376l-1-2q59-14 89-52.5t30-98.5q0-77-38-126.5t-103-73Q322 0 240 0H50m109 388h163q103 0 167 44t64 139q0 118-177 118H223l-64-301M82 25h170q66 0 123 20t91.5 63.5Q501 152 501 223q0 76-50.5 108T314 363H154L82 25z" horiz-adv-x="598" vert-adv-y="1000"/><glyph glyph-name="uni0393" unicode="Γ" d="m50 0 151 714h369l-5-25H223L77 0H50z" horiz-adv-x="479" vert-adv-y="1000"/><glyph glyph-name="uni0395" unicode="Ε" d="m50 0 151 714h358l-5-25H223l-64-300h312l-5-25H154L82 25h331l-5-25H50z" horiz-adv-x="535" vert-adv-y="1000"/><glyph glyph-name="uni0396" unicode="Ζ" d="m-8 0 3 18 534 671H155l5 25h411l-4-18L34 25h402l-5-25H-8z" horiz-adv-x="538" vert-adv-y="1000"/><glyph glyph-name="uni0397" unicode="Η" d="m50 0 151 714h27l-69-326h421l69 326h27L525 0h-27l77 363H154L77 0H50z" horiz-adv-x="681" vert-adv-y="1000"/><glyph glyph-name="uni0398" unicode="Θ" d="M334-10q-92 0-147 39t-79 104q-24 65-24 143 0 82 21 162t63.5 145q42.5 65 108 103.5T431 725q111 0 178-68.5T676 446q0-47-10-107t-33-121q-23-61-62-112.5T473.5 22Q415-10 334-10m1 25q71 0 123.5 29t89 77q36.5 48 59 105T639 340.5Q649 398 649 445q0 118-53.5 186.5T429 700q-71 0-124-27t-90-72q-37-45-60-100.5T121.5 387Q111 329 111 277q0-77 23-136t72.5-92.5Q256 15 335 15M218 348l4 25h313l-5-25H218z" horiz-adv-x="716" vert-adv-y="1000"/><glyph glyph-name="uni0399" unicode="Ι" d="m8 0 4 20 66 3 142 667-65 4 4 20h158l-4-20-67-4L104 23l66-3-4-20H8z" horiz-adv-x="279" vert-adv-y="1000"/><glyph glyph-name="uni039A" unicode="Κ" d="m50 0 151 714h27l-83-390 57 52 390 338h37L283 414 484 0h-30L262 396 138 291 77 0H50z" horiz-adv-x="543" vert-adv-y="1000"/><glyph glyph-name="uni039B" unicode="Λ" d="m-50 0 418 716h24L498 0h-25l-85 573q-4 25-8.5 55.5T372 682q-23-46-62-112L-21 0h-29z" horiz-adv-x="547" vert-adv-y="1000"/><glyph glyph-name="uni039C" unicode="Μ" d="m50 0 151 714h38L357 47h3l399 667h42L650 0h-26l127 602q3 15 7.5 33t10.5 43h-2L360 0h-20L220 679h-2q-4-25-7-42t-8-40L77 0H50z" horiz-adv-x="806" vert-adv-y="1000"/><glyph glyph-name="uni039D" unicode="Ν" d="m50 0 151 714h19L503 54h2q7 39 15 80.5t16 76.5l107 503h26L518 0h-20L216 659h-2q-9-43-16-80t-15-77L77 0H50z" horiz-adv-x="674" vert-adv-y="1000"/><glyph glyph-name="uni039E" unicode="Ξ" d="m154 689 5 25h394l-5-25H154m-22-325 5 25h302l-5-25H132M0 0l4 25h404l-5-25H0z" horiz-adv-x="517" vert-adv-y="1000"/><glyph glyph-name="uni039F" unicode="Ο" d="M334-10q-92 0-147 39t-79 104q-24 65-24 143 0 82 21 162t63.5 145q42.5 65 108 103.5T431 725q111 0 178-68.5T676 446q0-47-10-107t-33-121q-23-61-62-112.5T473.5 22Q415-10 334-10m1 25q71 0 123.5 29t89 77q36.5 48 59 105T639 340.5Q649 398 649 445q0 118-53.5 186.5T429 700q-71 0-124-27t-90-72q-37-45-60-100.5T121.5 387Q111 329 111 277q0-77 23-136t72.5-92.5Q256 15 335 15z" horiz-adv-x="716" vert-adv-y="1000"/><glyph glyph-name="uni03A0" unicode="Π" d="m50 0 151 714h455L505 0h-27l146 689H223L77 0H50z" horiz-adv-x="661" vert-adv-y="1000"/><glyph glyph-name="uni03A1" unicode="Ρ" d="m50 0 151 714h155q98 0 150-44.5T558 538q0-68-29.5-120.5T438 335q-61-30-156-30H141L77 0H50m97 330h139q86 0 140.5 26.5t79.5 73Q531 476 531 537q0 79-47 115.5T351 689H223l-76-359z" horiz-adv-x="558" vert-adv-y="1000"/><glyph glyph-name="uni03A3" unicode="Σ" d="m-8 0 4 25 331 336-180 330 5 23h403l-5-25H176l182-332L31 25h403l-5-25H-8z" horiz-adv-x="533" vert-adv-y="1000"/><glyph glyph-name="uni03A4" unicode="Τ" d="m172 0 146 689H93l5 25h478l-5-25H345L199 0h-27z" horiz-adv-x="485" vert-adv-y="1000"/><glyph glyph-name="uni03A5" unicode="Υ" d="m174 0 57 271L96 714h27l126-413 298 413h31L259 275 201 0h-27z" horiz-adv-x="485" vert-adv-y="1000"/><glyph glyph-name="uni03A6" unicode="Φ" d="m288-10 24 109q-66 5-119 31t-84.5 74Q77 252 77 324q0 110 45.5 178T247 602q79 32 179 35l18 87h26l-18-88q68-4 122.5-27t85.5-68.5Q691 495 691 426q0-105-44.5-177T523 138.5Q444 100 338 98L315-10h-27m29 134 104 488q-87-2-159-30t-115-91q-43-63-43-166 0-65 28.5-108t77-66Q258 128 317 124m26-1q91 3 163.5 37t115 100.5Q664 327 664 425q0 61-28 101t-77 61q-49 21-112 25L343 123z" horiz-adv-x="722" vert-adv-y="1000"/><glyph glyph-name="uni03A7" unicode="Χ" d="m-59 0 310 372-135 342h27l126-324 264 324h31L281 369 430 0h-27L262 350-27 0h-32z" horiz-adv-x="489" vert-adv-y="1000"/><glyph glyph-name="uni03A8" unicode="Ψ" d="m292 0 47 223h-5q-60 0-110.5 17T143 296q-30 39-30 106 0 35 9 80l49 232h26l-49-234q-9-44-9-77 0-82 53.5-118.5T339 248h5l99 466h27l-99-467h5q124 4 194.5 57.5T667 482l49 232h27l-50-237q-21-99-66-153t-110-77q-65-23-146-25h-5L319 0h-27z" horiz-adv-x="730" vert-adv-y="1000"/><glyph glyph-name="uni03AA" unicode="Ϊ" d="m8 0 4 20 66 3 142 667-65 4 4 20h158l-4-20-67-4L104 23l66-3-4-20H8m335 833q-19 0-19 21 0 13 6 27t23 14q20 0 20-21 0-14-6.5-27.5T343 833m-176 0q-19 0-19 21 0 13 6 27t23 14q20 0 20-21 0-14-6.5-27.5T167 833z" horiz-adv-x="279" vert-adv-y="1000"/><glyph glyph-name="uni03AB" unicode="Ϋ" d="m174 0 57 271L96 714h27l126-413 298 413h31L259 275 201 0h-27m254 833q-19 0-19 21 0 13 6 27t23 14q20 0 20-21 0-14-6.5-27.5T428 833m-176 0q-19 0-19 21 0 13 6 27t23 14q20 0 20-21 0-14-6.5-27.5T252 833z" horiz-adv-x="485" vert-adv-y="1000"/><glyph glyph-name="uni03AC" unicode="ά" d="M195-10q-67 0-105.5 50T51 181q0 57 16.5 119T117 416q33 54 83 88t118 34q64 0 99-39t43-92h2q4 17 12 39.5t18 44.5q10 22 22 37h23q-21-33-35.5-74T472 345l-47-227q-3-14-5-29t-2-28q0-25 11.5-35.5T457 15q17 0 34 6V-2q-14-8-35-8-42 0-57.5 35t6.5 114h-2q-15-29-43.5-64T290 15q-41-25-95-25m4 25q47 0 92.5 29.5t81 81Q408 177 424 244q9 38 13.5 69t4.5 47q0 77-35.5 115T318 513q-61 0-106-31t-75-81q-30-50-44.5-108T78 181q0-79 30.5-122.5T199 15m126 591v7q15 25 32.5 58.5t33 69Q406 776 417 807h27v-9q-12-30-29-65t-36-68q-19-33-36-59h-18z" horiz-adv-x="542" vert-adv-y="1000"/><glyph glyph-name="uni03AD" unicode="έ" d="M187-10q-83 0-122 39.5T26 125q0 69 39.5 108T171 283l1 2q-35 12-54.5 38.5T98 384q0 60 28.5 93.5t73 47Q244 538 292 538q43 0 77.5-7.5T434 508l-9-24q-25 13-60 21t-73 8q-48 0-85.5-12.5T147 460q-22-28-22-75 0-41 32-66t109-25h51l-5-25h-57q-98 0-150-33.5T53 125q0-49 33.5-79.5T188 15q43 0 79.5 8T341 45V20Q316 9 275.5-.5T187-10m96 616v7q15 25 32.5 58.5t33 69Q364 776 375 807h27v-9q-12-30-29-65t-36-68q-19-33-36-59h-18z" horiz-adv-x="425" vert-adv-y="1000"/><glyph glyph-name="uni03AE" unicode="ή" d="m336-240 124 585q4 17 5.5 31.5T467 404q0 56-30 82.5T354 513q-56 0-105-34t-84.5-88.5Q129 336 116 274L58 0H32l112 528h22l-28-139h2q16 31 47 66t74 59q43 24 97 24 65 0 100-33t35-97q0-29-8-66L362-240h-26m-3 846v7q15 25 32.5 58.5t33 69Q414 776 425 807h27v-9q-12-30-29-65t-36-68q-19-33-36-59h-18z" horiz-adv-x="553" vert-adv-y="1000"/><glyph glyph-name="uni03AF" unicode="ί" d="M144-10q-99 0-99 99 0 12 2 25t5 28l82 386h26L79 144q-3-15-5-28.5T72 91q0-38 20-57t55-19q16 0 32 2t28 5V-2q-11-3-29.5-5.5T144-10m13 616v7q15 25 32.5 58.5t33 69Q238 776 249 807h27v-9q-12-30-29-65t-36-68q-19-33-36-59h-18z" horiz-adv-x="279" vert-adv-y="1000"/><glyph glyph-name="uni03B0" unicode="ΰ" d="M225-10q-75 0-118.5 40.5T63 150q0 18 2.5 39t7.5 44l62 295h26L99 235q-9-43-9-85 0-70 37-102.5T228 15q64 0 108.5 33t72 88Q436 191 451 258.5T471.5 396q5.5 70 5.5 132h25q0-69-6-143.5t-22.5-145Q457 169 426 113t-80-89.5Q297-10 225-10m102 680v7q20 35 38 78.5t30 82.5h27v-9q-14-37-34-80.5T345 670h-18m-86-22q-19 0-19 21 0 13 6 27t23 14q20 0 20-21 0-13-6.5-27T241 648m196 0q-19 0-19 21 0 13 6 27t23 14q20 0 20-21 0-13-6.5-27T437 648z" horiz-adv-x="559" vert-adv-y="1000"/><glyph glyph-name="uni03B1" unicode="α" d="M195-10q-67 0-105.5 50T51 181q0 57 16.5 119T117 416q33 54 83 88t118 34q64 0 99-39t43-92h2q4 17 12 39.5t18 44.5q10 22 22 37h23q-21-33-35.5-74T472 345l-47-227q-3-14-5-29t-2-28q0-25 11.5-35.5T457 15q17 0 34 6V-2q-14-8-35-8-42 0-57.5 35t6.5 114h-2q-15-29-43.5-64T290 15q-41-25-95-25m4 25q47 0 92.5 29.5t81 81Q408 177 424 244q9 38 13.5 69t4.5 47q0 77-35.5 115T318 513q-61 0-106-31t-75-81q-30-50-44.5-108T78 181q0-79 30.5-122.5T199 15z" horiz-adv-x="542" vert-adv-y="1000"/><glyph glyph-name="uni03B2" unicode="β" d="m-17-232 164 772q23 111 82 168t160 57q52 0 90.5-22.5t60-60.5q21.5-38 21.5-86 0-58-22-99t-59.5-65Q442 408 396 400q49-13 82-54t33-115q0-75-33.5-129T387 19q-57-29-130-29-52 0-101 17.5T69 55L9-232h-26M257 15q63 0 114.5 25.5t82 73.5Q484 162 484 231q0 74-42 116t-119 42h-53l5 25h55q56 0 102 19t74 59q28 40 28 103 0 61-38.5 103T387 740q-92 0-143-53t-72-150L75 81q35-30 82.5-48T257 15z" horiz-adv-x="579" vert-adv-y="1000"/><glyph glyph-name="uni03B3" unicode="γ" d="M35-240q9 43 24.5 88.5t34 87.5Q112-22 130 10L49 528h26l60-390q4-23 7-49t6-49h2q13 25 27.5 51.5T207 144l222 384h29L176 42q-42-72-70.5-145T61-240H35z" horiz-adv-x="427" vert-adv-y="1000"/><glyph glyph-name="uni03B4" unicode="δ" d="M221-10q-80 0-131.5 48.5T38 173q0 217 270 297-47 33-72.5 66T210 613q0 76 52.5 115.5T397 768q42 0 81-10t80-36l-14-22q-36 23-71 33t-77 10q-72 0-115.5-32.5T237 614q0-42 26.5-72t76.5-64q38-26 69.5-56.5t50.5-69q19-38.5 19-89.5 0-85-35-146t-93.5-94Q292-10 221-10m2 25q69 0 120.5 34t80 90.5Q452 196 452 262q0 63-33 109.5T330 452q-75-20-135-56t-95-91q-35-55-35-131 0-78 46-118.5T223 15z" horiz-adv-x="539" vert-adv-y="1000"/><glyph glyph-name="uni03B5" unicode="ε" d="M187-10q-83 0-122 39.5T26 125q0 69 39.5 108T171 283l1 2q-35 12-54.5 38.5T98 384q0 60 28.5 93.5t73 47Q244 538 292 538q43 0 77.5-7.5T434 508l-9-24q-25 13-60 21t-73 8q-48 0-85.5-12.5T147 460q-22-28-22-75 0-41 32-66t109-25h51l-5-25h-57q-98 0-150-33.5T53 125q0-49 33.5-79.5T188 15q43 0 79.5 8T341 45V20Q316 9 275.5-.5T187-10z" horiz-adv-x="425" vert-adv-y="1000"/><glyph glyph-name="uni03B6" unicode="ζ" d="M217-197q39 39 59.5 68T297-67q0 34-25.5 50.5T191 17q-47 15-79.5 36t-50 54Q44 140 44 192q0 63 22 123t70.5 123q48.5 63 128 135.5T460 736q-28-1-51.5-1H181l5 25h320l-5-22q-107-84-187-154T179.5 451Q125 388 98 325T71 193q0-47 15-75t43.5-45Q158 56 198 42q58-20 92-40.5T324-64q0-40-21.5-71T250-197h-33z" horiz-adv-x="434" vert-adv-y="1000"/><glyph glyph-name="uni03B7" unicode="η" d="m336-240 124 585q4 17 5.5 31.5T467 404q0 56-30 82.5T354 513q-56 0-105-34t-84.5-88.5Q129 336 116 274L58 0H32l112 528h22l-28-139h2q16 31 47 66t74 59q43 24 97 24 65 0 100-33t35-97q0-29-8-66L362-240h-26z" horiz-adv-x="553" vert-adv-y="1000"/><glyph glyph-name="uni03B8" unicode="θ" d="M207-10Q55-10 55 200q0 41 5.5 90T78 397q40 194 114.5 286T367 775q75 0 115-50.5T522 571q0-37-5.5-82T500 392Q454 184 384 87T207-10M106 407h371q10 47 14.5 88t4.5 76q0 179-131 179-89 0-154.5-85.5T106 407M209 15q181 0 262 367H101q-11-52-15.5-98T81 200Q81 15 209 15z" horiz-adv-x="535" vert-adv-y="1000"/><glyph glyph-name="uni03B9" unicode="ι" d="M144-10q-99 0-99 99 0 12 2 25t5 28l82 386h26L79 144q-3-15-5-28.5T72 91q0-38 20-57t55-19q16 0 32 2t28 5V-2q-11-3-29.5-5.5T144-10z" horiz-adv-x="279" vert-adv-y="1000"/><glyph glyph-name="uni03BA" unicode="κ" d="m32 0 112 528h26l-31-144q-11-49-20.5-92.5T98 204h1l345 324h33L232 298 384 0h-29L213 281 94 172 58 0H32z" horiz-adv-x="439" vert-adv-y="1000"/><glyph glyph-name="uni03BB" unicode="λ" d="M399-8q-27 0-40 17.5T341 60l-47 366q-2 20-5 39t-4 41q-11-21-21-39.5T244 432L-14 0h-31l325 540-14 106q-8 54-24 74.5T195 741q-12 0-23-2t-20-4l-5 25q9 2 23 4t28 2q43 0 64.5-27t29.5-89l76-586q4-27 12.5-37T403 17q7 0 14 1.5t11 2.5V-3q-13-5-29-5z" horiz-adv-x="456" vert-adv-y="1000"/><glyph glyph-name="uni03BD" unicode="ν" d="M127 0 55 528h26l61-462q2-10 2.5-19t1.5-19q112 88 190 210.5T449 528h26q-37-174-117-302T148 0h-21z" horiz-adv-x="473" vert-adv-y="1000"/><glyph glyph-name="uni03BE" unicode="ξ" d="M225-197q29 34 45 57t21.5 40.5Q297-82 297-63q0 29-24.5 47.5T184 18Q114 34 74.5 68.5T35 173q0 67 29.5 114.5t76 76Q187 392 239 403v2q-44 9-72 39t-28 80q0 48 20 84t52.5 61.5q32.5 25.5 71.5 42t78 25.5q-26-1-48-1.5t-61-.5h-71l5 25h309l-5-25h-13q-30 0-70.5-6.5t-82-21Q283 693 247 668.5t-58.5-60Q166 573 166 524q0-56 42-82.5T327 415h63l-6-25h-60q-66 0-126-23t-98-71q-38-48-38-122 0-64 37-92t98-41q64-14 95-38t31-66q0-35-17-66t-50-68h-31z" horiz-adv-x="428" vert-adv-y="1000"/><glyph glyph-name="uni03BF" unicode="ο" d="M237-10q-92 0-137 56.5T55 192q0 105 36.5 182.5t99 120.5Q253 538 331 538q59 0 98.5-26t60-71Q510 396 510 338q0-71-18.5-134t-54-111q-35.5-48-86-75.5T237-10m3 25q76 0 130.5 43.5t83.5 117Q483 249 483 339q0 76-38.5 125T329 513q-70 0-126-39.5T114.5 362Q82 290 82 192q0-81 39.5-129T240 15z" horiz-adv-x="565" vert-adv-y="1000"/><glyph glyph-name="uni03C0" unicode="π" d="M436-10q-68 0-68 68 0 14 6 42l86 403H197L90 0H64l107 503H69l5 24 82 1h439l-5-25H486l-86-403q-2-11-3.5-20.5T395 62q0-47 45-47 14 0 23 2t16 4V-3q-8-3-18.5-5T436-10z" horiz-adv-x="574" vert-adv-y="1000"/><glyph glyph-name="uni03C1" unicode="ρ" d="M-18-232 91 283q27 128 84.5 191.5T332 538q80 0 124.5-50T501 346q0-58-16-120t-49-115.5q-33-53.5-85.5-87T226-10q-56 0-96.5 19T66 52Q60 19 54.5-9T44-62L8-232h-26M227 15q63 0 109.5 30t77 79.5Q444 174 459 232t15 114q0 81-37 124t-107 43q-90 0-141-60.5T114 274L73 76q25-27 64-44t90-17z" horiz-adv-x="556" vert-adv-y="1000"/><glyph glyph-name="uni03C2" unicode="ς" d="M229-197q15 17 31.5 38t28.5 45q12 24 12 51 0 32-26.5 48.5T199 17Q126 39 90.5 84T55 205q0 66 18.5 126T127 437.5q35 46.5 86 73.5t115 27q34 0 67.5-6t57.5-18l-11-25q-25 13-56 18.5t-58 5.5q-75 0-130-41.5T112.5 360Q82 290 82 205q0-65 30.5-105T208 41q52-16 85.5-37.5T327-62q0-40-19.5-72T260-197h-31z" horiz-adv-x="440" vert-adv-y="1000"/><glyph glyph-name="uni03C3" unicode="σ" d="M242-10q-93 0-140 56T55 190q0 94 38.5 170.5t111.5 122Q278 528 382 528h204l-6-25H458q17-35 28.5-81t11.5-95q0-91-30-168T381 36q-57-46-139-46m2 25q56 0 98.5 25t71 69q28.5 44 43 100T471 327q0 47-10.5 92.5T429 503h-48q-92 0-159-39T118.5 354.5Q82 284 82 191q0-79 41-127.5T244 15z" horiz-adv-x="559" vert-adv-y="1000"/><glyph glyph-name="uni03C4" unicode="τ" d="M220-9q-57 0-81 26.5T115 90q0 27 8 64l74 349H58l5 23 71 2h292l-6-25H223l-74-349q-4-17-5.5-32T142 94q0-78 80-78 19 0 38.5 3T297 29V3q-14-5-34.5-8.5T220-9z" horiz-adv-x="406" vert-adv-y="1000"/><glyph glyph-name="uni03C5" unicode="υ" d="M225-10q-75 0-118.5 40.5T63 150q0 18 2.5 39t7.5 44l62 295h26L99 235q-9-43-9-85 0-70 37-102.5T228 15q64 0 108.5 33t72 88Q436 191 451 258.5T471.5 396q5.5 70 5.5 132h25q0-69-6-143.5t-22.5-145Q457 169 426 113t-80-89.5Q297-10 225-10z" horiz-adv-x="559" vert-adv-y="1000"/><glyph glyph-name="uni03C6" unicode="φ" d="m189-232 47 221Q142-4 95.5 54T49 202q0 105 41 188.5T206 535l17-17q-42-36-75.5-80.5T95 335.5Q76 278 76 202q0-84 42-133.5T240 14l79 360q18 83 49.5 123.5T463 538q62 0 92.5-50T586 359q0-74-21.5-140.5t-63-118.5q-41.5-52-102-82T262-12l-47-220h-26m77 245q70 0 124.5 28.5t92 77.5q37.5 49 57 111T559 359q0 69-24 111.5T460 513q-46 0-72-31.5T345 375L266 13z" horiz-adv-x="630" vert-adv-y="1000"/><glyph glyph-name="uni03C7" unicode="χ" d="m-91-240 280 402-51 298q-5 28-15 40t-26 12q-11 0-19.5-2T61 505v24q7 3 17.5 5.5T102 537q28 0 42-20.5t19-49.5l47-283 238 344h32L221 157l44-280q7-48 19.5-70t37.5-22q10 0 17 1.5t15 3.5v-24q-7-2-15.5-4t-19.5-2q-40 0-55 28t-23 81l-42 265-258-374h-32z" horiz-adv-x="472" vert-adv-y="1000"/><glyph glyph-name="uni03C8" unicode="ψ" d="M208-240 258-5q-93 5-143 52.5T65 182q0 22 2.5 42.5T75 267l55 261h26l-55-258q-5-21-7.5-43T91 184Q91 28 264 20l157 739h26L290 20q79 0 133.5 29.5t89.5 81q35 51.5 54 117T593 385q7 72 7 143h26q0-77-8.5-153.5t-29.5-145q-21-68.5-59.5-121t-98.5-83Q370-5 284-5l-50-235h-26z" horiz-adv-x="677" vert-adv-y="1000"/><glyph glyph-name="uni03C9" unicode="ω" d="M175-10q-61 0-93.5 40T49 153q0 102 35.5 197T181 528h28q-60-86-96.5-178T76 155q0-73 26-106.5T177 15q53 0 86.5 41.5T313 171l36 167h26l-36-167q-4-17-5.5-31.5T332 112q0-46 22-71.5T419 15q45 0 78 24t55 64q22 40 35 88t19 97q6 49 6 90 0 39-3 77.5t-9 72.5h26q5-33 9-70t4-80q0-41-6-92.5t-20.5-103Q598 131 573 87t-63-70.5Q472-10 418-10q-52 0-79 29t-29 74q-19-47-52.5-75T175-10z" horiz-adv-x="690" vert-adv-y="1000"/><glyph glyph-name="uni03CA" unicode="ϊ" d="M144-10q-99 0-99 99 0 12 2 25t5 28l82 386h26L79 144q-3-15-5-28.5T72 91q0-38 20-57t55-19q16 0 32 2t28 5V-2q-11-3-29.5-5.5T144-10m121 657q-19 0-19 21 0 13 6 27t23 14q20 0 20-21 0-14-6.5-27.5T265 647m-176 0q-19 0-19 21 0 13 6 27t23 14q20 0 20-21 0-14-6.5-27.5T89 647z" horiz-adv-x="279" vert-adv-y="1000"/><glyph glyph-name="uni03CB" unicode="ϋ" d="M225-10q-75 0-118.5 40.5T63 150q0 18 2.5 39t7.5 44l62 295h26L99 235q-9-43-9-85 0-70 37-102.5T228 15q64 0 108.5 33t72 88Q436 191 451 258.5T471.5 396q5.5 70 5.5 132h25q0-69-6-143.5t-22.5-145Q457 169 426 113t-80-89.5Q297-10 225-10m197 657q-19 0-19 21 0 13 6 27t23 14q20 0 20-21 0-14-6.5-27.5T422 647m-176 0q-19 0-19 21 0 13 6 27t23 14q20 0 20-21 0-14-6.5-27.5T246 647z" horiz-adv-x="559" vert-adv-y="1000"/><glyph glyph-name="uni03CC" unicode="ό" d="M237-10q-92 0-137 56.5T55 192q0 105 36.5 182.5t99 120.5Q253 538 331 538q59 0 98.5-26t60-71Q510 396 510 338q0-71-18.5-134t-54-111q-35.5-48-86-75.5T237-10m3 25q76 0 130.5 43.5t83.5 117Q483 249 483 339q0 76-38.5 125T329 513q-70 0-126-39.5T114.5 362Q82 290 82 192q0-81 39.5-129T240 15m83 591v7q15 25 32.5 58.5t33 69Q404 776 415 807h27v-9q-12-30-29-65t-36-68q-19-33-36-59h-18z" horiz-adv-x="565" vert-adv-y="1000"/><glyph glyph-name="uni03CD" unicode="ύ" d="M225-10q-75 0-118.5 40.5T63 150q0 18 2.5 39t7.5 44l62 295h26L99 235q-9-43-9-85 0-70 37-102.5T228 15q64 0 108.5 33t72 88Q436 191 451 258.5T471.5 396q5.5 70 5.5 132h25q0-69-6-143.5t-22.5-145Q457 169 426 113t-80-89.5Q297-10 225-10m94 616v7q15 25 32.5 58.5t33 69Q400 776 411 807h27v-9q-12-30-29-65t-36-68q-19-33-36-59h-18z" horiz-adv-x="559" vert-adv-y="1000"/><glyph glyph-name="uni03CE" unicode="ώ" d="M175-10q-61 0-93.5 40T49 153q0 102 35.5 197T181 528h28q-60-86-96.5-178T76 155q0-73 26-106.5T177 15q53 0 86.5 41.5T313 171l36 167h26l-36-167q-4-17-5.5-31.5T332 112q0-46 22-71.5T419 15q45 0 78 24t55 64q22 40 35 88t19 97q6 49 6 90 0 39-3 77.5t-9 72.5h26q5-33 9-70t4-80q0-41-6-92.5t-20.5-103Q598 131 573 87t-63-70.5Q472-10 418-10q-52 0-79 29t-29 74q-19-47-52.5-75T175-10m232 616v7q15 25 32.5 58.5t33 69Q488 776 499 807h27v-9q-12-30-29-65t-36-68q-19-33-36-59h-18z" horiz-adv-x="690" vert-adv-y="1000"/><glyph glyph-name="uni0401" unicode="Ё" d="m50 0 151 714h358l-5-25H223l-64-300h312l-5-25H154L82 25h331l-5-25H50m447 833q-19 0-19 21 0 13 6 27t23 14q20 0 20-21 0-14-6.5-27.5T497 833m-176 0q-19 0-19 21 0 13 6 27t23 14q20 0 20-21 0-14-6.5-27.5T321 833z" horiz-adv-x="535" vert-adv-y="1000"/><glyph glyph-name="uni0402" unicode="Ђ" d="M356-10q-20 0-35.5 2.5T297-2v26q23-9 60-9 65 0 104 41.5T513 166l17 82q3 16 5 29.5t2 25.5q0 96-116 96H213L129 0h-27l146 689H93l5 25h443l-5-25H275l-56-265h204q141 0 141-118 0-14-2-29.5t-6-32.5l-17-82q-17-80-61.5-126T356-10z" horiz-adv-x="639" vert-adv-y="1000"/><glyph glyph-name="uni0403" unicode="Ѓ" d="m50 0 151 714h369l-5-25H223L77 0H50m283 792v6q22 20 49 48t51 56q24 28 39 50h30v-7q-26-34-67-77t-81-76h-21z" horiz-adv-x="479" vert-adv-y="1000"/><glyph glyph-name="uni0404" unicode="Є" d="M324-10q-78 0-131.5 35.5t-81 98.5Q84 187 84 268q0 100 28.5 183.5t81 144.5Q246 657 319 690.5T481 724q47 0 84-10t69-27l-13-25q-35 20-69 28.5t-73 8.5q-95 0-168.5-39.5T188.5 548Q140 476 120 379h361l-5-25H116q-6-40-6-84 0-76 25-133.5T208 47q48-32 117-32 53 0 96 8.5T500 44V21Q466 8 422.5-1T324-10z" horiz-adv-x="594" vert-adv-y="1000"/><glyph glyph-name="uni0405" unicode="Ѕ" d="M198-10Q134-10 92.5 0T19 24v29q35-17 79-27.5T198 15q33 0 69.5 9T336 53q32 20 51.5 52.5T407 184q0 46-20 77t-54.5 54Q298 338 252 360q-34 16-64.5 39T137 454q-20 32-20 77 0 53 20 90t53.5 59.5q33.5 22.5 73.5 33t80 10.5q54 0 91.5-10t73.5-27l-11-25q-40 20-74 28.5t-81 8.5q-29 0-63.5-8T214 664q-31-19-50.5-51T144 532q0-42 18.5-69.5t47-46.5q28.5-19 59.5-35 46-24 83.5-49t59.5-60q22-35 22-88 0-54-22-91t-57.5-59.5Q319 11 278 .5T198-10z" horiz-adv-x="498" vert-adv-y="1000"/><glyph glyph-name="uni0406" unicode="І" d="m8 0 4 20 66 3 142 667-65 4 4 20h158l-4-20-67-4L104 23l66-3-4-20H8z" horiz-adv-x="279" vert-adv-y="1000"/><glyph glyph-name="uni0407" unicode="Ї" d="m8 0 4 20 66 3 142 667-65 4 4 20h158l-4-20-67-4L104 23l66-3-4-20H8m335 833q-19 0-19 21 0 13 6 27t23 14q20 0 20-21 0-14-6.5-27.5T343 833m-176 0q-19 0-19 21 0 13 6 27t23 14q20 0 20-21 0-14-6.5-27.5T167 833z" horiz-adv-x="279" vert-adv-y="1000"/><glyph glyph-name="uni0408" unicode="Ј" d="M-88-174q-22 0-45 4t-37 9l1 25q19-6 41-9t41-3q64 0 94.5 38T51-9l153 723h27L77-13Q60-95 20-134.5T-88-174z" horiz-adv-x="231" vert-adv-y="1000"/><glyph glyph-name="uni0409" unicode="Љ" d="M7-11q-31 0-49 9v26q22-10 49-10 52 0 90 61.5T173 239q36 95 65.5 184t52 163.5Q313 661 329 714h266l-68-321h111q96 0 147.5-41.5T837 228q0-79-33-129.5T711.5 24Q652 0 573 0H417l146 689H350q-19-63-42-140.5t-50-159Q231 308 201 231q-27-69-53-124T89 20.5Q56-11 7-11m442 36h124q67 0 120.5 19.5t85 63.5Q810 152 810 227q0 74-48.5 107.5T634 368H522L449 25z" horiz-adv-x="899" vert-adv-y="1000"/><glyph glyph-name="uni040A" unicode="Њ" d="m50 0 151 714h27l-68-321h353l68 321h27l-68-321h111q96 0 147.5-41.5T850 228q0-79-33-129.5T724.5 24Q665 0 586 0H430l78 368H155L77 0H50m412 25h124q66 0 120 19.5t85.5 63.5Q823 152 823 227q0 74-48.5 107.5T647 368H535L462 25z" horiz-adv-x="912" vert-adv-y="1000"/><glyph glyph-name="uni040B" unicode="Ћ" d="m103 0 146 689H93l5 25h443l-5-25H275l-56-265h204q67 0 103.5-28t36.5-89q0-23-6-55L504 0h-26l53 252q6 28 6 51 0 50-29 73t-87 23H213L129 0h-26z" horiz-adv-x="639" vert-adv-y="1000"/><glyph glyph-name="uni040C" unicode="Ќ" d="m50 0 151 714h26l-73-343 414 343h38L186 366 491 0h-34L153 366 76 0H50m317 792v6q22 20 49 48t51 56q24 28 39 50h30v-7q-26-34-67-77t-81-76h-21z" horiz-adv-x="543" vert-adv-y="1000"/><glyph glyph-name="uni040E" unicode="Ў" d="M65-10q-25 0-43.5 4.5T-10 5v27q34-17 73-17 42 0 74.5 20.5T199 93q29 37 61 88L104 714h26l129-447q5-17 9.5-35t7.5-31q8 13 19 31.5t20 32.5l291 449h29L261 139q-27-41-55-75t-62-54q-34-20-79-20m313 802q-54 0-85 24t-31 73q0 7 1 16t3 15h24q-1-8-2.5-15t-1.5-13q0-77 93-77 59 0 89 29.5t41 75.5h26q-30-128-157-128z" horiz-adv-x="546" vert-adv-y="1000"/><glyph glyph-name="uni040F" unicode="Џ" d="M230-167 267 0H50l151 714h27L82 25h401l146 689h27L505 0H297l-36-167h-31z" horiz-adv-x="661" vert-adv-y="1000"/><glyph glyph-name="uni0410" unicode="А" d="m-50 0 418 716h24L498 0h-25l-41 271H138L-20 0h-30m202 296h276l-43 298q-6 39-11 88h-2q-11-22-23.5-44.5T324 594L152 296z" horiz-adv-x="547" vert-adv-y="1000"/><glyph glyph-name="uni0411" unicode="Б" d="m45 0 151 714h358l-5-25H218l-63-296h131q96 0 147.5-41.5T485 228q0-79-33-129.5T359.5 24Q300 0 221 0H45m32 25h144q67 0 120.5 19.5t85 63.5Q458 152 458 227q0 74-48.5 107.5T282 368H150L77 25z" horiz-adv-x="553" vert-adv-y="1000"/><glyph glyph-name="uni0412" unicode="В" d="m50 0 151 714h181q104 0 151-38.5T580 571q0-80-45-130.5T410 376l-1-2q59-14 89-52.5t30-98.5q0-77-38-126.5t-103-73Q322 0 240 0H50m109 388h163q103 0 167 44t64 139q0 118-177 118H223l-64-301M82 25h170q66 0 123 20t91.5 63.5Q501 152 501 223q0 76-50.5 108T314 363H154L82 25z" horiz-adv-x="598" vert-adv-y="1000"/><glyph glyph-name="uni0413" unicode="Г" d="m50 0 151 714h369l-5-25H223L77 0H50z" horiz-adv-x="479" vert-adv-y="1000"/><glyph glyph-name="uni0414" unicode="Д" d="m-76-175 42 200h53q50 66 97 149.5T205 350q42 92 75 185t54 179h276L464 25h74l-43-200h-25L507 0H-13l-38-175h-25M50 25h388l141 664H354q-22-81-54-170t-72-178q-40-89-85-170T50 25z" horiz-adv-x="617" vert-adv-y="1000"/><glyph glyph-name="uni0415" unicode="Е" d="m50 0 151 714h358l-5-25H223l-64-300h312l-5-25H154L82 25h331l-5-25H50z" horiz-adv-x="535" vert-adv-y="1000"/><glyph glyph-name="uni0416" unicode="Ж" d="m-33 0 376 368-210 346h30l209-346 73 346h27l-73-346 352 346h34L427 362 649 0h-32L398 362 321 0h-27l77 362L3 0h-36z" horiz-adv-x="716" vert-adv-y="1000"/><glyph glyph-name="uni0417" unicode="З" d="M184-10Q126-10 78.5 2T0 34v30q32-22 81.5-35.5T184 15q72 0 127 21t86.5 65.5Q429 146 429 218q0 70-47 105.5T247 359H145l5 25h108q106 0 169 44t63 139q0 58-38 95t-102 37q-62 0-110-20t-96-51l-13 22q49 33 101 53.5T352 724q80 0 122.5-45T517 567q0-64-26-104.5t-66.5-63Q384 377 341 369v-2q51-12 83-49.5t32-99.5q0-78-35-128.5t-96-75Q264-10 184-10z" horiz-adv-x="522" vert-adv-y="1000"/><glyph glyph-name="uni0418" unicode="И" d="m50 0 151 714h27L105 135q-5-25-9-40T85 53h2l557 661h25L518 0h-26l120 568q5 26 9.5 45.5T633 659l-2 1L75 0H50z" horiz-adv-x="674" vert-adv-y="1000"/><glyph glyph-name="uni0419" unicode="Й" d="m50 0 151 714h27L105 135q-5-25-9-40T85 53h2l557 661h25L518 0h-26l120 568q5 26 9.5 45.5T633 659l-2 1L75 0H50m396 792q-54 0-85 24t-31 73q0 7 1 16t3 15h24q-1-8-2.5-15t-1.5-13q0-77 93-77 59 0 89 29.5t41 75.5h26q-30-128-157-128z" horiz-adv-x="674" vert-adv-y="1000"/><glyph glyph-name="uni041A" unicode="К" d="m50 0 151 714h26l-73-343 414 343h38L186 366 491 0h-34L153 366 76 0H50z" horiz-adv-x="543" vert-adv-y="1000"/><glyph glyph-name="uni041B" unicode="Л" d="M7-11q-31 0-49 9v26q22-10 49-10 52 0 90 61.5T173 239q36 95 65.5 184t52 163.5Q313 661 329 714h316L494 0h-27l146 689H350q-19-63-42-140.5t-50-159Q231 308 201 231q-27-69-53-124T89 20.5Q56-11 7-11z" horiz-adv-x="650" vert-adv-y="1000"/><glyph glyph-name="uni041C" unicode="М" d="m50 0 151 714h38L357 47h3l399 667h42L650 0h-26l127 602q3 15 7.5 33t10.5 43h-2L360 0h-20L220 679h-2q-4-25-7-42t-8-40L77 0H50z" horiz-adv-x="806" vert-adv-y="1000"/><glyph glyph-name="uni041D" unicode="Н" d="m50 0 151 714h27l-69-326h421l69 326h27L525 0h-27l77 363H154L77 0H50z" horiz-adv-x="681" vert-adv-y="1000"/><glyph glyph-name="uni041E" unicode="О" d="M334-10q-92 0-147 39t-79 104q-24 65-24 143 0 82 21 162t63.5 145q42.5 65 108 103.5T431 725q111 0 178-68.5T676 446q0-47-10-107t-33-121q-23-61-62-112.5T473.5 22Q415-10 334-10m1 25q71 0 123.5 29t89 77q36.5 48 59 105T639 340.5Q649 398 649 445q0 118-53.5 186.5T429 700q-71 0-124-27t-90-72q-37-45-60-100.5T121.5 387Q111 329 111 277q0-77 23-136t72.5-92.5Q256 15 335 15z" horiz-adv-x="716" vert-adv-y="1000"/><glyph glyph-name="uni041F" unicode="П" d="m50 0 151 714h455L505 0h-27l146 689H223L77 0H50z" horiz-adv-x="661" vert-adv-y="1000"/><glyph glyph-name="uni0420" unicode="Р" d="m50 0 151 714h155q98 0 150-44.5T558 538q0-68-29.5-120.5T438 335q-61-30-156-30H141L77 0H50m97 330h139q86 0 140.5 26.5t79.5 73Q531 476 531 537q0 79-47 115.5T351 689H223l-76-359z" horiz-adv-x="558" vert-adv-y="1000"/><glyph glyph-name="uni0421" unicode="С" d="M326-10q-76 0-130.5 34.5t-83 97Q84 184 84 268q0 102 29.5 186T196 598.5q53 60.5 123.5 93T471 724q92 0 162-37l-12-25q-35 21-73 29t-77 8q-77 0-142.5-31T214 580.5Q165 524 137.5 445T110 270q0-118 58-186.5T327 15q51 0 94 8.5T500 44V21Q466 8 422-1t-96-9z" horiz-adv-x="594" vert-adv-y="1000"/><glyph glyph-name="uni0422" unicode="Т" d="m172 0 146 689H93l5 25h478l-5-25H345L199 0h-27z" horiz-adv-x="485" vert-adv-y="1000"/><glyph glyph-name="uni0423" unicode="У" d="M65-10q-25 0-43.5 4.5T-10 5v27q34-17 73-17 42 0 74.5 20.5T199 93q29 37 61 88L104 714h26l129-447q5-17 9.5-35t7.5-31q8 13 19 31.5t20 32.5l291 449h29L261 139q-27-41-55-75t-62-54q-34-20-79-20z" horiz-adv-x="546" vert-adv-y="1000"/><glyph glyph-name="uni0424" unicode="Ф" d="m288-10 24 109q-66 5-119 31t-84.5 74Q77 252 77 324q0 110 45.5 178T247 602q79 32 179 35l18 87h26l-18-88q68-4 122.5-27t85.5-68.5Q691 495 691 426q0-105-44.5-177T523 138.5Q444 100 338 98L315-10h-27m29 134 104 488q-87-2-159-30t-115-91q-43-63-43-166 0-65 28.5-108t77-66Q258 128 317 124m26-1q91 3 163.5 37t115 100.5Q664 327 664 425q0 61-28 101t-77 61q-49 21-112 25L343 123z" horiz-adv-x="722" vert-adv-y="1000"/><glyph glyph-name="uni0425" unicode="Х" d="m-59 0 310 372-135 342h27l126-324 264 324h31L281 369 430 0h-27L262 350-27 0h-32z" horiz-adv-x="489" vert-adv-y="1000"/><glyph glyph-name="uni0426" unicode="Ц" d="M527-175 564 0H50l151 714h27L82 25h417l146 689h27L526 25h69l-43-200h-25z" horiz-adv-x="674" vert-adv-y="1000"/><glyph glyph-name="uni0427" unicode="Ч" d="m418 0 67 314q-43-20-92.5-33.5T282 267q-78 0-119 34t-41 96q0 21 6 51l56 266h27l-56-266q-3-15-4.5-26.5T149 399q0-52 34.5-79.5T283 292q58 0 108.5 13.5T490 340l79 374h27L445 0h-27z" horiz-adv-x="601" vert-adv-y="1000"/><glyph glyph-name="uni0428" unicode="Ш" d="m50 0 151 714h27L82 25h329l146 689h27L438 25h331l146 689h27L791 0H50z" horiz-adv-x="947" vert-adv-y="1000"/><glyph glyph-name="uni0429" unicode="Щ" d="M800-175 837 0H50l151 714h27L82 25h330l146 689h27L439 25h333l146 689h27L799 25h69l-43-200h-25z" horiz-adv-x="947" vert-adv-y="1000"/><glyph glyph-name="uni042A" unicode="Ъ" d="m125 0 145 689H93l5 25h205l-68-321h121q96 0 147.5-41.5T555 228q0-79-33-129.5T429.5 24Q370 0 291 0H125m32 25h134q67 0 120.5 19.5t85 63.5Q528 152 528 227q0 74-48.5 107.5T352 368H230L157 25z" horiz-adv-x="617" vert-adv-y="1000"/><glyph glyph-name="uni042B" unicode="Ы" d="m50 0 151 714h27l-68-321h121q96 0 147.5-41.5T480 228q0-79-33-129.5T354.5 24Q295 0 216 0H50m495 0 151 714h27L572 0h-27M82 25h134q66 0 120 19.5t85.5 63.5Q453 152 453 227q0 74-48.5 107.5T277 368H155L82 25z" horiz-adv-x="728" vert-adv-y="1000"/><glyph glyph-name="uni042C" unicode="Ь" d="m50 0 151 714h27l-68-321h131q96 0 147.5-41.5T490 228q0-79-33-129.5T364.5 24Q305 0 226 0H50m32 25h144q66 0 120 19.5t85.5 63.5Q463 152 463 227q0 74-48.5 107.5T287 368H155L82 25z" horiz-adv-x="552" vert-adv-y="1000"/><glyph glyph-name="uni042D" unicode="Э" d="M172-10q-52 0-90 11T9 29v28q35-19 78-30.5T174 15q96 0 168 42.5T460 177q46 77 62 180H155l5 25h365q3 30 3 62 0 74-25 132t-75 90.5Q378 699 303 699q-53 0-95-10.5T131 666l-8 24q34 13 80.5 23.5T305 724q83 0 138.5-36.5t83-99Q554 526 554 446q0-136-47-239T374 47q-86-57-202-57z" horiz-adv-x="595" vert-adv-y="1000"/><glyph glyph-name="uni042E" unicode="Ю" d="M589-10q-86 0-138.5 39T375 133q-23 65-23 143 0 44 6 87H154L77 0H50l151 714h27l-69-326h203q13 67 40 128t68 108q41 47 97 74t126 27q104 0 167.5-68.5T924 446q0-47-10.5-107t-34-121Q856 157 817 105.5T722 22q-56-32-133-32m1 25q67 0 117.5 29t86.5 77q36 48 59 105t33.5 114.5Q897 398 897 445q0 118-50.5 186.5T691 700q-67 0-118.5-27t-88-72q-36.5-45-60-100.5T390 387q-11-58-11-110 0-77 22-136t68.5-92.5Q516 15 590 15z" horiz-adv-x="963" vert-adv-y="1000"/><glyph glyph-name="uni042F" unicode="Я" d="m-16 0 260 328q-50 13-85.5 52T123 484q0 84 37.5 134.5t101.5 73Q326 714 408 714h154L411 0h-27l68 320H272L18 0h-34m323 345h150l73 344H414q-74 0-133.5-17.5T186 610q-35-44-35-125 0-65 43-102.5T307 345z" horiz-adv-x="567" vert-adv-y="1000"/><glyph glyph-name="uni0430" unicode="а" d="M197-10q-72 0-109 51.5T51 178q0 61 17 124.5t50.5 117q33.5 53.5 84 86T319 538q47 0 76-20.5t44.5-51Q455 436 460 407h2l27 121h22L399 0h-22l28 139h-2q-17-31-47.5-65.5t-71-59Q244-10 197-10m3 25q46 0 93.5 33t85 89.5Q416 194 430 264q6 31 9 53t3 41q0 74-33 114.5T318 513q-58 0-103-29.5T139.5 405q-30.5-49-46-108.5T78 178q0-75 30-119t92-44z" horiz-adv-x="547" vert-adv-y="1000"/><glyph glyph-name="uni0431" unicode="б" d="M230-10q-62 0-101 29T72.5 97.5Q55 147 55 207q0 48 11 110.5T99 445q22 65 54 122t73 94q52 46 134.5 67T562 762l2-24q-124-15-200-35t-121-60q-43-38-79.5-110.5T101 362h2q43 62 98 95.5T322 491q74 0 117-47.5T482 311q0-54-14-110.5t-43.5-104Q395 49 347 19.5T230-10m3 25q57 0 99 26t69.5 69q27.5 43 40.5 95t13 104q0 75-36.5 116T321 466q-65 0-118.5-34.5T95 323q-6-29-9.5-58T82 208q0-54 15-97.5T145 41q33-26 88-26z" horiz-adv-x="539" vert-adv-y="1000"/><glyph glyph-name="uni0432" unicode="в" d="M244-10q-93 0-137 55T63 198q0 96 34 173t94 122q60 45 137 45 49 0 78-16.5t41.5-42.5q12.5-26 12.5-56 0-57-42.5-98.5T301 274v-2q62-3 94.5-32t32.5-80q0-38-17.5-77.5t-58-66Q312-10 244-10M96 281h86q66 0 123 12t92.5 42.5Q433 366 433 422q0 38-24 64.5T325 513q-61 0-108-31t-78-83.5Q108 346 96 281M246 15q53 0 87 20.5T383.5 89q16.5 33 16.5 69 0 30-13 52t-45 34q-32 12-91 12H93q-1-6-2-19.5T90 200q0-89 37-137t119-48z" horiz-adv-x="506" vert-adv-y="1000"/><glyph glyph-name="uni0433" unicode="г" d="M156-10Q88-10 54 20.5T20 105q0 62 44 105t139 78q86 32 121.5 62.5T360 427q0 37-25 60.5T258 511q-44 0-79-13t-64-28l-10 24q28 14 66.5 28t90.5 14q62 0 93.5-29.5T387 430q0-59-42.5-95T216 266q-89-34-129-69t-40-90q0-43 28.5-67.5T157 15q47 0 87.5 13.5T318 58V32q-23-12-66-27t-96-15z" horiz-adv-x="419" vert-adv-y="1000"/><glyph glyph-name="uni0434" unicode="д" d="M217-10q-54 0-90 26T73 86.5Q55 131 55 187q0 93 30.5 167T172 470.5Q228 513 305 513q47 0 78.5-19.5t50-48.5q18.5-29 29.5-58h2q1 13 2.5 36t1.5 46q0 134-38 205t-115 71q-28 0-55.5-7T212 720l-8 24q25 12 53 19t61 7q91 0 134.5-78.5T496 469q0-57-9-122t-29-128q-20-63-52-115t-79-83q-47-31-110-31m2 25q65 0 113 41t80 113q32 72 46 166-11 38-30 73t-48.5 57.5Q350 488 305 488q-63 0-113.5-36t-80-103Q82 282 82 189q0-77 35-125.5T219 15z" horiz-adv-x="537" vert-adv-y="1000"/><glyph glyph-name="uni0435" unicode="е" d="M246-10q-47 0-89 20.5T88.5 76Q62 121 62 194q0 72 20.5 134.5t58 109.5q37.5 47 86.5 73.5T333 538q55 0 90-32t35-82q0-49-26-81.5T360.5 291Q315 272 255 264t-128-8H93q-1-11-2.5-28T89 194q0-87 44-133t118-46q43 0 77 11.5T386 48V22q-22-12-60.5-22T246-10M97 281h48q83 0 148 15t101.5 46.5Q431 374 431 423q0 39-26 64.5T329 513q-49 0-96.5-27.5t-84-79.5Q112 354 97 281z" horiz-adv-x="491" vert-adv-y="1000"/><glyph glyph-name="uni0436" unicode="ж" d="M24-10Q4-10-12-7l4 25q16-3 36-3 58 0 98 32t64.5 82.5Q215 180 226.5 238T238 347q0 84-32 125t-92 41q-10 0-21.5-.5T73 510v25q9 1 21 2t22 1q71 0 110-47.5T265 348q0-29-3-59h82l51 239h26l-51-239h78q12 63 39.5 120t74.5 93q47 36 117 36 19 0 36-3l-4-25q-17 3-36 3-58 0-98-32t-64.5-82.5Q488 348 476.5 290T465 181q0-84 32-125t92-41q10 0 21.5.5T630 18V-7q-9-1-20.5-2T587-10q-71 0-110 47.5T438 180q0 40 6 84h-79L309 0h-26l56 264h-80q-7-50-24-98.5T190 77q-28-40-69-63.5T24-10z" horiz-adv-x="703" vert-adv-y="1000"/><glyph glyph-name="uni0437" unicode="з" d="M142-10Q93-10 57.5 0T0 25v30q29-19 65-29.5T142 15q46 0 86.5 15.5t65 48.5q24.5 33 24.5 86 0 52-35 78t-100 26h-53l5 25h53q44 0 81.5 11.5t60 38.5q22.5 27 22.5 74 0 43-29 69t-79 26q-41 0-72-8.5T105 479l-10 24q35 17 69 26t81 9q61 0 97.5-33t36.5-87q0-58-34.5-93T258 281v-2q44-11 65.5-41.5T345 165q0-61-28.5-99.5T242 8.5Q196-10 142-10z" horiz-adv-x="423" vert-adv-y="1000"/><glyph glyph-name="uni0438" unicode="и" d="M190-10q-65 0-100 33t-35 97q0 29 8 66l72 342h26L88 183q-4-17-5.5-31.5T81 124q0-56 30-82.5T194 15q56 0 105 34t84.5 88.5Q419 192 432 254l58 274h26L404 0h-22l28 139h-2q-16-31-47-66t-74-59q-43-24-97-24z" horiz-adv-x="553" vert-adv-y="1000"/><glyph glyph-name="uni0439" unicode="й" d="M190-10q-65 0-100 33t-35 97q0 29 8 66l72 342h26L88 183q-4-17-5.5-31.5T81 124q0-56 30-82.5T194 15q56 0 105 34t84.5 88.5Q419 192 432 254l58 274h26L404 0h-22l28 139h-2q-16-31-47-66t-74-59q-43-24-97-24m138 616q-54 0-85 24t-31 73q0 7 1 16t3 15h24q-1-8-2.5-15t-1.5-13q0-77 93-77 59 0 89 29.5t41 75.5h26q-30-128-157-128z" horiz-adv-x="553" vert-adv-y="1000"/><glyph glyph-name="uni043A" unicode="к" d="m33 0 111 528h25l-53-254 307 254h38L146 269 362 0h-33L115 269 58 0H33z" horiz-adv-x="423" vert-adv-y="1000"/><glyph glyph-name="uni043B" unicode="л" d="M-16-4q-7 0-14.5 1T-42-1v25q4-1 10.5-2t15.5-1q37 0 62.5 22.5t49 79.5Q119 180 151 283q29 91 60 146t73.5 79Q327 532 390 532q21 0 39-1t34-3L351 0h-26l107 505q-8 1-19.5 1.5t-23.5.5q-54 0-91-20t-65.5-69.5Q204 368 176 278q-26-82-46.5-136.5T88.5 55Q68 23 43 9.5T-16-4z" horiz-adv-x="500" vert-adv-y="1000"/><glyph glyph-name="uni043C" unicode="м" d="m32 0 112 528h34l90-491h1l299 491h38L494 0h-26l86 406q4 21 8 38.5t10 40.5h-2L274 0h-23l-91 486h-2q-4-22-7-40.5t-8-42.5L58 0H32z" horiz-adv-x="643" vert-adv-y="1000"/><glyph glyph-name="uni043D" unicode="н" d="m32 0 112 528h26l-51-239h332l51 239h26L416 0h-26l56 264H114L58 0H32z" horiz-adv-x="560" vert-adv-y="1000"/><glyph glyph-name="uni043E" unicode="о" d="M237-10q-92 0-137 56.5T55 192q0 105 36.5 182.5t99 120.5Q253 538 331 538q59 0 98.5-26t60-71Q510 396 510 338q0-71-18.5-134t-54-111q-35.5-48-86-75.5T237-10m3 25q76 0 130.5 43.5t83.5 117Q483 249 483 339q0 76-38.5 125T329 513q-70 0-126-39.5T114.5 362Q82 290 82 192q0-81 39.5-129T240 15z" horiz-adv-x="565" vert-adv-y="1000"/><glyph glyph-name="uni043F" unicode="п" d="m32 0 112 528h22l-28-139h2q16 31 47 66t74 59q43 24 97 24 65 0 100-33t35-97q0-29-8-66L413 0h-26l73 345q4 17 5.5 31.5T467 404q0 56-30 82.5T354 513q-56 0-105-34t-84.5-88.5Q129 336 116 274L58 0H32z" horiz-adv-x="553" vert-adv-y="1000"/><glyph glyph-name="uni0440" unicode="р" d="m-17-232 161 760h22l-28-139h2q19 35 50 69.5t73 57q42 22.5 94 22.5 72 0 114-51.5T513 350q0-61-16.5-124T446 109.5Q412 56 360.5 23T239-10q-51 0-83.5 19t-50 49Q88 88 83 121h-2q-5-34-12-69.5T55-15L9-232h-26M240 15q62 0 108 29.5t77 79Q456 173 471 232t15 118q0 75-35 119t-99 44q-52 0-97.5-29t-80-78q-34.5-49-54-110.5T101 170q0-78 38.5-116.5T240 15z" horiz-adv-x="568" vert-adv-y="1000"/><glyph glyph-name="uni0441" unicode="с" d="M247-10q-62 0-105 27T77 90q-22 46-22 104 0 69 18.5 131T128 435q36 48 88 75.5T335 538q34 0 66.5-6t56.5-18l-8-25q-25 13-56.5 18.5T335 513q-78 0-134.5-43T113 355.5Q82 284 82 196q0-50 18.5-91T156 39.5Q193 15 248 15q36 0 66 8t61 22V19Q351 7 319.5-1.5T247-10z" horiz-adv-x="452" vert-adv-y="1000"/><glyph glyph-name="uni0442" unicode="т" d="m32 0 112 528h22l-29-139h2q15 32 42.5 66.5t66 58.5q38.5 24 89.5 24 68 0 95.5-41T456 389h1q16 33 44 67.5t67.5 58Q608 538 658 538q59 0 91.5-33t32.5-97q0-29-8-66L702 0h-26l73 345q4 17 5.5 31.5T756 404q0 56-27.5 82.5T653 513q-38 0-73-20t-63.5-54Q488 405 467 362.5T437 275L379 0h-26l71 330q4 21 6 42.5t2 34.5q0 50-26.5 78T331 513q-37 0-72-20.5T195 438q-29-34-49.5-76.5T116 274L58 0H32z" horiz-adv-x="842" vert-adv-y="1000"/><glyph glyph-name="uni0443" unicode="у" d="M-57-243q-36 0-57 10v26q12-5 25.5-8t33.5-3q36 0 65.5 28T74-103L138 7 50 528h26l59-356q7-46 12.5-79t7.5-56h2q11 22 28.5 54.5T228 168l202 360h29L96-115q-34-61-70-94.5T-57-243z" horiz-adv-x="410" vert-adv-y="1000"/><glyph glyph-name="uni0444" unicode="ф" d="M178-240 227-7q-45 6-85 30T77 94q-25 47-25 122 0 52 16 108t50.5 104q34.5 48 89.5 78t133 29l47 225h26l-48-226q80-8 128.5-61T543 315q0-38-9-82t-29-86.5Q485 104 451.5 69T369 13Q320-8 253-8l-49-232h-26m54 258 105 492q-72 0-121.5-28.5t-79.5-73Q106 364 92.5 313T79 217q0-73 24-115t59.5-61Q198 22 232 18m26-1q70 0 119.5 27t80 71q30.5 44 44.5 96t14 103q0 68-21 109.5t-56 62Q404 506 362 509L258 17z" horiz-adv-x="597" vert-adv-y="1000"/><glyph glyph-name="uni0445" unicode="х" d="m-33 0 239 273L86 528h30l109-237 212 237h32L239 271 369 0h-29L220 253-1 0h-32z" horiz-adv-x="455" vert-adv-y="1000"/><glyph glyph-name="uni0446" unicode="ц" d="M428-175 463-7q-39 0-52.5 20.5t-11 54Q402 101 410 139h-2q-16-31-47-66t-74-59q-43-24-97-24-65 0-100 33t-35 97q0 29 8 66l72 342h26L88 183q-4-17-5.5-31.5T81 124q0-56 30-82.5T194 15q56 0 105 34t84.5 88.5Q419 192 432 254l58 274h26l-79-372q-7-32-10.5-54T423 62q0-21 9.5-32.5T465 18q15 0 30 4l-42-197h-25z" horiz-adv-x="568" vert-adv-y="1000"/><glyph glyph-name="uni0447" unicode="ч" d="m342 0 42 201q7 34 13.5 63t13.5 57h-2q-16-30-44-61.5t-68.5-53Q256 185 205 185q-59 0-90 30t-31 94q0 20 3 41.5t8 47.5l27 130h26l-27-130q-5-27-8-47.5t-3-39.5q0-56 26-78.5t73-22.5q55 0 101.5 31t79 85.5Q422 381 437 450l17 78h26L368 0h-26z" horiz-adv-x="540" vert-adv-y="1000"/><glyph glyph-name="uni0448" unicode="ш" d="M179-10q-59 0-91.5 33T55 120q0 29 8 66l72 342h26L88 183q-4-17-5.5-31.5T81 124q0-56 27.5-82.5T184 15q52 0 96.5 34.5t76 89.5Q388 194 400 253l58 275h26l-73-345q-4-17-5.5-31.5T404 124q0-56 27-82.5T506 15q38 0 72.5 20.5T642 90q29 34 49.5 76.5T721 254l58 274h26L693 0h-22l29 139h-2q-16-32-43-66.5T589 14q-39-24-89-24-40 0-64.5 14.5t-37 37.5Q386 65 382 89.5t-2 45.5h-2q-15-31-43-65t-67.5-57Q228-10 179-10z" horiz-adv-x="842" vert-adv-y="1000"/><glyph glyph-name="uni0449" unicode="щ" d="M718-175 753-7q-38 0-52 20t-12.5 53.5Q690 100 700 139h-2q-16-32-43-66.5T589 14q-39-24-89-24-65 0-94.5 42T380 135h-2q-16-32-43.5-65.5t-67-56.5Q228-10 179-10q-59 0-91.5 33T55 120q0 29 8 66l72 342h26L88 183q-4-17-5.5-31.5T81 124q0-56 27.5-82.5T184 15q52 0 96.5 34.5t76 89.5Q388 194 400 253l58 275h26l-73-345q-4-17-5.5-31.5T404 124q0-56 27-82.5T506 15q38 0 72.5 20.5T642 90q29 34 49.5 76.5T721 254l58 274h26l-79-372q-7-32-10.5-54T712 62q0-22 10-34.5T755 15q15 0 30 5l-42-195h-25z" horiz-adv-x="859" vert-adv-y="1000"/><glyph glyph-name="uni044A" unicode="ъ" d="M302-10q-60 0-94 22.5t-48.5 58Q145 106 145 147q0 35 6 65.5t13 63.5l48 227H51l6 25h186l-53-252q24 8 61 13.5t74 5.5q89 0 130-34.5t41-99.5q0-44-21-83.5T411 14q-43-24-109-24m2 25q80 0 122.5 41.5T469 160q0 30-13 55t-45 40q-32 15-89 15-41 0-76-6t-62-13q-12-59-12-102 0-71 34.5-102.5T304 15z" horiz-adv-x="566" vert-adv-y="1000"/><glyph glyph-name="uni044B" unicode="ы" d="M218-10q-60 0-94 22.5t-48.5 58Q61 106 61 147q0 35 6 65.5T80 276l53 252h26l-53-252q24 8 61 13.5t74 5.5q89 0 130-34.5t41-99.5q0-44-21-83.5T327 14q-43-24-109-24M473 0l112 528h26L499 0h-26M220 15q80 0 122.5 41.5T385 160q0 30-13 55t-45 40q-32 15-89 15-41 0-76-6t-62-13q-12-59-12-102 0-71 34.5-102.5T220 15z" horiz-adv-x="648" vert-adv-y="1000"/><glyph glyph-name="uni044C" unicode="ь" d="M224-10q-60 0-95 22.5t-50.5 58Q63 106 63 147q0 35 6 65.5T82 276l53 252h26l-53-252q24 8 63 13.5t76 5.5q89 0 130.5-34.5T419 161q0-44-21.5-83.5T333 14q-43-24-109-24m2 25q80 0 123 41.5T392 160q0 30-13 55t-45.5 40Q301 270 244 270q-41 0-78-6t-64-13q-12-59-12-102 0-71 36.5-102.5T226 15z" horiz-adv-x="489" vert-adv-y="1000"/><glyph glyph-name="uni044D" unicode="э" d="M135-10q-42 0-71.5 6.5T10 14v27q25-11 57.5-18.5T135 15q62 0 111.5 31.5T329 133q33 55 43 126H95l5 25h275q1 10 1.5 21t.5 22q0 50-18 92.5t-55 68Q267 513 209 513q-33 0-62-7.5T93 485l-9 22q26 13 58 22t68 9q65 0 108-28t64.5-75.5Q404 387 404 329q0-69-18.5-130t-53-108Q298 44 248 17T135-10z" horiz-adv-x="452" vert-adv-y="1000"/><glyph glyph-name="uni044E" unicode="ю" d="M457-10q-89 0-131.5 56.5T283 192q0 40 5 72H114L58 0H32l112 528h26l-51-239h173q14 77 50.5 133t89 86Q484 538 547 538q57 0 95-26t57-71q19-45 19-103 0-71-17.5-134t-51-111q-33.5-48-82-75.5T457-10m3 25q72 0 124 43.5t79.5 117Q691 249 691 339q0 76-36.5 125T545 513q-67 0-120-39.5T341 362q-31-72-31-170 0-81 37.5-129T460 15z" horiz-adv-x="780" vert-adv-y="1000"/><glyph glyph-name="uni044F" unicode="я" d="M-17-3q-13 0-20 3v24q8-2 19-2 16 0 30 7t28.5 28Q55 78 72 119q23 56 50.5 89.5T196 252q-44 7-69 27t-35 45.5Q82 350 82 375q0 48 18.5 78t47.5 46.5q29 16.5 60.5 22.5t58.5 6h177L332 0h-26l52 242h-75q-55 0-88-12.5t-54.5-41Q119 160 97 110 84 80 70 54.5T36 13Q16-3-17-3m277 271h103l50 235H267q-35 0-72-10.5T133.5 454Q109 426 109 376q0-59 42.5-83.5T260 268z" horiz-adv-x="481" vert-adv-y="1000"/><glyph glyph-name="uni0451" unicode="ё" d="M246-10q-47 0-89 20.5T88.5 76Q62 121 62 194q0 72 20.5 134.5t58 109.5q37.5 47 86.5 73.5T333 538q55 0 90-32t35-82q0-49-26-81.5T360.5 291Q315 272 255 264t-128-8H93q-1-11-2.5-28T89 194q0-87 44-133t118-46q43 0 77 11.5T386 48V22q-22-12-60.5-22T246-10M97 281h48q83 0 148 15t101.5 46.5Q431 374 431 423q0 39-26 64.5T329 513q-49 0-96.5-27.5t-84-79.5Q112 354 97 281m325 366q-19 0-19 21 0 13 6 27t23 14q20 0 20-21 0-14-6.5-27.5T422 647m-176 0q-19 0-19 21 0 13 6 27t23 14q20 0 20-21 0-14-6.5-27.5T246 647z" horiz-adv-x="491" vert-adv-y="1000"/><glyph glyph-name="uni0452" unicode="ђ" d="M266-240q-17 0-30.5 3t-24.5 7v26q12-6 27-8.5t29-2.5q37 0 61 26.5t34 72.5l98 461q4 17 5.5 31.5T467 404q0 56-30 82.5T354 513q-56 0-105-34t-84.5-88.5Q129 336 116 274L58 0H32l134 630H95l6 25h70l22 105h26l-22-105h229l-6-25H192l-16-74q-9-42-19-85t-20-82h2q17 32 48 66.5t74 58.5q43 24 97 24 65 0 100-33t35-97q0-29-8-66l-98-462q-13-61-44.5-90.5T266-240z" horiz-adv-x="553" vert-adv-y="1000"/><glyph glyph-name="uni0453" unicode="ѓ" d="M156-10Q88-10 54 20.5T20 105q0 62 44 105t139 78q86 32 121.5 62.5T360 427q0 37-25 60.5T258 511q-44 0-79-13t-64-28l-10 24q28 14 66.5 28t90.5 14q62 0 93.5-29.5T387 430q0-59-42.5-95T216 266q-89-34-129-69t-40-90q0-43 28.5-67.5T157 15q47 0 87.5 13.5T318 58V32q-23-12-66-27t-96-15m62 616v6q22 20 49 48t51 56q24 28 39 50h30v-7q-26-34-67-77t-81-76h-21z" horiz-adv-x="419" vert-adv-y="1000"/><glyph glyph-name="uni0454" unicode="є" d="M247-10q-64 0-106.5 28t-64 75Q55 140 55 197q0 67 18.5 128T128 434q36 48 88 76t119 28q34 0 66.5-6t56.5-18l-8-25q-25 13-56.5 18.5T335 513q-65 0-115.5-30t-83-82Q104 349 90 284h279l-6-25H86q-2-14-3-30t-1-32q0-49 18-90t54.5-66.5Q191 15 248 15q66 0 127 30V20Q350 6 318-2t-71-8z" horiz-adv-x="452" vert-adv-y="1000"/><glyph glyph-name="uni0455" unicode="ѕ" d="M164-10q-52 0-90.5 12.5T12 27v30q30-17 69.5-29.5T165 15q82 0 117.5 34.5T318 136q0 34-16.5 56t-43 38Q232 246 204 261q-33 18-61.5 35.5T97 338q-17 24-17 61 0 49 23.5 79.5t63 45Q206 538 254 538q46 0 82.5-9t62.5-21l-9-25q-26 13-62 21.5t-75 8.5q-62 0-104-26.5T107 401q0-30 15.5-50t41-35.5Q189 300 218 285q32-17 61-35.5t47.5-45Q345 178 345 137t-19-74q-19-33-58.5-53T164-10z" horiz-adv-x="423" vert-adv-y="1000"/><glyph glyph-name="uni0456" unicode="і" d="M189 659q-23 0-23 22 0 13 7.5 26.5T196 721q12 0 17-7t5-15q0-13-7.5-26.5T189 659M32 0l112 528h26L58 0H32z" horiz-adv-x="207" vert-adv-y="1000"/><glyph glyph-name="uni0457" unicode="ї" d="m32 0 112 528h26L58 0H32m237 647q-19 0-19 21 0 13 6 27t23 14q20 0 20-21 0-14-6.5-27.5T269 647m-176 0q-19 0-19 21 0 13 6 27t23 14q20 0 20-21 0-14-6.5-27.5T93 647z" horiz-adv-x="207" vert-adv-y="1000"/><glyph glyph-name="uni0458" unicode="ј" d="M189 659q-23 0-23 22 0 13 7.5 26.5T196 721q12 0 17-7t5-15q0-13-7.5-26.5T189 659M-86-240q-14 0-30 3t-26 7v26q12-6 28-8.5t28-2.5q41 0 62.5 26.5T8-115l136 643h26L33-119q-13-61-41.5-91T-86-240z" horiz-adv-x="207" vert-adv-y="1000"/><glyph glyph-name="uni0459" unicode="љ" d="M503-10q-60 0-94.5 22.5t-48.5 58Q346 106 346 147q0 35 6 66t13 63l48 229q-7 1-17 1.5t-17 .5q-49 0-84-20t-63-69.5Q204 368 176 278q-26-82-46.5-136.5T88.5 55Q68 23 43 9.5T-16-4q-7 0-14.5 1T-42-1v25q4-1 10.5-2t15.5-1q37 0 62.5 22.5t49 79.5Q119 180 151 283q29 91 59.5 146t71 79q40.5 24 98.5 24 18 0 35.5-1t28.5-3l-53-252q24 8 61 13.5t74 5.5q88 0 129.5-34.5T697 161q0-44-21.5-83.5T611 14q-43-24-108-24m2 25q79 0 122 41.5T670 160q0 30-13 55t-45 40q-32 15-89 15-41 0-76-6t-62-13q-12-59-12-102 0-71 34.5-102.5T505 15z" horiz-adv-x="767" vert-adv-y="1000"/><glyph glyph-name="uni045A" unicode="њ" d="M536-10q-60 0-94 22.5t-48.5 58Q379 106 379 147q0 31 5 60t11 57H114L58 0H32l112 528h26l-51-239h282l51 239h26l-54-252q24 8 61 13.5t74 5.5q89 0 130-34.5t41-99.5q0-44-21-83.5T645 14q-43-24-109-24m2 25q80 0 122.5 41.5T703 160q0 30-13 55t-45 40q-32 15-89 15-41 0-76-6t-62-13q-12-59-12-102 0-71 34.5-102.5T538 15z" horiz-adv-x="800" vert-adv-y="1000"/><glyph glyph-name="uni045B" unicode="ћ" d="m32 0 134 630H95l6 25h70l22 105h26l-22-105h229l-6-25H192q-14-64-24-108.5T151 446q-7-31-14-57h2q17 32 48 66.5t74 58.5q43 24 97 24 65 0 100-33t35-97q0-29-8-66L413 0h-26l73 345q4 17 5.5 31.5T467 404q0 56-30 82.5T354 513q-56 0-105-34t-84.5-88.5Q129 336 116 274L58 0H32z" horiz-adv-x="553" vert-adv-y="1000"/><glyph glyph-name="uni045C" unicode="ќ" d="m33 0 111 528h25l-53-254 307 254h38L146 269 362 0h-33L115 269 58 0H33m202 606v6q22 20 49 48t51 56q24 28 39 50h30v-7q-26-34-67-77t-81-76h-21z" horiz-adv-x="423" vert-adv-y="1000"/><glyph glyph-name="uni045E" unicode="ў" d="M-57-243q-36 0-57 10v26q12-5 25.5-8t33.5-3q36 0 65.5 28T74-103L138 7 50 528h26l59-356q7-46 12.5-79t7.5-56h2q11 22 28.5 54.5T228 168l202 360h29L96-115q-34-61-70-94.5T-57-243m321 849q-54 0-85 24t-31 73q0 7 1 16t3 15h24q-1-8-2.5-15t-1.5-13q0-77 93-77 59 0 89 29.5t41 75.5h26q-30-128-157-128z" horiz-adv-x="410" vert-adv-y="1000"/><glyph glyph-name="uni045F" unicode="џ" d="M190-10q-65 0-100 33t-35 97q0 29 8 66l72 342h26L88 183q-4-17-5.5-31.5T81 124q0-56 30-82.5T194 15q56 0 105 34t84.5 88.5Q419 192 432 254l58 274h26L404 0h-22l28 139h-2q-16-31-47-66t-74-59q-43-24-97-24m-34-230 42 189 17 5h9l-43-194h-25z" horiz-adv-x="553" vert-adv-y="1000"/><glyph glyph-name="uni0490" unicode="Ґ" d="m50 0 151 714h321l30 141h28l-35-166H223L77 0H50z" horiz-adv-x="479" vert-adv-y="1000"/><glyph glyph-name="uni0491" unicode="ґ" d="m32 0 112 528h227l32 164h26l-38-189H164L58 0H32z" horiz-adv-x="377" vert-adv-y="1000"/><glyph glyph-name="uni1E80" unicode="Ẁ" d="m160 0-35 714h24l27-543q3-59 3-119h3q12 28 23 53t29 62l263 547h25l36-547q2-28 2.5-59.5T561 48h3q10 27 22 55.5t28 62.5l249 548h28L565 0h-22l-37 580q-2 27-2.5 48.5T503 674h-2q-9-24-16-40.5T470 601L182 0h-22m371 792q-16 18-35 46.5t-36 57Q443 924 434 942v10h28q10-26 25.5-54t31.5-53q16-25 27-41v-12h-15z" horiz-adv-x="826" vert-adv-y="1000"/><glyph glyph-name="uni1E81" unicode="ẁ" d="M87 0 54 528h26l22-372q2-38 3-64t1-50h2q7 16 13.5 30t16.5 33.5q10 19.5 26 50.5l193 372h20l39-372q4-38 6-64t3-50h2q8 23 19.5 47.5T477 156l177 372h27L430 0h-23l-40 389q-3 25-5 46t-3 48h-1q-13-27-23.5-49T312 389L110 0H87m304 606q-16 18-35 46.5t-36 57Q303 738 294 756v10h28q10-26 25.5-54t31.5-53q16-25 27-41v-12h-15z" horiz-adv-x="651" vert-adv-y="1000"/><glyph glyph-name="uni1E82" unicode="Ẃ" d="m160 0-35 714h24l27-543q3-59 3-119h3q12 28 23 53t29 62l263 547h25l36-547q2-28 2.5-59.5T561 48h3q10 27 22 55.5t28 62.5l249 548h28L565 0h-22l-37 580q-2 27-2.5 48.5T503 674h-2q-9-24-16-40.5T470 601L182 0h-22m339 792v6q22 20 49 48t51 56q24 28 39 50h30v-7q-26-34-67-77t-81-76h-21z" horiz-adv-x="826" vert-adv-y="1000"/><glyph glyph-name="uni1E83" unicode="ẃ" d="M87 0 54 528h26l22-372q2-38 3-64t1-50h2q7 16 13.5 30t16.5 33.5q10 19.5 26 50.5l193 372h20l39-372q4-38 6-64t3-50h2q8 23 19.5 47.5T477 156l177 372h27L430 0h-23l-40 389q-3 25-5 46t-3 48h-1q-13-27-23.5-49T312 389L110 0H87m275 606v6q22 20 49 48t51 56q24 28 39 50h30v-7q-26-34-67-77t-81-76h-21z" horiz-adv-x="651" vert-adv-y="1000"/><glyph glyph-name="uni1E84" unicode="Ẅ" d="m160 0-35 714h24l27-543q3-59 3-119h3q12 28 23 53t29 62l263 547h25l36-547q2-28 2.5-59.5T561 48h3q10 27 22 55.5t28 62.5l249 548h28L565 0h-22l-37 580q-2 27-2.5 48.5T503 674h-2q-9-24-16-40.5T470 601L182 0h-22m461 833q-19 0-19 21 0 13 6 27t23 14q20 0 20-21 0-14-6.5-27.5T621 833m-176 0q-19 0-19 21 0 13 6 27t23 14q20 0 20-21 0-14-6.5-27.5T445 833z" horiz-adv-x="826" vert-adv-y="1000"/><glyph glyph-name="uni1E85" unicode="ẅ" d="M87 0 54 528h26l22-372q2-38 3-64t1-50h2q7 16 13.5 30t16.5 33.5q10 19.5 26 50.5l193 372h20l39-372q4-38 6-64t3-50h2q8 23 19.5 47.5T477 156l177 372h27L430 0h-23l-40 389q-3 25-5 46t-3 48h-1q-13-27-23.5-49T312 389L110 0H87m387 647q-19 0-19 21 0 13 6 27t23 14q20 0 20-21 0-14-6.5-27.5T474 647m-176 0q-19 0-19 21 0 13 6 27t23 14q20 0 20-21 0-14-6.5-27.5T298 647z" horiz-adv-x="651" vert-adv-y="1000"/><glyph glyph-name="uni1EF2" unicode="Ỳ" d="m174 0 57 271L96 714h27l126-413 298 413h31L259 275 201 0h-27m177 792q-16 18-35 46.5t-36 57Q263 924 254 942v10h28q10-26 25.5-54t31.5-53q16-25 27-41v-12h-15z" horiz-adv-x="485" vert-adv-y="1000"/><glyph glyph-name="uni1EF3" unicode="ỳ" d="M-57-243q-36 0-57 10v26q12-5 25.5-8t33.5-3q36 0 65.5 28T74-103L138 7 50 528h26l59-356q7-46 12.5-79t7.5-56h2q11 22 28.5 54.5T228 168l202 360h29L96-115q-34-61-70-94.5T-57-243m346 849q-16 18-35 46.5t-36 57Q201 738 192 756v10h28q10-26 25.5-54t31.5-53q16-25 27-41v-12h-15z" horiz-adv-x="410" vert-adv-y="1000"/><glyph glyph-name="uni2013" unicode="–" d="m38 259 5 25h399l-5-25H38z" horiz-adv-x="480" vert-adv-y="1000"/><glyph glyph-name="uni2014" unicode="—" d="m38 259 5 25h874l-5-25H38z" horiz-adv-x="955" vert-adv-y="1000"/><glyph glyph-name="uni2015" unicode="―" d="m38 259 5 25h874l-5-25H38z" horiz-adv-x="955" vert-adv-y="1000"/><glyph glyph-name="uni2017" unicode="‗" d="m-74-82 6 25h371l-6-25H-74m-22-103 6 25h371l-6-25H-96z" horiz-adv-x="371" vert-adv-y="1000"/><glyph glyph-name="uni2018" unicode="‘" d="m70 469-5 9q22 62 52.5 123T182 714h20q-22-35-44-78.5t-39.5-87Q101 505 90 469H70z" horiz-adv-x="121" vert-adv-y="1000"/><glyph glyph-name="uni2019" unicode="’" d="M60 469q22 35 44 78.5t39.5 87Q161 678 172 714h20l5-9q-22-61-52.5-122.5T80 469H60z" horiz-adv-x="121" vert-adv-y="1000"/><glyph glyph-name="uni201A" unicode="‚" d="M-41-129q23 35 44.5 78.5t39 87Q60 80 71 116h20l5-9Q74 46 44-15.5T-21-129h-20z" horiz-adv-x="192" vert-adv-y="1000"/><glyph glyph-name="uni201B" unicode="‛" d="M171 469q-11 37-21 80.5t-17 85q-7 41.5-10 73.5l6 6h20q1-36 7.5-79t15-86q8.5-43 17.5-80h-18z" horiz-adv-x="131" vert-adv-y="1000"/><glyph glyph-name="uni201C" unicode="“" d="m201 469-5 9q22 62 52 123t65 113h20q-23-35-44.5-78.5t-39-87Q232 505 221 469h-20m-131 0-5 9q22 62 52.5 123T182 714h20q-22-35-44-78.5t-39.5-87Q101 505 90 469H70z" horiz-adv-x="252" vert-adv-y="1000"/><glyph glyph-name="uni201D" unicode="”" d="M191 469q23 35 44.5 78.5t39 87Q292 678 303 714h20l5-9q-22-61-52-122.5T211 469h-20m-131 0q22 35 44 78.5t39.5 87Q161 678 172 714h20l5-9q-22-61-52.5-122.5T80 469H60z" horiz-adv-x="252" vert-adv-y="1000"/><glyph glyph-name="uni201E" unicode="„" d="M90-129q22 35 44 78.5t39.5 87Q191 80 202 116h20l5-9q-22-61-52.5-122.5T110-129H90m-131 0q23 35 44.5 78.5t39 87Q60 80 71 116h20l5-9Q74 46 44-15.5T-21-129h-20z" horiz-adv-x="332" vert-adv-y="1000"/><glyph glyph-name="uni2020" unicode="†" d="m153 0 118 538-166-3 6 25 164-3 39 203h28l-47-203 165 3-6-25-163 3L181 0h-28z" horiz-adv-x="454" vert-adv-y="1000"/><glyph glyph-name="uni2021" unicode="‡" d="m153 0 47 203-166-3 5 25 165-3 30 162 37 154-166-3 6 25 164-3 39 203h28l-47-203 165 3-6-25-163 3-29-154-38-162 164 3-5-25-163 3L181 0h-28z" horiz-adv-x="454" vert-adv-y="1000"/><glyph glyph-name="uni2022" unicode="•" d="M200 299q-22 0-32 12.5T158 344q0 18 6.5 38t20.5 34.5q14 14.5 37 14.5 22 0 32-13.5t10-33.5q0-18-7-37.5T236 313q-14-14-36-14z" horiz-adv-x="376" vert-adv-y="1000"/><glyph glyph-name="uni2026" unicode="…" d="M55-8Q32-8 32 14q0 14 7.5 27T62 54q12 0 17-7t5-15q0-14-7.5-27T55-8m225 0q-23 0-23 22 0 14 7.5 27T287 54q12 0 17-7t5-15q0-14-7.5-27T280-8m226 0q-23 0-23 22 0 14 7.5 27T513 54q12 0 17-7t5-15q0-14-7.5-27T506-8z" horiz-adv-x="661" vert-adv-y="1000"/><glyph glyph-name="uni2030" unicode="‰" d="M188 276q-48 0-75 32T86 408q0 34 6.5 76t20 84q13.5 42 34.5 77.5t51 57q30 21.5 70 21.5 101 0 101-129 0-32-6-74t-19-85q-13-43-34.5-79T258 298.5Q228 276 188 276M120 0l527 714h30L150 0h-30m69 301q34 0 59 20.5t43 53.5q18 33 29.5 72t16.5 77.5q5 38.5 5 68.5 0 55-19 80.5T267 699q-33 0-58.5-20T165 626.5q-18-32.5-29.5-71t-17-77Q113 440 113 410q0-56 20.5-82.5T189 301M527-9q-48 0-75 32.5T425 123q0 34 6.5 76t20 84q13.5 42 34.5 77.5t51 57q30 21.5 70 21.5 101 0 101-129 0-32-6-74t-19-85q-13-43-34.5-79T597 13.5Q567-9 527-9m321 0q-48 0-75 32.5T746 123q0 34 6.5 76t20 84q13.5 42 34.5 77.5t51 57q30 21.5 70 21.5 101 0 101-129 0-32-6-74t-19-85q-13-43-34.5-79T918 13.5Q888-9 848-9M528 16q34 0 59 20.5T630 90q18 33 29.5 72t16.5 77.5q5 38.5 5 68.5 0 55-18.5 80.5T606 414q-33 0-58.5-20T504 341.5q-18-32.5-29.5-71t-17-77Q452 155 452 125q0-56 20.5-82.5T528 16m321 0q34 0 59 20.5T951 90q18 33 29.5 72t16.5 77.5q5 38.5 5 68.5 0 55-19 80.5T927 414q-33 0-58.5-20T825 341.5q-18-32.5-29.5-71t-17-77Q773 155 773 125q0-56 20.5-82.5T849 16z" horiz-adv-x="1079" vert-adv-y="1000"/><glyph glyph-name="uni2032" unicode="′" d="m68 456 127 258h28L88 456H68z" horiz-adv-x="185" vert-adv-y="1000"/><glyph glyph-name="uni2033" unicode="″" d="m244 456 127 258h28L264 456h-20m-157 0 127 258h28L107 456H87z" horiz-adv-x="361" vert-adv-y="1000"/><glyph glyph-name="uni2039" unicode="‹" d="M125 87 20 272l3 13 184 187 15-15L51 275l92-178-18-10z" horiz-adv-x="210" vert-adv-y="1000"/><glyph glyph-name="uni203A" unicode="›" d="m7 87-15 15 171 182-92 178 18 10 105-185-3-13L7 87z" horiz-adv-x="210" vert-adv-y="1000"/><glyph glyph-name="uni203C" unicode="‼" d="m270 174 114 540h28L294 174h-24M248-8q-23 0-23 22 0 14 7.5 27T255 54q12 0 17-7t5-15q0-14-7.5-27T248-8M51 174l114 540h28L75 174H51M29-8Q6-8 6 14q0 14 7.5 27T36 54q12 0 17-7t5-15q0-14-7.5-27T29-8z" horiz-adv-x="409" vert-adv-y="1000"/><glyph glyph-name="uni2044" unicode="⁄" d="m-218 0 530 714h34L-185 0h-33z" horiz-adv-x="136" vert-adv-y="1000"/><glyph glyph-name="uni207F" unicode="ⁿ" d="m73.8 287 72.8 316.79h14.3l-18.2-83.4h1.3q10.4 18.6 30.55 39.6 20.16 21 48.11 35.4 27.95 14.4 63.05 14.4 42.25 0 65-19.8t22.75-58.2q0-17.4-5.2-39.6L321.46 287h-16.9l47.45 206.99q2.6 10.2 3.58 18.9.97 8.7.97 16.5 0 33.6-19.5 49.5-19.5 15.9-53.95 15.9-36.4 0-68.25-20.4-31.86-20.4-54.93-53.1-23.08-32.7-31.53-69.9L90.7 287H73.8z" horiz-adv-x="359" vert-adv-y="1000"/><glyph glyph-name="uni20A3" unicode="₣" d="m100 0 35 165H36l5 25h99l111 524h309l-5-25H273l-71-335h264l-6-25H196l-29-139h157l-5-25H162L127 0h-27z" horiz-adv-x="551" vert-adv-y="1000"/><glyph glyph-name="uni20A4" unicode="₤" d="m-17 0 5 23Q58 38 96.5 85T156 230H47l5 25h110l31 151H84l6 25h108l18 86q22 107 77.5 156.5T436 723q47 0 83.5-10t60.5-22l-14-24q-27 13-58.5 22t-73.5 9q-79 0-126-45.5T241 512l-17-81h198l-6-25H219l-31-151h196l-5-25H182q-20-94-51-139T57 25h407l-5-25H-17z" horiz-adv-x="551" vert-adv-y="1000"/><glyph glyph-name="uni20A7" unicode="₧" d="m32 0 150 714h65q95 0 143-45.5T438 544q0-113-64.5-175.5T181 306h-60L58 0H32m94 331h60q108 0 166.5 52.5T411 543q0 67-40.5 106.5T242 689h-40l-76-358M524-8q-40 0-61.5 26T441 90q0 27 5.5 57t12.5 64l38 173h-70l5 21 69 4 35 138h20l-29-138h119l-5-25H523l-42-192q-5-24-9-51t-4-49q0-44 17-59.5T525 17q23 0 35.5 4.5T586 32V6q-10-4-25-9t-37-5z" horiz-adv-x="615" vert-adv-y="1000"/><glyph glyph-name="uni20AC" unicode="€" d="M332-10q-76 0-119 32.5t-61 94Q134 178 134 265H45l5 25h85q1 30 5.5 60t11.5 61H76l5 25h77q35 140 118 215t189 75q46 0 77.5-9.5T600 692l-12-22q-25 14-55.5 22.5T464 701q-61 0-116.5-28.5T250 585q-42-59-65-149h257l-5-25H179q-14-60-17-121h221l-5-25H161q0-127 38-188.5T334 15q35 0 65.5 8.5T461 46V19Q436 7 403.5-1.5T332-10z" horiz-adv-x="550" vert-adv-y="1000"/><glyph glyph-name="uni2105" unicode="℅" d="M292 402q-46 0-75 29.5T188 518q0 33 9 67.5t27.5 64q18.5 29.5 48 47.5t70.5 18q22 0 38.5-3.5T411 703l-8-25q-9 4-25.5 8t-35.5 4q-40 0-68.5-24T230 603q-15-39-15-84 0-49 23-70.5t56-21.5q26 0 43 5.5t30 11.5v-26q-13-6-31-11t-44-5M136 0l535 714h31L167 0h-31m383-5q-53 0-78.5 31.5T415 114q0 46 17.5 91t51.5 75q34 30 85 30 43 0 73.5-26.5T673 197q0-31-8.5-66.5t-26.5-66q-18-30.5-47.5-50T519-5m3 25q34 0 58 17t38.5 44q14.5 27 21 57.5T646 197q0 41-20 64.5T566 285q-42 0-69.5-26.5t-41-66Q442 153 442 115q0-50 21-72.5T522 20z" horiz-adv-x="791" vert-adv-y="1000"/><glyph glyph-name="uni2113" unicode="ℓ" d="M279-8q-67 0-95 42.5T156 147v152q-28-11-52-19t-47-13v25q53 13 99 34v256q0 78 32 110t76 32q56 0 82.5-37T373 583q0-89-46.5-158T182 310V157q0-74 25.5-107T281 17q52 0 74 33.5t27 88.5h26q-6-65-34-106T279-8m-97 346q164 82 164 246 0 115-82 115-33 0-57.5-25T182 584V338z" horiz-adv-x="490" vert-adv-y="1000"/><glyph glyph-name="uni2116" unicode="№" d="m44 0 151 714h34L464 42q8 49 15 88.5t15 73.5l108 510h26L477 0h-24L213 683q-9-47-20-101.5T171 475L70 0H44m692 134q-58 0-87 38.5T620 267q0 44 17.5 88.5t52.5 74q35 29.5 87 29.5 63 0 91.5-37.5T897 329q0-28-9-61.5t-28-64q-19-30.5-49.5-50T736 134m1 25q37 0 62.5 17t41 43.5q15.5 26.5 22.5 56t7 54.5q0 47-23 75.5T777 434q-47 0-75.5-26.5t-41.5-65Q647 304 647 269q0-57 24-83.5t66-26.5M606 0l5 25h179l-3-25H606z" horiz-adv-x="924" vert-adv-y="1000"/><glyph glyph-name="uni2122" unicode="™" d="M288 362v352h39l117-313 120 313h36V362h-26v249q0 27 1 60h-2L455 362h-24L315 675h-2q1-31 1-58.5V362h-26m-179 0v327H-2v25h248v-25H135V362h-26z" horiz-adv-x="690" vert-adv-y="1000"/><glyph glyph-name="uni03A9" unicode="Ω" d="m-9 0 5 25h219q-57 41-94 112.5T84 304q0 88 26.5 164.5T186 603q49 58 117.5 90T456 725q76 0 134-30.5t90.5-89.5Q713 546 713 462q0-142-69.5-254.5T440 25h210l-5-25H387l4 23q137 65 216 174.5T686 462q0 115-62.5 176.5T455 700q-78 0-141.5-30.5T205 585q-45-54-69.5-126T111 304q0-97 38.5-166.5T251 23l-4-23H-9z" horiz-adv-x="751" vert-adv-y="1000"/><glyph glyph-name="uni212E" unicode="℮" d="M329-17q-84 0-142 39T99.5 124Q70 187 70 259t23 124q23 52 60.5 86t83.5 50q46 16 92 16 73 0 132-33.5t93-95.5q34-62 34-147H184V85q22-23 61-41.5T329 25q73 0 116 30t77 84l35-20q-23-37-52.5-68T433 1.5Q391-17 329-17M184 301h291v135q-19 20-57 39t-90 19q-50 0-85.5-17T184 437V301z" horiz-adv-x="619" vert-adv-y="1000"/><glyph glyph-name="uni215B" unicode="⅛" d="m46 0 530 714h34L79 0H46m116 286 59 279q6 29 13.5 60t15.5 60q-18-11-35-19.5T173 644l-49-25-11 22 146 73h21l-91-428h-27M500-11q-59 0-88.5 29.5T382 90q0 50 31 82t94 51q-32 19-46 41t-14 56q0 45 32 76.5t90 31.5q54 0 81-27t27-64q0-49-29-75.5T568 218q38-20 57-46t19-65q0-26-13-53.5t-44.5-46Q555-11 500-11m39 243q58 18 84.5 41.5T650 334q0 32-20.5 50.5T566 403q-44 0-68-24.5T474 320q0-33 16.5-52.5T539 232M503 14q54 0 84 26.5t30 67.5q0 31-19 55.5T534 209q-58-17-91.5-43.5T409 94q0-34 22-57t72-23z" horiz-adv-x="696" vert-adv-y="1000"/><glyph glyph-name="uni215C" unicode="⅜" d="M134 281q-33 0-62 7t-51 18v28q26-13 53.5-20.5T134 306q62 0 102 28.5t40 86.5q0 36-27.5 56T169 497h-47l5 25h47q55 0 95.5 26t40.5 77q0 32-19 51t-57 19q-35 0-65-10.5T109 657l-10 22q30 19 64 30t72 11q47 0 75-25t28-67q0-53-30-81t-67-37v-2q28-7 45.5-30.5T304 421q0-74-49-107t-121-33M117 0l530 714h34L150 0h-33m442-12q-59 0-88.5 29.5T441 89q0 50 31 82t94 51q-32 19-46 41t-14 56q0 45 32 76.5t90 31.5q54 0 81-27t27-64q0-49-29-75.5T627 217q38-20 57-46t19-65q0-26-13-53.5t-44.5-46Q614-12 559-12m39 243q58 18 84.5 41.5T709 333q0 32-20.5 50.5T625 402q-44 0-68-24.5T533 319q0-33 16.5-52.5T598 231M562 13q54 0 84 26.5t30 67.5q0 31-19 55.5T593 208q-58-17-91.5-43.5T468 93q0-34 22-57t72-23z" horiz-adv-x="755" vert-adv-y="1000"/><glyph glyph-name="uni215D" unicode="⅝" d="m95 0 530 714h34L128 0H95m39 275q-35 0-61 8t-40 16v31q16-10 43-20t59-10q56 0 96 35.5t40 94.5q0 44-24 66t-68 22q-29 0-49.5-5T95 503l-10 5 58 205h191l-5-25H161l-43-154q13 4 31 6.5t37 2.5q52 0 82-28.5t30-84.5q0-48-23-83t-60.5-53.5Q177 275 134 275M537-13q-59 0-88.5 29.5T419 88q0 50 31 82t94 51q-32 19-46 41t-14 56q0 45 32 76.5t90 31.5q54 0 81-27t27-64q0-49-29-75.5T605 216q38-20 57-46t19-65q0-26-13-53.5t-44.5-46Q592-13 537-13m39 243q58 18 84.5 41.5T687 332q0 32-20.5 50.5T603 401q-44 0-68-24.5T511 318q0-33 16.5-52.5T576 230M540 12q54 0 84 26.5t30 67.5q0 31-19 55.5T571 207q-58-17-91.5-43.5T446 92q0-34 22-57t72-23z" horiz-adv-x="733" vert-adv-y="1000"/><glyph glyph-name="uni215E" unicode="⅞" d="m22 0 530 714h34L55 0H22m440-12q-59 0-88.5 29.5T344 89q0 50 31 82t94 51q-32 19-46 41t-14 56q0 45 32 76.5t90 31.5q54 0 81-27t27-64q0-49-29-75.5T530 217q38-20 57-46t19-65q0-26-13-53.5t-44.5-46Q517-12 462-12m39 243q58 18 84.5 41.5T612 333q0 32-20.5 50.5T528 402q-44 0-68-24.5T436 319q0-33 16.5-52.5T501 231M465 13q54 0 84 26.5t30 67.5q0 31-19 55.5T496 208q-58-17-91.5-43.5T371 93q0-34 22-57t72-23M77 286l239 403H105l6 25h237l-1-20-241-408H77z" horiz-adv-x="658" vert-adv-y="1000"/><glyph glyph-name="uni0394" unicode="Δ" d="m-41 0 5 23 404 693h24L495 21l-2-21H-41m38 30h471l-60 405q-7 46-13.5 92.5t-12.5 87q-6 40.5-9 67.5-28-52-64-115.5T233 435L-3 30z" horiz-adv-x="547" vert-adv-y="1000"/><glyph glyph-name="uni2074" unicode="⁴" d="m229 416 25 117H59l7 28 256 286h26l-62-289h67l-6-25h-66l-25-117h-27M98 558h161l26 120q6 30 14 66t14 60q-11-15-34-41.5T233 710L98 558z" horiz-adv-x="312" vert-adv-y="1000"/><glyph glyph-name="uni2075" unicode="⁵" d="M167 407q-35 0-61 8t-40 16v31q16-10 43-20t59-10q56 0 96 35.5t40 94.5q0 44-24 66t-68 22q-29 0-49.5-5T128 635l-10 5 58 205h191l-5-25H194l-43-154q13 4 31 6.5t37 2.5q52 0 82-28.5t30-84.5q0-48-23-83t-60.5-53.5Q210 407 167 407z" horiz-adv-x="312" vert-adv-y="1000"/><glyph glyph-name="uni2077" unicode="⁷" d="m114 417 239 403H142l6 25h237l-1-20-241-408h-29z" horiz-adv-x="312" vert-adv-y="1000"/><glyph glyph-name="uni2078" unicode="⁸" d="M197 407q-59 0-88.5 29.5T79 508q0 50 31 82t94 51q-32 19-46 41t-14 56q0 45 32 76.5t90 31.5q54 0 81-27t27-64q0-49-29-75.5T265 636q38-20 57-46t19-65q0-26-13-53.5t-44.5-46Q252 407 197 407m39 243q58 18 84.5 41.5T347 752q0 32-20.5 50.5T263 821q-44 0-68-24.5T171 738q0-33 16.5-52.5T236 650m-36-218q54 0 84 26.5t30 67.5q0 31-19 55.5T231 627q-58-17-91.5-43.5T106 512q0-34 22-57t72-23z" horiz-adv-x="312" vert-adv-y="1000"/><glyph glyph-name="uniFFFC" unicode="￼" d="M925 602v94h-95v36h130V602h-35m-286 94v36h115v-36H639m-191 0v36h115v-36H448M50 602v130h130v-36H86v-94H50m207 94v36h114v-36H257m668-285v114h35V411h-35m-875 0v114h36V411H50m244-242q-56 0-87.5 34T175 307q0 70 31.5 104t87.5 34q56 0 87.5-34T413 307q0-70-31.5-104T294 169m434 1q-18 0-30 3v32q5-1 11-1.5t13-.5q27 0 39 13.5t12 37.5v187h43V256q0-40-21.5-63T728 170m-256 3v268h75q55 0 77-15.5t22-48.5q0-24-12-37.5T602 325v-20q30-5 41-19t11-39q0-35-23.5-54.5T564 173h-92m-178 29q75 0 75 105t-75 105q-36 0-55.5-27T219 307q0-51 19.5-78t55.5-27m220 126h41q49 0 49 41 0 40-52 40h-38v-81M50 219v115h36V219H50m875 0v115h35V219h-35m-411-14h45q51 0 51 48 0 24-14 34.5T557 298h-43v-93M925 28v114h35V28h-35M50 28v114h36V28H50m780-206v35h95v95h35v-130H830m-780 0v130h36v-95h94v-35H50m589 0v35h115v-35H639m-191 0v35h115v-35H448m-191 0v35h114v-35H257z" horiz-adv-x="1000" vert-adv-y="1000"/><glyph glyph-name="uniFFFD" unicode="�" d="M499-156 41 302l458 458 459-458-459-458m-71 335h103v23q0 25 10 39.5t43 40.5q43 34 64.5 65t21.5 80q0 67-46 104t-126 37q-42 0-86-14t-78-34l40-87q33 17 64 28t58 11q31 0 46-14t15-37q0-29-13-46t-46-43q-38-30-54-57.5T428 208v-29m56-200q27 0 47.5 15.5T552 45q0 37-20.5 52T484 112q-29 0-49-15t-20-52q0-35 20-50.5T484-21z" horiz-adv-x="1000" vert-adv-y="1000"/><glyph glyph-name="uni01F0" unicode="ǰ" d="M-86-240q-14 0-30 3t-26 7v26q12-6 28-8.5t28-2.5q41 0 62.5 26.5T8-115l136 643h26L33-119q-13-61-41.5-91T-86-240m252 846q-7 20-20 48t-28 55q-15 27-29 48l2 6h18q21-28 40-62.5t33-62.5q26 28 60 62.5t65 62.5h23l-1-6-48-48q-27-27-52-54.5T188 606h-22z" horiz-adv-x="207" vert-adv-y="1000"/><glyph glyph-name="uni02BC" unicode="ʼ" d="M59 469q22 35 44 78.5t39.5 87Q160 678 171 714h20l5-9q-22-61-52.5-122.5T79 469H59z" horiz-adv-x="131" vert-adv-y="1000"/><glyph glyph-name="uni03D1" unicode="ϑ" d="M123-10q-62 0-95.5 34.5T-6 122q0 38 12 75.5T38 276q18 38 27.5 64t9.5 46q0 37-32 37-14 0-25-4t-19-9l4 27q7 5 18 8t25 3q26 0 41-16.5t15-43.5q0-28-11.5-56.5T58 259q-17-37-27-69.5T21 123q0-55 29.5-81.5T124 15q62 0 109.5 36t80.5 97q33 61 53.5 137.5T397 443q-119 0-188.5 47T139 628q0 61 35.5 103T279 773q69 0 110-55.5T430 535q0-15-1-33t-2-34h67v-25h-69q-11-85-33-166t-58-145.5q-36-64.5-88-103T123-10m277 478q3 34 3 69 0 115-34 163t-91 48q-56 0-84-34t-28-84q0-86 63.5-124T400 468z" horiz-adv-x="467" vert-adv-y="1000"/><glyph glyph-name="uni03D2" unicode="ϒ" d="m155 0 56 265L95 714h26l106-418q24 46 52.5 97.5T336 493q28 48 52.5 86.5T428 639q28 40 55.5 60.5T545 720q15 0 25.5-3t16.5-6l-6-23q-17 7-36 7-21 0-42-13.5T450 627q-13-17-37-55t-54-89q-30-51-61.5-107.5T237 265L181 0h-26z" horiz-adv-x="455" vert-adv-y="1000"/><glyph glyph-name="uni03D6" unicode="ϖ" d="M176-10q-54 0-89 40T52 165q0 103 38.5 188T193 504H58l4 21 81 3h560l-5-24H568q11-29 22-80.5T601 301q0-32-4.5-73t-16-83Q569 103 547 68t-57-56.5Q455-10 405-10q-53 0-77 30t-26 66q-14-37-42-66.5T176-10m2 25q41 0 65.5 23t38 58q13.5 35 21.5 71l35 159h27l-32-149q-8-38-8-73 0-42 20.5-65.5T407 15q49 0 81.5 28t51 72q18.5 44 26.5 93.5t8 92.5q0 65-10.5 118T541 504H226q-70-70-108.5-156T79 165q0-77 26.5-113.5T178 15z" horiz-adv-x="668" vert-adv-y="1000"/><glyph glyph-name="uni1E3E" unicode="Ḿ" d="m50 0 151 714h38L357 47h3l399 667h42L650 0h-26l127 602q3 15 7.5 33t10.5 43h-2L360 0h-20L220 679h-2q-4-25-7-42t-8-40L77 0H50m432 792v6q22 20 49 48t51 56q24 28 39 50h30v-7q-26-34-67-77t-81-76h-21z" horiz-adv-x="806" vert-adv-y="1000"/><glyph glyph-name="uni1E3F" unicode="ḿ" d="m32 0 112 528h22l-29-139h2q15 32 42.5 66.5t66 58.5q38.5 24 89.5 24 68 0 95.5-41T456 389h1q16 33 44 67.5t67.5 58Q608 538 658 538q59 0 91.5-33t32.5-97q0-29-8-66L702 0h-26l73 345q4 17 5.5 31.5T756 404q0 56-27.5 82.5T653 513q-38 0-73-20t-63.5-54Q488 405 467 362.5T437 275L379 0h-26l71 330q4 21 6 42.5t2 34.5q0 50-26.5 78T331 513q-37 0-72-20.5T195 438q-29-34-49.5-76.5T116 274L58 0H32m450 606v6q22 20 49 48t51 56q24 28 39 50h30v-7q-26-34-67-77t-81-76h-21z" horiz-adv-x="842" vert-adv-y="1000"/><glyph glyph-name="uni1E00" unicode="Ḁ" d="m-50 0 418 716h24L498 0h-25l-41 271H138L-20 0h-30m202 296h276l-43 298q-6 39-11 88h-2q-11-22-23.5-44.5T324 594L152 296m59-542q-37 0-65 25.5T118-154q0 40 27.5 66T211-62q38 0 65-27t27-65q0-41-27-66.5T211-246m0 23q30 0 49.5 20.5T280-154q0 28-20.5 48.5T211-85q-30 0-50-20.5T141-154q0-28 20-48.5t50-20.5z" horiz-adv-x="547" vert-adv-y="1000"/><glyph glyph-name="uni1E01" unicode="ḁ" d="M197-10q-72 0-109 51.5T51 178q0 61 17 124.5t50.5 117q33.5 53.5 84 86T319 538q47 0 76-20.5t44.5-51Q455 436 460 407h2l27 121h22L399 0h-22l28 139h-2q-17-31-47.5-65.5t-71-59Q244-10 197-10m3 25q46 0 93.5 33t85 89.5Q416 194 430 264q6 31 9 53t3 41q0 74-33 114.5T318 513q-58 0-103-29.5T139.5 405q-30.5-49-46-108.5T78 178q0-75 30-119t92-44m17-261q-37 0-65 25.5T124-154q0 40 27.5 66T217-62q38 0 65-27t27-65q0-41-27-66.5T217-246m0 23q30 0 49.5 20.5T286-154q0 28-20.5 48.5T217-85q-30 0-50-20.5T147-154q0-28 20-48.5t50-20.5z" horiz-adv-x="547" vert-adv-y="1000"/><glyph glyph-name="uni02F3" unicode="˳" d="M77-246q-37 0-65 25.5T-16-154q0 40 27.5 66T77-62q38 0 65-27t27-65q0-41-27-66.5T77-246m0 23q30 0 49.5 20.5T146-154q0 28-20.5 48.5T77-85q-30 0-50-20.5T7-154q0-28 20-48.5T77-223z" horiz-adv-x="333" vert-adv-y="1000"/><glyph glyph-name="uni01A0" unicode="Ơ" d="M334-10q-92 0-147 39t-79 104q-24 65-24 143 0 82 21 162t63.5 145q42.5 65 108 103.5T431 725q74 0 129.5-30.5T645 603q93 22 118 157h23l4-9q-16-71-48.5-112.5T655 580q21-57 21-134 0-47-10-107t-33-121q-23-61-62-112.5T473.5 22Q415-10 334-10m1 25q71 0 123.5 29t89 77q36.5 48 59 105T639 340.5Q649 398 649 445q0 118-53.5 186.5T429 700q-71 0-124-27t-90-72q-37-45-60-100.5T121.5 387Q111 329 111 277q0-77 23-136t72.5-92.5Q256 15 335 15z" horiz-adv-x="713" vert-adv-y="1000"/><glyph glyph-name="uni01A1" unicode="ơ" d="M237-10q-92 0-137 56.5T55 192q0 105 36.5 182.5t99 120.5Q253 538 331 538q62 0 103-30t60-79q44 7 73 41.5T609 577h23l4-9q-16-71-47.5-110.5T502 405q4-16 6-32.5t2-34.5q0-71-18.5-134t-54-111q-35.5-48-86-75.5T237-10m3 25q76 0 130.5 43.5t83.5 117Q483 249 483 339q0 76-38.5 125T329 513q-70 0-126-39.5T114.5 362Q82 290 82 192q0-81 39.5-129T240 15z" horiz-adv-x="562" vert-adv-y="1000"/><glyph glyph-name="uni01AF" unicode="Ư" d="M300-10q-96 0-154 49.5T88 183q0 17 2 34t6 37l98 460h27l-97-458q-8-40-8-71 0-83 50-126.5T301 15q101 0 171 60t96 182l98 457h27l-23-110q43 12 71.5 50.5T783 760h23l4-9q-17-75-52-117t-94-58l-69-324Q566 115 488.5 52.5T300-10z" horiz-adv-x="727" vert-adv-y="1000"/><glyph glyph-name="uni01B0" unicode="ư" d="M190-10q-65 0-100 33t-35 97q0 29 8 66l72 342h26L88 183q-4-17-5.5-31.5T81 124q0-56 30-82.5T194 15q56 0 105 34t84.5 88.5Q419 192 432 254l58 274h26l-21-98q43 7 72 41t42 106h23l4-9q-17-75-51.5-115T489 403L404 0h-22l28 139h-2q-16-31-47-66t-74-59q-43-24-97-24z" horiz-adv-x="628" vert-adv-y="1000"/><glyph glyph-name="uni0400" unicode="Ѐ" d="m50 0 151 714h358l-5-25H223l-64-300h312l-5-25H154L82 25h331l-5-25H50m367 792q-16 18-35 46.5t-36 57Q329 924 320 942v10h28q10-26 25.5-54t31.5-53q16-25 27-41v-12h-15z" horiz-adv-x="535" vert-adv-y="1000"/><glyph glyph-name="uni040D" unicode="Ѝ" d="m50 0 151 714h27L105 135q-5-25-9-40T85 53h2l557 661h25L518 0h-26l120 568q5 26 9.5 45.5T633 659l-2 1L75 0H50m409 792q-16 18-35 46.5t-36 57Q371 924 362 942v10h28q10-26 25.5-54t31.5-53q16-25 27-41v-12h-15z" horiz-adv-x="674" vert-adv-y="1000"/><glyph glyph-name="uni0450" unicode="ѐ" d="M246-10q-47 0-89 20.5T88.5 76Q62 121 62 194q0 72 20.5 134.5t58 109.5q37.5 47 86.5 73.5T333 538q55 0 90-32t35-82q0-49-26-81.5T360.5 291Q315 272 255 264t-128-8H93q-1-11-2.5-28T89 194q0-87 44-133t118-46q43 0 77 11.5T386 48V22q-22-12-60.5-22T246-10M97 281h48q83 0 148 15t101.5 46.5Q431 374 431 423q0 39-26 64.5T329 513q-49 0-96.5-27.5t-84-79.5Q112 354 97 281m256 325q-16 18-35 46.5t-36 57Q265 738 256 756v10h28q10-26 25.5-54t31.5-53q16-25 27-41v-12h-15z" horiz-adv-x="491" vert-adv-y="1000"/><glyph glyph-name="uni045D" unicode="ѝ" d="M190-10q-65 0-100 33t-35 97q0 29 8 66l72 342h26L88 183q-4-17-5.5-31.5T81 124q0-56 30-82.5T194 15q56 0 105 34t84.5 88.5Q419 192 432 254l58 274h26L404 0h-22l28 139h-2q-16-31-47-66t-74-59q-43-24-97-24m166 616q-16 18-35 46.5t-36 57Q268 738 259 756v10h28q10-26 25.5-54t31.5-53q16-25 27-41v-12h-15z" horiz-adv-x="553" vert-adv-y="1000"/><glyph glyph-name="uni0460" unicode="Ѡ" d="M186-10q-37 103-58.5 222T104 458.5Q102 586 123 714h27q-17-97-19-193t7-185.5q9-89.5 25.5-167.5T201 30h2q12 22 30.5 54.5T277 160l205 348q0 34 3 72.5t7 74q4 35.5 8 59.5h27q-22-124-16-247.5t30.5-236Q566 118 602 28h2q68 85 130 196.5T844.5 461Q893 586 923 714h27q-30-134-80.5-264.5T753 201.5Q687 84 609-10h-21q-31 72-53.5 153T499 306q-13 82-15 155L208-10h-22z" horiz-adv-x="884" vert-adv-y="1000"/><glyph glyph-name="uni0461" unicode="ѡ" d="M145 0q-37 70-57.5 157.5t-22 182Q64 434 84 528h26q-20-94-18.5-185.5t19.5-172Q129 90 158 30h2q15 26 35 58.5t36 56.5l121 187q0 57 4.5 106.5T369 528h26q-17-88-16-179t15-174q14-83 35-147h2q58 58 113.5 138.5t99 173Q687 432 709 528h27q-35-146-111.5-283T438 0h-25q-15 37-27.5 88.5t-20.5 106q-8 54.5-10 99.5L168 0h-23z" horiz-adv-x="694" vert-adv-y="1000"/><glyph glyph-name="uni0462" unicode="Ѣ" d="m99 0 115 547H72l5 25h142l30 142h26l-29-142h210l-5-25H241l-33-159h138q88 0 133-45t45-121q0-105-60-163.5T289 0H99m34 26h152q105 0 158.5 49.5T497 220q0 66-37.5 104.5T339 363H203L133 26z" horiz-adv-x="587" vert-adv-y="1000"/><glyph glyph-name="uni0463" unicode="ѣ" d="M238-10q-83 0-123.5 43T74 146q0 29 4.5 59.5T89 263l52 241H30l5 25h111l25 115h26l-25-115h139l-5-25H167l-48-225q23 5 62 10.5t77 5.5q92 0 129-38.5t37-97.5q0-47-20.5-85.5t-62-61Q300-10 238-10m1 26q79 0 118.5 41T397 157q0 49-31.5 81T256 270q-44 0-80.5-7T113 251q-6-29-9-53t-3-49q0-60 32.5-96.5T239 16z" horiz-adv-x="495" vert-adv-y="1000"/><glyph glyph-name="uni0464" unicode="Ѥ" d="M604-10q-110 0-173.5 74T367 268q0 25 1.5 48.5T374 363H154L77 0H50l151 714h27l-69-326h220q21 102 74 177.5t128 117Q656 724 744 724q89 0 159-37l-12-25q-35 21-72.5 29t-74.5 8q-81 0-150.5-38t-119-108Q425 483 405 388h346l-5-25H400q-3-23-5-46t-2-47q0-120 57.5-187.5T605 15q53 0 92 8.5T770 46V21Q736 7 697-1.5T604-10z" horiz-adv-x="839" vert-adv-y="1000"/><glyph glyph-name="uni0465" unicode="ѥ" d="M445-10q-57 0-97 27t-61 73q-21 46-21 104 0 18 1.5 35.5T271 264H114L58 0H32l112 528h26l-51-239h157q14 70 49 126.5t87.5 89.5Q465 538 533 538q34 0 64-6t51-18l-8-25q-22 13-51 18.5t-56 5.5q-59 0-106-29t-79-79.5Q316 354 303 289h275l-5-25H298q-2-16-3.5-33.5T293 196q0-50 17.5-91T362 39.5Q396 15 446 15q36 0 63.5 8T565 45V19Q544 7 515-1.5T445-10z" horiz-adv-x="646" vert-adv-y="1000"/><glyph glyph-name="uni0466" unicode="Ѧ" d="m-50 0 418 716h24L498 0h-25l-54 363h-98L244 0h-26l77 363H191L-22 0h-28m254 388h211l-30 206q1-10 0-2.5t-3 24q-2 16.5-5 34.5t-4 30q-22-40-49-86L204 388z" horiz-adv-x="547" vert-adv-y="1000"/><glyph glyph-name="uni0467" unicode="ѧ" d="m-30 0 318 528h21L403 0h-26l-44 251h-76L204 0h-26l53 251h-81L-1 0h-29m195 276h164q-14 80-23.5 132.5T292 493q-7-13-15-28t-21.5-37.5q-13.5-22.5-35-59T165 276z" horiz-adv-x="465" vert-adv-y="1000"/><glyph glyph-name="uni0468" unicode="Ѩ" d="m50 0 151 714h27l-69-326h244l191 328h24L724 0h-25l-54 363h-98L470 0h-26l77 363H417L204 0h-28l212 363H154L77 0H50m380 388h211l-30 206q-4 26-6.5 47t-4.5 44q-23-46-50-91L430 388z" horiz-adv-x="773" vert-adv-y="1000"/><glyph glyph-name="uni0469" unicode="ѩ" d="m32 0 112 528h26l-53-252h179l152 252h21L563 0h-26l-44 251h-76L364 0h-26l53 251h-81L159 0h-29l151 251H112L58 0H32m293 276h164l-38 215-126-215z" horiz-adv-x="615" vert-adv-y="1000"/><glyph glyph-name="uni046A" unicode="Ѫ" d="M-25 0 94 252q24 50 52 85t69.5 53Q257 408 321 409L170 689l5 25h482l-5-25-268-280q60-4 93-25t47.5-60q14.5-39 18.5-97L558 0h-26l-15 227q-3 51-17 86t-44.5 53Q425 384 370 384h-10L277 0h-26l83 384h-13q-52 0-88-13.5T171.5 328Q146 299 123 252L3 0h-28m375 409 266 280H200l150-280z" horiz-adv-x="629" vert-adv-y="1000"/><glyph glyph-name="uni046B" unicode="ѫ" d="m-42 0 89 172q26 50 56.5 79.5t71.5 43q41 13.5 99 14.5L140 503l4 25h414l-3-25-214-194q81-5 120-42.5T510 151L530 0h-26l-19 146q-10 75-48 106t-124 32L252 0h-26l61 284q-57 0-96-10.5t-66.5-36Q97 212 73 165L-12 0h-30m347 309 212 194H170l135-194z" horiz-adv-x="613" vert-adv-y="1000"/><glyph glyph-name="uni046C" unicode="Ѭ" d="m50 0 151 714h27l-65-305h413L425 689l5 25h482l-5-25-268-280q59-4 92.5-25t48-60q14.5-39 18.5-97L813 0h-26l-15 227q-4 51-17.5 86t-44 53Q680 384 625 384h-10L532 0h-26l83 384h-13q-52 0-88-13.5T426 328q-26-29-48-76L258 0h-28l119 252q25 54 50.5 85t62.5 47H158L77 0H50m555 409 266 280H455l150-280z" horiz-adv-x="877" vert-adv-y="1000"/><glyph glyph-name="uni046D" unicode="ѭ" d="m32 0 112 528h26l-47-219h342L330 503l4 25h414l-3-25-214-194q81-5 120-42.5T700 151L720 0h-26l-19 146q-10 75-48 106t-124 32L442 0h-26l61 284q-57 0-96-10.5t-66.5-36Q287 212 263 165L178 0h-30l92 178q22 42 46 67t56 39H118L58 0H32m463 309 212 194H360l135-194z" horiz-adv-x="780" vert-adv-y="1000"/><glyph glyph-name="uni046E" unicode="Ѯ" d="M353-191q-18 8-44.5 12t-68.5 4q-41 0-81.5-4T69-183q-55 0-83 23.5T-42-96q0 58 43.5 81T147 10q118 2 182 45t64 147q0 78-47.5 117.5T194 359h-82l5 25h83q39 0 80 9t75.5 30q34.5 21 55.5 58t21 92q0 67-38 97t-96 30q-52 0-94.5-15.5T126 643l-14 21q36 28 82 44t106 17q-19 37-39 66t-35 44v8h29q12-13 30-42t35-66q23 45 53.5 75.5T433 841q8 0 14-1.5l10-2.5v-24q-9 3-23 3-19 0-36.5-15T365 764.5Q350 743 338 722q28-6 55.5-21t46-46q18.5-31 18.5-81 0-48-19-90.5t-58-72Q342 382 283 372v-2q33-4 64.5-22.5t52-53Q420 260 420 207q0-118-70-168.5T149-15q-66-1-101.5-9.5t-49-26Q-15-68-15-95q0-26 19.5-44.5T70-158q38 0 84 4t86 4q45 0 70.5-4t42.5-11v-26z" horiz-adv-x="477" vert-adv-y="1000"/><glyph glyph-name="uni046F" unicode="ѯ" d="M303-183q-18 11-45 17t-65 6q-30 0-69.5-3.5T46-167q-50 0-77.5 18.5T-59-91q0 49 43 75.5T132 15q83 3 134.5 37T318 165q0 52-35 78t-100 26h-53l5 25h53q44 0 81.5 11.5t60 38.5q22.5 27 22.5 74 0 43-29 69t-79 26q-41 0-72-8.5T105 479l-10 24q32 15 63 24t71 11q-18 35-39.5 65.5T154 648v8h29q12-13 30-42t35-66q23 45 53.5 75.5T361 654q8 0 14-1t10-3v-24q-9 3-23 3-27 0-52-28.5T266 537q52-6 82.5-37.5T379 418q0-58-34.5-93T258 281v-2q44-11 65.5-41.5T345 165q0-61-28-99t-77.5-56Q190-8 126-10 42-12 5-31t-37-57q0-54 81-54 36 0 75.5 3.5T196-135q40 0 66.5-6.5T303-155v-28z" horiz-adv-x="382" vert-adv-y="1000"/><glyph glyph-name="uni0470" unicode="Ѱ" d="m292 0 47 223h-5q-60 0-110.5 17T143 296q-30 39-30 106 0 35 9 80l49 232h26l-49-234q-9-44-9-77 0-82 53.5-118.5T339 248h5l99 466h27l-99-467h5q124 4 194.5 57.5T667 482l49 232h27l-50-237q-21-99-66-153t-110-77q-65-23-146-25h-5L319 0h-27z" horiz-adv-x="730" vert-adv-y="1000"/><glyph glyph-name="uni0471" unicode="ѱ" d="M208-240 258-5q-93 5-143 52.5T65 182q0 22 2.5 42.5T75 267l55 261h26l-55-258q-5-21-7.5-43T91 184Q91 28 264 20l157 739h26L290 20q79 0 133.5 29.5t89.5 81q35 51.5 54 117T593 385q7 72 7 143h26q0-77-8.5-153.5t-29.5-145q-21-68.5-59.5-121t-98.5-83Q370-5 284-5l-50-235h-26z" horiz-adv-x="677" vert-adv-y="1000"/><glyph glyph-name="uni0472" unicode="Ѳ" d="M334-10q-92 0-147 39t-79 104q-24 65-24 143 0 82 21 162t63.5 145q42.5 65 108 103.5T431 725q111 0 178-68.5T676 446q0-47-10-107t-33-121q-23-61-62-112.5T473.5 22Q415-10 334-10M119 375h525q3 19 4 36.5t1 33.5q0 118-53.5 186.5T429 700q-73 0-127-28t-91-75q-37-47-59.5-104.5T119 375M335 15q74 0 127.5 30t90 79.5Q589 174 610 233t31 117H116q-3-19-4-37.5t-1-35.5q0-77 23-136t72.5-92.5Q256 15 335 15z" horiz-adv-x="716" vert-adv-y="1000"/><glyph glyph-name="uni0473" unicode="ѳ" d="M237-10q-92 0-137 56.5T55 192q0 105 36.5 182.5t99 120.5Q253 538 331 538q59 0 98.5-26t60-71Q510 396 510 338q0-71-18.5-134t-54-111q-35.5-48-86-75.5T237-10M89 278h390q2 15 3 30t1 31q0 76-38.5 125T329 513q-59 0-108.5-28.5t-84-81Q102 351 89 278M240 15q64 0 112.5 31t80 84.5Q464 184 476 253H86q-2-14-3-29.5T82 192q0-81 39.5-129T240 15z" horiz-adv-x="565" vert-adv-y="1000"/><glyph glyph-name="uni0474" unicode="Ѵ" d="m196 0-90 714h25l71-568q4-27 7-56t4-53h2q11 23 24.5 48t32.5 59l247 455q32 59 62.5 90t83.5 31q13 0 23-2t17-3v-25q-7 2-17.5 4t-22.5 2q-27 0-47-11t-39-38q-19-27-46-75L219 0h-23z" horiz-adv-x="518" vert-adv-y="1000"/><glyph glyph-name="uni0475" unicode="ѵ" d="M132 0 50 528h26l59-390q5-32 8-54.5t5-47.5h2q13 24 25 47t30 55l159 275q26 44 45.5 72t40 41q20.5 13 48.5 13 21 0 35-7v-25q-16 7-35 7-20 0-36.5-10.5t-34-35.5Q410 443 385 400L153 0h-21z" horiz-adv-x="416" vert-adv-y="1000"/><glyph glyph-name="uni0476" unicode="Ѷ" d="m196 0-90 714h25l71-568q4-27 7-56t4-53h2q11 23 24.5 48t32.5 59l247 455q32 59 62.5 90t83.5 31q13 0 23-2t17-3v-25q-7 2-17.5 4t-22.5 2q-27 0-47-11t-39-38q-19-27-46-75L219 0h-23m280 792q-31 33-63.5 75.5T358 945v7h30q11-22 30-51t40-56q21-27 39-47v-6h-21m-160 0q-31 33-63.5 75.5T198 945v7h30q11-22 30-51t40-56q21-27 39-47v-6h-21z" horiz-adv-x="518" vert-adv-y="1000"/><glyph glyph-name="uni0477" unicode="ѷ" d="M132 0 50 528h26l59-390q5-32 8-54.5t5-47.5h2q13 24 25 47t30 55l159 275q26 44 45.5 72t40 41q20.5 13 48.5 13 21 0 35-7v-25q-16 7-35 7-20 0-36.5-10.5t-34-35.5Q410 443 385 400L153 0h-21m248 606q-31 33-63.5 75.5T262 759v7h30q11-22 30-51t40-56q21-27 39-47v-6h-21m-160 0q-31 33-63.5 75.5T102 759v7h30q11-22 30-51t40-56q21-27 39-47v-6h-21z" horiz-adv-x="416" vert-adv-y="1000"/><glyph glyph-name="uni0478" unicode="Ѹ" d="M334-10q-92 0-147 39t-79 104q-24 65-24 143 0 82 21 162t63.5 145q42.5 65 108 103.5T431 725q111 0 178-68.5T676 446q0-47-10-107t-33-121q-23-61-62-112.5T473.5 22Q415-10 334-10m1 25q71 0 123.5 29t89 77q36.5 48 59 105T639 340.5Q649 398 649 445q0 118-53.5 186.5T429 700q-71 0-124-27t-90-72q-37-45-60-100.5T121.5 387Q111 329 111 277q0-77 23-136t72.5-92.5Q256 15 335 15m321-258q-36 0-57 10v26q12-5 25.5-8t33.5-3q36 0 65.5 28t63.5 87L851 7l-88 521h26l59-356q7-46 12.5-79t7.5-56h2q11 22 28.5 54.5T941 168l202 360h29L809-115q-34-61-70-94.5T656-243z" horiz-adv-x="1123" vert-adv-y="1000"/><glyph glyph-name="uni0479" unicode="ѹ" d="M237-10q-92 0-137 56.5T55 192q0 105 36.5 182.5t99 120.5Q253 538 331 538q59 0 98.5-26t60-71Q510 396 510 338q0-71-18.5-134t-54-111q-35.5-48-86-75.5T237-10m3 25q76 0 130.5 43.5t83.5 117Q483 249 483 339q0 76-38.5 125T329 513q-70 0-126-39.5T114.5 362Q82 290 82 192q0-81 39.5-129T240 15m260-258q-36 0-57 10v26q12-5 25.5-8t33.5-3q36 0 65.5 28t63.5 87L695 7l-88 521h26l59-356q7-46 12.5-79t7.5-56h2q11 22 28.5 54.5T785 168l202 360h29L653-115q-34-61-70-94.5T500-243z" horiz-adv-x="967" vert-adv-y="1000"/><glyph glyph-name="uni047A" unicode="Ѻ" d="M307-40q-16 0-28 10.5T265-3q-66 15-105.5 55T102 150q-18 58-18 126 0 81 20.5 160t62 144Q208 645 272 684t151 41q10 27 39 27 15 0 27-10t14-25q80-19 126.5-86T676 446q0-46-9.5-104.5t-31.5-119q-22-60.5-60-112T481 26Q425-7 347-10q-4-13-15-21.5T307-40m40 55q68 3 118.5 33t86 78q35.5 48 57 104.5t31 112.5q9.5 56 9.5 102 0 97-36.5 161.5T500 691q-10-25-38-25-15 0-26.5 9.5T421 700q-69-2-120.5-29.5t-88-72.5Q176 553 154 498t-32.5-112.5Q111 328 111 277q0-98 37.5-166.5T269 22q12 24 38 24 14 0 25-9t15-22z" horiz-adv-x="716" vert-adv-y="1000"/><glyph glyph-name="uni047B" unicode="ѻ" d="M232-34q-11 0-20.5 7.5T199-7Q126 5 90.5 58.5T55 192q0 101 34 176.5T181.5 488Q240 532 313 537q3 12 12.5 19.5T346 564q13 0 22.5-9t11.5-23q64-15 97-67.5T510 338q0-90-29-165.5t-84-124Q342 0 265-9q-8-25-33-25m-33 53q8 25 33 25 26 0 33-28 69 8 117.5 53T457 184.5Q483 255 483 339q0 63-26.5 108T377 507q-10-21-31-21-11 0-20 7.5T313 512q-66-4-118.5-44.5t-82.5-111Q82 286 82 192q0-70 29-115.5T199 19z" horiz-adv-x="565" vert-adv-y="1000"/></font>
</defs>
</svg>
