<svg width="79" height="60" viewBox="0 0 79 60" fill="none" xmlns="http://www.w3.org/2000/svg">
<path d="M71.4878 0H6.88855C3.09495 0 0 3.07144 0 6.84367V52.4682C0 56.2276 3.08117 59.3118 6.88855 59.3118H71.4878C75.2719 59.3118 78.3764 56.2507 78.3764 52.4682V6.84367C78.3764 3.08422 75.2952 0 71.4878 0ZM70.5366 4.56245L39.3342 35.5617L7.86197 4.56245H70.5366ZM4.59236 51.5234V7.76666L26.709 29.5508L4.59236 51.5234ZM7.83963 54.7494L29.9702 32.7629L37.7247 40.4008C38.6224 41.285 40.071 41.2821 40.965 40.3938L48.526 32.882L70.5367 54.7494H7.83963ZM73.784 51.5233L51.7732 29.6559L73.784 7.7884V51.5233Z" fill="white"/>
</svg>
