<svg width="175" height="42" viewBox="0 0 175 42" fill="none" xmlns="http://www.w3.org/2000/svg">
<path fill-rule="evenodd" clip-rule="evenodd" d="M20.3875 0.361806L33.1698 0.306283C37.5066 0.288275 41.0391 3.78923 41.0571 8.12453L41.1126 20.9068C41.1321 25.2436 37.6311 28.7761 33.2928 28.7941L22.1837 28.8421L22.2318 39.8852C22.2363 40.7826 21.513 41.5119 20.6156 41.5164L14.367 41.5434C13.4696 41.5479 12.7403 40.8246 12.7358 39.9272L12.6878 28.8976L1.65821 28.9457C0.760837 28.9502 0.0315339 28.2269 0.0270321 27.3295L2.08584e-05 21.0809C-0.00448101 20.185 0.72032 19.4542 1.61769 19.4512L12.6158 19.4032L12.5677 8.24908C12.5482 3.91228 16.0492 0.379813 20.3875 0.361806ZM29.9705 19.2997C30.8663 19.2952 31.5911 18.5659 31.5866 17.6685L31.5596 11.4484C31.5551 10.5525 30.8258 9.82773 29.9284 9.83224L23.7084 9.85925C22.8125 9.86375 22.0877 10.5931 22.0922 11.4904L22.1192 17.7105C22.1237 18.6064 22.853 19.3312 23.7504 19.3267L29.9705 19.2997ZM58.9944 36.3471H64.6329V27.6789L65.1379 27.7631C66.2039 27.9314 67.1997 28.0155 68.1255 28.0155C69.8086 28.0155 71.2533 27.8332 72.4596 27.4685C73.6658 27.1038 74.6477 26.5007 75.4051 25.6591C76.1906 24.7895 76.7656 23.6674 77.1303 22.2928C77.495 20.8902 77.6774 19.179 77.6774 17.1592C77.6774 15.1394 77.509 13.4142 77.1724 11.9835C76.8358 10.5528 76.3308 9.40268 75.6576 8.53305C74.9843 7.63537 74.1287 6.99017 73.0908 6.59743C72.0528 6.17664 70.8185 5.96625 69.3878 5.96625C68.0133 5.96625 66.4143 6.51327 64.5909 7.60732V6.47119H58.9944V36.3471ZM65.1379 11.6469C66.2039 11.2261 67.2558 11.0157 68.2938 11.0157C70.7344 11.0157 71.9546 12.9513 71.9546 16.8226C71.9546 19.1229 71.6461 20.7499 71.0289 21.7037C70.4398 22.6575 69.3317 23.1344 67.7047 23.1344C66.9192 23.1344 65.8953 23.0502 64.6329 22.8819V11.8573L65.1379 11.6469ZM81.8829 27.5106H87.5215V13.4142L88.3631 13.1196C89.1766 12.8672 90.0602 12.6147 91.014 12.3622C91.9959 12.1097 93.0619 11.8713 94.212 11.6469V5.96625C92.1361 6.38704 89.8919 7.29874 87.4794 8.70137V6.47119H81.8829V27.5106ZM106.123 5.96625C109.602 5.96625 112.084 6.93406 113.571 8.86968C115.058 10.7773 115.801 13.4703 115.801 16.9488C115.801 24.3266 112.575 28.0155 106.123 28.0155C99.6712 28.0155 96.4451 24.3266 96.4451 16.9488C96.4451 15.2657 96.6135 13.7508 96.9501 12.4043C97.2867 11.0578 97.8337 9.90763 98.5912 8.95384C99.3486 8.00005 100.344 7.27069 101.579 6.76574C102.813 6.23275 104.328 5.96625 106.123 5.96625ZM106.123 23.2185C107.638 23.2185 108.676 22.7276 109.237 21.7458C109.798 20.7359 110.079 19.1369 110.079 16.9488C110.079 14.7607 109.798 13.1898 109.237 12.236C108.676 11.2541 107.638 10.7632 106.123 10.7632C104.608 10.7632 103.57 11.2541 103.009 12.236C102.448 13.1898 102.168 14.7607 102.168 16.9488C102.168 17.6782 102.196 18.4216 102.252 19.179C102.336 19.9083 102.504 20.5816 102.757 21.1988C103.037 21.7879 103.43 22.2788 103.935 22.6715C104.468 23.0362 105.198 23.2185 106.123 23.2185ZM135.041 11.731L135.125 7.0603L133.736 6.80782C132.306 6.5273 131.015 6.33093 129.865 6.21872C128.743 6.07846 127.775 6.00833 126.962 6.00833C125.784 6.00833 124.69 6.14859 123.68 6.42911C122.698 6.70964 121.842 7.13043 121.113 7.69148C120.412 8.25253 119.85 8.95384 119.43 9.79542C119.037 10.637 118.841 11.6188 118.841 12.7409C118.841 13.863 118.967 14.8028 119.219 15.5602C119.5 16.2896 119.907 16.9067 120.44 17.4117C120.973 17.8886 121.646 18.2813 122.459 18.5899C123.273 18.8704 124.227 19.0948 125.321 19.2631C127.509 19.6559 128.855 19.9645 129.36 20.1889C129.865 20.4413 130.118 20.8341 130.118 21.3671C130.118 21.9001 129.879 22.2928 129.402 22.5453C128.925 22.8258 128 22.9661 126.625 22.9661C125.924 22.9661 124.97 22.91 123.764 22.7978C122.586 22.6855 121.113 22.5172 119.346 22.2928L119.177 27.0056L120.524 27.2581C123.189 27.7631 125.433 28.0155 127.256 28.0155C132.895 28.0155 135.714 25.7433 135.714 21.1988C135.714 20.1608 135.602 19.2772 135.378 18.5478C135.153 17.8184 134.788 17.2013 134.283 16.6963C133.779 16.1914 133.133 15.7846 132.348 15.4761C131.562 15.1394 130.609 14.8729 129.487 14.6766C128.336 14.4802 127.411 14.3119 126.709 14.1716C126.036 14.0033 125.559 13.863 125.279 13.7508C124.718 13.5264 124.437 13.1477 124.437 12.6147C124.437 12.0817 124.647 11.689 125.068 11.4365C125.461 11.184 126.359 11.0578 127.761 11.0578C128.463 11.0578 129.402 11.1139 130.581 11.2261C131.787 11.3383 133.274 11.5066 135.041 11.731ZM145.421 36.3471H139.782V6.47119H145.379V7.60732C147.202 6.51327 148.801 5.96625 150.176 5.96625C151.606 5.96625 152.841 6.17664 153.879 6.59743C154.917 6.99017 155.772 7.63537 156.446 8.53305C157.119 9.40268 157.624 10.5528 157.96 11.9835C158.297 13.4142 158.465 15.1394 158.465 17.1592C158.465 19.179 158.283 20.8902 157.918 22.2928C157.554 23.6674 156.979 24.7895 156.193 25.6591C155.436 26.5007 154.454 27.1038 153.248 27.4685C152.041 27.8332 150.597 28.0155 148.913 28.0155C147.988 28.0155 146.992 27.9314 145.926 27.7631L145.421 27.6789V36.3471ZM149.082 11.0157C148.044 11.0157 146.992 11.2261 145.926 11.6469L145.421 11.8573V22.8819C146.683 23.0502 147.707 23.1344 148.493 23.1344C150.12 23.1344 151.228 22.6575 151.817 21.7037C152.434 20.7499 152.743 19.1229 152.743 16.8226C152.743 12.9513 151.522 11.0157 149.082 11.0157ZM162.671 27.5106H168.309V13.4142L169.151 13.1196C169.965 12.8672 170.848 12.6147 171.802 12.3622C172.784 12.1097 173.85 11.8713 175 11.6469V5.96625C172.924 6.38704 170.68 7.29874 168.267 8.70137V6.47119H162.671V27.5106Z" fill="#2489FF"/>
</svg>
