<svg width="1003" height="245" viewBox="0 0 1003 245" fill="none" xmlns="http://www.w3.org/2000/svg">
<path d="M197.07 0.000410877L121.127 0.330286C95.352 0.437273 74.552 21.4245 74.6679 47.1904L74.9532 113.46L9.61109 113.745C4.27959 113.763 -0.0266227 118.105 0.000123925 123.427L0.160604 160.552C0.187351 165.883 4.52031 170.181 9.85181 170.154L75.3812 169.868L75.6665 235.398C75.6932 240.729 80.0262 245.027 85.3577 245L122.482 244.839C127.814 244.813 132.111 240.48 132.084 235.148L131.799 169.539L197.801 169.253C223.576 169.146 244.376 148.159 244.26 122.393L243.93 46.4505C243.823 20.6934 222.836 -0.106576 197.07 0.000410877ZM187.664 103.153C187.69 108.485 183.384 112.818 178.062 112.845L141.107 113.005C135.775 113.032 131.442 108.726 131.415 103.403L131.255 66.448C131.228 61.1165 135.534 56.7836 140.857 56.7568L177.812 56.5964C183.143 56.5696 187.476 60.8758 187.503 66.1984L187.664 103.153Z" fill="white"/>
<path d="M465.397 104.444C465.397 138.876 441.557 160.889 410.789 160.889C397.14 160.889 385.933 156.609 377.784 147.64V198.789H346V49.6315H376.357V62.2649C384.31 52.6896 396.123 48 410.798 48C441.557 48 465.397 70.0036 465.397 104.444ZM433.203 104.444C433.203 85.4899 421.176 74.078 405.288 74.078C389.392 74.078 377.374 85.4899 377.374 104.444C377.374 123.39 389.392 134.802 405.288 134.802C421.176 134.802 433.203 123.39 433.203 104.444Z" fill="white"/>
<path d="M550.576 48V77.3411C547.928 77.136 545.887 76.931 543.444 76.931C525.916 76.931 514.308 86.5063 514.308 107.494V159.248H482.524V49.6315H512.881V64.1015C520.62 53.5009 533.664 48 550.576 48Z" fill="white"/>
<path d="M556.282 104.444C556.282 71.4301 581.754 48 616.596 48C651.438 48 676.705 71.4301 676.705 104.444C676.705 137.45 651.438 160.889 616.596 160.889C581.754 160.889 556.282 137.45 556.282 104.444ZM644.52 104.444C644.52 85.4899 632.492 74.078 616.605 74.078C600.708 74.078 588.485 85.4899 588.485 104.444C588.485 123.39 600.708 134.802 616.605 134.802C632.492 134.802 644.52 123.39 644.52 104.444Z" fill="white"/>
<path d="M683.24 149.067L693.831 126.243C703.612 132.555 718.483 136.844 731.937 136.844C746.612 136.844 752.112 132.974 752.112 126.858C752.112 108.929 685.888 127.268 685.888 83.4572C685.888 62.675 704.637 48 736.626 48C751.702 48 768.41 51.4681 778.806 57.5753L768.205 80.1941C757.408 74.078 746.612 72.0453 736.626 72.0453C722.361 72.0453 716.245 76.5298 716.245 82.2357C716.245 100.985 782.47 82.8509 782.47 126.047C782.47 146.428 763.515 160.889 730.715 160.889C712.171 160.889 693.421 155.789 683.24 149.067Z" fill="white"/>
<path d="M917.362 104.444C917.362 138.876 893.522 160.889 862.755 160.889C849.105 160.889 837.898 156.609 829.74 147.64V198.789H797.956V49.6315H828.314V62.2649C836.258 52.6896 848.08 48 862.755 48C893.522 48 917.362 70.0036 917.362 104.444ZM885.168 104.444C885.168 85.4899 873.15 74.078 857.254 74.078C841.357 74.078 829.339 85.4899 829.339 104.444C829.339 123.39 841.357 134.802 857.254 134.802C873.15 134.802 885.168 123.39 885.168 104.444Z" fill="white"/>
<path d="M1002.54 48V77.3411C999.894 77.136 997.852 76.931 995.409 76.931C977.881 76.931 966.273 86.5063 966.273 107.494V159.248H934.489V49.6315H964.847V64.1015C972.585 53.5009 985.629 48 1002.54 48Z" fill="white"/>
</svg>
